<svg width="1212" height="1212" viewBox="0 0 1212 1212" fill="none" xmlns="http://www.w3.org/2000/svg">
<circle cx="606" cy="606" r="600" fill="#D9D9D9"/>
<circle cx="606" cy="606" r="603" stroke="#404040" stroke-opacity="0.352941" stroke-width="6"/>
<circle cx="606" cy="706" r="500" fill="#55A49F"/>
<circle cx="606" cy="706" r="503" stroke="#404040" stroke-opacity="0.352941" stroke-width="6"/>
<circle cx="606" cy="806" r="400" fill="#BF85FC"/>
<circle cx="606" cy="806" r="403" stroke="#404040" stroke-opacity="0.352941" stroke-width="6"/>
<circle cx="606" cy="906" r="300" fill="#D97192"/>
<circle cx="606" cy="906" r="303" stroke="#404040" stroke-opacity="0.352941" stroke-width="6"/>
<path d="M571.318 144H562.455L588.091 74.1818H596.818L622.455 144H613.591L592.727 85.2273H592.182L571.318 144ZM574.591 116.727H610.318V124.227H574.591V116.727ZM641.784 74.1818V144H633.33V74.1818H641.784Z" fill="#2B2A2B"/>
<path d="M544.455 274.182H554.545L578.273 332.136H579.091L602.818 274.182H612.909V344H605V290.955H604.318L582.5 344H574.864L553.045 290.955H552.364V344H544.455V274.182ZM629.861 344V274.182H638.315V336.5H670.77V344H629.861Z" fill="#2B2A2B"/>
<path d="M596.818 474.182V544H588.636L550.591 489.182H549.909V544H541.455V474.182H549.636L587.818 529.136H588.5V474.182H596.818ZM669.099 474.182V544H660.918L622.872 489.182H622.19V544H613.736V474.182H621.918L660.099 529.136H660.781V474.182H669.099Z" fill="#2B2A2B"/>
<path d="M574 744H552.455V674.182H574.955C581.727 674.182 587.523 675.58 592.341 678.375C597.159 681.148 600.852 685.136 603.42 690.341C605.989 695.523 607.273 701.727 607.273 708.955C607.273 716.227 605.977 722.489 603.386 727.739C600.795 732.966 597.023 736.989 592.068 739.807C587.114 742.602 581.091 744 574 744ZM560.909 736.5H573.455C579.227 736.5 584.011 735.386 587.807 733.159C591.602 730.932 594.432 727.761 596.295 723.648C598.159 719.534 599.091 714.636 599.091 708.955C599.091 703.318 598.17 698.466 596.33 694.398C594.489 690.307 591.739 687.17 588.08 684.989C584.42 682.784 579.864 681.682 574.409 681.682H560.909V736.5ZM621.455 744V674.182H629.909V736.5H662.364V744H621.455Z" fill="#2B2A2B"/>
</svg>
