<?xml version="1.0" standalone="no"?>
<svg xmlns="http://www.w3.org/2000/svg" width="500" height="500"><defs><clipPath id="clip-path-dot-color"><path d="M 18 162v 16h 16v -8a 8 8, 0, 0, 0, -8 -8" transform="rotate(-90,26,170)"/><rect x="18" y="178" width="16" height="16" transform="rotate(0,26,186)"/><path d="M 18 194v 16h 8a 8 8, 0, 0, 0, 0 -16" transform="rotate(90,26,202)"/><path d="M 18 242v 16h 8a 8 8, 0, 0, 0, 0 -16" transform="rotate(180,26,250)"/><path d="M 18 290v 16h 8a 8 8, 0, 0, 0, 0 -16" transform="rotate(180,26,298)"/><circle cx="26" cy="330" r="8" transform="rotate(0,26,330)"/><path d="M 34 146v 16h 16v -8a 8 8, 0, 0, 0, -8 -8" transform="rotate(-90,42,154)"/><rect x="34" y="162" width="16" height="16" transform="rotate(0,42,170)"/><circle cx="42" cy="218" r="8" transform="rotate(0,42,218)"/><rect x="34" y="242" width="16" height="16" transform="rotate(0,42,250)"/><path d="M 34 274v 16h 8a 8 8, 0, 0, 0, 0 -16" transform="rotate(-90,42,282)"/><path d="M 34 290v 16h 16v -8a 8 8, 0, 0, 0, -8 -8" transform="rotate(90,42,298)"/><path d="M 34 338v 16h 8a 8 8, 0, 0, 0, 0 -16" transform="rotate(180,42,346)"/><path d="M 50 146v 16h 16v -8a 8 8, 0, 0, 0, -8 -8" transform="rotate(0,58,154)"/><rect x="50" y="162" width="16" height="16" transform="rotate(0,58,170)"/><rect x="50" y="178" width="16" height="16" transform="rotate(0,58,186)"/><path d="M 50 194v 16h 16v -8a 8 8, 0, 0, 0, -8 -8" transform="rotate(180,58,202)"/><path d="M 50 226v 16h 16v -8a 8 8, 0, 0, 0, -8 -8" transform="rotate(-90,58,234)"/><rect x="50" y="242" width="16" height="16" transform="rotate(0,58,250)"/><path d="M 50 258v 16h 16v -8a 8 8, 0, 0, 0, -8 -8" transform="rotate(180,58,266)"/><rect x="50" y="338" width="16" height="16" transform="rotate(0,58,346)"/><path d="M 66 194v 16h 16v -8a 8 8, 0, 0, 0, -8 -8" transform="rotate(0,74,202)"/><rect x="66" y="210" width="16" height="16" transform="rotate(0,74,218)"/><rect x="66" y="226" width="16" height="16" transform="rotate(0,74,234)"/><path d="M 66 258v 16h 16v -8a 8 8, 0, 0, 0, -8 -8" transform="rotate(0,74,266)"/><rect x="66" y="274" width="16" height="16" transform="rotate(0,74,282)"/><path d="M 66 290v 16h 16v -8a 8 8, 0, 0, 0, -8 -8" transform="rotate(180,74,298)"/><path d="M 66 322v 16h 16v -8a 8 8, 0, 0, 0, -8 -8" transform="rotate(-90,74,330)"/><path d="M 66 338v 16h 16v -8a 8 8, 0, 0, 0, -8 -8" transform="rotate(90,74,346)"/><rect x="82" y="226" width="16" height="16" transform="rotate(0,90,234)"/><path d="M 82 242v 16h 8a 8 8, 0, 0, 0, 0 -16" transform="rotate(90,90,250)"/><rect x="82" y="274" width="16" height="16" transform="rotate(0,90,282)"/><path d="M 82 290v 16h 16v -8a 8 8, 0, 0, 0, -8 -8" transform="rotate(90,90,298)"/><rect x="82" y="322" width="16" height="16" transform="rotate(0,90,330)"/><circle cx="106" cy="202" r="8" transform="rotate(0,106,202)"/><path d="M 98 226v 16h 8a 8 8, 0, 0, 0, 0 -16" transform="rotate(0,106,234)"/><rect x="98" y="274" width="16" height="16" transform="rotate(0,106,282)"/><path d="M 98 322v 16h 8a 8 8, 0, 0, 0, 0 -16" transform="rotate(0,106,330)"/><circle cx="122" cy="154" r="8" transform="rotate(0,122,154)"/><path d="M 114 178v 16h 8a 8 8, 0, 0, 0, 0 -16" transform="rotate(180,122,186)"/><circle cx="122" cy="218" r="8" transform="rotate(0,122,218)"/><path d="M 114 242v 16h 8a 8 8, 0, 0, 0, 0 -16" transform="rotate(180,122,250)"/><path d="M 114 274v 16h 8a 8 8, 0, 0, 0, 0 -16" transform="rotate(0,122,282)"/><path d="M 114 306v 16h 8a 8 8, 0, 0, 0, 0 -16" transform="rotate(180,122,314)"/><path d="M 114 338v 16h 8a 8 8, 0, 0, 0, 0 -16" transform="rotate(180,122,346)"/><path d="M 130 162v 16h 16v -8a 8 8, 0, 0, 0, -8 -8" transform="rotate(-90,138,170)"/><path d="M 130 178v 16h 16v -8a 8 8, 0, 0, 0, -8 -8" transform="rotate(90,138,186)"/><path d="M 130 226v 16h 8a 8 8, 0, 0, 0, 0 -16" transform="rotate(-90,138,234)"/><rect x="130" y="242" width="16" height="16" transform="rotate(0,138,250)"/><path d="M 130 258v 16h 16v -8a 8 8, 0, 0, 0, -8 -8" transform="rotate(180,138,266)"/><path d="M 130 290v 16h 16v -8a 8 8, 0, 0, 0, -8 -8" transform="rotate(-90,138,298)"/><rect x="130" y="306" width="16" height="16" transform="rotate(0,138,314)"/><rect x="130" y="322" width="16" height="16" transform="rotate(0,138,330)"/><path d="M 130 338v 16h 16v -8a 8 8, 0, 0, 0, -8 -8" transform="rotate(90,138,346)"/><path d="M 146 34v 16h 8a 8 8, 0, 0, 0, 0 -16" transform="rotate(-90,154,42)"/><rect x="146" y="50" width="16" height="16" transform="rotate(0,154,58)"/><path d="M 146 66v 16h 16v -8a 8 8, 0, 0, 0, -8 -8" transform="rotate(180,154,74)"/><path d="M 146 98v 16h 16v -8a 8 8, 0, 0, 0, -8 -8" transform="rotate(-90,154,106)"/><path d="M 146 114v 16h 8a 8 8, 0, 0, 0, 0 -16" transform="rotate(90,154,122)"/><rect x="146" y="162" width="16" height="16" transform="rotate(0,154,170)"/><circle cx="154" cy="202" r="8" transform="rotate(0,154,202)"/><rect x="146" y="242" width="16" height="16" transform="rotate(0,154,250)"/><rect x="146" y="258" width="16" height="16" transform="rotate(0,154,266)"/><rect x="146" y="290" width="16" height="16" transform="rotate(0,154,298)"/><rect x="146" y="322" width="16" height="16" transform="rotate(0,154,330)"/><path d="M 146 434v 16h 16v -8a 8 8, 0, 0, 0, -8 -8" transform="rotate(-90,154,442)"/><path d="M 146 450v 16h 8a 8 8, 0, 0, 0, 0 -16" transform="rotate(90,154,458)"/><path d="M 162 18v 16h 8a 8 8, 0, 0, 0, 0 -16" transform="rotate(180,170,26)"/><path d="M 162 50v 16h 16v -8a 8 8, 0, 0, 0, -8 -8" transform="rotate(0,170,58)"/><rect x="162" y="66" width="16" height="16" transform="rotate(0,170,74)"/><rect x="162" y="82" width="16" height="16" transform="rotate(0,170,90)"/><rect x="162" y="98" width="16" height="16" transform="rotate(0,170,106)"/><path d="M 162 130v 16h 8a 8 8, 0, 0, 0, 0 -16" transform="rotate(180,170,138)"/><path d="M 162 162v 16h 16v -8a 8 8, 0, 0, 0, -8 -8" transform="rotate(0,170,170)"/><path d="M 162 178v 16h 8a 8 8, 0, 0, 0, 0 -16" transform="rotate(90,170,186)"/><path d="M 162 242v 16h 16v -8a 8 8, 0, 0, 0, -8 -8" transform="rotate(0,170,250)"/><path d="M 162 258v 16h 16v -8a 8 8, 0, 0, 0, -8 -8" transform="rotate(90,170,266)"/><rect x="162" y="290" width="16" height="16" transform="rotate(0,170,298)"/><path d="M 162 322v 16h 8a 8 8, 0, 0, 0, 0 -16" transform="rotate(0,170,330)"/><path d="M 162 370v 16h 8a 8 8, 0, 0, 0, 0 -16" transform="rotate(180,170,378)"/><path d="M 162 402v 16h 16v -8a 8 8, 0, 0, 0, -8 -8" transform="rotate(-90,170,410)"/><rect x="162" y="418" width="16" height="16" transform="rotate(0,170,426)"/><path d="M 162 434v 16h 16v -8a 8 8, 0, 0, 0, -8 -8" transform="rotate(90,170,442)"/><circle cx="170" cy="474" r="8" transform="rotate(0,170,474)"/><rect x="178" y="18" width="16" height="16" transform="rotate(0,186,26)"/><path d="M 178 34v 16h 16v -8a 8 8, 0, 0, 0, -8 -8" transform="rotate(180,186,42)"/><rect x="178" y="98" width="16" height="16" transform="rotate(0,186,106)"/><rect x="178" y="114" width="16" height="16" transform="rotate(0,186,122)"/><rect x="178" y="130" width="16" height="16" transform="rotate(0,186,138)"/><path d="M 178 146v 16h 8a 8 8, 0, 0, 0, 0 -16" transform="rotate(90,186,154)"/><path d="M 178 194v 16h 16v -8a 8 8, 0, 0, 0, -8 -8" transform="rotate(-90,186,202)"/><rect x="178" y="210" width="16" height="16" transform="rotate(0,186,218)"/><path d="M 178 226v 16h 8a 8 8, 0, 0, 0, 0 -16" transform="rotate(90,186,234)"/><path d="M 178 274v 16h 16v -8a 8 8, 0, 0, 0, -8 -8" transform="rotate(-90,186,282)"/><path d="M 178 290v 16h 16v -8a 8 8, 0, 0, 0, -8 -8" transform="rotate(90,186,298)"/><path d="M 178 338v 16h 8a 8 8, 0, 0, 0, 0 -16" transform="rotate(180,186,346)"/><path d="M 178 370v 16h 8a 8 8, 0, 0, 0, 0 -16" transform="rotate(0,186,378)"/><rect x="178" y="402" width="16" height="16" transform="rotate(0,186,410)"/><path d="M 178 418v 16h 16v -8a 8 8, 0, 0, 0, -8 -8" transform="rotate(90,186,426)"/><circle cx="186" cy="458" r="8" transform="rotate(0,186,458)"/><path d="M 194 18v 16h 16v -8a 8 8, 0, 0, 0, -8 -8" transform="rotate(0,202,26)"/><rect x="194" y="34" width="16" height="16" transform="rotate(0,202,42)"/><rect x="194" y="50" width="16" height="16" transform="rotate(0,202,58)"/><path d="M 194 66v 16h 8a 8 8, 0, 0, 0, 0 -16" transform="rotate(90,202,74)"/><rect x="194" y="98" width="16" height="16" transform="rotate(0,202,106)"/><path d="M 194 162v 16h 8a 8 8, 0, 0, 0, 0 -16" transform="rotate(180,202,170)"/><rect x="194" y="194" width="16" height="16" transform="rotate(0,202,202)"/><rect x="194" y="210" width="16" height="16" transform="rotate(0,202,218)"/><path d="M 194 258v 16h 8a 8 8, 0, 0, 0, 0 -16" transform="rotate(-90,202,266)"/><rect x="194" y="274" width="16" height="16" transform="rotate(0,202,282)"/><circle cx="202" cy="314" r="8" transform="rotate(0,202,314)"/><rect x="194" y="338" width="16" height="16" transform="rotate(0,202,346)"/><path d="M 194 386v 16h 16v -8a 8 8, 0, 0, 0, -8 -8" transform="rotate(-90,202,394)"/><path d="M 194 402v 16h 16v -8a 8 8, 0, 0, 0, -8 -8" transform="rotate(90,202,410)"/><path d="M 194 466v 16h 8a 8 8, 0, 0, 0, 0 -16" transform="rotate(180,202,474)"/><rect x="210" y="50" width="16" height="16" transform="rotate(0,218,58)"/><path d="M 210 98v 16h 16v -8a 8 8, 0, 0, 0, -8 -8" transform="rotate(0,218,106)"/><path d="M 210 114v 16h 8a 8 8, 0, 0, 0, 0 -16" transform="rotate(90,218,122)"/><rect x="210" y="162" width="16" height="16" transform="rotate(0,218,170)"/><rect x="210" y="178" width="16" height="16" transform="rotate(0,218,186)"/><rect x="210" y="194" width="16" height="16" transform="rotate(0,218,202)"/><rect x="210" y="210" width="16" height="16" transform="rotate(0,218,218)"/><circle cx="218" cy="250" r="8" transform="rotate(0,218,250)"/><rect x="210" y="274" width="16" height="16" transform="rotate(0,218,282)"/><path d="M 210 290v 16h 16v -8a 8 8, 0, 0, 0, -8 -8" transform="rotate(180,218,298)"/><path d="M 210 338v 16h 16v -8a 8 8, 0, 0, 0, -8 -8" transform="rotate(0,218,346)"/><path d="M 210 354v 16h 8a 8 8, 0, 0, 0, 0 -16" transform="rotate(90,218,362)"/><rect x="210" y="386" width="16" height="16" transform="rotate(0,218,394)"/><path d="M 210 434v 16h 16v -8a 8 8, 0, 0, 0, -8 -8" transform="rotate(-90,218,442)"/><rect x="210" y="450" width="16" height="16" transform="rotate(0,218,458)"/><rect x="210" y="466" width="16" height="16" transform="rotate(0,218,474)"/><path d="M 226 34v 16h 8a 8 8, 0, 0, 0, 0 -16" transform="rotate(-90,234,42)"/><path d="M 226 50v 16h 16v -8a 8 8, 0, 0, 0, -8 -8" transform="rotate(90,234,58)"/><path d="M 226 130v 16h 16v -8a 8 8, 0, 0, 0, -8 -8" transform="rotate(-90,234,138)"/><rect x="226" y="146" width="16" height="16" transform="rotate(0,234,154)"/><rect x="226" y="162" width="16" height="16" transform="rotate(0,234,170)"/><rect x="226" y="178" width="16" height="16" transform="rotate(0,234,186)"/><rect x="226" y="194" width="16" height="16" transform="rotate(0,234,202)"/><rect x="226" y="210" width="16" height="16" transform="rotate(0,234,218)"/><path d="M 226 258v 16h 8a 8 8, 0, 0, 0, 0 -16" transform="rotate(-90,234,266)"/><rect x="226" y="274" width="16" height="16" transform="rotate(0,234,282)"/><rect x="226" y="290" width="16" height="16" transform="rotate(0,234,298)"/><rect x="226" y="306" width="16" height="16" transform="rotate(0,234,314)"/><path d="M 226 322v 16h 16v -8a 8 8, 0, 0, 0, -8 -8" transform="rotate(180,234,330)"/><path d="M 226 370v 16h 16v -8a 8 8, 0, 0, 0, -8 -8" transform="rotate(-90,234,378)"/><rect x="226" y="386" width="16" height="16" transform="rotate(0,234,394)"/><path d="M 226 418v 16h 16v -8a 8 8, 0, 0, 0, -8 -8" transform="rotate(-90,234,426)"/><path d="M 226 434v 16h 16v -8a 8 8, 0, 0, 0, -8 -8" transform="rotate(90,234,442)"/><rect x="226" y="466" width="16" height="16" transform="rotate(0,234,474)"/><path d="M 242 18v 16h 8a 8 8, 0, 0, 0, 0 -16" transform="rotate(180,250,26)"/><path d="M 242 66v 16h 16v -8a 8 8, 0, 0, 0, -8 -8" transform="rotate(-90,250,74)"/><path d="M 242 82v 16h 16v -8a 8 8, 0, 0, 0, -8 -8" transform="rotate(180,250,90)"/><path d="M 242 114v 16h 8a 8 8, 0, 0, 0, 0 -16" transform="rotate(-90,250,122)"/><rect x="242" y="130" width="16" height="16" transform="rotate(0,250,138)"/><path d="M 242 162v 16h 8a 8 8, 0, 0, 0, 0 -16" transform="rotate(0,250,170)"/><path d="M 242 210v 16h 16v -8a 8 8, 0, 0, 0, -8 -8" transform="rotate(0,250,218)"/><rect x="242" y="226" width="16" height="16" transform="rotate(0,250,234)"/><path d="M 242 242v 16h 8a 8 8, 0, 0, 0, 0 -16" transform="rotate(90,250,250)"/><path d="M 242 290v 16h 8a 8 8, 0, 0, 0, 0 -16" transform="rotate(0,250,298)"/><path d="M 242 322v 16h 16v -8a 8 8, 0, 0, 0, -8 -8" transform="rotate(0,250,330)"/><path d="M 242 338v 16h 8a 8 8, 0, 0, 0, 0 -16" transform="rotate(90,250,346)"/><rect x="242" y="370" width="16" height="16" transform="rotate(0,250,378)"/><rect x="242" y="386" width="16" height="16" transform="rotate(0,250,394)"/><rect x="242" y="402" width="16" height="16" transform="rotate(0,250,410)"/><rect x="242" y="418" width="16" height="16" transform="rotate(0,250,426)"/><rect x="242" y="466" width="16" height="16" transform="rotate(0,250,474)"/><path d="M 258 18v 16h 16v -8a 8 8, 0, 0, 0, -8 -8" transform="rotate(0,266,26)"/><path d="M 258 34v 16h 16v -8a 8 8, 0, 0, 0, -8 -8" transform="rotate(180,266,42)"/><rect x="258" y="66" width="16" height="16" transform="rotate(0,266,74)"/><rect x="258" y="82" width="16" height="16" transform="rotate(0,266,90)"/><path d="M 258 98v 16h 8a 8 8, 0, 0, 0, 0 -16" transform="rotate(90,266,106)"/><path d="M 258 130v 16h 16v -8a 8 8, 0, 0, 0, -8 -8" transform="rotate(0,266,138)"/><path d="M 258 146v 16h 8a 8 8, 0, 0, 0, 0 -16" transform="rotate(90,266,154)"/><circle cx="266" cy="186" r="8" transform="rotate(0,266,186)"/><rect x="258" y="226" width="16" height="16" transform="rotate(0,266,234)"/><path d="M 258 258v 16h 16v -8a 8 8, 0, 0, 0, -8 -8" transform="rotate(-90,266,266)"/><path d="M 258 274v 16h 8a 8 8, 0, 0, 0, 0 -16" transform="rotate(90,266,282)"/><circle cx="266" cy="314" r="8" transform="rotate(0,266,314)"/><path d="M 258 354v 16h 8a 8 8, 0, 0, 0, 0 -16" transform="rotate(-90,266,362)"/><path d="M 258 370v 16h 16v -8a 8 8, 0, 0, 0, -8 -8" transform="rotate(90,266,378)"/><rect x="258" y="402" width="16" height="16" transform="rotate(0,266,410)"/><rect x="258" y="418" width="16" height="16" transform="rotate(0,266,426)"/><path d="M 258 466v 16h 8a 8 8, 0, 0, 0, 0 -16" transform="rotate(0,266,474)"/><path d="M 274 34v 16h 16v -8a 8 8, 0, 0, 0, -8 -8" transform="rotate(0,282,42)"/><rect x="274" y="50" width="16" height="16" transform="rotate(0,282,58)"/><rect x="274" y="66" width="16" height="16" transform="rotate(0,282,74)"/><path d="M 274 82v 16h 16v -8a 8 8, 0, 0, 0, -8 -8" transform="rotate(90,282,90)"/><circle cx="282" cy="122" r="8" transform="rotate(0,282,122)"/><circle cx="282" cy="202" r="8" transform="rotate(0,282,202)"/><rect x="274" y="226" width="16" height="16" transform="rotate(0,282,234)"/><path d="M 274 258v 16h 8a 8 8, 0, 0, 0, 0 -16" transform="rotate(0,282,266)"/><path d="M 274 386v 16h 8a 8 8, 0, 0, 0, 0 -16" transform="rotate(-90,282,394)"/><rect x="274" y="402" width="16" height="16" transform="rotate(0,282,410)"/><rect x="274" y="418" width="16" height="16" transform="rotate(0,282,426)"/><circle cx="282" cy="458" r="8" transform="rotate(0,282,458)"/><path d="M 290 50v 16h 8a 8 8, 0, 0, 0, 0 -16" transform="rotate(0,298,58)"/><path d="M 290 98v 16h 8a 8 8, 0, 0, 0, 0 -16" transform="rotate(180,298,106)"/><path d="M 290 130v 16h 8a 8 8, 0, 0, 0, 0 -16" transform="rotate(-90,298,138)"/><path d="M 290 146v 16h 16v -8a 8 8, 0, 0, 0, -8 -8" transform="rotate(180,298,154)"/><path d="M 290 210v 16h 8a 8 8, 0, 0, 0, 0 -16" transform="rotate(-90,298,218)"/><rect x="290" y="226" width="16" height="16" transform="rotate(0,298,234)"/><path d="M 290 242v 16h 16v -8a 8 8, 0, 0, 0, -8 -8" transform="rotate(180,298,250)"/><path d="M 290 274v 16h 8a 8 8, 0, 0, 0, 0 -16" transform="rotate(180,298,282)"/><circle cx="298" cy="314" r="8" transform="rotate(0,298,314)"/><circle cx="298" cy="362" r="8" transform="rotate(0,298,362)"/><rect x="290" y="418" width="16" height="16" transform="rotate(0,298,426)"/><circle cx="314" cy="26" r="8" transform="rotate(0,314,26)"/><path d="M 306 66v 16h 8a 8 8, 0, 0, 0, 0 -16" transform="rotate(180,314,74)"/><rect x="306" y="98" width="16" height="16" transform="rotate(0,314,106)"/><path d="M 306 114v 16h 8a 8 8, 0, 0, 0, 0 -16" transform="rotate(90,314,122)"/><path d="M 306 146v 16h 8a 8 8, 0, 0, 0, 0 -16" transform="rotate(0,314,154)"/><path d="M 306 226v 16h 16v -8a 8 8, 0, 0, 0, -8 -8" transform="rotate(0,314,234)"/><rect x="306" y="242" width="16" height="16" transform="rotate(0,314,250)"/><rect x="306" y="258" width="16" height="16" transform="rotate(0,314,266)"/><rect x="306" y="274" width="16" height="16" transform="rotate(0,314,282)"/><path d="M 306 290v 16h 16v -8a 8 8, 0, 0, 0, -8 -8" transform="rotate(180,314,298)"/><path d="M 306 370v 16h 16v -8a 8 8, 0, 0, 0, -8 -8" transform="rotate(-90,314,378)"/><path d="M 306 386v 16h 16v -8a 8 8, 0, 0, 0, -8 -8" transform="rotate(180,314,394)"/><rect x="306" y="418" width="16" height="16" transform="rotate(0,314,426)"/><path d="M 322 50v 16h 8a 8 8, 0, 0, 0, 0 -16" transform="rotate(-90,330,58)"/><path d="M 322 66v 16h 16v -8a 8 8, 0, 0, 0, -8 -8" transform="rotate(90,330,74)"/><path d="M 322 98v 16h 8a 8 8, 0, 0, 0, 0 -16" transform="rotate(0,330,106)"/><path d="M 322 194v 16h 16v -8a 8 8, 0, 0, 0, -8 -8" transform="rotate(-90,330,202)"/><path d="M 322 210v 16h 16v -8a 8 8, 0, 0, 0, -8 -8" transform="rotate(180,330,218)"/><path d="M 322 274v 16h 16v -8a 8 8, 0, 0, 0, -8 -8" transform="rotate(0,330,282)"/><rect x="322" y="290" width="16" height="16" transform="rotate(0,330,298)"/><path d="M 322 338v 16h 16v -8a 8 8, 0, 0, 0, -8 -8" transform="rotate(-90,330,346)"/><rect x="322" y="354" width="16" height="16" transform="rotate(0,330,362)"/><rect x="322" y="370" width="16" height="16" transform="rotate(0,330,378)"/><rect x="322" y="386" width="16" height="16" transform="rotate(0,330,394)"/><rect x="322" y="418" width="16" height="16" transform="rotate(0,330,426)"/><path d="M 322 434v 16h 16v -8a 8 8, 0, 0, 0, -8 -8" transform="rotate(180,330,442)"/><circle cx="346" cy="42" r="8" transform="rotate(0,346,42)"/><path d="M 338 114v 16h 8a 8 8, 0, 0, 0, 0 -16" transform="rotate(-90,346,122)"/><rect x="338" y="130" width="16" height="16" transform="rotate(0,346,138)"/><rect x="338" y="146" width="16" height="16" transform="rotate(0,346,154)"/><rect x="338" y="162" width="16" height="16" transform="rotate(0,346,170)"/><rect x="338" y="178" width="16" height="16" transform="rotate(0,346,186)"/><rect x="338" y="194" width="16" height="16" transform="rotate(0,346,202)"/><rect x="338" y="210" width="16" height="16" transform="rotate(0,346,218)"/><path d="M 338 226v 16h 8a 8 8, 0, 0, 0, 0 -16" transform="rotate(90,346,234)"/><path d="M 338 290v 16h 8a 8 8, 0, 0, 0, 0 -16" transform="rotate(0,346,298)"/><path d="M 338 322v 16h 8a 8 8, 0, 0, 0, 0 -16" transform="rotate(-90,346,330)"/><rect x="338" y="338" width="16" height="16" transform="rotate(0,346,346)"/><rect x="338" y="354" width="16" height="16" transform="rotate(0,346,362)"/><rect x="338" y="370" width="16" height="16" transform="rotate(0,346,378)"/><rect x="338" y="386" width="16" height="16" transform="rotate(0,346,394)"/><rect x="338" y="402" width="16" height="16" transform="rotate(0,346,410)"/><rect x="338" y="418" width="16" height="16" transform="rotate(0,346,426)"/><path d="M 338 434v 16h 16v -8a 8 8, 0, 0, 0, -8 -8" transform="rotate(90,346,442)"/><path d="M 338 466v 16h 8a 8 8, 0, 0, 0, 0 -16" transform="rotate(180,346,474)"/><path d="M 354 146v 16h 16v -8a 8 8, 0, 0, 0, -8 -8" transform="rotate(0,362,154)"/><rect x="354" y="162" width="16" height="16" transform="rotate(0,362,170)"/><path d="M 354 178v 16h 16v -8a 8 8, 0, 0, 0, -8 -8" transform="rotate(90,362,186)"/><path d="M 354 210v 16h 8a 8 8, 0, 0, 0, 0 -16" transform="rotate(0,362,218)"/><circle cx="362" cy="250" r="8" transform="rotate(0,362,250)"/><path d="M 354 274v 16h 8a 8 8, 0, 0, 0, 0 -16" transform="rotate(180,362,282)"/><path d="M 354 306v 16h 8a 8 8, 0, 0, 0, 0 -16" transform="rotate(180,362,314)"/><rect x="354" y="338" width="16" height="16" transform="rotate(0,362,346)"/><rect x="354" y="402" width="16" height="16" transform="rotate(0,362,410)"/><path d="M 354 418v 16h 16v -8a 8 8, 0, 0, 0, -8 -8" transform="rotate(90,362,426)"/><path d="M 354 450v 16h 16v -8a 8 8, 0, 0, 0, -8 -8" transform="rotate(-90,362,458)"/><path d="M 354 466v 16h 16v -8a 8 8, 0, 0, 0, -8 -8" transform="rotate(90,362,474)"/><path d="M 370 162v 16h 8a 8 8, 0, 0, 0, 0 -16" transform="rotate(0,378,170)"/><path d="M 370 226v 16h 8a 8 8, 0, 0, 0, 0 -16" transform="rotate(180,378,234)"/><path d="M 370 274v 16h 8a 8 8, 0, 0, 0, 0 -16" transform="rotate(0,378,282)"/><path d="M 370 306v 16h 16v -8a 8 8, 0, 0, 0, -8 -8" transform="rotate(0,378,314)"/><rect x="370" y="322" width="16" height="16" transform="rotate(0,378,330)"/><rect x="370" y="338" width="16" height="16" transform="rotate(0,378,346)"/><circle cx="378" cy="378" r="8" transform="rotate(0,378,378)"/><rect x="370" y="402" width="16" height="16" transform="rotate(0,378,410)"/><path d="M 370 434v 16h 8a 8 8, 0, 0, 0, 0 -16" transform="rotate(-90,378,442)"/><path d="M 370 450v 16h 16v -8a 8 8, 0, 0, 0, -8 -8" transform="rotate(90,378,458)"/><circle cx="394" cy="154" r="8" transform="rotate(0,394,154)"/><path d="M 386 210v 16h 16v -8a 8 8, 0, 0, 0, -8 -8" transform="rotate(-90,394,218)"/><path d="M 386 226v 16h 16v -8a 8 8, 0, 0, 0, -8 -8" transform="rotate(90,394,234)"/><circle cx="394" cy="266" r="8" transform="rotate(0,394,266)"/><rect x="386" y="338" width="16" height="16" transform="rotate(0,394,346)"/><rect x="386" y="402" width="16" height="16" transform="rotate(0,394,410)"/><path d="M 402 162v 16h 16v -8a 8 8, 0, 0, 0, -8 -8" transform="rotate(-90,410,170)"/><rect x="402" y="178" width="16" height="16" transform="rotate(0,410,186)"/><rect x="402" y="194" width="16" height="16" transform="rotate(0,410,202)"/><rect x="402" y="210" width="16" height="16" transform="rotate(0,410,218)"/><path d="M 402 242v 16h 8a 8 8, 0, 0, 0, 0 -16" transform="rotate(180,410,250)"/><path d="M 402 274v 16h 8a 8 8, 0, 0, 0, 0 -16" transform="rotate(-90,410,282)"/><rect x="402" y="290" width="16" height="16" transform="rotate(0,410,298)"/><path d="M 402 306v 16h 16v -8a 8 8, 0, 0, 0, -8 -8" transform="rotate(180,410,314)"/><path d="M 402 338v 16h 16v -8a 8 8, 0, 0, 0, -8 -8" transform="rotate(0,410,346)"/><rect x="402" y="354" width="16" height="16" transform="rotate(0,410,362)"/><rect x="402" y="370" width="16" height="16" transform="rotate(0,410,378)"/><rect x="402" y="386" width="16" height="16" transform="rotate(0,410,394)"/><rect x="402" y="402" width="16" height="16" transform="rotate(0,410,410)"/><rect x="402" y="418" width="16" height="16" transform="rotate(0,410,426)"/><rect x="402" y="434" width="16" height="16" transform="rotate(0,410,442)"/><path d="M 402 450v 16h 8a 8 8, 0, 0, 0, 0 -16" transform="rotate(90,410,458)"/><path d="M 418 146v 16h 16v -8a 8 8, 0, 0, 0, -8 -8" transform="rotate(-90,426,154)"/><path d="M 418 162v 16h 16v -8a 8 8, 0, 0, 0, -8 -8" transform="rotate(90,426,170)"/><rect x="418" y="210" width="16" height="16" transform="rotate(0,426,218)"/><rect x="418" y="226" width="16" height="16" transform="rotate(0,426,234)"/><rect x="418" y="242" width="16" height="16" transform="rotate(0,426,250)"/><path d="M 418 258v 16h 8a 8 8, 0, 0, 0, 0 -16" transform="rotate(90,426,266)"/><rect x="418" y="306" width="16" height="16" transform="rotate(0,426,314)"/><path d="M 418 322v 16h 8a 8 8, 0, 0, 0, 0 -16" transform="rotate(90,426,330)"/><path d="M 418 402v 16h 8a 8 8, 0, 0, 0, 0 -16" transform="rotate(0,426,410)"/><rect x="418" y="434" width="16" height="16" transform="rotate(0,426,442)"/><path d="M 418 466v 16h 8a 8 8, 0, 0, 0, 0 -16" transform="rotate(180,426,474)"/><rect x="434" y="146" width="16" height="16" transform="rotate(0,442,154)"/><rect x="434" y="210" width="16" height="16" transform="rotate(0,442,218)"/><rect x="434" y="226" width="16" height="16" transform="rotate(0,442,234)"/><path d="M 434 242v 16h 16v -8a 8 8, 0, 0, 0, -8 -8" transform="rotate(90,442,250)"/><path d="M 434 274v 16h 16v -8a 8 8, 0, 0, 0, -8 -8" transform="rotate(-90,442,282)"/><rect x="434" y="290" width="16" height="16" transform="rotate(0,442,298)"/><rect x="434" y="306" width="16" height="16" transform="rotate(0,442,314)"/><path d="M 434 338v 16h 8a 8 8, 0, 0, 0, 0 -16" transform="rotate(180,442,346)"/><circle cx="442" cy="394" r="8" transform="rotate(0,442,394)"/><path d="M 434 418v 16h 16v -8a 8 8, 0, 0, 0, -8 -8" transform="rotate(-90,442,426)"/><path d="M 434 434v 16h 16v -8a 8 8, 0, 0, 0, -8 -8" transform="rotate(90,442,442)"/><path d="M 434 466v 16h 8a 8 8, 0, 0, 0, 0 -16" transform="rotate(0,442,474)"/><path d="M 450 146v 16h 8a 8 8, 0, 0, 0, 0 -16" transform="rotate(0,458,154)"/><circle cx="458" cy="186" r="8" transform="rotate(0,458,186)"/><path d="M 450 210v 16h 8a 8 8, 0, 0, 0, 0 -16" transform="rotate(0,458,218)"/><path d="M 450 274v 16h 8a 8 8, 0, 0, 0, 0 -16" transform="rotate(0,458,282)"/><rect x="450" y="306" width="16" height="16" transform="rotate(0,458,314)"/><rect x="450" y="322" width="16" height="16" transform="rotate(0,458,330)"/><rect x="450" y="338" width="16" height="16" transform="rotate(0,458,346)"/><path d="M 450 402v 16h 8a 8 8, 0, 0, 0, 0 -16" transform="rotate(-90,458,410)"/><rect x="450" y="418" width="16" height="16" transform="rotate(0,458,426)"/><path d="M 450 450v 16h 8a 8 8, 0, 0, 0, 0 -16" transform="rotate(180,458,458)"/><circle cx="474" cy="170" r="8" transform="rotate(0,474,170)"/><circle cx="474" cy="202" r="8" transform="rotate(0,474,202)"/><circle cx="474" cy="250" r="8" transform="rotate(0,474,250)"/><path d="M 466 306v 16h 8a 8 8, 0, 0, 0, 0 -16" transform="rotate(0,474,314)"/><path d="M 466 338v 16h 16v -8a 8 8, 0, 0, 0, -8 -8" transform="rotate(0,474,346)"/><path d="M 466 354v 16h 8a 8 8, 0, 0, 0, 0 -16" transform="rotate(90,474,362)"/><circle cx="474" cy="394" r="8" transform="rotate(0,474,394)"/><path d="M 466 418v 16h 8a 8 8, 0, 0, 0, 0 -16" transform="rotate(0,474,426)"/><path d="M 466 450v 16h 8a 8 8, 0, 0, 0, 0 -16" transform="rotate(0,474,458)"/><path clip-rule="evenodd" d="M 18 58v 32a 40 40, 0, 0, 0, 40 40h 32a 40 40, 0, 0, 0, 40 -40v -32a 40 40, 0, 0, 0, -40 -40h -32a 40 40, 0, 0, 0, -40 40M 58 34h 32a 24 24, 0, 0, 1, 24 24v 32a 24 24, 0, 0, 1, -24 24h -32a 24 24, 0, 0, 1, -24 -24v -32a 24 24, 0, 0, 1, 24 -24" transform="rotate(0,74,74)"/><circle cx="74" cy="74" r="24" transform="rotate(0,74,74)"/><path clip-rule="evenodd" d="M 370 58v 32a 40 40, 0, 0, 0, 40 40h 32a 40 40, 0, 0, 0, 40 -40v -32a 40 40, 0, 0, 0, -40 -40h -32a 40 40, 0, 0, 0, -40 40M 410 34h 32a 24 24, 0, 0, 1, 24 24v 32a 24 24, 0, 0, 1, -24 24h -32a 24 24, 0, 0, 1, -24 -24v -32a 24 24, 0, 0, 1, 24 -24" transform="rotate(90,426,74)"/><circle cx="426" cy="74" r="24" transform="rotate(90,426,74)"/><path clip-rule="evenodd" d="M 18 410v 32a 40 40, 0, 0, 0, 40 40h 32a 40 40, 0, 0, 0, 40 -40v -32a 40 40, 0, 0, 0, -40 -40h -32a 40 40, 0, 0, 0, -40 40M 58 386h 32a 24 24, 0, 0, 1, 24 24v 32a 24 24, 0, 0, 1, -24 24h -32a 24 24, 0, 0, 1, -24 -24v -32a 24 24, 0, 0, 1, 24 -24" transform="rotate(-90,74,426)"/><circle cx="74" cy="426" r="24" transform="rotate(-90,74,426)"/></clipPath></defs><rect x="0" y="0" height="500" width="500" clip-path="url('#clip-path-background-color')" fill="#ffffff00"/><rect x="0" y="0" height="500" width="500" clip-path="url('#clip-path-dot-color')" fill="#000000"/></svg>