<?xml version="1.0" standalone="no"?>
<svg xmlns="http://www.w3.org/2000/svg" width="500" height="500"><defs><clipPath id="clip-path-dot-color"><path d="M 19 131v 14h 7a 7 7, 0, 0, 0, 0 -14" transform="rotate(-90,26,138)"/><path d="M 19 145v 14h 14v -7a 7 7, 0, 0, 0, -7 -7" transform="rotate(180,26,152)"/><circle cx="26" cy="222" r="7" transform="rotate(0,26,222)"/><path d="M 19 243v 14h 7a 7 7, 0, 0, 0, 0 -14" transform="rotate(-90,26,250)"/><rect x="19" y="257" width="14" height="14" transform="rotate(0,26,264)"/><rect x="19" y="271" width="14" height="14" transform="rotate(0,26,278)"/><path d="M 19 285v 14h 7a 7 7, 0, 0, 0, 0 -14" transform="rotate(90,26,292)"/><path d="M 19 313v 14h 7a 7 7, 0, 0, 0, 0 -14" transform="rotate(180,26,320)"/><path d="M 19 341v 14h 7a 7 7, 0, 0, 0, 0 -14" transform="rotate(-90,26,348)"/><path d="M 19 355v 14h 7a 7 7, 0, 0, 0, 0 -14" transform="rotate(90,26,362)"/><path d="M 33 145v 14h 14v -7a 7 7, 0, 0, 0, -7 -7" transform="rotate(0,40,152)"/><path d="M 33 159v 14h 14v -7a 7 7, 0, 0, 0, -7 -7" transform="rotate(180,40,166)"/><circle cx="40" cy="208" r="7" transform="rotate(0,40,208)"/><rect x="33" y="257" width="14" height="14" transform="rotate(0,40,264)"/><rect x="33" y="313" width="14" height="14" transform="rotate(0,40,320)"/><path d="M 47 159v 14h 7a 7 7, 0, 0, 0, 0 -14" transform="rotate(0,54,166)"/><path d="M 47 187v 14h 7a 7 7, 0, 0, 0, 0 -14" transform="rotate(180,54,194)"/><path d="M 47 229v 14h 14v -7a 7 7, 0, 0, 0, -7 -7" transform="rotate(-90,54,236)"/><rect x="47" y="243" width="14" height="14" transform="rotate(0,54,250)"/><rect x="47" y="257" width="14" height="14" transform="rotate(0,54,264)"/><path d="M 47 271v 14h 7a 7 7, 0, 0, 0, 0 -14" transform="rotate(90,54,278)"/><path d="M 47 299v 14h 14v -7a 7 7, 0, 0, 0, -7 -7" transform="rotate(-90,54,306)"/><rect x="47" y="313" width="14" height="14" transform="rotate(0,54,320)"/><path d="M 47 327v 14h 7a 7 7, 0, 0, 0, 0 -14" transform="rotate(90,54,334)"/><path d="M 47 355v 14h 7a 7 7, 0, 0, 0, 0 -14" transform="rotate(180,54,362)"/><path d="M 61 173v 14h 7a 7 7, 0, 0, 0, 0 -14" transform="rotate(-90,68,180)"/><path d="M 61 187v 14h 14v -7a 7 7, 0, 0, 0, -7 -7" transform="rotate(90,68,194)"/><path d="M 61 229v 14h 14v -7a 7 7, 0, 0, 0, -7 -7" transform="rotate(0,68,236)"/><path d="M 61 243v 14h 14v -7a 7 7, 0, 0, 0, -7 -7" transform="rotate(90,68,250)"/><path d="M 61 299v 14h 7a 7 7, 0, 0, 0, 0 -14" transform="rotate(0,68,306)"/><path d="M 61 355v 14h 7a 7 7, 0, 0, 0, 0 -14" transform="rotate(0,68,362)"/><path d="M 75 131v 14h 7a 7 7, 0, 0, 0, 0 -14" transform="rotate(180,82,138)"/><path d="M 75 215v 14h 7a 7 7, 0, 0, 0, 0 -14" transform="rotate(180,82,222)"/><path d="M 75 257v 14h 14v -7a 7 7, 0, 0, 0, -7 -7" transform="rotate(-90,82,264)"/><path d="M 75 271v 14h 7a 7 7, 0, 0, 0, 0 -14" transform="rotate(90,82,278)"/><circle cx="82" cy="348" r="7" transform="rotate(0,82,348)"/><rect x="89" y="131" width="14" height="14" transform="rotate(0,96,138)"/><path d="M 89 145v 14h 7a 7 7, 0, 0, 0, 0 -14" transform="rotate(90,96,152)"/><path d="M 89 187v 14h 7a 7 7, 0, 0, 0, 0 -14" transform="rotate(180,96,194)"/><rect x="89" y="215" width="14" height="14" transform="rotate(0,96,222)"/><path d="M 89 243v 14h 14v -7a 7 7, 0, 0, 0, -7 -7" transform="rotate(-90,96,250)"/><path d="M 89 257v 14h 14v -7a 7 7, 0, 0, 0, -7 -7" transform="rotate(90,96,264)"/><path d="M 89 299v 14h 14v -7a 7 7, 0, 0, 0, -7 -7" transform="rotate(-90,96,306)"/><rect x="89" y="313" width="14" height="14" transform="rotate(0,96,320)"/><path d="M 89 327v 14h 14v -7a 7 7, 0, 0, 0, -7 -7" transform="rotate(180,96,334)"/><path d="M 89 355v 14h 7a 7 7, 0, 0, 0, 0 -14" transform="rotate(180,96,362)"/><path d="M 103 131v 14h 7a 7 7, 0, 0, 0, 0 -14" transform="rotate(0,110,138)"/><path d="M 103 159v 14h 7a 7 7, 0, 0, 0, 0 -14" transform="rotate(180,110,166)"/><path d="M 103 187v 14h 7a 7 7, 0, 0, 0, 0 -14" transform="rotate(0,110,194)"/><rect x="103" y="215" width="14" height="14" transform="rotate(0,110,222)"/><rect x="103" y="243" width="14" height="14" transform="rotate(0,110,250)"/><path d="M 103 271v 14h 7a 7 7, 0, 0, 0, 0 -14" transform="rotate(180,110,278)"/><path d="M 103 299v 14h 7a 7 7, 0, 0, 0, 0 -14" transform="rotate(0,110,306)"/><rect x="103" y="327" width="14" height="14" transform="rotate(0,110,334)"/><rect x="103" y="355" width="14" height="14" transform="rotate(0,110,362)"/><path d="M 117 145v 14h 14v -7a 7 7, 0, 0, 0, -7 -7" transform="rotate(-90,124,152)"/><path d="M 117 159v 14h 14v -7a 7 7, 0, 0, 0, -7 -7" transform="rotate(90,124,166)"/><path d="M 117 215v 14h 7a 7 7, 0, 0, 0, 0 -14" transform="rotate(0,124,222)"/><path d="M 117 243v 14h 7a 7 7, 0, 0, 0, 0 -14" transform="rotate(0,124,250)"/><path d="M 117 271v 14h 7a 7 7, 0, 0, 0, 0 -14" transform="rotate(0,124,278)"/><path d="M 117 313v 14h 7a 7 7, 0, 0, 0, 0 -14" transform="rotate(-90,124,320)"/><rect x="117" y="327" width="14" height="14" transform="rotate(0,124,334)"/><rect x="117" y="341" width="14" height="14" transform="rotate(0,124,348)"/><rect x="117" y="355" width="14" height="14" transform="rotate(0,124,362)"/><path d="M 131 33v 14h 7a 7 7, 0, 0, 0, 0 -14" transform="rotate(-90,138,40)"/><rect x="131" y="47" width="14" height="14" transform="rotate(0,138,54)"/><rect x="131" y="61" width="14" height="14" transform="rotate(0,138,68)"/><rect x="131" y="75" width="14" height="14" transform="rotate(0,138,82)"/><rect x="131" y="89" width="14" height="14" transform="rotate(0,138,96)"/><rect x="131" y="103" width="14" height="14" transform="rotate(0,138,110)"/><path d="M 131 117v 14h 7a 7 7, 0, 0, 0, 0 -14" transform="rotate(90,138,124)"/><path d="M 131 145v 14h 7a 7 7, 0, 0, 0, 0 -14" transform="rotate(0,138,152)"/><path d="M 131 187v 14h 14v -7a 7 7, 0, 0, 0, -7 -7" transform="rotate(-90,138,194)"/><path d="M 131 201v 14h 7a 7 7, 0, 0, 0, 0 -14" transform="rotate(90,138,208)"/><circle cx="138" cy="264" r="7" transform="rotate(0,138,264)"/><path d="M 131 299v 14h 7a 7 7, 0, 0, 0, 0 -14" transform="rotate(180,138,306)"/><rect x="131" y="327" width="14" height="14" transform="rotate(0,138,334)"/><path d="M 131 355v 14h 7a 7 7, 0, 0, 0, 0 -14" transform="rotate(0,138,362)"/><path d="M 131 397v 14h 14v -7a 7 7, 0, 0, 0, -7 -7" transform="rotate(-90,138,404)"/><path d="M 131 411v 14h 7a 7 7, 0, 0, 0, 0 -14" transform="rotate(90,138,418)"/><path d="M 131 467v 14h 7a 7 7, 0, 0, 0, 0 -14" transform="rotate(180,138,474)"/><circle cx="152" cy="26" r="7" transform="rotate(0,152,26)"/><path d="M 145 47v 14h 14v -7a 7 7, 0, 0, 0, -7 -7" transform="rotate(0,152,54)"/><path d="M 145 61v 14h 14v -7a 7 7, 0, 0, 0, -7 -7" transform="rotate(90,152,68)"/><path d="M 145 159v 14h 14v -7a 7 7, 0, 0, 0, -7 -7" transform="rotate(-90,152,166)"/><rect x="145" y="173" width="14" height="14" transform="rotate(0,152,180)"/><path d="M 145 187v 14h 14v -7a 7 7, 0, 0, 0, -7 -7" transform="rotate(90,152,194)"/><path d="M 145 215v 14h 7a 7 7, 0, 0, 0, 0 -14" transform="rotate(-90,152,222)"/><rect x="145" y="229" width="14" height="14" transform="rotate(0,152,236)"/><path d="M 145 243v 14h 7a 7 7, 0, 0, 0, 0 -14" transform="rotate(90,152,250)"/><path d="M 145 271v 14h 14v -7a 7 7, 0, 0, 0, -7 -7" transform="rotate(-90,152,278)"/><rect x="145" y="285" width="14" height="14" transform="rotate(0,152,292)"/><rect x="145" y="299" width="14" height="14" transform="rotate(0,152,306)"/><rect x="145" y="327" width="14" height="14" transform="rotate(0,152,334)"/><path d="M 145 341v 14h 7a 7 7, 0, 0, 0, 0 -14" transform="rotate(90,152,348)"/><path d="M 145 383v 14h 14v -7a 7 7, 0, 0, 0, -7 -7" transform="rotate(-90,152,390)"/><path d="M 145 397v 14h 14v -7a 7 7, 0, 0, 0, -7 -7" transform="rotate(90,152,404)"/><path d="M 145 425v 14h 7a 7 7, 0, 0, 0, 0 -14" transform="rotate(-90,152,432)"/><path d="M 145 439v 14h 14v -7a 7 7, 0, 0, 0, -7 -7" transform="rotate(180,152,446)"/><path d="M 145 467v 14h 7a 7 7, 0, 0, 0, 0 -14" transform="rotate(0,152,474)"/><path d="M 159 75v 14h 14v -7a 7 7, 0, 0, 0, -7 -7" transform="rotate(-90,166,82)"/><rect x="159" y="89" width="14" height="14" transform="rotate(0,166,96)"/><rect x="159" y="103" width="14" height="14" transform="rotate(0,166,110)"/><rect x="159" y="117" width="14" height="14" transform="rotate(0,166,124)"/><rect x="159" y="131" width="14" height="14" transform="rotate(0,166,138)"/><rect x="159" y="145" width="14" height="14" transform="rotate(0,166,152)"/><rect x="159" y="159" width="14" height="14" transform="rotate(0,166,166)"/><circle cx="166" cy="208" r="7" transform="rotate(0,166,208)"/><rect x="159" y="229" width="14" height="14" transform="rotate(0,166,236)"/><path d="M 159 271v 14h 7a 7 7, 0, 0, 0, 0 -14" transform="rotate(0,166,278)"/><path d="M 159 299v 14h 7a 7 7, 0, 0, 0, 0 -14" transform="rotate(0,166,306)"/><rect x="159" y="327" width="14" height="14" transform="rotate(0,166,334)"/><path d="M 159 355v 14h 14v -7a 7 7, 0, 0, 0, -7 -7" transform="rotate(-90,166,362)"/><rect x="159" y="369" width="14" height="14" transform="rotate(0,166,376)"/><rect x="159" y="383" width="14" height="14" transform="rotate(0,166,390)"/><path d="M 159 411v 14h 7a 7 7, 0, 0, 0, 0 -14" transform="rotate(180,166,418)"/><rect x="159" y="439" width="14" height="14" transform="rotate(0,166,446)"/><path d="M 159 453v 14h 7a 7 7, 0, 0, 0, 0 -14" transform="rotate(90,166,460)"/><path d="M 173 61v 14h 14v -7a 7 7, 0, 0, 0, -7 -7" transform="rotate(-90,180,68)"/><rect x="173" y="75" width="14" height="14" transform="rotate(0,180,82)"/><rect x="173" y="89" width="14" height="14" transform="rotate(0,180,96)"/><path d="M 173 117v 14h 14v -7a 7 7, 0, 0, 0, -7 -7" transform="rotate(0,180,124)"/><rect x="173" y="131" width="14" height="14" transform="rotate(0,180,138)"/><rect x="173" y="145" width="14" height="14" transform="rotate(0,180,152)"/><rect x="173" y="159" width="14" height="14" transform="rotate(0,180,166)"/><rect x="173" y="173" width="14" height="14" transform="rotate(0,180,180)"/><path d="M 173 187v 14h 7a 7 7, 0, 0, 0, 0 -14" transform="rotate(90,180,194)"/><path d="M 173 229v 14h 14v -7a 7 7, 0, 0, 0, -7 -7" transform="rotate(0,180,236)"/><path d="M 173 243v 14h 14v -7a 7 7, 0, 0, 0, -7 -7" transform="rotate(180,180,250)"/><circle cx="180" cy="292" r="7" transform="rotate(0,180,292)"/><path d="M 173 313v 14h 14v -7a 7 7, 0, 0, 0, -7 -7" transform="rotate(-90,180,320)"/><rect x="173" y="327" width="14" height="14" transform="rotate(0,180,334)"/><rect x="173" y="341" width="14" height="14" transform="rotate(0,180,348)"/><rect x="173" y="355" width="14" height="14" transform="rotate(0,180,362)"/><rect x="173" y="369" width="14" height="14" transform="rotate(0,180,376)"/><path d="M 173 383v 14h 14v -7a 7 7, 0, 0, 0, -7 -7" transform="rotate(90,180,390)"/><rect x="173" y="411" width="14" height="14" transform="rotate(0,180,418)"/><rect x="173" y="425" width="14" height="14" transform="rotate(0,180,432)"/><path d="M 173 439v 14h 14v -7a 7 7, 0, 0, 0, -7 -7" transform="rotate(90,180,446)"/><path d="M 187 33v 14h 14v -7a 7 7, 0, 0, 0, -7 -7" transform="rotate(-90,194,40)"/><rect x="187" y="47" width="14" height="14" transform="rotate(0,194,54)"/><rect x="187" y="61" width="14" height="14" transform="rotate(0,194,68)"/><rect x="187" y="75" width="14" height="14" transform="rotate(0,194,82)"/><rect x="187" y="89" width="14" height="14" transform="rotate(0,194,96)"/><path d="M 187 103v 14h 7a 7 7, 0, 0, 0, 0 -14" transform="rotate(90,194,110)"/><rect x="187" y="145" width="14" height="14" transform="rotate(0,194,152)"/><circle cx="194" cy="222" r="7" transform="rotate(0,194,222)"/><path d="M 187 243v 14h 7a 7 7, 0, 0, 0, 0 -14" transform="rotate(0,194,250)"/><circle cx="194" cy="278" r="7" transform="rotate(0,194,278)"/><rect x="187" y="313" width="14" height="14" transform="rotate(0,194,320)"/><path d="M 187 397v 14h 7a 7 7, 0, 0, 0, 0 -14" transform="rotate(-90,194,404)"/><rect x="187" y="411" width="14" height="14" transform="rotate(0,194,418)"/><path d="M 187 425v 14h 14v -7a 7 7, 0, 0, 0, -7 -7" transform="rotate(90,194,432)"/><path d="M 187 453v 14h 7a 7 7, 0, 0, 0, 0 -14" transform="rotate(180,194,460)"/><path d="M 201 33v 14h 14v -7a 7 7, 0, 0, 0, -7 -7" transform="rotate(0,208,40)"/><rect x="201" y="47" width="14" height="14" transform="rotate(0,208,54)"/><rect x="201" y="61" width="14" height="14" transform="rotate(0,208,68)"/><path d="M 201 89v 14h 7a 7 7, 0, 0, 0, 0 -14" transform="rotate(0,208,96)"/><path d="M 201 117v 14h 7a 7 7, 0, 0, 0, 0 -14" transform="rotate(-90,208,124)"/><rect x="201" y="131" width="14" height="14" transform="rotate(0,208,138)"/><path d="M 201 145v 14h 14v -7a 7 7, 0, 0, 0, -7 -7" transform="rotate(90,208,152)"/><path d="M 201 187v 14h 14v -7a 7 7, 0, 0, 0, -7 -7" transform="rotate(-90,208,194)"/><path d="M 201 201v 14h 14v -7a 7 7, 0, 0, 0, -7 -7" transform="rotate(180,208,208)"/><path d="M 201 299v 14h 7a 7 7, 0, 0, 0, 0 -14" transform="rotate(-90,208,306)"/><rect x="201" y="313" width="14" height="14" transform="rotate(0,208,320)"/><circle cx="208" cy="348" r="7" transform="rotate(0,208,348)"/><path d="M 201 383v 14h 7a 7 7, 0, 0, 0, 0 -14" transform="rotate(180,208,390)"/><rect x="201" y="453" width="14" height="14" transform="rotate(0,208,460)"/><path d="M 201 467v 14h 7a 7 7, 0, 0, 0, 0 -14" transform="rotate(90,208,474)"/><path d="M 215 19v 14h 7a 7 7, 0, 0, 0, 0 -14" transform="rotate(180,222,26)"/><rect x="215" y="47" width="14" height="14" transform="rotate(0,222,54)"/><rect x="215" y="61" width="14" height="14" transform="rotate(0,222,68)"/><path d="M 215 75v 14h 7a 7 7, 0, 0, 0, 0 -14" transform="rotate(90,222,82)"/><circle cx="222" cy="110" r="7" transform="rotate(0,222,110)"/><path d="M 215 187v 14h 14v -7a 7 7, 0, 0, 0, -7 -7" transform="rotate(0,222,194)"/><rect x="215" y="201" width="14" height="14" transform="rotate(0,222,208)"/><path d="M 215 257v 14h 14v -7a 7 7, 0, 0, 0, -7 -7" transform="rotate(-90,222,264)"/><rect x="215" y="271" width="14" height="14" transform="rotate(0,222,278)"/><path d="M 215 285v 14h 14v -7a 7 7, 0, 0, 0, -7 -7" transform="rotate(180,222,292)"/><rect x="215" y="313" width="14" height="14" transform="rotate(0,222,320)"/><path d="M 215 369v 14h 14v -7a 7 7, 0, 0, 0, -7 -7" transform="rotate(-90,222,376)"/><rect x="215" y="383" width="14" height="14" transform="rotate(0,222,390)"/><path d="M 215 439v 14h 14v -7a 7 7, 0, 0, 0, -7 -7" transform="rotate(-90,222,446)"/><path d="M 215 453v 14h 14v -7a 7 7, 0, 0, 0, -7 -7" transform="rotate(90,222,460)"/><rect x="229" y="19" width="14" height="14" transform="rotate(0,236,26)"/><rect x="229" y="33" width="14" height="14" transform="rotate(0,236,40)"/><rect x="229" y="47" width="14" height="14" transform="rotate(0,236,54)"/><rect x="229" y="61" width="14" height="14" transform="rotate(0,236,68)"/><path d="M 229 117v 14h 14v -7a 7 7, 0, 0, 0, -7 -7" transform="rotate(-90,236,124)"/><rect x="229" y="131" width="14" height="14" transform="rotate(0,236,138)"/><rect x="229" y="145" width="14" height="14" transform="rotate(0,236,152)"/><rect x="229" y="159" width="14" height="14" transform="rotate(0,236,166)"/><path d="M 229 173v 14h 7a 7 7, 0, 0, 0, 0 -14" transform="rotate(90,236,180)"/><path d="M 229 201v 14h 14v -7a 7 7, 0, 0, 0, -7 -7" transform="rotate(0,236,208)"/><rect x="229" y="215" width="14" height="14" transform="rotate(0,236,222)"/><rect x="229" y="229" width="14" height="14" transform="rotate(0,236,236)"/><rect x="229" y="243" width="14" height="14" transform="rotate(0,236,250)"/><rect x="229" y="257" width="14" height="14" transform="rotate(0,236,264)"/><rect x="229" y="271" width="14" height="14" transform="rotate(0,236,278)"/><rect x="229" y="285" width="14" height="14" transform="rotate(0,236,292)"/><rect x="229" y="299" width="14" height="14" transform="rotate(0,236,306)"/><path d="M 229 313v 14h 14v -7a 7 7, 0, 0, 0, -7 -7" transform="rotate(90,236,320)"/><path d="M 229 355v 14h 7a 7 7, 0, 0, 0, 0 -14" transform="rotate(-90,236,362)"/><rect x="229" y="369" width="14" height="14" transform="rotate(0,236,376)"/><rect x="229" y="383" width="14" height="14" transform="rotate(0,236,390)"/><rect x="229" y="397" width="14" height="14" transform="rotate(0,236,404)"/><rect x="229" y="411" width="14" height="14" transform="rotate(0,236,418)"/><rect x="229" y="425" width="14" height="14" transform="rotate(0,236,432)"/><path d="M 229 439v 14h 14v -7a 7 7, 0, 0, 0, -7 -7" transform="rotate(90,236,446)"/><path d="M 243 19v 14h 7a 7 7, 0, 0, 0, 0 -14" transform="rotate(0,250,26)"/><path d="M 243 61v 14h 14v -7a 7 7, 0, 0, 0, -7 -7" transform="rotate(0,250,68)"/><rect x="243" y="75" width="14" height="14" transform="rotate(0,250,82)"/><rect x="243" y="89" width="14" height="14" transform="rotate(0,250,96)"/><rect x="243" y="103" width="14" height="14" transform="rotate(0,250,110)"/><rect x="243" y="117" width="14" height="14" transform="rotate(0,250,124)"/><path d="M 243 131v 14h 14v -7a 7 7, 0, 0, 0, -7 -7" transform="rotate(90,250,138)"/><path d="M 243 159v 14h 7a 7 7, 0, 0, 0, 0 -14" transform="rotate(0,250,166)"/><path d="M 243 229v 14h 7a 7 7, 0, 0, 0, 0 -14" transform="rotate(0,250,236)"/><rect x="243" y="285" width="14" height="14" transform="rotate(0,250,292)"/><path d="M 243 327v 14h 14v -7a 7 7, 0, 0, 0, -7 -7" transform="rotate(-90,250,334)"/><path d="M 243 341v 14h 14v -7a 7 7, 0, 0, 0, -7 -7" transform="rotate(180,250,348)"/><path d="M 243 369v 14h 7a 7 7, 0, 0, 0, 0 -14" transform="rotate(0,250,376)"/><rect x="243" y="397" width="14" height="14" transform="rotate(0,250,404)"/><rect x="243" y="411" width="14" height="14" transform="rotate(0,250,418)"/><rect x="243" y="425" width="14" height="14" transform="rotate(0,250,432)"/><path d="M 243 467v 14h 7a 7 7, 0, 0, 0, 0 -14" transform="rotate(180,250,474)"/><path d="M 257 47v 14h 7a 7 7, 0, 0, 0, 0 -14" transform="rotate(180,264,54)"/><rect x="257" y="75" width="14" height="14" transform="rotate(0,264,82)"/><path d="M 257 89v 14h 14v -7a 7 7, 0, 0, 0, -7 -7" transform="rotate(90,264,96)"/><rect x="257" y="117" width="14" height="14" transform="rotate(0,264,124)"/><circle cx="264" cy="152" r="7" transform="rotate(0,264,152)"/><path d="M 257 173v 14h 7a 7 7, 0, 0, 0, 0 -14" transform="rotate(180,264,180)"/><path d="M 257 201v 14h 7a 7 7, 0, 0, 0, 0 -14" transform="rotate(180,264,208)"/><path d="M 257 243v 14h 14v -7a 7 7, 0, 0, 0, -7 -7" transform="rotate(-90,264,250)"/><rect x="257" y="257" width="14" height="14" transform="rotate(0,264,264)"/><rect x="257" y="271" width="14" height="14" transform="rotate(0,264,278)"/><rect x="257" y="285" width="14" height="14" transform="rotate(0,264,292)"/><path d="M 257 299v 14h 14v -7a 7 7, 0, 0, 0, -7 -7" transform="rotate(180,264,306)"/><rect x="257" y="327" width="14" height="14" transform="rotate(0,264,334)"/><path d="M 257 341v 14h 14v -7a 7 7, 0, 0, 0, -7 -7" transform="rotate(90,264,348)"/><path d="M 257 383v 14h 14v -7a 7 7, 0, 0, 0, -7 -7" transform="rotate(-90,264,390)"/><rect x="257" y="397" width="14" height="14" transform="rotate(0,264,404)"/><path d="M 257 425v 14h 14v -7a 7 7, 0, 0, 0, -7 -7" transform="rotate(0,264,432)"/><rect x="257" y="439" width="14" height="14" transform="rotate(0,264,446)"/><rect x="257" y="453" width="14" height="14" transform="rotate(0,264,460)"/><path d="M 257 467v 14h 14v -7a 7 7, 0, 0, 0, -7 -7" transform="rotate(90,264,474)"/><path d="M 271 19v 14h 7a 7 7, 0, 0, 0, 0 -14" transform="rotate(180,278,26)"/><path d="M 271 47v 14h 7a 7 7, 0, 0, 0, 0 -14" transform="rotate(0,278,54)"/><rect x="271" y="75" width="14" height="14" transform="rotate(0,278,82)"/><path d="M 271 103v 14h 7a 7 7, 0, 0, 0, 0 -14" transform="rotate(-90,278,110)"/><rect x="271" y="117" width="14" height="14" transform="rotate(0,278,124)"/><path d="M 271 131v 14h 14v -7a 7 7, 0, 0, 0, -7 -7" transform="rotate(180,278,138)"/><path d="M 271 159v 14h 14v -7a 7 7, 0, 0, 0, -7 -7" transform="rotate(-90,278,166)"/><rect x="271" y="173" width="14" height="14" transform="rotate(0,278,180)"/><rect x="271" y="187" width="14" height="14" transform="rotate(0,278,194)"/><rect x="271" y="201" width="14" height="14" transform="rotate(0,278,208)"/><path d="M 271 215v 14h 14v -7a 7 7, 0, 0, 0, -7 -7" transform="rotate(180,278,222)"/><path d="M 271 243v 14h 14v -7a 7 7, 0, 0, 0, -7 -7" transform="rotate(0,278,250)"/><rect x="271" y="257" width="14" height="14" transform="rotate(0,278,264)"/><path d="M 271 271v 14h 14v -7a 7 7, 0, 0, 0, -7 -7" transform="rotate(90,278,278)"/><rect x="271" y="299" width="14" height="14" transform="rotate(0,278,306)"/><path d="M 271 327v 14h 7a 7 7, 0, 0, 0, 0 -14" transform="rotate(0,278,334)"/><path d="M 271 369v 14h 14v -7a 7 7, 0, 0, 0, -7 -7" transform="rotate(-90,278,376)"/><rect x="271" y="383" width="14" height="14" transform="rotate(0,278,390)"/><rect x="271" y="397" width="14" height="14" transform="rotate(0,278,404)"/><path d="M 271 411v 14h 14v -7a 7 7, 0, 0, 0, -7 -7" transform="rotate(180,278,418)"/><rect x="271" y="439" width="14" height="14" transform="rotate(0,278,446)"/><rect x="271" y="453" width="14" height="14" transform="rotate(0,278,460)"/><path d="M 285 19v 14h 7a 7 7, 0, 0, 0, 0 -14" transform="rotate(0,292,26)"/><path d="M 285 61v 14h 14v -7a 7 7, 0, 0, 0, -7 -7" transform="rotate(-90,292,68)"/><rect x="285" y="75" width="14" height="14" transform="rotate(0,292,82)"/><path d="M 285 131v 14h 7a 7 7, 0, 0, 0, 0 -14" transform="rotate(0,292,138)"/><path d="M 285 159v 14h 7a 7 7, 0, 0, 0, 0 -14" transform="rotate(0,292,166)"/><rect x="285" y="187" width="14" height="14" transform="rotate(0,292,194)"/><path d="M 285 215v 14h 7a 7 7, 0, 0, 0, 0 -14" transform="rotate(0,292,222)"/><rect x="285" y="257" width="14" height="14" transform="rotate(0,292,264)"/><rect x="285" y="299" width="14" height="14" transform="rotate(0,292,306)"/><path d="M 285 355v 14h 14v -7a 7 7, 0, 0, 0, -7 -7" transform="rotate(-90,292,362)"/><rect x="285" y="369" width="14" height="14" transform="rotate(0,292,376)"/><rect x="285" y="383" width="14" height="14" transform="rotate(0,292,390)"/><rect x="285" y="397" width="14" height="14" transform="rotate(0,292,404)"/><rect x="285" y="411" width="14" height="14" transform="rotate(0,292,418)"/><rect x="285" y="425" width="14" height="14" transform="rotate(0,292,432)"/><rect x="285" y="439" width="14" height="14" transform="rotate(0,292,446)"/><path d="M 285 453v 14h 14v -7a 7 7, 0, 0, 0, -7 -7" transform="rotate(90,292,460)"/><rect x="299" y="61" width="14" height="14" transform="rotate(0,306,68)"/><rect x="299" y="75" width="14" height="14" transform="rotate(0,306,82)"/><rect x="299" y="89" width="14" height="14" transform="rotate(0,306,96)"/><rect x="299" y="103" width="14" height="14" transform="rotate(0,306,110)"/><path d="M 299 117v 14h 7a 7 7, 0, 0, 0, 0 -14" transform="rotate(90,306,124)"/><path d="M 299 173v 14h 14v -7a 7 7, 0, 0, 0, -7 -7" transform="rotate(-90,306,180)"/><rect x="299" y="187" width="14" height="14" transform="rotate(0,306,194)"/><path d="M 299 229v 14h 14v -7a 7 7, 0, 0, 0, -7 -7" transform="rotate(-90,306,236)"/><rect x="299" y="243" width="14" height="14" transform="rotate(0,306,250)"/><rect x="299" y="257" width="14" height="14" transform="rotate(0,306,264)"/><path d="M 299 271v 14h 14v -7a 7 7, 0, 0, 0, -7 -7" transform="rotate(180,306,278)"/><path d="M 299 299v 14h 14v -7a 7 7, 0, 0, 0, -7 -7" transform="rotate(0,306,306)"/><rect x="299" y="313" width="14" height="14" transform="rotate(0,306,320)"/><rect x="299" y="327" width="14" height="14" transform="rotate(0,306,334)"/><rect x="299" y="341" width="14" height="14" transform="rotate(0,306,348)"/><rect x="299" y="355" width="14" height="14" transform="rotate(0,306,362)"/><path d="M 299 369v 14h 14v -7a 7 7, 0, 0, 0, -7 -7" transform="rotate(90,306,376)"/><path d="M 299 397v 14h 14v -7a 7 7, 0, 0, 0, -7 -7" transform="rotate(0,306,404)"/><rect x="299" y="411" width="14" height="14" transform="rotate(0,306,418)"/><rect x="299" y="425" width="14" height="14" transform="rotate(0,306,432)"/><path d="M 299 467v 14h 7a 7 7, 0, 0, 0, 0 -14" transform="rotate(180,306,474)"/><path d="M 313 19v 14h 14v -7a 7 7, 0, 0, 0, -7 -7" transform="rotate(-90,320,26)"/><rect x="313" y="33" width="14" height="14" transform="rotate(0,320,40)"/><rect x="313" y="47" width="14" height="14" transform="rotate(0,320,54)"/><rect x="313" y="61" width="14" height="14" transform="rotate(0,320,68)"/><path d="M 313 75v 14h 14v -7a 7 7, 0, 0, 0, -7 -7" transform="rotate(90,320,82)"/><path d="M 313 173v 14h 14v -7a 7 7, 0, 0, 0, -7 -7" transform="rotate(0,320,180)"/><rect x="313" y="187" width="14" height="14" transform="rotate(0,320,194)"/><path d="M 313 201v 14h 14v -7a 7 7, 0, 0, 0, -7 -7" transform="rotate(180,320,208)"/><rect x="313" y="229" width="14" height="14" transform="rotate(0,320,236)"/><path d="M 313 243v 14h 14v -7a 7 7, 0, 0, 0, -7 -7" transform="rotate(90,320,250)"/><rect x="313" y="271" width="14" height="14" transform="rotate(0,320,278)"/><path d="M 313 313v 14h 7a 7 7, 0, 0, 0, 0 -14" transform="rotate(0,320,320)"/><path d="M 313 341v 14h 7a 7 7, 0, 0, 0, 0 -14" transform="rotate(0,320,348)"/><circle cx="320" cy="390" r="7" transform="rotate(0,320,390)"/><rect x="313" y="425" width="14" height="14" transform="rotate(0,320,432)"/><path d="M 313 439v 14h 14v -7a 7 7, 0, 0, 0, -7 -7" transform="rotate(180,320,446)"/><path d="M 313 467v 14h 7a 7 7, 0, 0, 0, 0 -14" transform="rotate(0,320,474)"/><rect x="327" y="19" width="14" height="14" transform="rotate(0,334,26)"/><rect x="327" y="61" width="14" height="14" transform="rotate(0,334,68)"/><circle cx="334" cy="110" r="7" transform="rotate(0,334,110)"/><path d="M 327 131v 14h 7a 7 7, 0, 0, 0, 0 -14" transform="rotate(180,334,138)"/><path d="M 327 159v 14h 7a 7 7, 0, 0, 0, 0 -14" transform="rotate(180,334,166)"/><rect x="327" y="201" width="14" height="14" transform="rotate(0,334,208)"/><rect x="327" y="215" width="14" height="14" transform="rotate(0,334,222)"/><rect x="327" y="229" width="14" height="14" transform="rotate(0,334,236)"/><path d="M 327 257v 14h 7a 7 7, 0, 0, 0, 0 -14" transform="rotate(-90,334,264)"/><path d="M 327 271v 14h 14v -7a 7 7, 0, 0, 0, -7 -7" transform="rotate(90,334,278)"/><circle cx="334" cy="306" r="7" transform="rotate(0,334,306)"/><circle cx="334" cy="362" r="7" transform="rotate(0,334,362)"/><path d="M 327 397v 14h 7a 7 7, 0, 0, 0, 0 -14" transform="rotate(-90,334,404)"/><rect x="327" y="411" width="14" height="14" transform="rotate(0,334,418)"/><rect x="327" y="425" width="14" height="14" transform="rotate(0,334,432)"/><rect x="327" y="439" width="14" height="14" transform="rotate(0,334,446)"/><path d="M 327 453v 14h 7a 7 7, 0, 0, 0, 0 -14" transform="rotate(90,334,460)"/><rect x="341" y="19" width="14" height="14" transform="rotate(0,348,26)"/><rect x="341" y="61" width="14" height="14" transform="rotate(0,348,68)"/><path d="M 341 75v 14h 14v -7a 7 7, 0, 0, 0, -7 -7" transform="rotate(180,348,82)"/><rect x="341" y="131" width="14" height="14" transform="rotate(0,348,138)"/><rect x="341" y="145" width="14" height="14" transform="rotate(0,348,152)"/><rect x="341" y="159" width="14" height="14" transform="rotate(0,348,166)"/><path d="M 341 173v 14h 7a 7 7, 0, 0, 0, 0 -14" transform="rotate(90,348,180)"/><rect x="341" y="201" width="14" height="14" transform="rotate(0,348,208)"/><rect x="341" y="215" width="14" height="14" transform="rotate(0,348,222)"/><path d="M 341 229v 14h 14v -7a 7 7, 0, 0, 0, -7 -7" transform="rotate(90,348,236)"/><circle cx="348" cy="320" r="7" transform="rotate(0,348,320)"/><path d="M 341 341v 14h 7a 7 7, 0, 0, 0, 0 -14" transform="rotate(180,348,348)"/><path d="M 341 369v 14h 7a 7 7, 0, 0, 0, 0 -14" transform="rotate(180,348,376)"/><rect x="341" y="411" width="14" height="14" transform="rotate(0,348,418)"/><rect x="341" y="425" width="14" height="14" transform="rotate(0,348,432)"/><path d="M 341 439v 14h 14v -7a 7 7, 0, 0, 0, -7 -7" transform="rotate(90,348,446)"/><circle cx="348" cy="474" r="7" transform="rotate(0,348,474)"/><path d="M 355 19v 14h 7a 7 7, 0, 0, 0, 0 -14" transform="rotate(0,362,26)"/><path d="M 355 47v 14h 7a 7 7, 0, 0, 0, 0 -14" transform="rotate(-90,362,54)"/><rect x="355" y="61" width="14" height="14" transform="rotate(0,362,68)"/><rect x="355" y="75" width="14" height="14" transform="rotate(0,362,82)"/><rect x="355" y="89" width="14" height="14" transform="rotate(0,362,96)"/><path d="M 355 103v 14h 7a 7 7, 0, 0, 0, 0 -14" transform="rotate(90,362,110)"/><rect x="355" y="131" width="14" height="14" transform="rotate(0,362,138)"/><rect x="355" y="159" width="14" height="14" transform="rotate(0,362,166)"/><path d="M 355 187v 14h 7a 7 7, 0, 0, 0, 0 -14" transform="rotate(-90,362,194)"/><rect x="355" y="201" width="14" height="14" transform="rotate(0,362,208)"/><rect x="355" y="215" width="14" height="14" transform="rotate(0,362,222)"/><path d="M 355 271v 14h 7a 7 7, 0, 0, 0, 0 -14" transform="rotate(180,362,278)"/><path d="M 355 327v 14h 7a 7 7, 0, 0, 0, 0 -14" transform="rotate(-90,362,334)"/><rect x="355" y="341" width="14" height="14" transform="rotate(0,362,348)"/><rect x="355" y="355" width="14" height="14" transform="rotate(0,362,362)"/><rect x="355" y="369" width="14" height="14" transform="rotate(0,362,376)"/><rect x="355" y="383" width="14" height="14" transform="rotate(0,362,390)"/><rect x="355" y="397" width="14" height="14" transform="rotate(0,362,404)"/><rect x="355" y="411" width="14" height="14" transform="rotate(0,362,418)"/><circle cx="362" cy="460" r="7" transform="rotate(0,362,460)"/><rect x="369" y="131" width="14" height="14" transform="rotate(0,376,138)"/><rect x="369" y="159" width="14" height="14" transform="rotate(0,376,166)"/><rect x="369" y="201" width="14" height="14" transform="rotate(0,376,208)"/><rect x="369" y="215" width="14" height="14" transform="rotate(0,376,222)"/><path d="M 369 229v 14h 7a 7 7, 0, 0, 0, 0 -14" transform="rotate(90,376,236)"/><path d="M 369 257v 14h 7a 7 7, 0, 0, 0, 0 -14" transform="rotate(-90,376,264)"/><rect x="369" y="271" width="14" height="14" transform="rotate(0,376,278)"/><rect x="369" y="285" width="14" height="14" transform="rotate(0,376,292)"/><rect x="369" y="299" width="14" height="14" transform="rotate(0,376,306)"/><path d="M 369 313v 14h 14v -7a 7 7, 0, 0, 0, -7 -7" transform="rotate(180,376,320)"/><rect x="369" y="355" width="14" height="14" transform="rotate(0,376,362)"/><rect x="369" y="411" width="14" height="14" transform="rotate(0,376,418)"/><path d="M 369 439v 14h 7a 7 7, 0, 0, 0, 0 -14" transform="rotate(180,376,446)"/><circle cx="376" cy="474" r="7" transform="rotate(0,376,474)"/><rect x="383" y="131" width="14" height="14" transform="rotate(0,390,138)"/><rect x="383" y="159" width="14" height="14" transform="rotate(0,390,166)"/><path d="M 383 201v 14h 7a 7 7, 0, 0, 0, 0 -14" transform="rotate(0,390,208)"/><rect x="383" y="313" width="14" height="14" transform="rotate(0,390,320)"/><path d="M 383 341v 14h 14v -7a 7 7, 0, 0, 0, -7 -7" transform="rotate(-90,390,348)"/><rect x="383" y="355" width="14" height="14" transform="rotate(0,390,362)"/><circle cx="390" cy="390" r="7" transform="rotate(0,390,390)"/><rect x="383" y="411" width="14" height="14" transform="rotate(0,390,418)"/><rect x="383" y="439" width="14" height="14" transform="rotate(0,390,446)"/><path d="M 383 453v 14h 14v -7a 7 7, 0, 0, 0, -7 -7" transform="rotate(180,390,460)"/><rect x="397" y="131" width="14" height="14" transform="rotate(0,404,138)"/><rect x="397" y="159" width="14" height="14" transform="rotate(0,404,166)"/><path d="M 397 215v 14h 7a 7 7, 0, 0, 0, 0 -14" transform="rotate(180,404,222)"/><path d="M 397 243v 14h 14v -7a 7 7, 0, 0, 0, -7 -7" transform="rotate(-90,404,250)"/><path d="M 397 257v 14h 7a 7 7, 0, 0, 0, 0 -14" transform="rotate(90,404,264)"/><path d="M 397 285v 14h 7a 7 7, 0, 0, 0, 0 -14" transform="rotate(180,404,292)"/><rect x="397" y="313" width="14" height="14" transform="rotate(0,404,320)"/><rect x="397" y="327" width="14" height="14" transform="rotate(0,404,334)"/><rect x="397" y="341" width="14" height="14" transform="rotate(0,404,348)"/><rect x="397" y="355" width="14" height="14" transform="rotate(0,404,362)"/><rect x="397" y="411" width="14" height="14" transform="rotate(0,404,418)"/><rect x="397" y="425" width="14" height="14" transform="rotate(0,404,432)"/><rect x="397" y="439" width="14" height="14" transform="rotate(0,404,446)"/><rect x="397" y="453" width="14" height="14" transform="rotate(0,404,460)"/><path d="M 397 467v 14h 7a 7 7, 0, 0, 0, 0 -14" transform="rotate(90,404,474)"/><rect x="411" y="131" width="14" height="14" transform="rotate(0,418,138)"/><rect x="411" y="159" width="14" height="14" transform="rotate(0,418,166)"/><rect x="411" y="173" width="14" height="14" transform="rotate(0,418,180)"/><rect x="411" y="187" width="14" height="14" transform="rotate(0,418,194)"/><rect x="411" y="201" width="14" height="14" transform="rotate(0,418,208)"/><rect x="411" y="215" width="14" height="14" transform="rotate(0,418,222)"/><rect x="411" y="229" width="14" height="14" transform="rotate(0,418,236)"/><path d="M 411 243v 14h 14v -7a 7 7, 0, 0, 0, -7 -7" transform="rotate(90,418,250)"/><path d="M 411 285v 14h 7a 7 7, 0, 0, 0, 0 -14" transform="rotate(0,418,292)"/><path d="M 411 313v 14h 7a 7 7, 0, 0, 0, 0 -14" transform="rotate(0,418,320)"/><path d="M 411 355v 14h 14v -7a 7 7, 0, 0, 0, -7 -7" transform="rotate(0,418,362)"/><rect x="411" y="369" width="14" height="14" transform="rotate(0,418,376)"/><rect x="411" y="383" width="14" height="14" transform="rotate(0,418,390)"/><rect x="411" y="397" width="14" height="14" transform="rotate(0,418,404)"/><rect x="411" y="411" width="14" height="14" transform="rotate(0,418,418)"/><path d="M 411 425v 14h 14v -7a 7 7, 0, 0, 0, -7 -7" transform="rotate(90,418,432)"/><path d="M 411 453v 14h 7a 7 7, 0, 0, 0, 0 -14" transform="rotate(0,418,460)"/><rect x="425" y="131" width="14" height="14" transform="rotate(0,432,138)"/><rect x="425" y="145" width="14" height="14" transform="rotate(0,432,152)"/><path d="M 425 159v 14h 14v -7a 7 7, 0, 0, 0, -7 -7" transform="rotate(90,432,166)"/><rect x="425" y="187" width="14" height="14" transform="rotate(0,432,194)"/><path d="M 425 229v 14h 7a 7 7, 0, 0, 0, 0 -14" transform="rotate(0,432,236)"/><circle cx="432" cy="306" r="7" transform="rotate(0,432,306)"/><path d="M 425 327v 14h 7a 7 7, 0, 0, 0, 0 -14" transform="rotate(180,432,334)"/><path d="M 425 369v 14h 7a 7 7, 0, 0, 0, 0 -14" transform="rotate(0,432,376)"/><path d="M 425 411v 14h 7a 7 7, 0, 0, 0, 0 -14" transform="rotate(0,432,418)"/><circle cx="432" cy="446" r="7" transform="rotate(0,432,446)"/><circle cx="432" cy="474" r="7" transform="rotate(0,432,474)"/><rect x="439" y="131" width="14" height="14" transform="rotate(0,446,138)"/><rect x="439" y="145" width="14" height="14" transform="rotate(0,446,152)"/><path d="M 439 187v 14h 7a 7 7, 0, 0, 0, 0 -14" transform="rotate(0,446,194)"/><path d="M 439 215v 14h 7a 7 7, 0, 0, 0, 0 -14" transform="rotate(180,446,222)"/><path d="M 439 257v 14h 7a 7 7, 0, 0, 0, 0 -14" transform="rotate(-90,446,264)"/><rect x="439" y="271" width="14" height="14" transform="rotate(0,446,278)"/><path d="M 439 285v 14h 14v -7a 7 7, 0, 0, 0, -7 -7" transform="rotate(180,446,292)"/><rect x="439" y="327" width="14" height="14" transform="rotate(0,446,334)"/><path d="M 439 341v 14h 7a 7 7, 0, 0, 0, 0 -14" transform="rotate(90,446,348)"/><path d="M 439 383v 14h 7a 7 7, 0, 0, 0, 0 -14" transform="rotate(-90,446,390)"/><path d="M 439 397v 14h 7a 7 7, 0, 0, 0, 0 -14" transform="rotate(90,446,404)"/><path d="M 453 131v 14h 14v -7a 7 7, 0, 0, 0, -7 -7" transform="rotate(0,460,138)"/><rect x="453" y="145" width="14" height="14" transform="rotate(0,460,152)"/><path d="M 453 201v 14h 7a 7 7, 0, 0, 0, 0 -14" transform="rotate(-90,460,208)"/><path d="M 453 215v 14h 14v -7a 7 7, 0, 0, 0, -7 -7" transform="rotate(90,460,222)"/><path d="M 453 243v 14h 7a 7 7, 0, 0, 0, 0 -14" transform="rotate(180,460,250)"/><rect x="453" y="285" width="14" height="14" transform="rotate(0,460,292)"/><rect x="453" y="299" width="14" height="14" transform="rotate(0,460,306)"/><rect x="453" y="313" width="14" height="14" transform="rotate(0,460,320)"/><rect x="453" y="327" width="14" height="14" transform="rotate(0,460,334)"/><circle cx="460" cy="418" r="7" transform="rotate(0,460,418)"/><circle cx="460" cy="446" r="7" transform="rotate(0,460,446)"/><path d="M 467 145v 14h 7a 7 7, 0, 0, 0, 0 -14" transform="rotate(0,474,152)"/><path d="M 467 243v 14h 14v -7a 7 7, 0, 0, 0, -7 -7" transform="rotate(0,474,250)"/><path d="M 467 257v 14h 7a 7 7, 0, 0, 0, 0 -14" transform="rotate(90,474,264)"/><path d="M 467 285v 14h 7a 7 7, 0, 0, 0, 0 -14" transform="rotate(0,474,292)"/><path d="M 467 327v 14h 14v -7a 7 7, 0, 0, 0, -7 -7" transform="rotate(0,474,334)"/><rect x="467" y="341" width="14" height="14" transform="rotate(0,474,348)"/><rect x="467" y="355" width="14" height="14" transform="rotate(0,474,362)"/><path d="M 467 369v 14h 7a 7 7, 0, 0, 0, 0 -14" transform="rotate(90,474,376)"/><circle cx="474" cy="404" r="7" transform="rotate(0,474,404)"/><circle cx="474" cy="460" r="7" transform="rotate(0,474,460)"/><path clip-rule="evenodd" d="M 19 54v 28a 35 35, 0, 0, 0, 35 35h 28a 35 35, 0, 0, 0, 35 -35v -28a 35 35, 0, 0, 0, -35 -35h -28a 35 35, 0, 0, 0, -35 35M 54 33h 28a 21 21, 0, 0, 1, 21 21v 28a 21 21, 0, 0, 1, -21 21h -28a 21 21, 0, 0, 1, -21 -21v -28a 21 21, 0, 0, 1, 21 -21" transform="rotate(0,68,68)"/><circle cx="68" cy="68" r="21" transform="rotate(0,68,68)"/><path clip-rule="evenodd" d="M 383 54v 28a 35 35, 0, 0, 0, 35 35h 28a 35 35, 0, 0, 0, 35 -35v -28a 35 35, 0, 0, 0, -35 -35h -28a 35 35, 0, 0, 0, -35 35M 418 33h 28a 21 21, 0, 0, 1, 21 21v 28a 21 21, 0, 0, 1, -21 21h -28a 21 21, 0, 0, 1, -21 -21v -28a 21 21, 0, 0, 1, 21 -21" transform="rotate(90,432,68)"/><circle cx="432" cy="68" r="21" transform="rotate(90,432,68)"/><path clip-rule="evenodd" d="M 19 418v 28a 35 35, 0, 0, 0, 35 35h 28a 35 35, 0, 0, 0, 35 -35v -28a 35 35, 0, 0, 0, -35 -35h -28a 35 35, 0, 0, 0, -35 35M 54 397h 28a 21 21, 0, 0, 1, 21 21v 28a 21 21, 0, 0, 1, -21 21h -28a 21 21, 0, 0, 1, -21 -21v -28a 21 21, 0, 0, 1, 21 -21" transform="rotate(-90,68,432)"/><circle cx="68" cy="432" r="21" transform="rotate(-90,68,432)"/></clipPath></defs><rect x="0" y="0" height="500" width="500" clip-path="url('#clip-path-background-color')" fill="#ffffff00"/><rect x="0" y="0" height="500" width="500" clip-path="url('#clip-path-dot-color')" fill="#000000"/></svg>