<?xml version="1.0" standalone="no"?>
<svg xmlns="http://www.w3.org/2000/svg" width="500" height="500"><defs><clipPath id="clip-path-dot-color"><path d="M 19 145v 14h 14v -7a 7 7, 0, 0, 0, -7 -7" transform="rotate(-90,26,152)"/><rect x="19" y="159" width="14" height="14" transform="rotate(0,26,166)"/><path d="M 19 173v 14h 14v -7a 7 7, 0, 0, 0, -7 -7" transform="rotate(180,26,180)"/><circle cx="26" cy="208" r="7" transform="rotate(0,26,208)"/><circle cx="26" cy="250" r="7" transform="rotate(0,26,250)"/><circle cx="26" cy="278" r="7" transform="rotate(0,26,278)"/><path d="M 19 327v 14h 7a 7 7, 0, 0, 0, 0 -14" transform="rotate(180,26,334)"/><path d="M 33 131v 14h 7a 7 7, 0, 0, 0, 0 -14" transform="rotate(-90,40,138)"/><rect x="33" y="145" width="14" height="14" transform="rotate(0,40,152)"/><rect x="33" y="159" width="14" height="14" transform="rotate(0,40,166)"/><rect x="33" y="173" width="14" height="14" transform="rotate(0,40,180)"/><path d="M 33 187v 14h 7a 7 7, 0, 0, 0, 0 -14" transform="rotate(90,40,194)"/><path d="M 33 229v 14h 7a 7 7, 0, 0, 0, 0 -14" transform="rotate(180,40,236)"/><path d="M 33 257v 14h 7a 7 7, 0, 0, 0, 0 -14" transform="rotate(180,40,264)"/><circle cx="40" cy="292" r="7" transform="rotate(0,40,292)"/><path d="M 33 313v 14h 7a 7 7, 0, 0, 0, 0 -14" transform="rotate(-90,40,320)"/><rect x="33" y="327" width="14" height="14" transform="rotate(0,40,334)"/><path d="M 47 145v 14h 14v -7a 7 7, 0, 0, 0, -7 -7" transform="rotate(0,54,152)"/><path d="M 47 159v 14h 14v -7a 7 7, 0, 0, 0, -7 -7" transform="rotate(90,54,166)"/><path d="M 47 201v 14h 7a 7 7, 0, 0, 0, 0 -14" transform="rotate(180,54,208)"/><rect x="47" y="229" width="14" height="14" transform="rotate(0,54,236)"/><path d="M 47 257v 14h 14v -7a 7 7, 0, 0, 0, -7 -7" transform="rotate(0,54,264)"/><path d="M 47 271v 14h 7a 7 7, 0, 0, 0, 0 -14" transform="rotate(90,54,278)"/><path d="M 47 327v 14h 7a 7 7, 0, 0, 0, 0 -14" transform="rotate(0,54,334)"/><path d="M 61 131v 14h 7a 7 7, 0, 0, 0, 0 -14" transform="rotate(180,68,138)"/><path d="M 61 173v 14h 7a 7 7, 0, 0, 0, 0 -14" transform="rotate(-90,68,180)"/><rect x="61" y="187" width="14" height="14" transform="rotate(0,68,194)"/><rect x="61" y="201" width="14" height="14" transform="rotate(0,68,208)"/><rect x="61" y="215" width="14" height="14" transform="rotate(0,68,222)"/><rect x="61" y="229" width="14" height="14" transform="rotate(0,68,236)"/><path d="M 61 243v 14h 7a 7 7, 0, 0, 0, 0 -14" transform="rotate(90,68,250)"/><path d="M 61 355v 14h 7a 7 7, 0, 0, 0, 0 -14" transform="rotate(180,68,362)"/><path d="M 75 131v 14h 14v -7a 7 7, 0, 0, 0, -7 -7" transform="rotate(0,82,138)"/><rect x="75" y="145" width="14" height="14" transform="rotate(0,82,152)"/><path d="M 75 159v 14h 14v -7a 7 7, 0, 0, 0, -7 -7" transform="rotate(180,82,166)"/><path d="M 75 187v 14h 14v -7a 7 7, 0, 0, 0, -7 -7" transform="rotate(0,82,194)"/><rect x="75" y="201" width="14" height="14" transform="rotate(0,82,208)"/><rect x="75" y="215" width="14" height="14" transform="rotate(0,82,222)"/><rect x="75" y="229" width="14" height="14" transform="rotate(0,82,236)"/><circle cx="82" cy="278" r="7" transform="rotate(0,82,278)"/><path d="M 75 299v 14h 14v -7a 7 7, 0, 0, 0, -7 -7" transform="rotate(-90,82,306)"/><path d="M 75 313v 14h 14v -7a 7 7, 0, 0, 0, -7 -7" transform="rotate(180,82,320)"/><path d="M 75 341v 14h 14v -7a 7 7, 0, 0, 0, -7 -7" transform="rotate(-90,82,348)"/><path d="M 75 355v 14h 14v -7a 7 7, 0, 0, 0, -7 -7" transform="rotate(90,82,362)"/><rect x="89" y="159" width="14" height="14" transform="rotate(0,96,166)"/><path d="M 89 229v 14h 14v -7a 7 7, 0, 0, 0, -7 -7" transform="rotate(0,96,236)"/><rect x="89" y="243" width="14" height="14" transform="rotate(0,96,250)"/><path d="M 89 257v 14h 7a 7 7, 0, 0, 0, 0 -14" transform="rotate(90,96,264)"/><rect x="89" y="299" width="14" height="14" transform="rotate(0,96,306)"/><rect x="89" y="313" width="14" height="14" transform="rotate(0,96,320)"/><rect x="89" y="327" width="14" height="14" transform="rotate(0,96,334)"/><path d="M 89 341v 14h 14v -7a 7 7, 0, 0, 0, -7 -7" transform="rotate(90,96,348)"/><path d="M 103 131v 14h 7a 7 7, 0, 0, 0, 0 -14" transform="rotate(180,110,138)"/><path d="M 103 159v 14h 7a 7 7, 0, 0, 0, 0 -14" transform="rotate(0,110,166)"/><path d="M 103 187v 14h 7a 7 7, 0, 0, 0, 0 -14" transform="rotate(180,110,194)"/><circle cx="110" cy="222" r="7" transform="rotate(0,110,222)"/><rect x="103" y="243" width="14" height="14" transform="rotate(0,110,250)"/><circle cx="110" cy="278" r="7" transform="rotate(0,110,278)"/><rect x="103" y="299" width="14" height="14" transform="rotate(0,110,306)"/><path d="M 103 327v 14h 7a 7 7, 0, 0, 0, 0 -14" transform="rotate(0,110,334)"/><path d="M 103 355v 14h 7a 7 7, 0, 0, 0, 0 -14" transform="rotate(180,110,362)"/><rect x="117" y="131" width="14" height="14" transform="rotate(0,124,138)"/><path d="M 117 145v 14h 14v -7a 7 7, 0, 0, 0, -7 -7" transform="rotate(180,124,152)"/><rect x="117" y="187" width="14" height="14" transform="rotate(0,124,194)"/><path d="M 117 201v 14h 7a 7 7, 0, 0, 0, 0 -14" transform="rotate(90,124,208)"/><path d="M 117 243v 14h 7a 7 7, 0, 0, 0, 0 -14" transform="rotate(0,124,250)"/><path d="M 117 285v 14h 14v -7a 7 7, 0, 0, 0, -7 -7" transform="rotate(-90,124,292)"/><path d="M 117 299v 14h 14v -7a 7 7, 0, 0, 0, -7 -7" transform="rotate(90,124,306)"/><path d="M 117 355v 14h 7a 7 7, 0, 0, 0, 0 -14" transform="rotate(0,124,362)"/><circle cx="138" cy="40" r="7" transform="rotate(0,138,40)"/><path d="M 131 61v 14h 14v -7a 7 7, 0, 0, 0, -7 -7" transform="rotate(-90,138,68)"/><rect x="131" y="75" width="14" height="14" transform="rotate(0,138,82)"/><rect x="131" y="89" width="14" height="14" transform="rotate(0,138,96)"/><path d="M 131 103v 14h 7a 7 7, 0, 0, 0, 0 -14" transform="rotate(90,138,110)"/><path d="M 131 131v 14h 14v -7a 7 7, 0, 0, 0, -7 -7" transform="rotate(0,138,138)"/><rect x="131" y="145" width="14" height="14" transform="rotate(0,138,152)"/><path d="M 131 173v 14h 7a 7 7, 0, 0, 0, 0 -14" transform="rotate(-90,138,180)"/><rect x="131" y="187" width="14" height="14" transform="rotate(0,138,194)"/><path d="M 131 215v 14h 14v -7a 7 7, 0, 0, 0, -7 -7" transform="rotate(-90,138,222)"/><path d="M 131 229v 14h 14v -7a 7 7, 0, 0, 0, -7 -7" transform="rotate(180,138,236)"/><circle cx="138" cy="264" r="7" transform="rotate(0,138,264)"/><rect x="131" y="285" width="14" height="14" transform="rotate(0,138,292)"/><path d="M 131 327v 14h 14v -7a 7 7, 0, 0, 0, -7 -7" transform="rotate(-90,138,334)"/><path d="M 131 341v 14h 14v -7a 7 7, 0, 0, 0, -7 -7" transform="rotate(180,138,348)"/><path d="M 131 369v 14h 7a 7 7, 0, 0, 0, 0 -14" transform="rotate(-90,138,376)"/><path d="M 131 383v 14h 7a 7 7, 0, 0, 0, 0 -14" transform="rotate(90,138,390)"/><path d="M 131 411v 14h 14v -7a 7 7, 0, 0, 0, -7 -7" transform="rotate(-90,138,418)"/><path d="M 131 425v 14h 14v -7a 7 7, 0, 0, 0, -7 -7" transform="rotate(180,138,432)"/><path d="M 131 453v 14h 7a 7 7, 0, 0, 0, 0 -14" transform="rotate(180,138,460)"/><circle cx="152" cy="26" r="7" transform="rotate(0,152,26)"/><rect x="145" y="61" width="14" height="14" transform="rotate(0,152,68)"/><rect x="145" y="145" width="14" height="14" transform="rotate(0,152,152)"/><path d="M 145 187v 14h 7a 7 7, 0, 0, 0, 0 -14" transform="rotate(0,152,194)"/><rect x="145" y="215" width="14" height="14" transform="rotate(0,152,222)"/><path d="M 145 229v 14h 14v -7a 7 7, 0, 0, 0, -7 -7" transform="rotate(90,152,236)"/><path d="M 145 271v 14h 14v -7a 7 7, 0, 0, 0, -7 -7" transform="rotate(-90,152,278)"/><path d="M 145 285v 14h 14v -7a 7 7, 0, 0, 0, -7 -7" transform="rotate(90,152,292)"/><path d="M 145 327v 14h 14v -7a 7 7, 0, 0, 0, -7 -7" transform="rotate(0,152,334)"/><rect x="145" y="341" width="14" height="14" transform="rotate(0,152,348)"/><rect x="145" y="411" width="14" height="14" transform="rotate(0,152,418)"/><rect x="145" y="425" width="14" height="14" transform="rotate(0,152,432)"/><rect x="145" y="439" width="14" height="14" transform="rotate(0,152,446)"/><rect x="145" y="453" width="14" height="14" transform="rotate(0,152,460)"/><path d="M 159 33v 14h 7a 7 7, 0, 0, 0, 0 -14" transform="rotate(-90,166,40)"/><rect x="159" y="47" width="14" height="14" transform="rotate(0,166,54)"/><rect x="159" y="61" width="14" height="14" transform="rotate(0,166,68)"/><rect x="159" y="75" width="14" height="14" transform="rotate(0,166,82)"/><rect x="159" y="89" width="14" height="14" transform="rotate(0,166,96)"/><path d="M 159 103v 14h 7a 7 7, 0, 0, 0, 0 -14" transform="rotate(90,166,110)"/><path d="M 159 131v 14h 14v -7a 7 7, 0, 0, 0, -7 -7" transform="rotate(-90,166,138)"/><rect x="159" y="145" width="14" height="14" transform="rotate(0,166,152)"/><path d="M 159 159v 14h 14v -7a 7 7, 0, 0, 0, -7 -7" transform="rotate(180,166,166)"/><path d="M 159 201v 14h 14v -7a 7 7, 0, 0, 0, -7 -7" transform="rotate(-90,166,208)"/><rect x="159" y="215" width="14" height="14" transform="rotate(0,166,222)"/><path d="M 159 257v 14h 14v -7a 7 7, 0, 0, 0, -7 -7" transform="rotate(-90,166,264)"/><path d="M 159 271v 14h 14v -7a 7 7, 0, 0, 0, -7 -7" transform="rotate(90,166,278)"/><path d="M 159 299v 14h 7a 7 7, 0, 0, 0, 0 -14" transform="rotate(-90,166,306)"/><path d="M 159 313v 14h 7a 7 7, 0, 0, 0, 0 -14" transform="rotate(90,166,320)"/><rect x="159" y="341" width="14" height="14" transform="rotate(0,166,348)"/><rect x="159" y="355" width="14" height="14" transform="rotate(0,166,362)"/><path d="M 159 369v 14h 14v -7a 7 7, 0, 0, 0, -7 -7" transform="rotate(180,166,376)"/><path d="M 159 411v 14h 14v -7a 7 7, 0, 0, 0, -7 -7" transform="rotate(0,166,418)"/><rect x="159" y="425" width="14" height="14" transform="rotate(0,166,432)"/><rect x="159" y="439" width="14" height="14" transform="rotate(0,166,446)"/><rect x="159" y="453" width="14" height="14" transform="rotate(0,166,460)"/><path d="M 159 467v 14h 14v -7a 7 7, 0, 0, 0, -7 -7" transform="rotate(180,166,474)"/><rect x="173" y="47" width="14" height="14" transform="rotate(0,180,54)"/><path d="M 173 61v 14h 14v -7a 7 7, 0, 0, 0, -7 -7" transform="rotate(90,180,68)"/><path d="M 173 89v 14h 7a 7 7, 0, 0, 0, 0 -14" transform="rotate(0,180,96)"/><path d="M 173 117v 14h 14v -7a 7 7, 0, 0, 0, -7 -7" transform="rotate(-90,180,124)"/><path d="M 173 131v 14h 14v -7a 7 7, 0, 0, 0, -7 -7" transform="rotate(90,180,138)"/><rect x="173" y="159" width="14" height="14" transform="rotate(0,180,166)"/><path d="M 173 173v 14h 7a 7 7, 0, 0, 0, 0 -14" transform="rotate(90,180,180)"/><rect x="173" y="201" width="14" height="14" transform="rotate(0,180,208)"/><path d="M 173 215v 14h 14v -7a 7 7, 0, 0, 0, -7 -7" transform="rotate(90,180,222)"/><rect x="173" y="257" width="14" height="14" transform="rotate(0,180,264)"/><path d="M 173 341v 14h 14v -7a 7 7, 0, 0, 0, -7 -7" transform="rotate(0,180,348)"/><rect x="173" y="355" width="14" height="14" transform="rotate(0,180,362)"/><path d="M 173 369v 14h 14v -7a 7 7, 0, 0, 0, -7 -7" transform="rotate(90,180,376)"/><path d="M 173 397v 14h 7a 7 7, 0, 0, 0, 0 -14" transform="rotate(180,180,404)"/><path d="M 173 439v 14h 14v -7a 7 7, 0, 0, 0, -7 -7" transform="rotate(0,180,446)"/><rect x="173" y="453" width="14" height="14" transform="rotate(0,180,460)"/><path d="M 173 467v 14h 14v -7a 7 7, 0, 0, 0, -7 -7" transform="rotate(90,180,474)"/><circle cx="194" cy="26" r="7" transform="rotate(0,194,26)"/><path d="M 187 47v 14h 7a 7 7, 0, 0, 0, 0 -14" transform="rotate(0,194,54)"/><path d="M 187 103v 14h 7a 7 7, 0, 0, 0, 0 -14" transform="rotate(-90,194,110)"/><path d="M 187 117v 14h 14v -7a 7 7, 0, 0, 0, -7 -7" transform="rotate(90,194,124)"/><rect x="187" y="159" width="14" height="14" transform="rotate(0,194,166)"/><path d="M 187 187v 14h 14v -7a 7 7, 0, 0, 0, -7 -7" transform="rotate(-90,194,194)"/><path d="M 187 201v 14h 14v -7a 7 7, 0, 0, 0, -7 -7" transform="rotate(90,194,208)"/><path d="M 187 229v 14h 7a 7 7, 0, 0, 0, 0 -14" transform="rotate(180,194,236)"/><path d="M 187 257v 14h 14v -7a 7 7, 0, 0, 0, -7 -7" transform="rotate(0,194,264)"/><rect x="187" y="271" width="14" height="14" transform="rotate(0,194,278)"/><rect x="187" y="285" width="14" height="14" transform="rotate(0,194,292)"/><rect x="187" y="299" width="14" height="14" transform="rotate(0,194,306)"/><rect x="187" y="313" width="14" height="14" transform="rotate(0,194,320)"/><path d="M 187 327v 14h 14v -7a 7 7, 0, 0, 0, -7 -7" transform="rotate(180,194,334)"/><path d="M 187 383v 14h 7a 7 7, 0, 0, 0, 0 -14" transform="rotate(-90,194,390)"/><path d="M 187 397v 14h 14v -7a 7 7, 0, 0, 0, -7 -7" transform="rotate(90,194,404)"/><path d="M 201 61v 14h 7a 7 7, 0, 0, 0, 0 -14" transform="rotate(180,208,68)"/><circle cx="208" cy="96" r="7" transform="rotate(0,208,96)"/><path d="M 201 131v 14h 7a 7 7, 0, 0, 0, 0 -14" transform="rotate(-90,208,138)"/><rect x="201" y="145" width="14" height="14" transform="rotate(0,208,152)"/><rect x="201" y="159" width="14" height="14" transform="rotate(0,208,166)"/><rect x="201" y="187" width="14" height="14" transform="rotate(0,208,194)"/><path d="M 201 215v 14h 7a 7 7, 0, 0, 0, 0 -14" transform="rotate(-90,208,222)"/><rect x="201" y="229" width="14" height="14" transform="rotate(0,208,236)"/><path d="M 201 285v 14h 7a 7 7, 0, 0, 0, 0 -14" transform="rotate(0,208,292)"/><path d="M 201 313v 14h 14v -7a 7 7, 0, 0, 0, -7 -7" transform="rotate(0,208,320)"/><rect x="201" y="327" width="14" height="14" transform="rotate(0,208,334)"/><path d="M 201 341v 14h 7a 7 7, 0, 0, 0, 0 -14" transform="rotate(90,208,348)"/><circle cx="208" cy="446" r="7" transform="rotate(0,208,446)"/><path d="M 215 19v 14h 14v -7a 7 7, 0, 0, 0, -7 -7" transform="rotate(-90,222,26)"/><rect x="215" y="33" width="14" height="14" transform="rotate(0,222,40)"/><rect x="215" y="47" width="14" height="14" transform="rotate(0,222,54)"/><rect x="215" y="61" width="14" height="14" transform="rotate(0,222,68)"/><path d="M 215 103v 14h 7a 7 7, 0, 0, 0, 0 -14" transform="rotate(-90,222,110)"/><path d="M 215 117v 14h 7a 7 7, 0, 0, 0, 0 -14" transform="rotate(90,222,124)"/><path d="M 215 159v 14h 7a 7 7, 0, 0, 0, 0 -14" transform="rotate(0,222,166)"/><rect x="215" y="187" width="14" height="14" transform="rotate(0,222,194)"/><rect x="215" y="229" width="14" height="14" transform="rotate(0,222,236)"/><path d="M 215 271v 14h 7a 7 7, 0, 0, 0, 0 -14" transform="rotate(180,222,278)"/><path d="M 215 355v 14h 7a 7 7, 0, 0, 0, 0 -14" transform="rotate(180,222,362)"/><path d="M 215 383v 14h 7a 7 7, 0, 0, 0, 0 -14" transform="rotate(-90,222,390)"/><rect x="215" y="397" width="14" height="14" transform="rotate(0,222,404)"/><rect x="215" y="411" width="14" height="14" transform="rotate(0,222,418)"/><path d="M 215 425v 14h 14v -7a 7 7, 0, 0, 0, -7 -7" transform="rotate(180,222,432)"/><rect x="229" y="19" width="14" height="14" transform="rotate(0,236,26)"/><rect x="229" y="33" width="14" height="14" transform="rotate(0,236,40)"/><rect x="229" y="61" width="14" height="14" transform="rotate(0,236,68)"/><path d="M 229 75v 14h 14v -7a 7 7, 0, 0, 0, -7 -7" transform="rotate(180,236,82)"/><path d="M 229 173v 14h 7a 7 7, 0, 0, 0, 0 -14" transform="rotate(-90,236,180)"/><rect x="229" y="187" width="14" height="14" transform="rotate(0,236,194)"/><path d="M 229 201v 14h 7a 7 7, 0, 0, 0, 0 -14" transform="rotate(90,236,208)"/><rect x="229" y="229" width="14" height="14" transform="rotate(0,236,236)"/><rect x="229" y="271" width="14" height="14" transform="rotate(0,236,278)"/><path d="M 229 285v 14h 14v -7a 7 7, 0, 0, 0, -7 -7" transform="rotate(180,236,292)"/><path d="M 229 327v 14h 7a 7 7, 0, 0, 0, 0 -14" transform="rotate(180,236,334)"/><rect x="229" y="355" width="14" height="14" transform="rotate(0,236,362)"/><path d="M 229 369v 14h 14v -7a 7 7, 0, 0, 0, -7 -7" transform="rotate(180,236,376)"/><path d="M 229 425v 14h 14v -7a 7 7, 0, 0, 0, -7 -7" transform="rotate(0,236,432)"/><path d="M 229 439v 14h 7a 7 7, 0, 0, 0, 0 -14" transform="rotate(90,236,446)"/><circle cx="236" cy="474" r="7" transform="rotate(0,236,474)"/><rect x="243" y="19" width="14" height="14" transform="rotate(0,250,26)"/><path d="M 243 33v 14h 14v -7a 7 7, 0, 0, 0, -7 -7" transform="rotate(90,250,40)"/><rect x="243" y="61" width="14" height="14" transform="rotate(0,250,68)"/><rect x="243" y="75" width="14" height="14" transform="rotate(0,250,82)"/><rect x="243" y="89" width="14" height="14" transform="rotate(0,250,96)"/><rect x="243" y="103" width="14" height="14" transform="rotate(0,250,110)"/><path d="M 243 117v 14h 14v -7a 7 7, 0, 0, 0, -7 -7" transform="rotate(180,250,124)"/><path d="M 243 145v 14h 14v -7a 7 7, 0, 0, 0, -7 -7" transform="rotate(-90,250,152)"/><path d="M 243 159v 14h 14v -7a 7 7, 0, 0, 0, -7 -7" transform="rotate(180,250,166)"/><path d="M 243 187v 14h 7a 7 7, 0, 0, 0, 0 -14" transform="rotate(0,250,194)"/><path d="M 243 215v 14h 7a 7 7, 0, 0, 0, 0 -14" transform="rotate(-90,250,222)"/><rect x="243" y="229" width="14" height="14" transform="rotate(0,250,236)"/><path d="M 243 271v 14h 14v -7a 7 7, 0, 0, 0, -7 -7" transform="rotate(0,250,278)"/><rect x="243" y="285" width="14" height="14" transform="rotate(0,250,292)"/><rect x="243" y="327" width="14" height="14" transform="rotate(0,250,334)"/><path d="M 243 355v 14h 14v -7a 7 7, 0, 0, 0, -7 -7" transform="rotate(0,250,362)"/><rect x="243" y="369" width="14" height="14" transform="rotate(0,250,376)"/><rect x="243" y="383" width="14" height="14" transform="rotate(0,250,390)"/><rect x="243" y="397" width="14" height="14" transform="rotate(0,250,404)"/><path d="M 243 411v 14h 14v -7a 7 7, 0, 0, 0, -7 -7" transform="rotate(180,250,418)"/><rect x="257" y="19" width="14" height="14" transform="rotate(0,264,26)"/><path d="M 257 61v 14h 14v -7a 7 7, 0, 0, 0, -7 -7" transform="rotate(0,264,68)"/><path d="M 257 75v 14h 14v -7a 7 7, 0, 0, 0, -7 -7" transform="rotate(90,264,82)"/><path d="M 257 117v 14h 14v -7a 7 7, 0, 0, 0, -7 -7" transform="rotate(0,264,124)"/><rect x="257" y="131" width="14" height="14" transform="rotate(0,264,138)"/><rect x="257" y="145" width="14" height="14" transform="rotate(0,264,152)"/><path d="M 257 159v 14h 14v -7a 7 7, 0, 0, 0, -7 -7" transform="rotate(90,264,166)"/><rect x="257" y="229" width="14" height="14" transform="rotate(0,264,236)"/><path d="M 257 243v 14h 7a 7 7, 0, 0, 0, 0 -14" transform="rotate(90,264,250)"/><rect x="257" y="285" width="14" height="14" transform="rotate(0,264,292)"/><rect x="257" y="299" width="14" height="14" transform="rotate(0,264,306)"/><rect x="257" y="313" width="14" height="14" transform="rotate(0,264,320)"/><path d="M 257 327v 14h 14v -7a 7 7, 0, 0, 0, -7 -7" transform="rotate(90,264,334)"/><rect x="257" y="383" width="14" height="14" transform="rotate(0,264,390)"/><path d="M 257 411v 14h 7a 7 7, 0, 0, 0, 0 -14" transform="rotate(0,264,418)"/><path d="M 257 439v 14h 7a 7 7, 0, 0, 0, 0 -14" transform="rotate(180,264,446)"/><path d="M 257 467v 14h 7a 7 7, 0, 0, 0, 0 -14" transform="rotate(180,264,474)"/><rect x="271" y="19" width="14" height="14" transform="rotate(0,278,26)"/><path d="M 271 47v 14h 7a 7 7, 0, 0, 0, 0 -14" transform="rotate(180,278,54)"/><path d="M 271 89v 14h 7a 7 7, 0, 0, 0, 0 -14" transform="rotate(-90,278,96)"/><path d="M 271 103v 14h 7a 7 7, 0, 0, 0, 0 -14" transform="rotate(90,278,110)"/><path d="M 271 187v 14h 7a 7 7, 0, 0, 0, 0 -14" transform="rotate(-90,278,194)"/><path d="M 271 201v 14h 7a 7 7, 0, 0, 0, 0 -14" transform="rotate(90,278,208)"/><path d="M 271 229v 14h 7a 7 7, 0, 0, 0, 0 -14" transform="rotate(0,278,236)"/><path d="M 271 257v 14h 7a 7 7, 0, 0, 0, 0 -14" transform="rotate(180,278,264)"/><path d="M 271 285v 14h 7a 7 7, 0, 0, 0, 0 -14" transform="rotate(0,278,292)"/><path d="M 271 341v 14h 7a 7 7, 0, 0, 0, 0 -14" transform="rotate(-90,278,348)"/><rect x="271" y="355" width="14" height="14" transform="rotate(0,278,362)"/><rect x="271" y="369" width="14" height="14" transform="rotate(0,278,376)"/><rect x="271" y="383" width="14" height="14" transform="rotate(0,278,390)"/><path d="M 271 397v 14h 7a 7 7, 0, 0, 0, 0 -14" transform="rotate(90,278,404)"/><path d="M 271 425v 14h 14v -7a 7 7, 0, 0, 0, -7 -7" transform="rotate(-90,278,432)"/><rect x="271" y="439" width="14" height="14" transform="rotate(0,278,446)"/><rect x="271" y="453" width="14" height="14" transform="rotate(0,278,460)"/><path d="M 271 467v 14h 14v -7a 7 7, 0, 0, 0, -7 -7" transform="rotate(90,278,474)"/><rect x="285" y="19" width="14" height="14" transform="rotate(0,292,26)"/><rect x="285" y="47" width="14" height="14" transform="rotate(0,292,54)"/><path d="M 285 61v 14h 7a 7 7, 0, 0, 0, 0 -14" transform="rotate(90,292,68)"/><circle cx="292" cy="124" r="7" transform="rotate(0,292,124)"/><path d="M 285 145v 14h 7a 7 7, 0, 0, 0, 0 -14" transform="rotate(-90,292,152)"/><path d="M 285 159v 14h 7a 7 7, 0, 0, 0, 0 -14" transform="rotate(90,292,166)"/><path d="M 285 215v 14h 7a 7 7, 0, 0, 0, 0 -14" transform="rotate(180,292,222)"/><rect x="285" y="257" width="14" height="14" transform="rotate(0,292,264)"/><path d="M 285 313v 14h 7a 7 7, 0, 0, 0, 0 -14" transform="rotate(180,292,320)"/><path d="M 285 369v 14h 14v -7a 7 7, 0, 0, 0, -7 -7" transform="rotate(0,292,376)"/><path d="M 285 383v 14h 14v -7a 7 7, 0, 0, 0, -7 -7" transform="rotate(90,292,390)"/><path d="M 285 411v 14h 7a 7 7, 0, 0, 0, 0 -14" transform="rotate(-90,292,418)"/><rect x="285" y="425" width="14" height="14" transform="rotate(0,292,432)"/><path d="M 285 439v 14h 14v -7a 7 7, 0, 0, 0, -7 -7" transform="rotate(90,292,446)"/><rect x="299" y="19" width="14" height="14" transform="rotate(0,306,26)"/><rect x="299" y="33" width="14" height="14" transform="rotate(0,306,40)"/><rect x="299" y="47" width="14" height="14" transform="rotate(0,306,54)"/><circle cx="306" cy="110" r="7" transform="rotate(0,306,110)"/><path d="M 299 201v 14h 7a 7 7, 0, 0, 0, 0 -14" transform="rotate(-90,306,208)"/><path d="M 299 215v 14h 14v -7a 7 7, 0, 0, 0, -7 -7" transform="rotate(90,306,222)"/><rect x="299" y="257" width="14" height="14" transform="rotate(0,306,264)"/><path d="M 299 299v 14h 14v -7a 7 7, 0, 0, 0, -7 -7" transform="rotate(-90,306,306)"/><path d="M 299 313v 14h 14v -7a 7 7, 0, 0, 0, -7 -7" transform="rotate(90,306,320)"/><path d="M 299 397v 14h 7a 7 7, 0, 0, 0, 0 -14" transform="rotate(180,306,404)"/><path d="M 299 425v 14h 7a 7 7, 0, 0, 0, 0 -14" transform="rotate(0,306,432)"/><circle cx="306" cy="460" r="7" transform="rotate(0,306,460)"/><rect x="313" y="19" width="14" height="14" transform="rotate(0,320,26)"/><path d="M 313 47v 14h 7a 7 7, 0, 0, 0, 0 -14" transform="rotate(0,320,54)"/><circle cx="320" cy="82" r="7" transform="rotate(0,320,82)"/><path d="M 313 117v 14h 7a 7 7, 0, 0, 0, 0 -14" transform="rotate(-90,320,124)"/><rect x="313" y="131" width="14" height="14" transform="rotate(0,320,138)"/><rect x="313" y="145" width="14" height="14" transform="rotate(0,320,152)"/><path d="M 313 159v 14h 7a 7 7, 0, 0, 0, 0 -14" transform="rotate(90,320,166)"/><path d="M 313 257v 14h 7a 7 7, 0, 0, 0, 0 -14" transform="rotate(0,320,264)"/><path d="M 313 299v 14h 7a 7 7, 0, 0, 0, 0 -14" transform="rotate(0,320,306)"/><path d="M 313 327v 14h 7a 7 7, 0, 0, 0, 0 -14" transform="rotate(-90,320,334)"/><path d="M 313 341v 14h 14v -7a 7 7, 0, 0, 0, -7 -7" transform="rotate(180,320,348)"/><path d="M 313 369v 14h 7a 7 7, 0, 0, 0, 0 -14" transform="rotate(180,320,376)"/><rect x="313" y="397" width="14" height="14" transform="rotate(0,320,404)"/><path d="M 313 411v 14h 7a 7 7, 0, 0, 0, 0 -14" transform="rotate(90,320,418)"/><rect x="327" y="19" width="14" height="14" transform="rotate(0,334,26)"/><path d="M 327 61v 14h 7a 7 7, 0, 0, 0, 0 -14" transform="rotate(180,334,68)"/><path d="M 327 89v 14h 7a 7 7, 0, 0, 0, 0 -14" transform="rotate(-90,334,96)"/><path d="M 327 103v 14h 7a 7 7, 0, 0, 0, 0 -14" transform="rotate(90,334,110)"/><rect x="327" y="145" width="14" height="14" transform="rotate(0,334,152)"/><path d="M 327 173v 14h 7a 7 7, 0, 0, 0, 0 -14" transform="rotate(180,334,180)"/><path d="M 327 201v 14h 7a 7 7, 0, 0, 0, 0 -14" transform="rotate(180,334,208)"/><circle cx="334" cy="250" r="7" transform="rotate(0,334,250)"/><path d="M 327 341v 14h 7a 7 7, 0, 0, 0, 0 -14" transform="rotate(0,334,348)"/><rect x="327" y="369" width="14" height="14" transform="rotate(0,334,376)"/><rect x="327" y="383" width="14" height="14" transform="rotate(0,334,390)"/><rect x="327" y="397" width="14" height="14" transform="rotate(0,334,404)"/><path d="M 327 439v 14h 14v -7a 7 7, 0, 0, 0, -7 -7" transform="rotate(-90,334,446)"/><rect x="327" y="453" width="14" height="14" transform="rotate(0,334,460)"/><path d="M 327 467v 14h 7a 7 7, 0, 0, 0, 0 -14" transform="rotate(90,334,474)"/><rect x="341" y="19" width="14" height="14" transform="rotate(0,348,26)"/><rect x="341" y="61" width="14" height="14" transform="rotate(0,348,68)"/><path d="M 341 75v 14h 14v -7a 7 7, 0, 0, 0, -7 -7" transform="rotate(180,348,82)"/><path d="M 341 117v 14h 7a 7 7, 0, 0, 0, 0 -14" transform="rotate(-90,348,124)"/><rect x="341" y="131" width="14" height="14" transform="rotate(0,348,138)"/><path d="M 341 145v 14h 14v -7a 7 7, 0, 0, 0, -7 -7" transform="rotate(90,348,152)"/><path d="M 341 173v 14h 7a 7 7, 0, 0, 0, 0 -14" transform="rotate(0,348,180)"/><path d="M 341 201v 14h 14v -7a 7 7, 0, 0, 0, -7 -7" transform="rotate(0,348,208)"/><rect x="341" y="215" width="14" height="14" transform="rotate(0,348,222)"/><path d="M 341 229v 14h 14v -7a 7 7, 0, 0, 0, -7 -7" transform="rotate(180,348,236)"/><path d="M 341 271v 14h 7a 7 7, 0, 0, 0, 0 -14" transform="rotate(180,348,278)"/><rect x="341" y="369" width="14" height="14" transform="rotate(0,348,376)"/><rect x="341" y="383" width="14" height="14" transform="rotate(0,348,390)"/><rect x="341" y="397" width="14" height="14" transform="rotate(0,348,404)"/><path d="M 341 411v 14h 14v -7a 7 7, 0, 0, 0, -7 -7" transform="rotate(180,348,418)"/><path d="M 341 439v 14h 7a 7 7, 0, 0, 0, 0 -14" transform="rotate(0,348,446)"/><path d="M 355 19v 14h 14v -7a 7 7, 0, 0, 0, -7 -7" transform="rotate(0,362,26)"/><rect x="355" y="33" width="14" height="14" transform="rotate(0,362,40)"/><rect x="355" y="47" width="14" height="14" transform="rotate(0,362,54)"/><rect x="355" y="61" width="14" height="14" transform="rotate(0,362,68)"/><rect x="355" y="75" width="14" height="14" transform="rotate(0,362,82)"/><rect x="355" y="89" width="14" height="14" transform="rotate(0,362,96)"/><path d="M 355 103v 14h 7a 7 7, 0, 0, 0, 0 -14" transform="rotate(90,362,110)"/><rect x="355" y="131" width="14" height="14" transform="rotate(0,362,138)"/><circle cx="362" cy="194" r="7" transform="rotate(0,362,194)"/><path d="M 355 229v 14h 14v -7a 7 7, 0, 0, 0, -7 -7" transform="rotate(0,362,236)"/><path d="M 355 243v 14h 14v -7a 7 7, 0, 0, 0, -7 -7" transform="rotate(180,362,250)"/><rect x="355" y="271" width="14" height="14" transform="rotate(0,362,278)"/><rect x="355" y="285" width="14" height="14" transform="rotate(0,362,292)"/><path d="M 355 299v 14h 14v -7a 7 7, 0, 0, 0, -7 -7" transform="rotate(180,362,306)"/><path d="M 355 355v 14h 14v -7a 7 7, 0, 0, 0, -7 -7" transform="rotate(-90,362,362)"/><rect x="355" y="369" width="14" height="14" transform="rotate(0,362,376)"/><rect x="355" y="383" width="14" height="14" transform="rotate(0,362,390)"/><rect x="355" y="397" width="14" height="14" transform="rotate(0,362,404)"/><rect x="355" y="411" width="14" height="14" transform="rotate(0,362,418)"/><path d="M 355 425v 14h 7a 7 7, 0, 0, 0, 0 -14" transform="rotate(90,362,432)"/><circle cx="362" cy="474" r="7" transform="rotate(0,362,474)"/><path d="M 369 131v 14h 7a 7 7, 0, 0, 0, 0 -14" transform="rotate(0,376,138)"/><path d="M 369 159v 14h 7a 7 7, 0, 0, 0, 0 -14" transform="rotate(180,376,166)"/><path d="M 369 201v 14h 14v -7a 7 7, 0, 0, 0, -7 -7" transform="rotate(-90,376,208)"/><path d="M 369 215v 14h 14v -7a 7 7, 0, 0, 0, -7 -7" transform="rotate(180,376,222)"/><path d="M 369 243v 14h 7a 7 7, 0, 0, 0, 0 -14" transform="rotate(0,376,250)"/><path d="M 369 271v 14h 7a 7 7, 0, 0, 0, 0 -14" transform="rotate(0,376,278)"/><rect x="369" y="299" width="14" height="14" transform="rotate(0,376,306)"/><path d="M 369 341v 14h 14v -7a 7 7, 0, 0, 0, -7 -7" transform="rotate(-90,376,348)"/><rect x="369" y="355" width="14" height="14" transform="rotate(0,376,362)"/><rect x="369" y="411" width="14" height="14" transform="rotate(0,376,418)"/><path d="M 369 439v 14h 7a 7 7, 0, 0, 0, 0 -14" transform="rotate(180,376,446)"/><rect x="383" y="159" width="14" height="14" transform="rotate(0,390,166)"/><path d="M 383 173v 14h 14v -7a 7 7, 0, 0, 0, -7 -7" transform="rotate(180,390,180)"/><path d="M 383 201v 14h 14v -7a 7 7, 0, 0, 0, -7 -7" transform="rotate(0,390,208)"/><rect x="383" y="215" width="14" height="14" transform="rotate(0,390,222)"/><path d="M 383 229v 14h 14v -7a 7 7, 0, 0, 0, -7 -7" transform="rotate(180,390,236)"/><path d="M 383 285v 14h 7a 7 7, 0, 0, 0, 0 -14" transform="rotate(-90,390,292)"/><rect x="383" y="299" width="14" height="14" transform="rotate(0,390,306)"/><rect x="383" y="313" width="14" height="14" transform="rotate(0,390,320)"/><rect x="383" y="327" width="14" height="14" transform="rotate(0,390,334)"/><rect x="383" y="341" width="14" height="14" transform="rotate(0,390,348)"/><rect x="383" y="355" width="14" height="14" transform="rotate(0,390,362)"/><circle cx="390" cy="390" r="7" transform="rotate(0,390,390)"/><rect x="383" y="411" width="14" height="14" transform="rotate(0,390,418)"/><rect x="383" y="439" width="14" height="14" transform="rotate(0,390,446)"/><path d="M 397 131v 14h 7a 7 7, 0, 0, 0, 0 -14" transform="rotate(180,404,138)"/><rect x="397" y="159" width="14" height="14" transform="rotate(0,404,166)"/><rect x="397" y="173" width="14" height="14" transform="rotate(0,404,180)"/><path d="M 397 187v 14h 7a 7 7, 0, 0, 0, 0 -14" transform="rotate(90,404,194)"/><rect x="397" y="229" width="14" height="14" transform="rotate(0,404,236)"/><path d="M 397 257v 14h 14v -7a 7 7, 0, 0, 0, -7 -7" transform="rotate(-90,404,264)"/><path d="M 397 271v 14h 14v -7a 7 7, 0, 0, 0, -7 -7" transform="rotate(180,404,278)"/><rect x="397" y="341" width="14" height="14" transform="rotate(0,404,348)"/><rect x="397" y="355" width="14" height="14" transform="rotate(0,404,362)"/><rect x="397" y="411" width="14" height="14" transform="rotate(0,404,418)"/><rect x="397" y="425" width="14" height="14" transform="rotate(0,404,432)"/><path d="M 397 439v 14h 14v -7a 7 7, 0, 0, 0, -7 -7" transform="rotate(90,404,446)"/><rect x="411" y="131" width="14" height="14" transform="rotate(0,418,138)"/><rect x="411" y="145" width="14" height="14" transform="rotate(0,418,152)"/><path d="M 411 159v 14h 14v -7a 7 7, 0, 0, 0, -7 -7" transform="rotate(90,418,166)"/><rect x="411" y="229" width="14" height="14" transform="rotate(0,418,236)"/><path d="M 411 257v 14h 14v -7a 7 7, 0, 0, 0, -7 -7" transform="rotate(0,418,264)"/><rect x="411" y="271" width="14" height="14" transform="rotate(0,418,278)"/><rect x="411" y="285" width="14" height="14" transform="rotate(0,418,292)"/><rect x="411" y="299" width="14" height="14" transform="rotate(0,418,306)"/><path d="M 411 313v 14h 14v -7a 7 7, 0, 0, 0, -7 -7" transform="rotate(180,418,320)"/><path d="M 411 341v 14h 14v -7a 7 7, 0, 0, 0, -7 -7" transform="rotate(0,418,348)"/><rect x="411" y="355" width="14" height="14" transform="rotate(0,418,362)"/><rect x="411" y="369" width="14" height="14" transform="rotate(0,418,376)"/><rect x="411" y="383" width="14" height="14" transform="rotate(0,418,390)"/><rect x="411" y="397" width="14" height="14" transform="rotate(0,418,404)"/><path d="M 411 411v 14h 14v -7a 7 7, 0, 0, 0, -7 -7" transform="rotate(90,418,418)"/><path d="M 411 467v 14h 7a 7 7, 0, 0, 0, 0 -14" transform="rotate(180,418,474)"/><path d="M 425 131v 14h 14v -7a 7 7, 0, 0, 0, -7 -7" transform="rotate(0,432,138)"/><path d="M 425 145v 14h 14v -7a 7 7, 0, 0, 0, -7 -7" transform="rotate(90,432,152)"/><circle cx="432" cy="194" r="7" transform="rotate(0,432,194)"/><rect x="425" y="229" width="14" height="14" transform="rotate(0,432,236)"/><path d="M 425 243v 14h 7a 7 7, 0, 0, 0, 0 -14" transform="rotate(90,432,250)"/><rect x="425" y="299" width="14" height="14" transform="rotate(0,432,306)"/><path d="M 425 313v 14h 14v -7a 7 7, 0, 0, 0, -7 -7" transform="rotate(90,432,320)"/><path d="M 425 355v 14h 14v -7a 7 7, 0, 0, 0, -7 -7" transform="rotate(0,432,362)"/><rect x="425" y="369" width="14" height="14" transform="rotate(0,432,376)"/><rect x="425" y="397" width="14" height="14" transform="rotate(0,432,404)"/><rect x="425" y="467" width="14" height="14" transform="rotate(0,432,474)"/><circle cx="446" cy="166" r="7" transform="rotate(0,446,166)"/><path d="M 439 229v 14h 7a 7 7, 0, 0, 0, 0 -14" transform="rotate(0,446,236)"/><path d="M 439 257v 14h 7a 7 7, 0, 0, 0, 0 -14" transform="rotate(180,446,264)"/><path d="M 439 299v 14h 7a 7 7, 0, 0, 0, 0 -14" transform="rotate(0,446,306)"/><circle cx="446" cy="348" r="7" transform="rotate(0,446,348)"/><rect x="439" y="369" width="14" height="14" transform="rotate(0,446,376)"/><rect x="439" y="397" width="14" height="14" transform="rotate(0,446,404)"/><rect x="439" y="411" width="14" height="14" transform="rotate(0,446,418)"/><path d="M 439 425v 14h 14v -7a 7 7, 0, 0, 0, -7 -7" transform="rotate(180,446,432)"/><path d="M 439 453v 14h 14v -7a 7 7, 0, 0, 0, -7 -7" transform="rotate(-90,446,460)"/><rect x="439" y="467" width="14" height="14" transform="rotate(0,446,474)"/><circle cx="460" cy="138" r="7" transform="rotate(0,460,138)"/><path d="M 453 173v 14h 7a 7 7, 0, 0, 0, 0 -14" transform="rotate(180,460,180)"/><circle cx="460" cy="222" r="7" transform="rotate(0,460,222)"/><path d="M 453 243v 14h 7a 7 7, 0, 0, 0, 0 -14" transform="rotate(-90,460,250)"/><path d="M 453 257v 14h 14v -7a 7 7, 0, 0, 0, -7 -7" transform="rotate(90,460,264)"/><circle cx="460" cy="334" r="7" transform="rotate(0,460,334)"/><rect x="453" y="369" width="14" height="14" transform="rotate(0,460,376)"/><rect x="453" y="383" width="14" height="14" transform="rotate(0,460,390)"/><rect x="453" y="397" width="14" height="14" transform="rotate(0,460,404)"/><rect x="453" y="411" width="14" height="14" transform="rotate(0,460,418)"/><rect x="453" y="425" width="14" height="14" transform="rotate(0,460,432)"/><rect x="453" y="439" width="14" height="14" transform="rotate(0,460,446)"/><rect x="453" y="453" width="14" height="14" transform="rotate(0,460,460)"/><path d="M 453 467v 14h 14v -7a 7 7, 0, 0, 0, -7 -7" transform="rotate(90,460,474)"/><circle cx="474" cy="152" r="7" transform="rotate(0,474,152)"/><path d="M 467 173v 14h 14v -7a 7 7, 0, 0, 0, -7 -7" transform="rotate(0,474,180)"/><rect x="467" y="187" width="14" height="14" transform="rotate(0,474,194)"/><path d="M 467 201v 14h 7a 7 7, 0, 0, 0, 0 -14" transform="rotate(90,474,208)"/><circle cx="474" cy="236" r="7" transform="rotate(0,474,236)"/><circle cx="474" cy="278" r="7" transform="rotate(0,474,278)"/><path d="M 467 341v 14h 7a 7 7, 0, 0, 0, 0 -14" transform="rotate(-90,474,348)"/><rect x="467" y="355" width="14" height="14" transform="rotate(0,474,362)"/><rect x="467" y="369" width="14" height="14" transform="rotate(0,474,376)"/><rect x="467" y="383" width="14" height="14" transform="rotate(0,474,390)"/><rect x="467" y="397" width="14" height="14" transform="rotate(0,474,404)"/><rect x="467" y="411" width="14" height="14" transform="rotate(0,474,418)"/><path d="M 467 425v 14h 14v -7a 7 7, 0, 0, 0, -7 -7" transform="rotate(90,474,432)"/><path clip-rule="evenodd" d="M 19 54v 28a 35 35, 0, 0, 0, 35 35h 28a 35 35, 0, 0, 0, 35 -35v -28a 35 35, 0, 0, 0, -35 -35h -28a 35 35, 0, 0, 0, -35 35M 54 33h 28a 21 21, 0, 0, 1, 21 21v 28a 21 21, 0, 0, 1, -21 21h -28a 21 21, 0, 0, 1, -21 -21v -28a 21 21, 0, 0, 1, 21 -21" transform="rotate(0,68,68)"/><circle cx="68" cy="68" r="21" transform="rotate(0,68,68)"/><path clip-rule="evenodd" d="M 383 54v 28a 35 35, 0, 0, 0, 35 35h 28a 35 35, 0, 0, 0, 35 -35v -28a 35 35, 0, 0, 0, -35 -35h -28a 35 35, 0, 0, 0, -35 35M 418 33h 28a 21 21, 0, 0, 1, 21 21v 28a 21 21, 0, 0, 1, -21 21h -28a 21 21, 0, 0, 1, -21 -21v -28a 21 21, 0, 0, 1, 21 -21" transform="rotate(90,432,68)"/><circle cx="432" cy="68" r="21" transform="rotate(90,432,68)"/><path clip-rule="evenodd" d="M 19 418v 28a 35 35, 0, 0, 0, 35 35h 28a 35 35, 0, 0, 0, 35 -35v -28a 35 35, 0, 0, 0, -35 -35h -28a 35 35, 0, 0, 0, -35 35M 54 397h 28a 21 21, 0, 0, 1, 21 21v 28a 21 21, 0, 0, 1, -21 21h -28a 21 21, 0, 0, 1, -21 -21v -28a 21 21, 0, 0, 1, 21 -21" transform="rotate(-90,68,432)"/><circle cx="68" cy="432" r="21" transform="rotate(-90,68,432)"/></clipPath></defs><rect x="0" y="0" height="500" width="500" clip-path="url('#clip-path-background-color')" fill="#ffffff00"/><rect x="0" y="0" height="500" width="500" clip-path="url('#clip-path-dot-color')" fill="#000000"/></svg>