<?xml version="1.0" standalone="no"?>
<svg xmlns="http://www.w3.org/2000/svg" width="500" height="500"><defs><clipPath id="clip-path-dot-color"><path d="M 18 162v 16h 16v -8a 8 8, 0, 0, 0, -8 -8" transform="rotate(-90,26,170)"/><rect x="18" y="178" width="16" height="16" transform="rotate(0,26,186)"/><path d="M 18 194v 16h 16v -8a 8 8, 0, 0, 0, -8 -8" transform="rotate(180,26,202)"/><path d="M 18 226v 16h 16v -8a 8 8, 0, 0, 0, -8 -8" transform="rotate(-90,26,234)"/><path d="M 18 242v 16h 16v -8a 8 8, 0, 0, 0, -8 -8" transform="rotate(180,26,250)"/><circle cx="26" cy="282" r="8" transform="rotate(0,26,282)"/><path d="M 18 338v 16h 8a 8 8, 0, 0, 0, 0 -16" transform="rotate(180,26,346)"/><path d="M 34 146v 16h 8a 8 8, 0, 0, 0, 0 -16" transform="rotate(-90,42,154)"/><path d="M 34 162v 16h 16v -8a 8 8, 0, 0, 0, -8 -8" transform="rotate(90,42,170)"/><path d="M 34 194v 16h 16v -8a 8 8, 0, 0, 0, -8 -8" transform="rotate(0,42,202)"/><rect x="34" y="210" width="16" height="16" transform="rotate(0,42,218)"/><rect x="34" y="226" width="16" height="16" transform="rotate(0,42,234)"/><rect x="34" y="242" width="16" height="16" transform="rotate(0,42,250)"/><path d="M 34 306v 16h 16v -8a 8 8, 0, 0, 0, -8 -8" transform="rotate(-90,42,314)"/><rect x="34" y="322" width="16" height="16" transform="rotate(0,42,330)"/><rect x="34" y="338" width="16" height="16" transform="rotate(0,42,346)"/><path d="M 50 178v 16h 8a 8 8, 0, 0, 0, 0 -16" transform="rotate(180,58,186)"/><rect x="50" y="226" width="16" height="16" transform="rotate(0,58,234)"/><rect x="50" y="242" width="16" height="16" transform="rotate(0,58,250)"/><rect x="50" y="258" width="16" height="16" transform="rotate(0,58,266)"/><path d="M 50 274v 16h 8a 8 8, 0, 0, 0, 0 -16" transform="rotate(90,58,282)"/><path d="M 50 306v 16h 8a 8 8, 0, 0, 0, 0 -16" transform="rotate(0,58,314)"/><path d="M 50 338v 16h 8a 8 8, 0, 0, 0, 0 -16" transform="rotate(0,58,346)"/><path d="M 66 146v 16h 16v -8a 8 8, 0, 0, 0, -8 -8" transform="rotate(-90,74,154)"/><rect x="66" y="162" width="16" height="16" transform="rotate(0,74,170)"/><path d="M 66 178v 16h 16v -8a 8 8, 0, 0, 0, -8 -8" transform="rotate(90,74,186)"/><path d="M 66 210v 16h 16v -8a 8 8, 0, 0, 0, -8 -8" transform="rotate(-90,74,218)"/><rect x="66" y="226" width="16" height="16" transform="rotate(0,74,234)"/><rect x="66" y="242" width="16" height="16" transform="rotate(0,74,250)"/><rect x="66" y="258" width="16" height="16" transform="rotate(0,74,266)"/><path d="M 66 290v 16h 8a 8 8, 0, 0, 0, 0 -16" transform="rotate(180,74,298)"/><path d="M 66 322v 16h 8a 8 8, 0, 0, 0, 0 -16" transform="rotate(180,74,330)"/><path d="M 82 146v 16h 8a 8 8, 0, 0, 0, 0 -16" transform="rotate(0,90,154)"/><rect x="82" y="210" width="16" height="16" transform="rotate(0,90,218)"/><path d="M 82 242v 16h 16v -8a 8 8, 0, 0, 0, -8 -8" transform="rotate(0,90,250)"/><rect x="82" y="258" width="16" height="16" transform="rotate(0,90,266)"/><rect x="82" y="274" width="16" height="16" transform="rotate(0,90,282)"/><rect x="82" y="290" width="16" height="16" transform="rotate(0,90,298)"/><rect x="82" y="306" width="16" height="16" transform="rotate(0,90,314)"/><path d="M 82 322v 16h 16v -8a 8 8, 0, 0, 0, -8 -8" transform="rotate(90,90,330)"/><circle cx="106" cy="170" r="8" transform="rotate(0,106,170)"/><rect x="98" y="210" width="16" height="16" transform="rotate(0,106,218)"/><path d="M 98 226v 16h 8a 8 8, 0, 0, 0, 0 -16" transform="rotate(90,106,234)"/><rect x="98" y="274" width="16" height="16" transform="rotate(0,106,282)"/><rect x="98" y="290" width="16" height="16" transform="rotate(0,106,298)"/><rect x="98" y="306" width="16" height="16" transform="rotate(0,106,314)"/><path d="M 114 146v 16h 8a 8 8, 0, 0, 0, 0 -16" transform="rotate(180,122,154)"/><circle cx="122" cy="186" r="8" transform="rotate(0,122,186)"/><rect x="114" y="210" width="16" height="16" transform="rotate(0,122,218)"/><path d="M 114 242v 16h 8a 8 8, 0, 0, 0, 0 -16" transform="rotate(180,122,250)"/><path d="M 114 274v 16h 8a 8 8, 0, 0, 0, 0 -16" transform="rotate(0,122,282)"/><rect x="114" y="306" width="16" height="16" transform="rotate(0,122,314)"/><path d="M 114 338v 16h 8a 8 8, 0, 0, 0, 0 -16" transform="rotate(180,122,346)"/><rect x="130" y="146" width="16" height="16" transform="rotate(0,138,154)"/><path d="M 130 194v 16h 16v -8a 8 8, 0, 0, 0, -8 -8" transform="rotate(-90,138,202)"/><path d="M 130 210v 16h 16v -8a 8 8, 0, 0, 0, -8 -8" transform="rotate(90,138,218)"/><path d="M 130 242v 16h 16v -8a 8 8, 0, 0, 0, -8 -8" transform="rotate(0,138,250)"/><path d="M 130 258v 16h 8a 8 8, 0, 0, 0, 0 -16" transform="rotate(90,138,266)"/><rect x="130" y="306" width="16" height="16" transform="rotate(0,138,314)"/><path d="M 130 338v 16h 8a 8 8, 0, 0, 0, 0 -16" transform="rotate(0,138,346)"/><path d="M 146 34v 16h 8a 8 8, 0, 0, 0, 0 -16" transform="rotate(180,154,42)"/><path d="M 146 66v 16h 16v -8a 8 8, 0, 0, 0, -8 -8" transform="rotate(-90,154,74)"/><rect x="146" y="82" width="16" height="16" transform="rotate(0,154,90)"/><rect x="146" y="98" width="16" height="16" transform="rotate(0,154,106)"/><path d="M 146 114v 16h 8a 8 8, 0, 0, 0, 0 -16" transform="rotate(90,154,122)"/><path d="M 146 146v 16h 8a 8 8, 0, 0, 0, 0 -16" transform="rotate(0,154,154)"/><rect x="146" y="194" width="16" height="16" transform="rotate(0,154,202)"/><path d="M 146 290v 16h 16v -8a 8 8, 0, 0, 0, -8 -8" transform="rotate(-90,154,298)"/><rect x="146" y="306" width="16" height="16" transform="rotate(0,154,314)"/><path d="M 146 322v 16h 16v -8a 8 8, 0, 0, 0, -8 -8" transform="rotate(180,154,330)"/><path d="M 146 354v 16h 16v -8a 8 8, 0, 0, 0, -8 -8" transform="rotate(-90,154,362)"/><path d="M 146 370v 16h 8a 8 8, 0, 0, 0, 0 -16" transform="rotate(90,154,378)"/><path d="M 146 402v 16h 16v -8a 8 8, 0, 0, 0, -8 -8" transform="rotate(-90,154,410)"/><path d="M 146 418v 16h 16v -8a 8 8, 0, 0, 0, -8 -8" transform="rotate(180,154,426)"/><path d="M 146 450v 16h 8a 8 8, 0, 0, 0, 0 -16" transform="rotate(180,154,458)"/><path d="M 162 18v 16h 8a 8 8, 0, 0, 0, 0 -16" transform="rotate(-90,170,26)"/><rect x="162" y="34" width="16" height="16" transform="rotate(0,170,42)"/><rect x="162" y="66" width="16" height="16" transform="rotate(0,170,74)"/><path d="M 162 178v 16h 8a 8 8, 0, 0, 0, 0 -16" transform="rotate(-90,170,186)"/><rect x="162" y="194" width="16" height="16" transform="rotate(0,170,202)"/><path d="M 162 274v 16h 8a 8 8, 0, 0, 0, 0 -16" transform="rotate(-90,170,282)"/><rect x="162" y="290" width="16" height="16" transform="rotate(0,170,298)"/><path d="M 162 322v 16h 16v -8a 8 8, 0, 0, 0, -8 -8" transform="rotate(0,170,330)"/><rect x="162" y="338" width="16" height="16" transform="rotate(0,170,346)"/><rect x="162" y="354" width="16" height="16" transform="rotate(0,170,362)"/><path d="M 162 402v 16h 16v -8a 8 8, 0, 0, 0, -8 -8" transform="rotate(0,170,410)"/><rect x="162" y="418" width="16" height="16" transform="rotate(0,170,426)"/><path d="M 162 450v 16h 8a 8 8, 0, 0, 0, 0 -16" transform="rotate(0,170,458)"/><path d="M 178 34v 16h 16v -8a 8 8, 0, 0, 0, -8 -8" transform="rotate(0,186,42)"/><rect x="178" y="50" width="16" height="16" transform="rotate(0,186,58)"/><path d="M 178 66v 16h 16v -8a 8 8, 0, 0, 0, -8 -8" transform="rotate(90,186,74)"/><path d="M 178 98v 16h 8a 8 8, 0, 0, 0, 0 -16" transform="rotate(-90,186,106)"/><path d="M 178 114v 16h 8a 8 8, 0, 0, 0, 0 -16" transform="rotate(90,186,122)"/><path d="M 178 146v 16h 16v -8a 8 8, 0, 0, 0, -8 -8" transform="rotate(-90,186,154)"/><path d="M 178 162v 16h 16v -8a 8 8, 0, 0, 0, -8 -8" transform="rotate(180,186,170)"/><rect x="178" y="194" width="16" height="16" transform="rotate(0,186,202)"/><path d="M 178 226v 16h 8a 8 8, 0, 0, 0, 0 -16" transform="rotate(180,186,234)"/><rect x="178" y="290" width="16" height="16" transform="rotate(0,186,298)"/><path d="M 178 306v 16h 8a 8 8, 0, 0, 0, 0 -16" transform="rotate(90,186,314)"/><path d="M 178 354v 16h 16v -8a 8 8, 0, 0, 0, -8 -8" transform="rotate(0,186,362)"/><path d="M 178 370v 16h 8a 8 8, 0, 0, 0, 0 -16" transform="rotate(90,186,378)"/><rect x="178" y="418" width="16" height="16" transform="rotate(0,186,426)"/><rect x="194" y="50" width="16" height="16" transform="rotate(0,202,58)"/><rect x="194" y="146" width="16" height="16" transform="rotate(0,202,154)"/><rect x="194" y="162" width="16" height="16" transform="rotate(0,202,170)"/><rect x="194" y="194" width="16" height="16" transform="rotate(0,202,202)"/><rect x="194" y="226" width="16" height="16" transform="rotate(0,202,234)"/><path d="M 194 258v 16h 8a 8 8, 0, 0, 0, 0 -16" transform="rotate(-90,202,266)"/><rect x="194" y="274" width="16" height="16" transform="rotate(0,202,282)"/><path d="M 194 290v 16h 16v -8a 8 8, 0, 0, 0, -8 -8" transform="rotate(90,202,298)"/><rect x="194" y="418" width="16" height="16" transform="rotate(0,202,426)"/><circle cx="202" cy="474" r="8" transform="rotate(0,202,474)"/><path d="M 210 34v 16h 8a 8 8, 0, 0, 0, 0 -16" transform="rotate(-90,218,42)"/><rect x="210" y="50" width="16" height="16" transform="rotate(0,218,58)"/><path d="M 210 82v 16h 8a 8 8, 0, 0, 0, 0 -16" transform="rotate(180,218,90)"/><circle cx="218" cy="122" r="8" transform="rotate(0,218,122)"/><rect x="210" y="146" width="16" height="16" transform="rotate(0,218,154)"/><path d="M 210 162v 16h 16v -8a 8 8, 0, 0, 0, -8 -8" transform="rotate(90,218,170)"/><path d="M 210 194v 16h 16v -8a 8 8, 0, 0, 0, -8 -8" transform="rotate(0,218,202)"/><rect x="210" y="210" width="16" height="16" transform="rotate(0,218,218)"/><rect x="210" y="226" width="16" height="16" transform="rotate(0,218,234)"/><path d="M 210 354v 16h 8a 8 8, 0, 0, 0, 0 -16" transform="rotate(-90,218,362)"/><path d="M 210 370v 16h 16v -8a 8 8, 0, 0, 0, -8 -8" transform="rotate(180,218,378)"/><path d="M 210 418v 16h 8a 8 8, 0, 0, 0, 0 -16" transform="rotate(0,218,426)"/><circle cx="218" cy="458" r="8" transform="rotate(0,218,458)"/><path d="M 226 50v 16h 8a 8 8, 0, 0, 0, 0 -16" transform="rotate(0,234,58)"/><rect x="226" y="82" width="16" height="16" transform="rotate(0,234,90)"/><path d="M 226 98v 16h 8a 8 8, 0, 0, 0, 0 -16" transform="rotate(90,234,106)"/><path d="M 226 146v 16h 8a 8 8, 0, 0, 0, 0 -16" transform="rotate(0,234,154)"/><path d="M 226 178v 16h 8a 8 8, 0, 0, 0, 0 -16" transform="rotate(180,234,186)"/><path d="M 226 226v 16h 8a 8 8, 0, 0, 0, 0 -16" transform="rotate(0,234,234)"/><path d="M 226 258v 16h 16v -8a 8 8, 0, 0, 0, -8 -8" transform="rotate(-90,234,266)"/><path d="M 226 274v 16h 8a 8 8, 0, 0, 0, 0 -16" transform="rotate(90,234,282)"/><rect x="226" y="370" width="16" height="16" transform="rotate(0,234,378)"/><circle cx="234" cy="410" r="8" transform="rotate(0,234,410)"/><circle cx="234" cy="442" r="8" transform="rotate(0,234,442)"/><path d="M 226 466v 16h 8a 8 8, 0, 0, 0, 0 -16" transform="rotate(180,234,474)"/><rect x="242" y="82" width="16" height="16" transform="rotate(0,250,90)"/><path d="M 242 114v 16h 8a 8 8, 0, 0, 0, 0 -16" transform="rotate(-90,250,122)"/><path d="M 242 130v 16h 16v -8a 8 8, 0, 0, 0, -8 -8" transform="rotate(180,250,138)"/><path d="M 242 162v 16h 16v -8a 8 8, 0, 0, 0, -8 -8" transform="rotate(-90,250,170)"/><rect x="242" y="178" width="16" height="16" transform="rotate(0,250,186)"/><path d="M 242 242v 16h 16v -8a 8 8, 0, 0, 0, -8 -8" transform="rotate(-90,250,250)"/><path d="M 242 258v 16h 16v -8a 8 8, 0, 0, 0, -8 -8" transform="rotate(90,250,266)"/><circle cx="250" cy="298" r="8" transform="rotate(0,250,298)"/><path d="M 242 322v 16h 8a 8 8, 0, 0, 0, 0 -16" transform="rotate(-90,250,330)"/><rect x="242" y="338" width="16" height="16" transform="rotate(0,250,346)"/><rect x="242" y="354" width="16" height="16" transform="rotate(0,250,362)"/><rect x="242" y="370" width="16" height="16" transform="rotate(0,250,378)"/><path d="M 242 386v 16h 8a 8 8, 0, 0, 0, 0 -16" transform="rotate(90,250,394)"/><path d="M 242 418v 16h 8a 8 8, 0, 0, 0, 0 -16" transform="rotate(180,250,426)"/><path d="M 242 450v 16h 16v -8a 8 8, 0, 0, 0, -8 -8" transform="rotate(-90,250,458)"/><path d="M 242 466v 16h 16v -8a 8 8, 0, 0, 0, -8 -8" transform="rotate(90,250,474)"/><path d="M 258 34v 16h 8a 8 8, 0, 0, 0, 0 -16" transform="rotate(-90,266,42)"/><path d="M 258 50v 16h 16v -8a 8 8, 0, 0, 0, -8 -8" transform="rotate(180,266,58)"/><path d="M 258 82v 16h 16v -8a 8 8, 0, 0, 0, -8 -8" transform="rotate(0,266,90)"/><path d="M 258 98v 16h 16v -8a 8 8, 0, 0, 0, -8 -8" transform="rotate(180,266,106)"/><path d="M 258 130v 16h 8a 8 8, 0, 0, 0, 0 -16" transform="rotate(0,266,138)"/><rect x="258" y="162" width="16" height="16" transform="rotate(0,266,170)"/><rect x="258" y="178" width="16" height="16" transform="rotate(0,266,186)"/><rect x="258" y="242" width="16" height="16" transform="rotate(0,266,250)"/><path d="M 258 338v 16h 8a 8 8, 0, 0, 0, 0 -16" transform="rotate(0,266,346)"/><path d="M 258 402v 16h 8a 8 8, 0, 0, 0, 0 -16" transform="rotate(-90,266,410)"/><rect x="258" y="418" width="16" height="16" transform="rotate(0,266,426)"/><rect x="258" y="434" width="16" height="16" transform="rotate(0,266,442)"/><path d="M 258 450v 16h 16v -8a 8 8, 0, 0, 0, -8 -8" transform="rotate(90,266,458)"/><path d="M 274 18v 16h 8a 8 8, 0, 0, 0, 0 -16" transform="rotate(180,282,26)"/><path d="M 274 50v 16h 16v -8a 8 8, 0, 0, 0, -8 -8" transform="rotate(0,282,58)"/><path d="M 274 66v 16h 16v -8a 8 8, 0, 0, 0, -8 -8" transform="rotate(180,282,74)"/><path d="M 274 98v 16h 16v -8a 8 8, 0, 0, 0, -8 -8" transform="rotate(0,282,106)"/><path d="M 274 114v 16h 8a 8 8, 0, 0, 0, 0 -16" transform="rotate(90,282,122)"/><path d="M 274 146v 16h 8a 8 8, 0, 0, 0, 0 -16" transform="rotate(-90,282,154)"/><rect x="274" y="162" width="16" height="16" transform="rotate(0,282,170)"/><rect x="274" y="178" width="16" height="16" transform="rotate(0,282,186)"/><path d="M 274 194v 16h 16v -8a 8 8, 0, 0, 0, -8 -8" transform="rotate(180,282,202)"/><path d="M 274 226v 16h 8a 8 8, 0, 0, 0, 0 -16" transform="rotate(-90,282,234)"/><path d="M 274 242v 16h 16v -8a 8 8, 0, 0, 0, -8 -8" transform="rotate(90,282,250)"/><circle cx="282" cy="314" r="8" transform="rotate(0,282,314)"/><path d="M 274 354v 16h 8a 8 8, 0, 0, 0, 0 -16" transform="rotate(180,282,362)"/><path d="M 274 386v 16h 8a 8 8, 0, 0, 0, 0 -16" transform="rotate(180,282,394)"/><path d="M 274 418v 16h 8a 8 8, 0, 0, 0, 0 -16" transform="rotate(0,282,426)"/><rect x="290" y="18" width="16" height="16" transform="rotate(0,298,26)"/><path d="M 290 34v 16h 16v -8a 8 8, 0, 0, 0, -8 -8" transform="rotate(180,298,42)"/><rect x="290" y="66" width="16" height="16" transform="rotate(0,298,74)"/><circle cx="298" cy="138" r="8" transform="rotate(0,298,138)"/><rect x="290" y="178" width="16" height="16" transform="rotate(0,298,186)"/><path d="M 290 194v 16h 16v -8a 8 8, 0, 0, 0, -8 -8" transform="rotate(90,298,202)"/><path d="M 290 274v 16h 8a 8 8, 0, 0, 0, 0 -16" transform="rotate(-90,298,282)"/><path d="M 290 290v 16h 8a 8 8, 0, 0, 0, 0 -16" transform="rotate(90,298,298)"/><path d="M 290 322v 16h 8a 8 8, 0, 0, 0, 0 -16" transform="rotate(180,298,330)"/><path d="M 290 354v 16h 8a 8 8, 0, 0, 0, 0 -16" transform="rotate(0,298,362)"/><path d="M 290 386v 16h 16v -8a 8 8, 0, 0, 0, -8 -8" transform="rotate(0,298,394)"/><path d="M 290 402v 16h 8a 8 8, 0, 0, 0, 0 -16" transform="rotate(90,298,410)"/><rect x="306" y="18" width="16" height="16" transform="rotate(0,314,26)"/><rect x="306" y="34" width="16" height="16" transform="rotate(0,314,42)"/><rect x="306" y="50" width="16" height="16" transform="rotate(0,314,58)"/><rect x="306" y="66" width="16" height="16" transform="rotate(0,314,74)"/><path d="M 306 82v 16h 8a 8 8, 0, 0, 0, 0 -16" transform="rotate(90,314,90)"/><circle cx="314" cy="122" r="8" transform="rotate(0,314,122)"/><circle cx="314" cy="154" r="8" transform="rotate(0,314,154)"/><path d="M 306 178v 16h 8a 8 8, 0, 0, 0, 0 -16" transform="rotate(0,314,186)"/><circle cx="314" cy="266" r="8" transform="rotate(0,314,266)"/><rect x="306" y="322" width="16" height="16" transform="rotate(0,314,330)"/><path d="M 306 338v 16h 16v -8a 8 8, 0, 0, 0, -8 -8" transform="rotate(180,314,346)"/><path d="M 306 434v 16h 8a 8 8, 0, 0, 0, 0 -16" transform="rotate(180,314,442)"/><circle cx="314" cy="474" r="8" transform="rotate(0,314,474)"/><rect x="322" y="18" width="16" height="16" transform="rotate(0,330,26)"/><rect x="322" y="34" width="16" height="16" transform="rotate(0,330,42)"/><circle cx="330" cy="138" r="8" transform="rotate(0,330,138)"/><path d="M 322 226v 16h 8a 8 8, 0, 0, 0, 0 -16" transform="rotate(180,330,234)"/><circle cx="330" cy="282" r="8" transform="rotate(0,330,282)"/><path d="M 322 306v 16h 16v -8a 8 8, 0, 0, 0, -8 -8" transform="rotate(-90,330,314)"/><rect x="322" y="322" width="16" height="16" transform="rotate(0,330,330)"/><rect x="322" y="338" width="16" height="16" transform="rotate(0,330,346)"/><rect x="322" y="354" width="16" height="16" transform="rotate(0,330,362)"/><path d="M 322 370v 16h 16v -8a 8 8, 0, 0, 0, -8 -8" transform="rotate(180,330,378)"/><path d="M 322 402v 16h 8a 8 8, 0, 0, 0, 0 -16" transform="rotate(180,330,410)"/><rect x="322" y="434" width="16" height="16" transform="rotate(0,330,442)"/><path d="M 338 18v 16h 16v -8a 8 8, 0, 0, 0, -8 -8" transform="rotate(0,346,26)"/><rect x="338" y="34" width="16" height="16" transform="rotate(0,346,42)"/><rect x="338" y="50" width="16" height="16" transform="rotate(0,346,58)"/><path d="M 338 66v 16h 8a 8 8, 0, 0, 0, 0 -16" transform="rotate(90,346,74)"/><circle cx="346" cy="122" r="8" transform="rotate(0,346,122)"/><path d="M 338 146v 16h 8a 8 8, 0, 0, 0, 0 -16" transform="rotate(180,346,154)"/><circle cx="346" cy="186" r="8" transform="rotate(0,346,186)"/><rect x="338" y="226" width="16" height="16" transform="rotate(0,346,234)"/><path d="M 338 258v 16h 8a 8 8, 0, 0, 0, 0 -16" transform="rotate(180,346,266)"/><path d="M 338 290v 16h 8a 8 8, 0, 0, 0, 0 -16" transform="rotate(-90,346,298)"/><rect x="338" y="306" width="16" height="16" transform="rotate(0,346,314)"/><rect x="338" y="322" width="16" height="16" transform="rotate(0,346,330)"/><rect x="338" y="338" width="16" height="16" transform="rotate(0,346,346)"/><rect x="338" y="354" width="16" height="16" transform="rotate(0,346,362)"/><rect x="338" y="370" width="16" height="16" transform="rotate(0,346,378)"/><rect x="338" y="386" width="16" height="16" transform="rotate(0,346,394)"/><rect x="338" y="402" width="16" height="16" transform="rotate(0,346,410)"/><rect x="338" y="418" width="16" height="16" transform="rotate(0,346,426)"/><rect x="338" y="434" width="16" height="16" transform="rotate(0,346,442)"/><rect x="338" y="450" width="16" height="16" transform="rotate(0,346,458)"/><path d="M 338 466v 16h 8a 8 8, 0, 0, 0, 0 -16" transform="rotate(90,346,474)"/><path d="M 354 146v 16h 8a 8 8, 0, 0, 0, 0 -16" transform="rotate(0,362,154)"/><path d="M 354 210v 16h 16v -8a 8 8, 0, 0, 0, -8 -8" transform="rotate(-90,362,218)"/><rect x="354" y="226" width="16" height="16" transform="rotate(0,362,234)"/><rect x="354" y="258" width="16" height="16" transform="rotate(0,362,266)"/><path d="M 354 306v 16h 8a 8 8, 0, 0, 0, 0 -16" transform="rotate(0,362,314)"/><rect x="354" y="338" width="16" height="16" transform="rotate(0,362,346)"/><rect x="354" y="402" width="16" height="16" transform="rotate(0,362,410)"/><rect x="354" y="418" width="16" height="16" transform="rotate(0,362,426)"/><rect x="354" y="434" width="16" height="16" transform="rotate(0,362,442)"/><circle cx="378" cy="170" r="8" transform="rotate(0,378,170)"/><path d="M 370 210v 16h 16v -8a 8 8, 0, 0, 0, -8 -8" transform="rotate(0,378,218)"/><path d="M 370 226v 16h 16v -8a 8 8, 0, 0, 0, -8 -8" transform="rotate(90,378,234)"/><rect x="370" y="258" width="16" height="16" transform="rotate(0,378,266)"/><path d="M 370 274v 16h 8a 8 8, 0, 0, 0, 0 -16" transform="rotate(90,378,282)"/><path d="M 370 322v 16h 16v -8a 8 8, 0, 0, 0, -8 -8" transform="rotate(-90,378,330)"/><rect x="370" y="338" width="16" height="16" transform="rotate(0,378,346)"/><circle cx="378" cy="378" r="8" transform="rotate(0,378,378)"/><rect x="370" y="402" width="16" height="16" transform="rotate(0,378,410)"/><path d="M 370 434v 16h 8a 8 8, 0, 0, 0, 0 -16" transform="rotate(0,378,442)"/><path d="M 386 146v 16h 8a 8 8, 0, 0, 0, 0 -16" transform="rotate(180,394,154)"/><circle cx="394" cy="202" r="8" transform="rotate(0,394,202)"/><path d="M 386 242v 16h 8a 8 8, 0, 0, 0, 0 -16" transform="rotate(-90,394,250)"/><path d="M 386 258v 16h 16v -8a 8 8, 0, 0, 0, -8 -8" transform="rotate(90,394,266)"/><path d="M 386 290v 16h 8a 8 8, 0, 0, 0, 0 -16" transform="rotate(-90,394,298)"/><rect x="386" y="306" width="16" height="16" transform="rotate(0,394,314)"/><rect x="386" y="322" width="16" height="16" transform="rotate(0,394,330)"/><rect x="386" y="338" width="16" height="16" transform="rotate(0,394,346)"/><rect x="386" y="402" width="16" height="16" transform="rotate(0,394,410)"/><path d="M 386 418v 16h 8a 8 8, 0, 0, 0, 0 -16" transform="rotate(90,394,426)"/><rect x="402" y="146" width="16" height="16" transform="rotate(0,410,154)"/><path d="M 402 162v 16h 16v -8a 8 8, 0, 0, 0, -8 -8" transform="rotate(180,410,170)"/><path d="M 402 210v 16h 8a 8 8, 0, 0, 0, 0 -16" transform="rotate(180,410,218)"/><path d="M 402 306v 16h 16v -8a 8 8, 0, 0, 0, -8 -8" transform="rotate(0,410,314)"/><rect x="402" y="322" width="16" height="16" transform="rotate(0,410,330)"/><rect x="402" y="338" width="16" height="16" transform="rotate(0,410,346)"/><rect x="402" y="354" width="16" height="16" transform="rotate(0,410,362)"/><rect x="402" y="370" width="16" height="16" transform="rotate(0,410,378)"/><rect x="402" y="386" width="16" height="16" transform="rotate(0,410,394)"/><path d="M 402 402v 16h 16v -8a 8 8, 0, 0, 0, -8 -8" transform="rotate(90,410,410)"/><path d="M 402 450v 16h 8a 8 8, 0, 0, 0, 0 -16" transform="rotate(-90,410,458)"/><path d="M 402 466v 16h 16v -8a 8 8, 0, 0, 0, -8 -8" transform="rotate(180,410,474)"/><path d="M 418 146v 16h 16v -8a 8 8, 0, 0, 0, -8 -8" transform="rotate(0,426,154)"/><rect x="418" y="162" width="16" height="16" transform="rotate(0,426,170)"/><rect x="418" y="210" width="16" height="16" transform="rotate(0,426,218)"/><path d="M 418 258v 16h 8a 8 8, 0, 0, 0, 0 -16" transform="rotate(180,426,266)"/><path d="M 418 290v 16h 8a 8 8, 0, 0, 0, 0 -16" transform="rotate(180,426,298)"/><rect x="418" y="386" width="16" height="16" transform="rotate(0,426,394)"/><path d="M 418 418v 16h 16v -8a 8 8, 0, 0, 0, -8 -8" transform="rotate(-90,426,426)"/><path d="M 418 434v 16h 16v -8a 8 8, 0, 0, 0, -8 -8" transform="rotate(180,426,442)"/><rect x="418" y="466" width="16" height="16" transform="rotate(0,426,474)"/><rect x="434" y="162" width="16" height="16" transform="rotate(0,442,170)"/><path d="M 434 194v 16h 16v -8a 8 8, 0, 0, 0, -8 -8" transform="rotate(-90,442,202)"/><rect x="434" y="210" width="16" height="16" transform="rotate(0,442,218)"/><rect x="434" y="226" width="16" height="16" transform="rotate(0,442,234)"/><rect x="434" y="242" width="16" height="16" transform="rotate(0,442,250)"/><rect x="434" y="258" width="16" height="16" transform="rotate(0,442,266)"/><path d="M 434 290v 16h 8a 8 8, 0, 0, 0, 0 -16" transform="rotate(0,442,298)"/><path d="M 434 338v 16h 8a 8 8, 0, 0, 0, 0 -16" transform="rotate(-90,442,346)"/><path d="M 434 354v 16h 16v -8a 8 8, 0, 0, 0, -8 -8" transform="rotate(180,442,362)"/><path d="M 434 386v 16h 16v -8a 8 8, 0, 0, 0, -8 -8" transform="rotate(0,442,394)"/><rect x="434" y="402" width="16" height="16" transform="rotate(0,442,410)"/><rect x="434" y="418" width="16" height="16" transform="rotate(0,442,426)"/><rect x="434" y="434" width="16" height="16" transform="rotate(0,442,442)"/><rect x="434" y="450" width="16" height="16" transform="rotate(0,442,458)"/><rect x="434" y="466" width="16" height="16" transform="rotate(0,442,474)"/><path d="M 450 146v 16h 8a 8 8, 0, 0, 0, 0 -16" transform="rotate(-90,458,154)"/><path d="M 450 162v 16h 16v -8a 8 8, 0, 0, 0, -8 -8" transform="rotate(90,458,170)"/><path d="M 450 194v 16h 8a 8 8, 0, 0, 0, 0 -16" transform="rotate(0,458,202)"/><rect x="450" y="242" width="16" height="16" transform="rotate(0,458,250)"/><rect x="450" y="258" width="16" height="16" transform="rotate(0,458,266)"/><path d="M 450 274v 16h 8a 8 8, 0, 0, 0, 0 -16" transform="rotate(90,458,282)"/><path d="M 450 306v 16h 8a 8 8, 0, 0, 0, 0 -16" transform="rotate(-90,458,314)"/><path d="M 450 322v 16h 8a 8 8, 0, 0, 0, 0 -16" transform="rotate(90,458,330)"/><path d="M 450 354v 16h 16v -8a 8 8, 0, 0, 0, -8 -8" transform="rotate(0,458,362)"/><path d="M 450 370v 16h 8a 8 8, 0, 0, 0, 0 -16" transform="rotate(90,458,378)"/><rect x="450" y="402" width="16" height="16" transform="rotate(0,458,410)"/><rect x="450" y="418" width="16" height="16" transform="rotate(0,458,426)"/><path d="M 450 434v 16h 16v -8a 8 8, 0, 0, 0, -8 -8" transform="rotate(90,458,442)"/><path d="M 450 466v 16h 8a 8 8, 0, 0, 0, 0 -16" transform="rotate(0,458,474)"/><circle cx="474" cy="218" r="8" transform="rotate(0,474,218)"/><path d="M 466 242v 16h 16v -8a 8 8, 0, 0, 0, -8 -8" transform="rotate(0,474,250)"/><path d="M 466 258v 16h 16v -8a 8 8, 0, 0, 0, -8 -8" transform="rotate(90,474,266)"/><circle cx="474" cy="346" r="8" transform="rotate(0,474,346)"/><path d="M 466 386v 16h 8a 8 8, 0, 0, 0, 0 -16" transform="rotate(-90,474,394)"/><rect x="466" y="402" width="16" height="16" transform="rotate(0,474,410)"/><path d="M 466 418v 16h 16v -8a 8 8, 0, 0, 0, -8 -8" transform="rotate(90,474,426)"/><path clip-rule="evenodd" d="M 18 58v 32a 40 40, 0, 0, 0, 40 40h 32a 40 40, 0, 0, 0, 40 -40v -32a 40 40, 0, 0, 0, -40 -40h -32a 40 40, 0, 0, 0, -40 40M 58 34h 32a 24 24, 0, 0, 1, 24 24v 32a 24 24, 0, 0, 1, -24 24h -32a 24 24, 0, 0, 1, -24 -24v -32a 24 24, 0, 0, 1, 24 -24" transform="rotate(0,74,74)"/><circle cx="74" cy="74" r="24" transform="rotate(0,74,74)"/><path clip-rule="evenodd" d="M 370 58v 32a 40 40, 0, 0, 0, 40 40h 32a 40 40, 0, 0, 0, 40 -40v -32a 40 40, 0, 0, 0, -40 -40h -32a 40 40, 0, 0, 0, -40 40M 410 34h 32a 24 24, 0, 0, 1, 24 24v 32a 24 24, 0, 0, 1, -24 24h -32a 24 24, 0, 0, 1, -24 -24v -32a 24 24, 0, 0, 1, 24 -24" transform="rotate(90,426,74)"/><circle cx="426" cy="74" r="24" transform="rotate(90,426,74)"/><path clip-rule="evenodd" d="M 18 410v 32a 40 40, 0, 0, 0, 40 40h 32a 40 40, 0, 0, 0, 40 -40v -32a 40 40, 0, 0, 0, -40 -40h -32a 40 40, 0, 0, 0, -40 40M 58 386h 32a 24 24, 0, 0, 1, 24 24v 32a 24 24, 0, 0, 1, -24 24h -32a 24 24, 0, 0, 1, -24 -24v -32a 24 24, 0, 0, 1, 24 -24" transform="rotate(-90,74,426)"/><circle cx="74" cy="426" r="24" transform="rotate(-90,74,426)"/></clipPath></defs><rect x="0" y="0" height="500" width="500" clip-path="url('#clip-path-background-color')" fill="#ffffff00"/><rect x="0" y="0" height="500" width="500" clip-path="url('#clip-path-dot-color')" fill="#000000"/></svg>