<svg width="2910" height="1330" viewBox="0 0 2910 1330" fill="none" xmlns="http://www.w3.org/2000/svg">
<rect x="6" y="6" width="268" height="268" rx="134" fill="#D9D9D9"/>
<rect x="3" y="3" width="274" height="274" rx="137" stroke="#404040" stroke-opacity="0.352941" stroke-width="6"/>
<path d="M106.301 122.636L118.847 144.045L131.392 122.636H140.665L123.756 148.818L140.665 175H131.392L118.847 154.682L106.301 175H97.0284L113.665 148.818L97.0284 122.636H106.301ZM165.918 187.818C160.463 187.818 156.19 185.886 153.099 182.023C150.009 178.182 148.463 172.886 148.463 166.136C148.463 159.386 150.009 154.114 153.099 150.318C156.19 146.5 160.463 144.591 165.918 144.591C171.304 144.591 175.554 146.477 178.668 150.25C181.804 154.023 183.372 159.318 183.372 166.136C183.372 172.955 181.804 178.273 178.668 182.091C175.554 185.909 171.304 187.818 165.918 187.818ZM165.918 181.682C168.918 181.682 171.327 180.364 173.145 177.727C174.963 175.114 175.872 171.25 175.872 166.136C175.872 161.023 174.963 157.159 173.145 154.545C171.327 151.909 168.918 150.591 165.918 150.591C162.918 150.591 160.509 151.909 158.69 154.545C156.872 157.159 155.963 161.023 155.963 166.136C155.963 171.182 156.849 175.034 158.622 177.693C160.418 180.352 162.849 181.682 165.918 181.682Z" fill="#2B2A2B"/>
<rect x="6" y="414" width="268" height="268" rx="134" fill="#D9D9D9"/>
<rect x="3" y="411" width="274" height="274" rx="137" stroke="#404040" stroke-opacity="0.352941" stroke-width="6"/>
<path d="M112.395 530.636L124.94 552.045L137.486 530.636H146.759L129.849 556.818L146.759 583H137.486L124.94 562.682L112.395 583H103.122L119.759 556.818L103.122 530.636H112.395ZM165.807 595V560.568H165.466L154.693 567.727V560.5L165.807 553.136H172.898V595H165.807Z" fill="#2B2A2B"/>
<rect x="6" y="822" width="268" height="268" rx="134" fill="#D9D9D9"/>
<rect x="3" y="819" width="274" height="274" rx="137" stroke="#404040" stroke-opacity="0.352941" stroke-width="6"/>
<path d="M107.239 938.636L119.784 960.045L132.33 938.636H141.602L124.693 964.818L141.602 991H132.33L119.784 970.682L107.239 991H97.9659L114.602 964.818L97.9659 938.636H107.239ZM150.491 1003V997.682L166.446 983.5C168.037 982.091 169.366 980.83 170.435 979.716C171.503 978.602 172.31 977.523 172.855 976.477C173.401 975.432 173.673 974.318 173.673 973.136C173.673 971.091 172.889 969.466 171.321 968.261C169.753 967.057 167.81 966.455 165.491 966.455C163.037 966.455 161.06 967.114 159.56 968.432C158.06 969.727 157.31 971.432 157.31 973.545H150.219C150.219 969.659 151.662 966.534 154.548 964.17C157.435 961.784 161.128 960.591 165.628 960.591C168.628 960.591 171.264 961.136 173.537 962.227C175.81 963.295 177.582 964.773 178.855 966.659C180.128 968.523 180.764 970.636 180.764 973C180.764 974.864 180.389 976.591 179.639 978.182C178.889 979.773 177.719 981.42 176.128 983.125C174.537 984.83 172.491 986.773 169.991 988.955L161.128 996.727V997H181.991V1003H150.491Z" fill="#2B2A2B"/>
<path d="M522.278 248.496C519.681 247.594 517.528 246.136 515.822 244.124C514.122 242.09 513.002 239.776 512.459 237.181C511.939 234.594 512.13 232.002 513.032 229.404C513.942 226.785 515.4 224.633 517.405 222.948C519.439 221.248 521.749 220.138 524.336 219.618C526.931 219.076 529.527 219.256 532.124 220.158C534.744 221.068 536.892 222.537 538.57 224.563C540.277 226.576 541.39 228.875 541.911 231.462C542.461 234.035 542.28 236.631 541.37 239.25C540.468 241.848 538.999 243.997 536.965 245.696C534.953 247.403 532.649 248.527 530.055 249.069C527.49 249.597 524.897 249.406 522.278 248.496ZM604.245 290.546L606.36 235.847L614.347 238.621L611.88 280.206L612.395 280.385L636.115 246.185L644.23 249.005L641.551 290.371L642.066 290.55L665.87 256.524L673.857 259.299L641.6 303.525L634.129 300.929L636.512 259.171L635.739 258.902L611.716 293.142L604.245 290.546ZM675.521 328.881C670.368 327.091 666.966 323.864 665.314 319.199C663.655 314.557 663.934 309.048 666.149 302.671C668.364 296.295 671.555 291.822 675.72 289.251C679.893 286.659 684.556 286.258 689.708 288.048C694.796 289.816 698.191 292.993 699.894 297.578C701.619 302.172 701.362 307.688 699.124 314.129C696.887 320.569 693.66 325.078 689.444 327.656C685.25 330.24 680.609 330.649 675.521 328.881ZM677.535 323.084C680.368 324.069 683.077 323.615 685.659 321.721C688.235 319.849 690.361 316.498 692.04 311.667C693.718 306.837 694.127 302.889 693.268 299.823C692.416 296.736 690.573 294.7 687.739 293.716C684.905 292.731 682.197 293.186 679.614 295.079C677.039 296.951 674.912 300.303 673.234 305.133C671.578 309.899 671.15 313.829 671.952 316.922C672.776 320.023 674.636 322.077 677.535 323.084Z" fill="#2B2A2B"/>
<path d="M537.119 752.24C534.521 753.143 531.929 753.334 529.342 752.813C526.747 752.271 524.433 751.15 522.399 749.451C520.387 747.744 518.929 745.592 518.026 742.994C517.116 740.375 516.925 737.783 517.454 735.217C517.996 732.623 519.12 730.32 520.827 728.307C522.526 726.273 524.675 724.805 527.272 723.902C529.891 722.992 532.488 722.812 535.06 723.362C537.647 723.882 539.947 724.996 541.96 726.703C543.986 728.381 545.455 730.529 546.365 733.148C547.267 735.746 547.447 738.342 546.905 740.936C546.384 743.523 545.274 745.834 543.575 747.868C541.89 749.873 539.738 751.33 537.119 752.24ZM627.499 734.407L595.243 690.18L603.229 687.406L627.078 721.561L627.593 721.382L624.998 679.842L633.113 677.022L656.66 711.138L657.175 710.959L654.753 669.503L662.739 666.728L664.854 721.428L657.383 724.024L633.36 689.784L632.588 690.053L634.97 731.811L627.499 734.407ZM707.189 720.288C702.037 722.079 697.367 721.656 693.179 719.021C688.998 716.407 685.801 711.912 683.585 705.536C681.37 699.16 681.099 693.672 682.773 689.073C684.44 684.452 687.849 681.246 693.001 679.456C698.089 677.688 702.723 678.075 706.903 680.617C711.103 683.151 714.323 687.638 716.561 694.079C718.798 700.519 719.062 706.058 717.353 710.694C715.665 715.322 712.277 718.521 707.189 720.288ZM705.175 714.492C708.009 713.507 709.852 711.471 710.704 708.384C711.564 705.319 711.154 701.371 709.476 696.54C707.798 691.71 705.671 688.359 703.096 686.487C700.513 684.593 697.805 684.139 694.971 685.123C692.137 686.108 690.294 688.144 689.442 691.231C688.582 694.296 688.991 698.244 690.67 703.075C692.326 707.841 694.427 711.189 696.975 713.119C699.543 715.041 702.277 715.499 705.175 714.492Z" fill="#2B2A2B"/>
<path d="M531.453 502.182C528.703 502.182 526.192 501.511 523.919 500.17C521.646 498.807 519.828 496.989 518.464 494.716C517.124 492.443 516.453 489.932 516.453 487.182C516.453 484.409 517.124 481.898 518.464 479.648C519.828 477.375 521.646 475.568 523.919 474.227C526.192 472.864 528.703 472.182 531.453 472.182C534.226 472.182 536.737 472.864 538.987 474.227C541.26 475.568 543.067 477.375 544.408 479.648C545.771 481.898 546.453 484.409 546.453 487.182C546.453 489.932 545.771 492.443 544.408 494.716C543.067 496.989 541.26 498.807 538.987 500.17C536.737 501.511 534.226 502.182 531.453 502.182ZM622.68 515L606.726 462.636H615.18L626.499 502.727H627.044L638.226 462.636H646.817L657.862 502.591H658.408L669.726 462.636H678.18L662.226 515H654.317L642.862 474.773H642.044L630.589 515H622.68ZM696.385 527V492.568H696.044L685.271 499.727V492.5L696.385 485.136H703.476V527H696.385Z" fill="#2B2A2B"/>
<rect x="2636" y="414" width="268" height="268" rx="134" fill="#D9D9D9"/>
<rect x="2633" y="411" width="274" height="274" rx="137" stroke="#404040" stroke-opacity="0.352941" stroke-width="6"/>
<path d="M2755.83 602.636C2754.46 602.636 2753.25 602.523 2752.18 602.295C2751.11 602.091 2750.37 601.886 2749.96 601.682L2752.01 594.591C2753.96 595.091 2755.69 595.273 2757.19 595.136C2758.69 595 2760.02 594.33 2761.18 593.125C2762.36 591.943 2763.44 590.023 2764.42 587.364L2765.92 583.273L2746.55 530.636H2755.28L2769.74 572.364H2770.28L2784.74 530.636H2793.46L2771.24 590.636C2770.24 593.341 2769 595.58 2767.52 597.352C2766.04 599.148 2764.33 600.477 2762.37 601.341C2760.44 602.205 2758.26 602.636 2755.83 602.636Z" fill="#2B2A2B"/>
<rect x="547" y="1056" width="268" height="268" rx="134" fill="#55A49F"/>
<rect x="544" y="1053" width="274" height="274" rx="137" stroke="#404040" stroke-opacity="0.352941" stroke-width="6"/>
<path d="M659.642 1225V1155.18H667.688V1180.95H668.369C668.96 1180.05 669.778 1178.89 670.824 1177.48C671.892 1176.05 673.415 1174.77 675.392 1173.66C677.392 1172.52 680.097 1171.95 683.506 1171.95C687.915 1171.95 691.801 1173.06 695.165 1175.26C698.528 1177.47 701.153 1180.59 703.04 1184.64C704.926 1188.68 705.869 1193.45 705.869 1198.95C705.869 1204.5 704.926 1209.31 703.04 1213.38C701.153 1217.42 698.54 1220.56 695.199 1222.78C691.858 1224.99 688.006 1226.09 683.642 1226.09C680.278 1226.09 677.585 1225.53 675.562 1224.42C673.54 1223.28 671.983 1222 670.892 1220.57C669.801 1219.11 668.96 1217.91 668.369 1216.95H667.415V1225H659.642ZM667.551 1198.82C667.551 1202.77 668.131 1206.26 669.29 1209.28C670.449 1212.28 672.142 1214.64 674.369 1216.34C676.597 1218.02 679.324 1218.86 682.551 1218.86C685.915 1218.86 688.722 1217.98 690.972 1216.2C693.244 1214.41 694.949 1212 696.085 1208.98C697.244 1205.93 697.824 1202.55 697.824 1198.82C697.824 1195.14 697.256 1191.82 696.119 1188.86C695.006 1185.89 693.313 1183.53 691.04 1181.81C688.79 1180.06 685.96 1179.18 682.551 1179.18C679.278 1179.18 676.528 1180.01 674.301 1181.67C672.074 1183.31 670.392 1185.6 669.256 1188.56C668.119 1191.49 667.551 1194.91 667.551 1198.82Z" fill="#2B2A2B"/>
<rect x="911" y="368" width="360" height="360" rx="180" fill="#BF85FC"/>
<rect x="908" y="365" width="366" height="366" rx="183" stroke="#404040" stroke-opacity="0.352941" stroke-width="6"/>
<path d="M1143.78 498.099V483.757H1050.56L1105.41 542.755C1108.84 546.453 1108.8 552.201 1105.3 555.836L1051.07 612.244H1143.77V603.582C1143.77 598.334 1148.04 594.064 1153.29 594.064C1158.54 594.064 1162.82 598.334 1162.82 603.582V621.761C1162.82 627.011 1158.54 631.284 1153.29 631.284H1028.7C1024.88 631.284 1021.44 629.012 1019.95 625.493C1018.45 621.975 1019.19 617.921 1021.84 615.164L1085.34 549.129L1021.73 480.72C1019.15 477.944 1018.47 473.909 1019.98 470.434C1021.49 466.961 1024.92 464.716 1028.7 464.716H1153.3C1158.54 464.716 1162.82 468.986 1162.82 474.238V498.099C1162.82 503.348 1158.55 507.62 1153.3 507.62C1148.05 507.62 1143.78 503.35 1143.78 498.099Z" fill="#2B2A2B"/>
<rect x="1763" y="368" width="360" height="360" rx="180" fill="#D97192"/>
<rect x="1760" y="365" width="366" height="366" rx="183" stroke="#404040" stroke-opacity="0.352941" stroke-width="6"/>
<path d="M1832 625H1834.67L1835.11 624.998H1838.23L1838.67 624.994H1840.9L1841.34 624.99H1843.12L1843.57 624.988H1844.9L1845.35 624.984H1846.24L1846.68 624.98H1847.57L1848.02 624.978H1848.91L1849.35 624.974H1849.8L1850.24 624.97H1850.69L1851.13 624.968H1851.57L1852.02 624.964H1852.47L1852.91 624.962H1853.36L1853.8 624.958H1854.24L1855.14 624.952H1855.58L1856.47 624.943L1856.91 624.941H1857.36L1857.8 624.937L1858.25 624.933L1859.14 624.927L1859.58 624.923L1860.92 624.913L1861.36 624.911L1861.81 624.903L1862.25 624.901L1862.7 624.897L1863.14 624.891L1863.59 624.887L1864.03 624.881L1864.48 624.877L1864.92 624.871L1865.37 624.867L1866.26 624.855L1866.7 624.847L1867.59 624.835L1868.04 624.828L1868.48 624.82L1868.93 624.81L1869.37 624.804L1869.82 624.798L1870.26 624.788L1870.71 624.778L1871.15 624.768L1871.6 624.762L1872.04 624.748L1872.48 624.738L1873.38 624.717L1873.82 624.705L1874.71 624.677L1875.15 624.665L1876.04 624.639L1876.49 624.621L1876.93 624.604L1877.38 624.59L1877.82 624.572L1878.27 624.554L1878.71 624.534L1879.16 624.518L1879.6 624.498L1880.05 624.475L1880.49 624.455L1881.38 624.409L1881.83 624.385L1883.16 624.306L1883.61 624.276L1884.5 624.215L1884.94 624.183L1885.83 624.116L1886.28 624.078L1886.72 624.041L1887.17 624.003L1887.61 623.959L1888.06 623.918L1888.5 623.872L1888.95 623.83L1889.84 623.729L1890.28 623.68L1890.73 623.624L1891.17 623.569L1891.61 623.509L1892.06 623.45L1892.51 623.386L1892.95 623.319L1893.39 623.252L1894.29 623.107L1894.73 623.03L1895.17 622.95L1895.62 622.867L1896.06 622.78L1896.51 622.691L1896.96 622.599L1897.4 622.502L1897.84 622.401L1898.29 622.294L1898.73 622.189L1899.18 622.076L1899.62 621.955L1900.07 621.836L1900.96 621.575L1901.4 621.436L1901.85 621.297L1902.29 621.148L1902.74 620.994L1903.18 620.833L1903.63 620.667L1904.07 620.494L1904.52 620.318L1904.96 620.131L1905.41 619.939L1905.85 619.735L1906.3 619.529L1906.74 619.313L1907.19 619.089L1907.63 618.857L1908.08 618.617L1908.52 618.365L1908.97 618.104L1909.41 617.838L1909.85 617.56L1910.3 617.269L1910.75 616.97L1911.19 616.658L1911.64 616.335L1912.08 616.002L1912.52 615.655L1912.97 615.295L1913.42 614.922L1913.86 614.541L1914.31 614.141L1914.75 613.731L1915.19 613.302L1915.64 612.864L1916.08 612.408L1916.53 611.933L1916.97 611.445L1917.42 610.942L1917.87 610.42L1918.31 609.883L1918.75 609.324L1919.2 608.753L1919.64 608.16L1920.09 607.548L1920.53 606.919L1920.98 606.267L1921.42 605.595L1921.87 604.905L1922.31 604.196L1922.76 603.464L1923.2 602.709L1923.65 601.932L1924.09 601.131L1924.54 600.312L1924.98 599.47L1925.43 598.602L1925.87 597.712L1926.32 596.798L1926.76 595.862L1927.21 594.903L1927.65 593.918L1928.1 592.909L1928.54 591.874L1928.99 590.821L1929.43 589.741L1929.88 588.637L1930.32 587.509L1930.76 586.357L1931.21 585.182L1931.66 583.988L1932.1 582.765L1932.55 581.522L1932.99 580.256L1933.43 578.971L1933.88 577.663L1934.32 576.335L1934.77 574.987L1935.21 573.619L1935.66 572.235L1936.1 570.83L1936.55 569.41L1936.99 567.973L1937.44 566.522L1937.88 565.053L1938.33 563.576L1938.77 562.08L1939.22 560.577L1939.66 559.063L1940.11 557.542L1940.55 556.01L1941 554.472L1941.44 552.928L1941.89 551.381L1942.33 549.833L1942.78 548.279L1943.22 546.735L1943.67 545.181L1944.11 543.629L1944.56 542.08L1945 540.538L1945.45 539L1945.89 537.472L1946.34 535.949L1946.78 534.433L1947.23 532.926L1947.67 531.435L1948.12 529.957L1948.56 528.486L1949.01 527.035L1949.45 525.594L1949.9 524.18L1950.34 522.779L1950.79 521.387L1951.23 520.019L1951.68 518.671L1952.12 517.343L1952.57 516.033L1953.01 514.744L1953.45 513.482L1953.9 512.241L1954.34 511.014L1954.79 509.822L1955.24 508.643L1955.68 507.495L1956.12 506.365L1956.57 505.263L1957.01 504.183L1957.46 503.126L1957.9 502.091L1958.35 501.088L1958.79 500.097L1959.24 499.138L1959.68 498.2L1960.13 497.288L1960.57 496.4L1961.02 495.53L1961.46 494.692L1961.91 493.867L1962.35 493.07L1962.8 492.293L1963.24 491.536L1963.69 490.812L1964.13 490.095L1964.58 489.399L1965.02 488.731L1965.47 488.081L1965.91 487.45L1966.36 486.836L1966.8 486.241L1967.25 485.67L1967.69 485.117L1968.13 484.57L1968.58 484.062L1969.03 483.555L1969.47 483.071L1969.92 482.594L1970.36 482.134L1970.8 481.698L1971.25 481.269L1971.7 480.859L1972.14 480.459L1972.59 480.074L1973.03 479.701L1973.48 479.345L1973.92 478.998L1974.36 478.667L1974.81 478.347L1975.25 478.032L1975.7 477.731L1976.15 477.442L1976.59 477.162L1977.03 476.894L1977.48 476.633L1977.92 476.383L1978.37 476.141L1978.81 475.911L1979.26 475.685L1979.7 475.471L1980.15 475.261L1980.59 475.061L1981.04 474.869L1981.48 474.682L1981.93 474.502L1982.37 474.331L1982.82 474.167L1983.26 474.008L1983.71 473.854L1984.15 473.705L1984.6 473.562L1985.04 473.425L1985.49 473.291L1985.93 473.168L1986.38 473.041L1986.82 472.926L1987.27 472.813L1987.71 472.702L1988.6 472.496L1989.04 472.403L1989.49 472.307L1989.94 472.216L1990.38 472.133L1991.27 471.968L1991.71 471.893L1992.61 471.748L1993.05 471.681L1993.49 471.614L1993.94 471.55L1994.39 471.491L1994.83 471.431L1995.27 471.378L1995.72 471.322L1996.16 471.271L1996.61 471.221L1997.05 471.174L1997.5 471.124L1998.39 471.039L1998.83 470.995L1999.28 470.963L1999.72 470.922L2000.17 470.886L2001.06 470.819L2001.5 470.785L2002.39 470.724L2002.84 470.696L2003.28 470.666L2003.73 470.642L2004.17 470.615L2004.62 470.593L2005.06 470.565L2005.51 470.545L2005.95 470.527L2006.84 470.478L2007.29 470.466L2007.73 470.446L2008.18 470.43L2008.62 470.406L2009.07 470.396L2009.51 470.379L2009.96 470.363L2010.4 470.349L2010.85 470.333L2011.29 470.323L2012.18 470.297L2012.62 470.287L2013.52 470.26L2013.96 470.25L2014.4 470.24L2014.85 470.232L2015.29 470.22L2015.74 470.212L2016.18 470.204L2016.63 470.196L2017.07 470.186L2017.52 470.184L2017.96 470.174L2018.41 470.165L2019.3 470.153L2019.74 470.143H2020.19L2020.63 470.133L2021.08 470.129L2021.97 470.117L2022.41 470.113L2022.86 470.109L2023.3 470.103L2023.75 470.097H2024.19L2024.64 470.093L2025.08 470.089H2025.53L2025.97 470.077H2026.41L2027.75 470.067L2028.2 470.063L2028.64 470.061H2029.09L2029.53 470.057L2029.98 470.052H2030.42L2030.87 470.05L2031.31 470.046H2031.76L2032.2 470.042H2033.09L2033.53 470.04L2033.98 470.032L2034.43 470.03H2034.87L2035.31 470.026H2036.2L2036.65 470.022H2037.09L2037.54 470.02H2039.76L2040.21 470.014H2043.32L2043.77 470.006H2045.1L2045.55 470.004H2051.77L2052.22 470H2054" stroke="#2B2A2B" stroke-width="8" stroke-miterlimit="10"/>
<path d="M1014 743L961.249 766.467L1007.95 800.417L1014 743ZM777 1069L781.044 1071.94L991.583 782.338L987.539 779.398L983.495 776.458L772.956 1066.06L777 1069Z" fill="#2B2A2B"/>
<path d="M924.508 668.575L867.803 657.716L886.752 712.253L924.508 668.575ZM274.492 894.425L276.133 899.149L883.642 688.067L882.001 683.344L880.36 678.621L272.851 889.702L274.492 894.425Z" fill="#2B2A2B"/>
<path d="M924.816 440.084L887.058 396.408L868.112 450.946L924.816 440.084ZM274 214L272.359 218.723L880.667 430.04L882.308 425.317L883.949 420.594L275.641 209.277L274 214Z" fill="#2B2A2B"/>
<path d="M893 548L843 519.132V576.868L893 548ZM307 548V553H848V548V543H307V548Z" fill="#2B2A2B"/>
<path d="M1743 548L1693 519.132V576.868L1743 548ZM1291 548V553H1698V548V543H1291V548Z" fill="#2B2A2B"/>
<path d="M2603 548L2553 519.132V576.868L2603 548ZM2151 548V553H2558V548V543H2151V548Z" fill="#2B2A2B"/>
</svg>
