<?xml version="1.0" standalone="no"?>
<svg xmlns="http://www.w3.org/2000/svg" width="500" height="500"><defs><clipPath id="clip-path-dot-color"><path d="M 18 146v 16h 8a 8 8, 0, 0, 0, 0 -16" transform="rotate(-90,26,154)"/><path d="M 18 162v 16h 16v -8a 8 8, 0, 0, 0, -8 -8" transform="rotate(180,26,170)"/><path d="M 18 194v 16h 16v -8a 8 8, 0, 0, 0, -8 -8" transform="rotate(-90,26,202)"/><path d="M 18 210v 16h 16v -8a 8 8, 0, 0, 0, -8 -8" transform="rotate(180,26,218)"/><circle cx="26" cy="266" r="8" transform="rotate(0,26,266)"/><path d="M 18 306v 16h 8a 8 8, 0, 0, 0, 0 -16" transform="rotate(-90,26,314)"/><rect x="18" y="322" width="16" height="16" transform="rotate(0,26,330)"/><path d="M 18 338v 16h 8a 8 8, 0, 0, 0, 0 -16" transform="rotate(90,26,346)"/><path d="M 34 162v 16h 8a 8 8, 0, 0, 0, 0 -16" transform="rotate(0,42,170)"/><rect x="34" y="194" width="16" height="16" transform="rotate(0,42,202)"/><rect x="34" y="210" width="16" height="16" transform="rotate(0,42,218)"/><path d="M 50 178v 16h 8a 8 8, 0, 0, 0, 0 -16" transform="rotate(-90,58,186)"/><rect x="50" y="194" width="16" height="16" transform="rotate(0,58,202)"/><path d="M 50 210v 16h 16v -8a 8 8, 0, 0, 0, -8 -8" transform="rotate(90,58,218)"/><path d="M 50 242v 16h 16v -8a 8 8, 0, 0, 0, -8 -8" transform="rotate(-90,58,250)"/><path d="M 50 258v 16h 8a 8 8, 0, 0, 0, 0 -16" transform="rotate(90,58,266)"/><path d="M 50 322v 16h 16v -8a 8 8, 0, 0, 0, -8 -8" transform="rotate(-90,58,330)"/><path d="M 50 338v 16h 8a 8 8, 0, 0, 0, 0 -16" transform="rotate(90,58,346)"/><path d="M 66 226v 16h 16v -8a 8 8, 0, 0, 0, -8 -8" transform="rotate(-90,74,234)"/><path d="M 66 242v 16h 16v -8a 8 8, 0, 0, 0, -8 -8" transform="rotate(90,74,250)"/><path d="M 66 274v 16h 16v -8a 8 8, 0, 0, 0, -8 -8" transform="rotate(-90,74,282)"/><path d="M 66 290v 16h 8a 8 8, 0, 0, 0, 0 -16" transform="rotate(90,74,298)"/><rect x="66" y="322" width="16" height="16" transform="rotate(0,74,330)"/><path d="M 82 146v 16h 16v -8a 8 8, 0, 0, 0, -8 -8" transform="rotate(-90,90,154)"/><rect x="82" y="162" width="16" height="16" transform="rotate(0,90,170)"/><rect x="82" y="178" width="16" height="16" transform="rotate(0,90,186)"/><path d="M 82 194v 16h 8a 8 8, 0, 0, 0, 0 -16" transform="rotate(90,90,202)"/><path d="M 82 226v 16h 8a 8 8, 0, 0, 0, 0 -16" transform="rotate(0,90,234)"/><path d="M 82 274v 16h 8a 8 8, 0, 0, 0, 0 -16" transform="rotate(0,90,282)"/><path d="M 82 322v 16h 16v -8a 8 8, 0, 0, 0, -8 -8" transform="rotate(0,90,330)"/><path d="M 82 338v 16h 16v -8a 8 8, 0, 0, 0, -8 -8" transform="rotate(180,90,346)"/><rect x="98" y="146" width="16" height="16" transform="rotate(0,106,154)"/><path d="M 98 162v 16h 16v -8a 8 8, 0, 0, 0, -8 -8" transform="rotate(90,106,170)"/><path d="M 98 290v 16h 8a 8 8, 0, 0, 0, 0 -16" transform="rotate(-90,106,298)"/><path d="M 98 306v 16h 16v -8a 8 8, 0, 0, 0, -8 -8" transform="rotate(180,106,314)"/><rect x="98" y="338" width="16" height="16" transform="rotate(0,106,346)"/><path d="M 114 146v 16h 8a 8 8, 0, 0, 0, 0 -16" transform="rotate(0,122,154)"/><circle cx="122" cy="186" r="8" transform="rotate(0,122,186)"/><circle cx="122" cy="218" r="8" transform="rotate(0,122,218)"/><circle cx="122" cy="250" r="8" transform="rotate(0,122,250)"/><circle cx="122" cy="282" r="8" transform="rotate(0,122,282)"/><path d="M 114 306v 16h 8a 8 8, 0, 0, 0, 0 -16" transform="rotate(0,122,314)"/><rect x="114" y="338" width="16" height="16" transform="rotate(0,122,346)"/><circle cx="138" cy="170" r="8" transform="rotate(0,138,170)"/><circle cx="138" cy="202" r="8" transform="rotate(0,138,202)"/><path d="M 130 258v 16h 8a 8 8, 0, 0, 0, 0 -16" transform="rotate(180,138,266)"/><path d="M 130 322v 16h 8a 8 8, 0, 0, 0, 0 -16" transform="rotate(-90,138,330)"/><path d="M 130 338v 16h 16v -8a 8 8, 0, 0, 0, -8 -8" transform="rotate(90,138,346)"/><path d="M 146 34v 16h 8a 8 8, 0, 0, 0, 0 -16" transform="rotate(-90,154,42)"/><rect x="146" y="50" width="16" height="16" transform="rotate(0,154,58)"/><rect x="146" y="66" width="16" height="16" transform="rotate(0,154,74)"/><rect x="146" y="82" width="16" height="16" transform="rotate(0,154,90)"/><rect x="146" y="98" width="16" height="16" transform="rotate(0,154,106)"/><rect x="146" y="114" width="16" height="16" transform="rotate(0,154,122)"/><path d="M 146 130v 16h 8a 8 8, 0, 0, 0, 0 -16" transform="rotate(90,154,138)"/><circle cx="154" cy="186" r="8" transform="rotate(0,154,186)"/><path d="M 146 226v 16h 16v -8a 8 8, 0, 0, 0, -8 -8" transform="rotate(-90,154,234)"/><rect x="146" y="242" width="16" height="16" transform="rotate(0,154,250)"/><rect x="146" y="258" width="16" height="16" transform="rotate(0,154,266)"/><rect x="146" y="274" width="16" height="16" transform="rotate(0,154,282)"/><path d="M 146 290v 16h 8a 8 8, 0, 0, 0, 0 -16" transform="rotate(90,154,298)"/><path d="M 146 386v 16h 16v -8a 8 8, 0, 0, 0, -8 -8" transform="rotate(-90,154,394)"/><path d="M 146 402v 16h 16v -8a 8 8, 0, 0, 0, -8 -8" transform="rotate(180,154,410)"/><path d="M 146 466v 16h 8a 8 8, 0, 0, 0, 0 -16" transform="rotate(180,154,474)"/><path d="M 162 18v 16h 8a 8 8, 0, 0, 0, 0 -16" transform="rotate(180,170,26)"/><rect x="162" y="66" width="16" height="16" transform="rotate(0,170,74)"/><path d="M 162 82v 16h 16v -8a 8 8, 0, 0, 0, -8 -8" transform="rotate(90,170,90)"/><path d="M 162 146v 16h 8a 8 8, 0, 0, 0, 0 -16" transform="rotate(180,170,154)"/><path d="M 162 210v 16h 8a 8 8, 0, 0, 0, 0 -16" transform="rotate(-90,170,218)"/><rect x="162" y="226" width="16" height="16" transform="rotate(0,170,234)"/><path d="M 162 258v 16h 8a 8 8, 0, 0, 0, 0 -16" transform="rotate(0,170,266)"/><path d="M 162 306v 16h 16v -8a 8 8, 0, 0, 0, -8 -8" transform="rotate(-90,170,314)"/><path d="M 162 322v 16h 8a 8 8, 0, 0, 0, 0 -16" transform="rotate(90,170,330)"/><path d="M 162 354v 16h 16v -8a 8 8, 0, 0, 0, -8 -8" transform="rotate(-90,170,362)"/><rect x="162" y="370" width="16" height="16" transform="rotate(0,170,378)"/><rect x="162" y="386" width="16" height="16" transform="rotate(0,170,394)"/><path d="M 162 402v 16h 16v -8a 8 8, 0, 0, 0, -8 -8" transform="rotate(90,170,410)"/><path d="M 162 466v 16h 8a 8 8, 0, 0, 0, 0 -16" transform="rotate(0,170,474)"/><path d="M 178 18v 16h 16v -8a 8 8, 0, 0, 0, -8 -8" transform="rotate(0,186,26)"/><path d="M 178 34v 16h 16v -8a 8 8, 0, 0, 0, -8 -8" transform="rotate(180,186,42)"/><rect x="178" y="66" width="16" height="16" transform="rotate(0,186,74)"/><path d="M 178 98v 16h 8a 8 8, 0, 0, 0, 0 -16" transform="rotate(-90,186,106)"/><rect x="178" y="114" width="16" height="16" transform="rotate(0,186,122)"/><rect x="178" y="130" width="16" height="16" transform="rotate(0,186,138)"/><rect x="178" y="146" width="16" height="16" transform="rotate(0,186,154)"/><path d="M 178 162v 16h 16v -8a 8 8, 0, 0, 0, -8 -8" transform="rotate(180,186,170)"/><rect x="178" y="226" width="16" height="16" transform="rotate(0,186,234)"/><path d="M 178 242v 16h 16v -8a 8 8, 0, 0, 0, -8 -8" transform="rotate(180,186,250)"/><path d="M 178 274v 16h 8a 8 8, 0, 0, 0, 0 -16" transform="rotate(-90,186,282)"/><rect x="178" y="290" width="16" height="16" transform="rotate(0,186,298)"/><path d="M 178 306v 16h 16v -8a 8 8, 0, 0, 0, -8 -8" transform="rotate(90,186,314)"/><rect x="178" y="354" width="16" height="16" transform="rotate(0,186,362)"/><rect x="178" y="370" width="16" height="16" transform="rotate(0,186,378)"/><path d="M 178 386v 16h 16v -8a 8 8, 0, 0, 0, -8 -8" transform="rotate(90,186,394)"/><circle cx="186" cy="442" r="8" transform="rotate(0,186,442)"/><rect x="194" y="34" width="16" height="16" transform="rotate(0,202,42)"/><rect x="194" y="66" width="16" height="16" transform="rotate(0,202,74)"/><rect x="194" y="162" width="16" height="16" transform="rotate(0,202,170)"/><rect x="194" y="178" width="16" height="16" transform="rotate(0,202,186)"/><path d="M 194 194v 16h 8a 8 8, 0, 0, 0, 0 -16" transform="rotate(90,202,202)"/><path d="M 194 226v 16h 16v -8a 8 8, 0, 0, 0, -8 -8" transform="rotate(0,202,234)"/><path d="M 194 242v 16h 16v -8a 8 8, 0, 0, 0, -8 -8" transform="rotate(90,202,250)"/><path d="M 194 322v 16h 8a 8 8, 0, 0, 0, 0 -16" transform="rotate(180,202,330)"/><rect x="194" y="354" width="16" height="16" transform="rotate(0,202,362)"/><path d="M 194 370v 16h 16v -8a 8 8, 0, 0, 0, -8 -8" transform="rotate(90,202,378)"/><path d="M 194 402v 16h 8a 8 8, 0, 0, 0, 0 -16" transform="rotate(-90,202,410)"/><path d="M 194 418v 16h 8a 8 8, 0, 0, 0, 0 -16" transform="rotate(90,202,426)"/><path d="M 194 450v 16h 8a 8 8, 0, 0, 0, 0 -16" transform="rotate(180,202,458)"/><path d="M 210 18v 16h 16v -8a 8 8, 0, 0, 0, -8 -8" transform="rotate(-90,218,26)"/><rect x="210" y="34" width="16" height="16" transform="rotate(0,218,42)"/><path d="M 210 66v 16h 8a 8 8, 0, 0, 0, 0 -16" transform="rotate(0,218,74)"/><path d="M 210 98v 16h 8a 8 8, 0, 0, 0, 0 -16" transform="rotate(-90,218,106)"/><path d="M 210 114v 16h 8a 8 8, 0, 0, 0, 0 -16" transform="rotate(90,218,122)"/><path d="M 210 146v 16h 8a 8 8, 0, 0, 0, 0 -16" transform="rotate(-90,218,154)"/><rect x="210" y="162" width="16" height="16" transform="rotate(0,218,170)"/><path d="M 210 258v 16h 8a 8 8, 0, 0, 0, 0 -16" transform="rotate(-90,218,266)"/><rect x="210" y="274" width="16" height="16" transform="rotate(0,218,282)"/><path d="M 210 290v 16h 16v -8a 8 8, 0, 0, 0, -8 -8" transform="rotate(180,218,298)"/><rect x="210" y="322" width="16" height="16" transform="rotate(0,218,330)"/><rect x="210" y="354" width="16" height="16" transform="rotate(0,218,362)"/><circle cx="218" cy="394" r="8" transform="rotate(0,218,394)"/><path d="M 210 434v 16h 8a 8 8, 0, 0, 0, 0 -16" transform="rotate(-90,218,442)"/><rect x="210" y="450" width="16" height="16" transform="rotate(0,218,458)"/><path d="M 210 466v 16h 16v -8a 8 8, 0, 0, 0, -8 -8" transform="rotate(180,218,474)"/><rect x="226" y="18" width="16" height="16" transform="rotate(0,234,26)"/><rect x="226" y="34" width="16" height="16" transform="rotate(0,234,42)"/><path d="M 226 50v 16h 8a 8 8, 0, 0, 0, 0 -16" transform="rotate(90,234,58)"/><path d="M 226 162v 16h 16v -8a 8 8, 0, 0, 0, -8 -8" transform="rotate(0,234,170)"/><rect x="226" y="178" width="16" height="16" transform="rotate(0,234,186)"/><rect x="226" y="194" width="16" height="16" transform="rotate(0,234,202)"/><rect x="226" y="210" width="16" height="16" transform="rotate(0,234,218)"/><path d="M 226 226v 16h 8a 8 8, 0, 0, 0, 0 -16" transform="rotate(90,234,234)"/><rect x="226" y="274" width="16" height="16" transform="rotate(0,234,282)"/><rect x="226" y="290" width="16" height="16" transform="rotate(0,234,298)"/><rect x="226" y="306" width="16" height="16" transform="rotate(0,234,314)"/><rect x="226" y="322" width="16" height="16" transform="rotate(0,234,330)"/><rect x="226" y="338" width="16" height="16" transform="rotate(0,234,346)"/><rect x="226" y="354" width="16" height="16" transform="rotate(0,234,362)"/><path d="M 226 370v 16h 16v -8a 8 8, 0, 0, 0, -8 -8" transform="rotate(180,234,378)"/><path d="M 226 402v 16h 8a 8 8, 0, 0, 0, 0 -16" transform="rotate(-90,234,410)"/><path d="M 226 418v 16h 8a 8 8, 0, 0, 0, 0 -16" transform="rotate(90,234,426)"/><path d="M 226 466v 16h 8a 8 8, 0, 0, 0, 0 -16" transform="rotate(0,234,474)"/><rect x="242" y="18" width="16" height="16" transform="rotate(0,250,26)"/><circle cx="250" cy="74" r="8" transform="rotate(0,250,74)"/><circle cx="250" cy="122" r="8" transform="rotate(0,250,122)"/><circle cx="250" cy="154" r="8" transform="rotate(0,250,154)"/><rect x="242" y="194" width="16" height="16" transform="rotate(0,250,202)"/><path d="M 242 258v 16h 8a 8 8, 0, 0, 0, 0 -16" transform="rotate(-90,250,266)"/><rect x="242" y="274" width="16" height="16" transform="rotate(0,250,282)"/><path d="M 242 290v 16h 16v -8a 8 8, 0, 0, 0, -8 -8" transform="rotate(90,250,298)"/><rect x="242" y="354" width="16" height="16" transform="rotate(0,250,362)"/><rect x="242" y="370" width="16" height="16" transform="rotate(0,250,378)"/><path d="M 242 386v 16h 8a 8 8, 0, 0, 0, 0 -16" transform="rotate(90,250,394)"/><rect x="258" y="18" width="16" height="16" transform="rotate(0,266,26)"/><circle cx="266" cy="58" r="8" transform="rotate(0,266,58)"/><path d="M 258 82v 16h 8a 8 8, 0, 0, 0, 0 -16" transform="rotate(-90,266,90)"/><path d="M 258 98v 16h 8a 8 8, 0, 0, 0, 0 -16" transform="rotate(90,266,106)"/><path d="M 258 162v 16h 8a 8 8, 0, 0, 0, 0 -16" transform="rotate(180,266,170)"/><rect x="258" y="194" width="16" height="16" transform="rotate(0,266,202)"/><path d="M 258 210v 16h 16v -8a 8 8, 0, 0, 0, -8 -8" transform="rotate(180,266,218)"/><path d="M 258 242v 16h 8a 8 8, 0, 0, 0, 0 -16" transform="rotate(180,266,250)"/><path d="M 258 354v 16h 8a 8 8, 0, 0, 0, 0 -16" transform="rotate(0,266,362)"/><path d="M 258 402v 16h 8a 8 8, 0, 0, 0, 0 -16" transform="rotate(-90,266,410)"/><path d="M 258 418v 16h 16v -8a 8 8, 0, 0, 0, -8 -8" transform="rotate(180,266,426)"/><rect x="274" y="18" width="16" height="16" transform="rotate(0,282,26)"/><path d="M 274 34v 16h 8a 8 8, 0, 0, 0, 0 -16" transform="rotate(90,282,42)"/><circle cx="282" cy="122" r="8" transform="rotate(0,282,122)"/><path d="M 274 162v 16h 8a 8 8, 0, 0, 0, 0 -16" transform="rotate(0,282,170)"/><rect x="274" y="194" width="16" height="16" transform="rotate(0,282,202)"/><path d="M 274 210v 16h 16v -8a 8 8, 0, 0, 0, -8 -8" transform="rotate(90,282,218)"/><rect x="274" y="242" width="16" height="16" transform="rotate(0,282,250)"/><circle cx="282" cy="298" r="8" transform="rotate(0,282,298)"/><path d="M 274 338v 16h 8a 8 8, 0, 0, 0, 0 -16" transform="rotate(180,282,346)"/><rect x="274" y="418" width="16" height="16" transform="rotate(0,282,426)"/><rect x="274" y="434" width="16" height="16" transform="rotate(0,282,442)"/><path d="M 274 450v 16h 16v -8a 8 8, 0, 0, 0, -8 -8" transform="rotate(180,282,458)"/><rect x="290" y="18" width="16" height="16" transform="rotate(0,298,26)"/><path d="M 290 66v 16h 16v -8a 8 8, 0, 0, 0, -8 -8" transform="rotate(-90,298,74)"/><rect x="290" y="82" width="16" height="16" transform="rotate(0,298,90)"/><path d="M 290 98v 16h 8a 8 8, 0, 0, 0, 0 -16" transform="rotate(90,298,106)"/><path d="M 290 130v 16h 8a 8 8, 0, 0, 0, 0 -16" transform="rotate(180,298,138)"/><path d="M 290 178v 16h 8a 8 8, 0, 0, 0, 0 -16" transform="rotate(-90,298,186)"/><path d="M 290 194v 16h 16v -8a 8 8, 0, 0, 0, -8 -8" transform="rotate(90,298,202)"/><path d="M 290 226v 16h 16v -8a 8 8, 0, 0, 0, -8 -8" transform="rotate(-90,298,234)"/><rect x="290" y="242" width="16" height="16" transform="rotate(0,298,250)"/><rect x="290" y="258" width="16" height="16" transform="rotate(0,298,266)"/><path d="M 290 274v 16h 8a 8 8, 0, 0, 0, 0 -16" transform="rotate(90,298,282)"/><path d="M 290 306v 16h 16v -8a 8 8, 0, 0, 0, -8 -8" transform="rotate(-90,298,314)"/><rect x="290" y="322" width="16" height="16" transform="rotate(0,298,330)"/><path d="M 290 338v 16h 16v -8a 8 8, 0, 0, 0, -8 -8" transform="rotate(90,298,346)"/><path d="M 290 370v 16h 16v -8a 8 8, 0, 0, 0, -8 -8" transform="rotate(-90,298,378)"/><rect x="290" y="386" width="16" height="16" transform="rotate(0,298,394)"/><rect x="290" y="402" width="16" height="16" transform="rotate(0,298,410)"/><rect x="290" y="418" width="16" height="16" transform="rotate(0,298,426)"/><path d="M 290 450v 16h 16v -8a 8 8, 0, 0, 0, -8 -8" transform="rotate(0,298,458)"/><path d="M 290 466v 16h 8a 8 8, 0, 0, 0, 0 -16" transform="rotate(90,298,474)"/><rect x="306" y="18" width="16" height="16" transform="rotate(0,314,26)"/><path d="M 306 66v 16h 8a 8 8, 0, 0, 0, 0 -16" transform="rotate(0,314,74)"/><path d="M 306 114v 16h 8a 8 8, 0, 0, 0, 0 -16" transform="rotate(-90,314,122)"/><rect x="306" y="130" width="16" height="16" transform="rotate(0,314,138)"/><rect x="306" y="146" width="16" height="16" transform="rotate(0,314,154)"/><path d="M 306 162v 16h 8a 8 8, 0, 0, 0, 0 -16" transform="rotate(90,314,170)"/><rect x="306" y="226" width="16" height="16" transform="rotate(0,314,234)"/><path d="M 306 306v 16h 8a 8 8, 0, 0, 0, 0 -16" transform="rotate(0,314,314)"/><rect x="306" y="370" width="16" height="16" transform="rotate(0,314,378)"/><path d="M 306 386v 16h 16v -8a 8 8, 0, 0, 0, -8 -8" transform="rotate(90,314,394)"/><rect x="306" y="418" width="16" height="16" transform="rotate(0,314,426)"/><rect x="322" y="18" width="16" height="16" transform="rotate(0,330,26)"/><circle cx="330" cy="58" r="8" transform="rotate(0,330,58)"/><path d="M 322 98v 16h 8a 8 8, 0, 0, 0, 0 -16" transform="rotate(180,330,106)"/><path d="M 322 130v 16h 8a 8 8, 0, 0, 0, 0 -16" transform="rotate(0,330,138)"/><path d="M 322 210v 16h 16v -8a 8 8, 0, 0, 0, -8 -8" transform="rotate(-90,330,218)"/><rect x="322" y="226" width="16" height="16" transform="rotate(0,330,234)"/><circle cx="330" cy="282" r="8" transform="rotate(0,330,282)"/><path d="M 322 338v 16h 8a 8 8, 0, 0, 0, 0 -16" transform="rotate(180,330,346)"/><rect x="322" y="370" width="16" height="16" transform="rotate(0,330,378)"/><path d="M 322 402v 16h 16v -8a 8 8, 0, 0, 0, -8 -8" transform="rotate(-90,330,410)"/><rect x="322" y="418" width="16" height="16" transform="rotate(0,330,426)"/><path d="M 322 466v 16h 8a 8 8, 0, 0, 0, 0 -16" transform="rotate(180,330,474)"/><path d="M 338 18v 16h 8a 8 8, 0, 0, 0, 0 -16" transform="rotate(0,346,26)"/><path d="M 338 66v 16h 8a 8 8, 0, 0, 0, 0 -16" transform="rotate(-90,346,74)"/><rect x="338" y="82" width="16" height="16" transform="rotate(0,346,90)"/><rect x="338" y="98" width="16" height="16" transform="rotate(0,346,106)"/><path d="M 338 114v 16h 8a 8 8, 0, 0, 0, 0 -16" transform="rotate(90,346,122)"/><path d="M 338 178v 16h 8a 8 8, 0, 0, 0, 0 -16" transform="rotate(180,346,186)"/><path d="M 338 210v 16h 16v -8a 8 8, 0, 0, 0, -8 -8" transform="rotate(0,346,218)"/><rect x="338" y="226" width="16" height="16" transform="rotate(0,346,234)"/><path d="M 338 242v 16h 8a 8 8, 0, 0, 0, 0 -16" transform="rotate(90,346,250)"/><path d="M 338 290v 16h 8a 8 8, 0, 0, 0, 0 -16" transform="rotate(180,346,298)"/><path d="M 338 322v 16h 16v -8a 8 8, 0, 0, 0, -8 -8" transform="rotate(-90,346,330)"/><rect x="338" y="338" width="16" height="16" transform="rotate(0,346,346)"/><rect x="338" y="354" width="16" height="16" transform="rotate(0,346,362)"/><rect x="338" y="370" width="16" height="16" transform="rotate(0,346,378)"/><rect x="338" y="386" width="16" height="16" transform="rotate(0,346,394)"/><rect x="338" y="402" width="16" height="16" transform="rotate(0,346,410)"/><rect x="338" y="418" width="16" height="16" transform="rotate(0,346,426)"/><path d="M 338 434v 16h 8a 8 8, 0, 0, 0, 0 -16" transform="rotate(90,346,442)"/><rect x="338" y="466" width="16" height="16" transform="rotate(0,346,474)"/><path d="M 354 146v 16h 8a 8 8, 0, 0, 0, 0 -16" transform="rotate(180,362,154)"/><rect x="354" y="178" width="16" height="16" transform="rotate(0,362,186)"/><path d="M 354 226v 16h 8a 8 8, 0, 0, 0, 0 -16" transform="rotate(0,362,234)"/><path d="M 354 274v 16h 8a 8 8, 0, 0, 0, 0 -16" transform="rotate(-90,362,282)"/><rect x="354" y="290" width="16" height="16" transform="rotate(0,362,298)"/><rect x="354" y="306" width="16" height="16" transform="rotate(0,362,314)"/><rect x="354" y="322" width="16" height="16" transform="rotate(0,362,330)"/><rect x="354" y="338" width="16" height="16" transform="rotate(0,362,346)"/><rect x="354" y="402" width="16" height="16" transform="rotate(0,362,410)"/><path d="M 354 418v 16h 16v -8a 8 8, 0, 0, 0, -8 -8" transform="rotate(90,362,426)"/><path d="M 354 450v 16h 8a 8 8, 0, 0, 0, 0 -16" transform="rotate(-90,362,458)"/><path d="M 354 466v 16h 16v -8a 8 8, 0, 0, 0, -8 -8" transform="rotate(90,362,474)"/><rect x="370" y="146" width="16" height="16" transform="rotate(0,378,154)"/><rect x="370" y="162" width="16" height="16" transform="rotate(0,378,170)"/><rect x="370" y="178" width="16" height="16" transform="rotate(0,378,186)"/><path d="M 370 242v 16h 16v -8a 8 8, 0, 0, 0, -8 -8" transform="rotate(-90,378,250)"/><path d="M 370 258v 16h 8a 8 8, 0, 0, 0, 0 -16" transform="rotate(90,378,266)"/><rect x="370" y="322" width="16" height="16" transform="rotate(0,378,330)"/><rect x="370" y="338" width="16" height="16" transform="rotate(0,378,346)"/><circle cx="378" cy="378" r="8" transform="rotate(0,378,378)"/><rect x="370" y="402" width="16" height="16" transform="rotate(0,378,410)"/><rect x="386" y="146" width="16" height="16" transform="rotate(0,394,154)"/><rect x="386" y="162" width="16" height="16" transform="rotate(0,394,170)"/><path d="M 386 178v 16h 16v -8a 8 8, 0, 0, 0, -8 -8" transform="rotate(90,394,186)"/><path d="M 386 226v 16h 16v -8a 8 8, 0, 0, 0, -8 -8" transform="rotate(-90,394,234)"/><path d="M 386 242v 16h 16v -8a 8 8, 0, 0, 0, -8 -8" transform="rotate(90,394,250)"/><circle cx="394" cy="282" r="8" transform="rotate(0,394,282)"/><path d="M 386 322v 16h 16v -8a 8 8, 0, 0, 0, -8 -8" transform="rotate(0,394,330)"/><rect x="386" y="338" width="16" height="16" transform="rotate(0,394,346)"/><rect x="386" y="402" width="16" height="16" transform="rotate(0,394,410)"/><path d="M 386 418v 16h 16v -8a 8 8, 0, 0, 0, -8 -8" transform="rotate(180,394,426)"/><path d="M 386 450v 16h 8a 8 8, 0, 0, 0, 0 -16" transform="rotate(-90,394,458)"/><path d="M 386 466v 16h 8a 8 8, 0, 0, 0, 0 -16" transform="rotate(90,394,474)"/><rect x="402" y="146" width="16" height="16" transform="rotate(0,410,154)"/><circle cx="410" cy="202" r="8" transform="rotate(0,410,202)"/><path d="M 402 226v 16h 8a 8 8, 0, 0, 0, 0 -16" transform="rotate(0,410,234)"/><path d="M 402 290v 16h 16v -8a 8 8, 0, 0, 0, -8 -8" transform="rotate(-90,410,298)"/><path d="M 402 306v 16h 16v -8a 8 8, 0, 0, 0, -8 -8" transform="rotate(180,410,314)"/><rect x="402" y="338" width="16" height="16" transform="rotate(0,410,346)"/><rect x="402" y="354" width="16" height="16" transform="rotate(0,410,362)"/><rect x="402" y="370" width="16" height="16" transform="rotate(0,410,378)"/><rect x="402" y="386" width="16" height="16" transform="rotate(0,410,394)"/><rect x="402" y="402" width="16" height="16" transform="rotate(0,410,410)"/><rect x="402" y="418" width="16" height="16" transform="rotate(0,410,426)"/><path d="M 402 434v 16h 8a 8 8, 0, 0, 0, 0 -16" transform="rotate(90,410,442)"/><rect x="418" y="146" width="16" height="16" transform="rotate(0,426,154)"/><path d="M 418 162v 16h 8a 8 8, 0, 0, 0, 0 -16" transform="rotate(90,426,170)"/><circle cx="426" cy="218" r="8" transform="rotate(0,426,218)"/><path d="M 418 258v 16h 8a 8 8, 0, 0, 0, 0 -16" transform="rotate(180,426,266)"/><path d="M 418 290v 16h 16v -8a 8 8, 0, 0, 0, -8 -8" transform="rotate(0,426,298)"/><rect x="418" y="306" width="16" height="16" transform="rotate(0,426,314)"/><rect x="418" y="322" width="16" height="16" transform="rotate(0,426,330)"/><rect x="418" y="338" width="16" height="16" transform="rotate(0,426,346)"/><rect x="418" y="354" width="16" height="16" transform="rotate(0,426,362)"/><rect x="418" y="386" width="16" height="16" transform="rotate(0,426,394)"/><rect x="434" y="146" width="16" height="16" transform="rotate(0,442,154)"/><path d="M 434 178v 16h 8a 8 8, 0, 0, 0, 0 -16" transform="rotate(180,442,186)"/><path d="M 434 226v 16h 8a 8 8, 0, 0, 0, 0 -16" transform="rotate(-90,442,234)"/><rect x="434" y="242" width="16" height="16" transform="rotate(0,442,250)"/><rect x="434" y="258" width="16" height="16" transform="rotate(0,442,266)"/><path d="M 434 274v 16h 16v -8a 8 8, 0, 0, 0, -8 -8" transform="rotate(180,442,282)"/><path d="M 434 322v 16h 16v -8a 8 8, 0, 0, 0, -8 -8" transform="rotate(0,442,330)"/><rect x="434" y="338" width="16" height="16" transform="rotate(0,442,346)"/><rect x="434" y="354" width="16" height="16" transform="rotate(0,442,362)"/><rect x="434" y="370" width="16" height="16" transform="rotate(0,442,378)"/><rect x="434" y="386" width="16" height="16" transform="rotate(0,442,394)"/><rect x="434" y="402" width="16" height="16" transform="rotate(0,442,410)"/><rect x="434" y="418" width="16" height="16" transform="rotate(0,442,426)"/><rect x="434" y="434" width="16" height="16" transform="rotate(0,442,442)"/><path d="M 434 450v 16h 16v -8a 8 8, 0, 0, 0, -8 -8" transform="rotate(180,442,458)"/><path d="M 450 146v 16h 8a 8 8, 0, 0, 0, 0 -16" transform="rotate(0,458,154)"/><path d="M 450 178v 16h 16v -8a 8 8, 0, 0, 0, -8 -8" transform="rotate(0,458,186)"/><path d="M 450 194v 16h 16v -8a 8 8, 0, 0, 0, -8 -8" transform="rotate(180,458,202)"/><rect x="450" y="242" width="16" height="16" transform="rotate(0,458,250)"/><path d="M 450 274v 16h 8a 8 8, 0, 0, 0, 0 -16" transform="rotate(0,458,282)"/><path d="M 450 338v 16h 8a 8 8, 0, 0, 0, 0 -16" transform="rotate(0,458,346)"/><rect x="450" y="402" width="16" height="16" transform="rotate(0,458,410)"/><rect x="450" y="418" width="16" height="16" transform="rotate(0,458,426)"/><path d="M 450 450v 16h 8a 8 8, 0, 0, 0, 0 -16" transform="rotate(0,458,458)"/><circle cx="474" cy="170" r="8" transform="rotate(0,474,170)"/><path d="M 466 194v 16h 8a 8 8, 0, 0, 0, 0 -16" transform="rotate(0,474,202)"/><path d="M 466 242v 16h 8a 8 8, 0, 0, 0, 0 -16" transform="rotate(0,474,250)"/><path d="M 466 290v 16h 8a 8 8, 0, 0, 0, 0 -16" transform="rotate(-90,474,298)"/><rect x="466" y="306" width="16" height="16" transform="rotate(0,474,314)"/><path d="M 466 322v 16h 8a 8 8, 0, 0, 0, 0 -16" transform="rotate(90,474,330)"/><path d="M 466 402v 16h 16v -8a 8 8, 0, 0, 0, -8 -8" transform="rotate(0,474,410)"/><rect x="466" y="418" width="16" height="16" transform="rotate(0,474,426)"/><path d="M 466 434v 16h 8a 8 8, 0, 0, 0, 0 -16" transform="rotate(90,474,442)"/><path clip-rule="evenodd" d="M 18 58v 32a 40 40, 0, 0, 0, 40 40h 32a 40 40, 0, 0, 0, 40 -40v -32a 40 40, 0, 0, 0, -40 -40h -32a 40 40, 0, 0, 0, -40 40M 58 34h 32a 24 24, 0, 0, 1, 24 24v 32a 24 24, 0, 0, 1, -24 24h -32a 24 24, 0, 0, 1, -24 -24v -32a 24 24, 0, 0, 1, 24 -24" transform="rotate(0,74,74)"/><circle cx="74" cy="74" r="24" transform="rotate(0,74,74)"/><path clip-rule="evenodd" d="M 370 58v 32a 40 40, 0, 0, 0, 40 40h 32a 40 40, 0, 0, 0, 40 -40v -32a 40 40, 0, 0, 0, -40 -40h -32a 40 40, 0, 0, 0, -40 40M 410 34h 32a 24 24, 0, 0, 1, 24 24v 32a 24 24, 0, 0, 1, -24 24h -32a 24 24, 0, 0, 1, -24 -24v -32a 24 24, 0, 0, 1, 24 -24" transform="rotate(90,426,74)"/><circle cx="426" cy="74" r="24" transform="rotate(90,426,74)"/><path clip-rule="evenodd" d="M 18 410v 32a 40 40, 0, 0, 0, 40 40h 32a 40 40, 0, 0, 0, 40 -40v -32a 40 40, 0, 0, 0, -40 -40h -32a 40 40, 0, 0, 0, -40 40M 58 386h 32a 24 24, 0, 0, 1, 24 24v 32a 24 24, 0, 0, 1, -24 24h -32a 24 24, 0, 0, 1, -24 -24v -32a 24 24, 0, 0, 1, 24 -24" transform="rotate(-90,74,426)"/><circle cx="74" cy="426" r="24" transform="rotate(-90,74,426)"/></clipPath></defs><rect x="0" y="0" height="500" width="500" clip-path="url('#clip-path-background-color')" fill="#ffffff00"/><rect x="0" y="0" height="500" width="500" clip-path="url('#clip-path-dot-color')" fill="#000000"/></svg>