<?xml version="1.0" standalone="no"?>
<svg xmlns="http://www.w3.org/2000/svg" width="500" height="500"><defs><clipPath id="clip-path-dot-color"><path d="M 2 152v 15h 15v -7.5a 7.5 7.5, 0, 0, 0, -7.5 -7.5" transform="rotate(-90,9.5,159.5)"/><path d="M 2 167v 15h 15v -7.5a 7.5 7.5, 0, 0, 0, -7.5 -7.5" transform="rotate(180,9.5,174.5)"/><path d="M 2 227v 15h 7.5a 7.5 7.5, 0, 0, 0, 0 -15" transform="rotate(-90,9.5,234.5)"/><path d="M 2 242v 15h 7.5a 7.5 7.5, 0, 0, 0, 0 -15" transform="rotate(90,9.5,249.5)"/><path d="M 2 287v 15h 7.5a 7.5 7.5, 0, 0, 0, 0 -15" transform="rotate(-90,9.5,294.5)"/><rect x="2" y="302" width="15" height="15" transform="rotate(0,9.5,309.5)"/><path d="M 2 317v 15h 7.5a 7.5 7.5, 0, 0, 0, 0 -15" transform="rotate(90,9.5,324.5)"/><path d="M 2 347v 15h 7.5a 7.5 7.5, 0, 0, 0, 0 -15" transform="rotate(180,9.5,354.5)"/><path d="M 17 122v 15h 15v -7.5a 7.5 7.5, 0, 0, 0, -7.5 -7.5" transform="rotate(-90,24.5,129.5)"/><rect x="17" y="137" width="15" height="15" transform="rotate(0,24.5,144.5)"/><rect x="17" y="152" width="15" height="15" transform="rotate(0,24.5,159.5)"/><rect x="17" y="167" width="15" height="15" transform="rotate(0,24.5,174.5)"/><rect x="17" y="182" width="15" height="15" transform="rotate(0,24.5,189.5)"/><rect x="17" y="197" width="15" height="15" transform="rotate(0,24.5,204.5)"/><path d="M 17 212v 15h 15v -7.5a 7.5 7.5, 0, 0, 0, -7.5 -7.5" transform="rotate(180,24.5,219.5)"/><circle cx="24.5" cy="264.5" r="7.5" transform="rotate(0,24.5,264.5)"/><path d="M 17 347v 15h 7.5a 7.5 7.5, 0, 0, 0, 0 -15" transform="rotate(0,24.5,354.5)"/><path d="M 32 122v 15h 7.5a 7.5 7.5, 0, 0, 0, 0 -15" transform="rotate(0,39.5,129.5)"/><path d="M 32 182v 15h 7.5a 7.5 7.5, 0, 0, 0, 0 -15" transform="rotate(0,39.5,189.5)"/><rect x="32" y="212" width="15" height="15" transform="rotate(0,39.5,219.5)"/><path d="M 32 272v 15h 15v -7.5a 7.5 7.5, 0, 0, 0, -7.5 -7.5" transform="rotate(-90,39.5,279.5)"/><rect x="32" y="287" width="15" height="15" transform="rotate(0,39.5,294.5)"/><path d="M 32 302v 15h 7.5a 7.5 7.5, 0, 0, 0, 0 -15" transform="rotate(90,39.5,309.5)"/><path d="M 32 362v 15h 7.5a 7.5 7.5, 0, 0, 0, 0 -15" transform="rotate(180,39.5,369.5)"/><circle cx="54.5" cy="174.5" r="7.5" transform="rotate(0,54.5,174.5)"/><rect x="47" y="212" width="15" height="15" transform="rotate(0,54.5,219.5)"/><rect x="47" y="272" width="15" height="15" transform="rotate(0,54.5,279.5)"/><path d="M 47 317v 15h 7.5a 7.5 7.5, 0, 0, 0, 0 -15" transform="rotate(180,54.5,324.5)"/><rect x="47" y="362" width="15" height="15" transform="rotate(0,54.5,369.5)"/><circle cx="69.5" cy="159.5" r="7.5" transform="rotate(0,69.5,159.5)"/><path d="M 62 182v 15h 7.5a 7.5 7.5, 0, 0, 0, 0 -15" transform="rotate(-90,69.5,189.5)"/><rect x="62" y="197" width="15" height="15" transform="rotate(0,69.5,204.5)"/><rect x="62" y="212" width="15" height="15" transform="rotate(0,69.5,219.5)"/><path d="M 62 257v 15h 15v -7.5a 7.5 7.5, 0, 0, 0, -7.5 -7.5" transform="rotate(-90,69.5,264.5)"/><path d="M 62 272v 15h 15v -7.5a 7.5 7.5, 0, 0, 0, -7.5 -7.5" transform="rotate(90,69.5,279.5)"/><rect x="62" y="317" width="15" height="15" transform="rotate(0,69.5,324.5)"/><rect x="62" y="332" width="15" height="15" transform="rotate(0,69.5,339.5)"/><rect x="62" y="347" width="15" height="15" transform="rotate(0,69.5,354.5)"/><path d="M 62 362v 15h 15v -7.5a 7.5 7.5, 0, 0, 0, -7.5 -7.5" transform="rotate(90,69.5,369.5)"/><rect x="77" y="212" width="15" height="15" transform="rotate(0,84.5,219.5)"/><path d="M 77 257v 15h 7.5a 7.5 7.5, 0, 0, 0, 0 -15" transform="rotate(0,84.5,264.5)"/><path d="M 77 317v 15h 7.5a 7.5 7.5, 0, 0, 0, 0 -15" transform="rotate(0,84.5,324.5)"/><path d="M 77 347v 15h 7.5a 7.5 7.5, 0, 0, 0, 0 -15" transform="rotate(0,84.5,354.5)"/><circle cx="99.5" cy="129.5" r="7.5" transform="rotate(0,99.5,129.5)"/><path d="M 92 152v 15h 7.5a 7.5 7.5, 0, 0, 0, 0 -15" transform="rotate(180,99.5,159.5)"/><circle cx="99.5" cy="189.5" r="7.5" transform="rotate(0,99.5,189.5)"/><rect x="92" y="212" width="15" height="15" transform="rotate(0,99.5,219.5)"/><circle cx="99.5" cy="249.5" r="7.5" transform="rotate(0,99.5,249.5)"/><circle cx="99.5" cy="279.5" r="7.5" transform="rotate(0,99.5,279.5)"/><circle cx="99.5" cy="309.5" r="7.5" transform="rotate(0,99.5,309.5)"/><path d="M 92 332v 15h 7.5a 7.5 7.5, 0, 0, 0, 0 -15" transform="rotate(180,99.5,339.5)"/><path d="M 92 362v 15h 7.5a 7.5 7.5, 0, 0, 0, 0 -15" transform="rotate(180,99.5,369.5)"/><path d="M 107 137v 15h 15v -7.5a 7.5 7.5, 0, 0, 0, -7.5 -7.5" transform="rotate(-90,114.5,144.5)"/><path d="M 107 152v 15h 15v -7.5a 7.5 7.5, 0, 0, 0, -7.5 -7.5" transform="rotate(90,114.5,159.5)"/><rect x="107" y="212" width="15" height="15" transform="rotate(0,114.5,219.5)"/><path d="M 107 227v 15h 15v -7.5a 7.5 7.5, 0, 0, 0, -7.5 -7.5" transform="rotate(180,114.5,234.5)"/><path d="M 107 257v 15h 7.5a 7.5 7.5, 0, 0, 0, 0 -15" transform="rotate(180,114.5,264.5)"/><circle cx="114.5" cy="294.5" r="7.5" transform="rotate(0,114.5,294.5)"/><path d="M 107 332v 15h 7.5a 7.5 7.5, 0, 0, 0, 0 -15" transform="rotate(0,114.5,339.5)"/><path d="M 107 362v 15h 7.5a 7.5 7.5, 0, 0, 0, 0 -15" transform="rotate(0,114.5,369.5)"/><path d="M 122 17v 15h 7.5a 7.5 7.5, 0, 0, 0, 0 -15" transform="rotate(-90,129.5,24.5)"/><rect x="122" y="32" width="15" height="15" transform="rotate(0,129.5,39.5)"/><path d="M 122 47v 15h 7.5a 7.5 7.5, 0, 0, 0, 0 -15" transform="rotate(90,129.5,54.5)"/><path d="M 122 77v 15h 15v -7.5a 7.5 7.5, 0, 0, 0, -7.5 -7.5" transform="rotate(-90,129.5,84.5)"/><path d="M 122 92v 15h 7.5a 7.5 7.5, 0, 0, 0, 0 -15" transform="rotate(90,129.5,99.5)"/><rect x="122" y="137" width="15" height="15" transform="rotate(0,129.5,144.5)"/><path d="M 122 167v 15h 15v -7.5a 7.5 7.5, 0, 0, 0, -7.5 -7.5" transform="rotate(-90,129.5,174.5)"/><path d="M 122 182v 15h 15v -7.5a 7.5 7.5, 0, 0, 0, -7.5 -7.5" transform="rotate(180,129.5,189.5)"/><rect x="122" y="212" width="15" height="15" transform="rotate(0,129.5,219.5)"/><rect x="122" y="227" width="15" height="15" transform="rotate(0,129.5,234.5)"/><rect x="122" y="242" width="15" height="15" transform="rotate(0,129.5,249.5)"/><rect x="122" y="257" width="15" height="15" transform="rotate(0,129.5,264.5)"/><path d="M 122 272v 15h 15v -7.5a 7.5 7.5, 0, 0, 0, -7.5 -7.5" transform="rotate(180,129.5,279.5)"/><path d="M 122 302v 15h 15v -7.5a 7.5 7.5, 0, 0, 0, -7.5 -7.5" transform="rotate(-90,129.5,309.5)"/><path d="M 122 317v 15h 7.5a 7.5 7.5, 0, 0, 0, 0 -15" transform="rotate(90,129.5,324.5)"/><path d="M 122 347v 15h 7.5a 7.5 7.5, 0, 0, 0, 0 -15" transform="rotate(180,129.5,354.5)"/><path d="M 122 452v 15h 15v -7.5a 7.5 7.5, 0, 0, 0, -7.5 -7.5" transform="rotate(-90,129.5,459.5)"/><path d="M 122 467v 15h 7.5a 7.5 7.5, 0, 0, 0, 0 -15" transform="rotate(90,129.5,474.5)"/><path d="M 137 32v 15h 7.5a 7.5 7.5, 0, 0, 0, 0 -15" transform="rotate(0,144.5,39.5)"/><path d="M 137 62v 15h 7.5a 7.5 7.5, 0, 0, 0, 0 -15" transform="rotate(-90,144.5,69.5)"/><rect x="137" y="77" width="15" height="15" transform="rotate(0,144.5,84.5)"/><path d="M 137 137v 15h 15v -7.5a 7.5 7.5, 0, 0, 0, -7.5 -7.5" transform="rotate(0,144.5,144.5)"/><rect x="137" y="152" width="15" height="15" transform="rotate(0,144.5,159.5)"/><rect x="137" y="167" width="15" height="15" transform="rotate(0,144.5,174.5)"/><path d="M 137 182v 15h 15v -7.5a 7.5 7.5, 0, 0, 0, -7.5 -7.5" transform="rotate(90,144.5,189.5)"/><path d="M 137 212v 15h 15v -7.5a 7.5 7.5, 0, 0, 0, -7.5 -7.5" transform="rotate(0,144.5,219.5)"/><rect x="137" y="227" width="15" height="15" transform="rotate(0,144.5,234.5)"/><rect x="137" y="242" width="15" height="15" transform="rotate(0,144.5,249.5)"/><rect x="137" y="257" width="15" height="15" transform="rotate(0,144.5,264.5)"/><rect x="137" y="272" width="15" height="15" transform="rotate(0,144.5,279.5)"/><rect x="137" y="287" width="15" height="15" transform="rotate(0,144.5,294.5)"/><path d="M 137 302v 15h 15v -7.5a 7.5 7.5, 0, 0, 0, -7.5 -7.5" transform="rotate(90,144.5,309.5)"/><rect x="137" y="347" width="15" height="15" transform="rotate(0,144.5,354.5)"/><path d="M 137 392v 15h 7.5a 7.5 7.5, 0, 0, 0, 0 -15" transform="rotate(-90,144.5,399.5)"/><path d="M 137 407v 15h 15v -7.5a 7.5 7.5, 0, 0, 0, -7.5 -7.5" transform="rotate(180,144.5,414.5)"/><path d="M 137 437v 15h 15v -7.5a 7.5 7.5, 0, 0, 0, -7.5 -7.5" transform="rotate(-90,144.5,444.5)"/><path d="M 137 452v 15h 15v -7.5a 7.5 7.5, 0, 0, 0, -7.5 -7.5" transform="rotate(90,144.5,459.5)"/><path d="M 137 482v 15h 7.5a 7.5 7.5, 0, 0, 0, 0 -15" transform="rotate(180,144.5,489.5)"/><path d="M 152 17v 15h 7.5a 7.5 7.5, 0, 0, 0, 0 -15" transform="rotate(180,159.5,24.5)"/><path d="M 152 47v 15h 7.5a 7.5 7.5, 0, 0, 0, 0 -15" transform="rotate(180,159.5,54.5)"/><path d="M 152 77v 15h 15v -7.5a 7.5 7.5, 0, 0, 0, -7.5 -7.5" transform="rotate(0,159.5,84.5)"/><path d="M 152 92v 15h 7.5a 7.5 7.5, 0, 0, 0, 0 -15" transform="rotate(90,159.5,99.5)"/><path d="M 152 152v 15h 7.5a 7.5 7.5, 0, 0, 0, 0 -15" transform="rotate(0,159.5,159.5)"/><path d="M 152 272v 15h 7.5a 7.5 7.5, 0, 0, 0, 0 -15" transform="rotate(0,159.5,279.5)"/><path d="M 152 317v 15h 15v -7.5a 7.5 7.5, 0, 0, 0, -7.5 -7.5" transform="rotate(-90,159.5,324.5)"/><rect x="152" y="332" width="15" height="15" transform="rotate(0,159.5,339.5)"/><rect x="152" y="347" width="15" height="15" transform="rotate(0,159.5,354.5)"/><path d="M 152 362v 15h 7.5a 7.5 7.5, 0, 0, 0, 0 -15" transform="rotate(90,159.5,369.5)"/><rect x="152" y="407" width="15" height="15" transform="rotate(0,159.5,414.5)"/><rect x="152" y="422" width="15" height="15" transform="rotate(0,159.5,429.5)"/><rect x="152" y="437" width="15" height="15" transform="rotate(0,159.5,444.5)"/><path d="M 152 467v 15h 7.5a 7.5 7.5, 0, 0, 0, 0 -15" transform="rotate(-90,159.5,474.5)"/><path d="M 152 482v 15h 15v -7.5a 7.5 7.5, 0, 0, 0, -7.5 -7.5" transform="rotate(90,159.5,489.5)"/><path d="M 167 2v 15h 15v -7.5a 7.5 7.5, 0, 0, 0, -7.5 -7.5" transform="rotate(-90,174.5,9.5)"/><path d="M 167 17v 15h 15v -7.5a 7.5 7.5, 0, 0, 0, -7.5 -7.5" transform="rotate(90,174.5,24.5)"/><rect x="167" y="47" width="15" height="15" transform="rotate(0,174.5,54.5)"/><path d="M 167 62v 15h 15v -7.5a 7.5 7.5, 0, 0, 0, -7.5 -7.5" transform="rotate(180,174.5,69.5)"/><path d="M 167 122v 15h 15v -7.5a 7.5 7.5, 0, 0, 0, -7.5 -7.5" transform="rotate(-90,174.5,129.5)"/><path d="M 167 137v 15h 7.5a 7.5 7.5, 0, 0, 0, 0 -15" transform="rotate(90,174.5,144.5)"/><path d="M 167 167v 15h 7.5a 7.5 7.5, 0, 0, 0, 0 -15" transform="rotate(-90,174.5,174.5)"/><path d="M 167 182v 15h 7.5a 7.5 7.5, 0, 0, 0, 0 -15" transform="rotate(90,174.5,189.5)"/><path d="M 167 242v 15h 7.5a 7.5 7.5, 0, 0, 0, 0 -15" transform="rotate(-90,174.5,249.5)"/><path d="M 167 257v 15h 7.5a 7.5 7.5, 0, 0, 0, 0 -15" transform="rotate(90,174.5,264.5)"/><path d="M 167 302v 15h 15v -7.5a 7.5 7.5, 0, 0, 0, -7.5 -7.5" transform="rotate(-90,174.5,309.5)"/><rect x="167" y="317" width="15" height="15" transform="rotate(0,174.5,324.5)"/><rect x="167" y="332" width="15" height="15" transform="rotate(0,174.5,339.5)"/><path d="M 167 377v 15h 7.5a 7.5 7.5, 0, 0, 0, 0 -15" transform="rotate(-90,174.5,384.5)"/><rect x="167" y="392" width="15" height="15" transform="rotate(0,174.5,399.5)"/><path d="M 167 407v 15h 15v -7.5a 7.5 7.5, 0, 0, 0, -7.5 -7.5" transform="rotate(90,174.5,414.5)"/><rect x="167" y="437" width="15" height="15" transform="rotate(0,174.5,444.5)"/><path d="M 182 2v 15h 7.5a 7.5 7.5, 0, 0, 0, 0 -15" transform="rotate(0,189.5,9.5)"/><path d="M 182 32v 15h 7.5a 7.5 7.5, 0, 0, 0, 0 -15" transform="rotate(-90,189.5,39.5)"/><rect x="182" y="47" width="15" height="15" transform="rotate(0,189.5,54.5)"/><rect x="182" y="62" width="15" height="15" transform="rotate(0,189.5,69.5)"/><path d="M 182 92v 15h 7.5a 7.5 7.5, 0, 0, 0, 0 -15" transform="rotate(-90,189.5,99.5)"/><rect x="182" y="107" width="15" height="15" transform="rotate(0,189.5,114.5)"/><rect x="182" y="122" width="15" height="15" transform="rotate(0,189.5,129.5)"/><circle cx="189.5" cy="204.5" r="7.5" transform="rotate(0,189.5,204.5)"/><path d="M 182 227v 15h 7.5a 7.5 7.5, 0, 0, 0, 0 -15" transform="rotate(180,189.5,234.5)"/><path d="M 182 287v 15h 7.5a 7.5 7.5, 0, 0, 0, 0 -15" transform="rotate(-90,189.5,294.5)"/><rect x="182" y="302" width="15" height="15" transform="rotate(0,189.5,309.5)"/><rect x="182" y="317" width="15" height="15" transform="rotate(0,189.5,324.5)"/><path d="M 182 332v 15h 15v -7.5a 7.5 7.5, 0, 0, 0, -7.5 -7.5" transform="rotate(90,189.5,339.5)"/><circle cx="189.5" cy="369.5" r="7.5" transform="rotate(0,189.5,369.5)"/><path d="M 182 422v 15h 7.5a 7.5 7.5, 0, 0, 0, 0 -15" transform="rotate(-90,189.5,429.5)"/><rect x="182" y="437" width="15" height="15" transform="rotate(0,189.5,444.5)"/><path d="M 182 467v 15h 7.5a 7.5 7.5, 0, 0, 0, 0 -15" transform="rotate(180,189.5,474.5)"/><path d="M 197 17v 15h 7.5a 7.5 7.5, 0, 0, 0, 0 -15" transform="rotate(180,204.5,24.5)"/><rect x="197" y="47" width="15" height="15" transform="rotate(0,204.5,54.5)"/><path d="M 197 62v 15h 15v -7.5a 7.5 7.5, 0, 0, 0, -7.5 -7.5" transform="rotate(90,204.5,69.5)"/><path d="M 197 107v 15h 15v -7.5a 7.5 7.5, 0, 0, 0, -7.5 -7.5" transform="rotate(0,204.5,114.5)"/><path d="M 197 122v 15h 15v -7.5a 7.5 7.5, 0, 0, 0, -7.5 -7.5" transform="rotate(90,204.5,129.5)"/><path d="M 197 152v 15h 7.5a 7.5 7.5, 0, 0, 0, 0 -15" transform="rotate(-90,204.5,159.5)"/><path d="M 197 167v 15h 7.5a 7.5 7.5, 0, 0, 0, 0 -15" transform="rotate(90,204.5,174.5)"/><path d="M 197 212v 15h 15v -7.5a 7.5 7.5, 0, 0, 0, -7.5 -7.5" transform="rotate(-90,204.5,219.5)"/><path d="M 197 227v 15h 15v -7.5a 7.5 7.5, 0, 0, 0, -7.5 -7.5" transform="rotate(90,204.5,234.5)"/><rect x="197" y="302" width="15" height="15" transform="rotate(0,204.5,309.5)"/><circle cx="204.5" cy="354.5" r="7.5" transform="rotate(0,204.5,354.5)"/><circle cx="204.5" cy="384.5" r="7.5" transform="rotate(0,204.5,384.5)"/><circle cx="204.5" cy="414.5" r="7.5" transform="rotate(0,204.5,414.5)"/><path d="M 197 437v 15h 15v -7.5a 7.5 7.5, 0, 0, 0, -7.5 -7.5" transform="rotate(0,204.5,444.5)"/><rect x="197" y="452" width="15" height="15" transform="rotate(0,204.5,459.5)"/><path d="M 197 467v 15h 15v -7.5a 7.5 7.5, 0, 0, 0, -7.5 -7.5" transform="rotate(90,204.5,474.5)"/><rect x="212" y="17" width="15" height="15" transform="rotate(0,219.5,24.5)"/><rect x="212" y="32" width="15" height="15" transform="rotate(0,219.5,39.5)"/><rect x="212" y="47" width="15" height="15" transform="rotate(0,219.5,54.5)"/><circle cx="219.5" cy="99.5" r="7.5" transform="rotate(0,219.5,99.5)"/><circle cx="219.5" cy="144.5" r="7.5" transform="rotate(0,219.5,144.5)"/><path d="M 212 197v 15h 7.5a 7.5 7.5, 0, 0, 0, 0 -15" transform="rotate(-90,219.5,204.5)"/><rect x="212" y="212" width="15" height="15" transform="rotate(0,219.5,219.5)"/><path d="M 212 287v 15h 7.5a 7.5 7.5, 0, 0, 0, 0 -15" transform="rotate(-90,219.5,294.5)"/><rect x="212" y="302" width="15" height="15" transform="rotate(0,219.5,309.5)"/><rect x="212" y="317" width="15" height="15" transform="rotate(0,219.5,324.5)"/><path d="M 212 332v 15h 7.5a 7.5 7.5, 0, 0, 0, 0 -15" transform="rotate(90,219.5,339.5)"/><path d="M 212 392v 15h 7.5a 7.5 7.5, 0, 0, 0, 0 -15" transform="rotate(180,219.5,399.5)"/><rect x="212" y="452" width="15" height="15" transform="rotate(0,219.5,459.5)"/><path d="M 227 2v 15h 15v -7.5a 7.5 7.5, 0, 0, 0, -7.5 -7.5" transform="rotate(-90,234.5,9.5)"/><path d="M 227 17v 15h 15v -7.5a 7.5 7.5, 0, 0, 0, -7.5 -7.5" transform="rotate(90,234.5,24.5)"/><path d="M 227 47v 15h 7.5a 7.5 7.5, 0, 0, 0, 0 -15" transform="rotate(0,234.5,54.5)"/><path d="M 227 182v 15h 7.5a 7.5 7.5, 0, 0, 0, 0 -15" transform="rotate(180,234.5,189.5)"/><rect x="227" y="212" width="15" height="15" transform="rotate(0,234.5,219.5)"/><path d="M 227 227v 15h 7.5a 7.5 7.5, 0, 0, 0, 0 -15" transform="rotate(90,234.5,234.5)"/><rect x="227" y="317" width="15" height="15" transform="rotate(0,234.5,324.5)"/><path d="M 227 347v 15h 7.5a 7.5 7.5, 0, 0, 0, 0 -15" transform="rotate(180,234.5,354.5)"/><path d="M 227 377v 15h 15v -7.5a 7.5 7.5, 0, 0, 0, -7.5 -7.5" transform="rotate(-90,234.5,384.5)"/><rect x="227" y="392" width="15" height="15" transform="rotate(0,234.5,399.5)"/><path d="M 227 407v 15h 7.5a 7.5 7.5, 0, 0, 0, 0 -15" transform="rotate(90,234.5,414.5)"/><path d="M 227 437v 15h 15v -7.5a 7.5 7.5, 0, 0, 0, -7.5 -7.5" transform="rotate(-90,234.5,444.5)"/><path d="M 227 452v 15h 15v -7.5a 7.5 7.5, 0, 0, 0, -7.5 -7.5" transform="rotate(90,234.5,459.5)"/><rect x="242" y="2" width="15" height="15" transform="rotate(0,249.5,9.5)"/><circle cx="249.5" cy="39.5" r="7.5" transform="rotate(0,249.5,39.5)"/><path d="M 242 62v 15h 15v -7.5a 7.5 7.5, 0, 0, 0, -7.5 -7.5" transform="rotate(-90,249.5,69.5)"/><rect x="242" y="77" width="15" height="15" transform="rotate(0,249.5,84.5)"/><path d="M 242 92v 15h 7.5a 7.5 7.5, 0, 0, 0, 0 -15" transform="rotate(90,249.5,99.5)"/><circle cx="249.5" cy="129.5" r="7.5" transform="rotate(0,249.5,129.5)"/><path d="M 242 167v 15h 15v -7.5a 7.5 7.5, 0, 0, 0, -7.5 -7.5" transform="rotate(-90,249.5,174.5)"/><rect x="242" y="182" width="15" height="15" transform="rotate(0,249.5,189.5)"/><rect x="242" y="212" width="15" height="15" transform="rotate(0,249.5,219.5)"/><circle cx="249.5" cy="264.5" r="7.5" transform="rotate(0,249.5,264.5)"/><path d="M 242 302v 15h 7.5a 7.5 7.5, 0, 0, 0, 0 -15" transform="rotate(-90,249.5,309.5)"/><rect x="242" y="317" width="15" height="15" transform="rotate(0,249.5,324.5)"/><rect x="242" y="332" width="15" height="15" transform="rotate(0,249.5,339.5)"/><rect x="242" y="347" width="15" height="15" transform="rotate(0,249.5,354.5)"/><rect x="242" y="377" width="15" height="15" transform="rotate(0,249.5,384.5)"/><rect x="242" y="392" width="15" height="15" transform="rotate(0,249.5,399.5)"/><path d="M 242 422v 15h 15v -7.5a 7.5 7.5, 0, 0, 0, -7.5 -7.5" transform="rotate(-90,249.5,429.5)"/><rect x="242" y="437" width="15" height="15" transform="rotate(0,249.5,444.5)"/><rect x="257" y="2" width="15" height="15" transform="rotate(0,264.5,9.5)"/><path d="M 257 17v 15h 7.5a 7.5 7.5, 0, 0, 0, 0 -15" transform="rotate(90,264.5,24.5)"/><rect x="257" y="62" width="15" height="15" transform="rotate(0,264.5,69.5)"/><path d="M 257 137v 15h 7.5a 7.5 7.5, 0, 0, 0, 0 -15" transform="rotate(-90,264.5,144.5)"/><rect x="257" y="152" width="15" height="15" transform="rotate(0,264.5,159.5)"/><rect x="257" y="167" width="15" height="15" transform="rotate(0,264.5,174.5)"/><rect x="257" y="182" width="15" height="15" transform="rotate(0,264.5,189.5)"/><rect x="257" y="212" width="15" height="15" transform="rotate(0,264.5,219.5)"/><path d="M 257 272v 15h 7.5a 7.5 7.5, 0, 0, 0, 0 -15" transform="rotate(180,264.5,279.5)"/><path d="M 257 332v 15h 15v -7.5a 7.5 7.5, 0, 0, 0, -7.5 -7.5" transform="rotate(0,264.5,339.5)"/><rect x="257" y="347" width="15" height="15" transform="rotate(0,264.5,354.5)"/><rect x="257" y="362" width="15" height="15" transform="rotate(0,264.5,369.5)"/><rect x="257" y="377" width="15" height="15" transform="rotate(0,264.5,384.5)"/><path d="M 257 392v 15h 15v -7.5a 7.5 7.5, 0, 0, 0, -7.5 -7.5" transform="rotate(90,264.5,399.5)"/><rect x="257" y="422" width="15" height="15" transform="rotate(0,264.5,429.5)"/><path d="M 257 437v 15h 15v -7.5a 7.5 7.5, 0, 0, 0, -7.5 -7.5" transform="rotate(90,264.5,444.5)"/><path d="M 257 467v 15h 15v -7.5a 7.5 7.5, 0, 0, 0, -7.5 -7.5" transform="rotate(-90,264.5,474.5)"/><path d="M 257 482v 15h 7.5a 7.5 7.5, 0, 0, 0, 0 -15" transform="rotate(90,264.5,489.5)"/><rect x="272" y="2" width="15" height="15" transform="rotate(0,279.5,9.5)"/><path d="M 272 47v 15h 7.5a 7.5 7.5, 0, 0, 0, 0 -15" transform="rotate(-90,279.5,54.5)"/><rect x="272" y="62" width="15" height="15" transform="rotate(0,279.5,69.5)"/><rect x="272" y="77" width="15" height="15" transform="rotate(0,279.5,84.5)"/><path d="M 272 92v 15h 7.5a 7.5 7.5, 0, 0, 0, 0 -15" transform="rotate(90,279.5,99.5)"/><path d="M 272 182v 15h 7.5a 7.5 7.5, 0, 0, 0, 0 -15" transform="rotate(0,279.5,189.5)"/><rect x="272" y="212" width="15" height="15" transform="rotate(0,279.5,219.5)"/><path d="M 272 242v 15h 7.5a 7.5 7.5, 0, 0, 0, 0 -15" transform="rotate(180,279.5,249.5)"/><path d="M 272 272v 15h 7.5a 7.5 7.5, 0, 0, 0, 0 -15" transform="rotate(0,279.5,279.5)"/><path d="M 272 302v 15h 7.5a 7.5 7.5, 0, 0, 0, 0 -15" transform="rotate(-90,279.5,309.5)"/><path d="M 272 317v 15h 7.5a 7.5 7.5, 0, 0, 0, 0 -15" transform="rotate(90,279.5,324.5)"/><rect x="272" y="362" width="15" height="15" transform="rotate(0,279.5,369.5)"/><path d="M 272 377v 15h 15v -7.5a 7.5 7.5, 0, 0, 0, -7.5 -7.5" transform="rotate(90,279.5,384.5)"/><path d="M 272 407v 15h 7.5a 7.5 7.5, 0, 0, 0, 0 -15" transform="rotate(-90,279.5,414.5)"/><rect x="272" y="422" width="15" height="15" transform="rotate(0,279.5,429.5)"/><path d="M 272 452v 15h 7.5a 7.5 7.5, 0, 0, 0, 0 -15" transform="rotate(-90,279.5,459.5)"/><rect x="272" y="467" width="15" height="15" transform="rotate(0,279.5,474.5)"/><rect x="287" y="2" width="15" height="15" transform="rotate(0,294.5,9.5)"/><rect x="287" y="17" width="15" height="15" transform="rotate(0,294.5,24.5)"/><path d="M 287 32v 15h 15v -7.5a 7.5 7.5, 0, 0, 0, -7.5 -7.5" transform="rotate(180,294.5,39.5)"/><path d="M 287 107v 15h 7.5a 7.5 7.5, 0, 0, 0, 0 -15" transform="rotate(180,294.5,114.5)"/><circle cx="294.5" cy="144.5" r="7.5" transform="rotate(0,294.5,144.5)"/><path d="M 287 212v 15h 15v -7.5a 7.5 7.5, 0, 0, 0, -7.5 -7.5" transform="rotate(0,294.5,219.5)"/><rect x="287" y="227" width="15" height="15" transform="rotate(0,294.5,234.5)"/><rect x="287" y="242" width="15" height="15" transform="rotate(0,294.5,249.5)"/><path d="M 287 257v 15h 15v -7.5a 7.5 7.5, 0, 0, 0, -7.5 -7.5" transform="rotate(180,294.5,264.5)"/><circle cx="294.5" cy="294.5" r="7.5" transform="rotate(0,294.5,294.5)"/><path d="M 287 332v 15h 7.5a 7.5 7.5, 0, 0, 0, 0 -15" transform="rotate(180,294.5,339.5)"/><path d="M 287 362v 15h 7.5a 7.5 7.5, 0, 0, 0, 0 -15" transform="rotate(0,294.5,369.5)"/><circle cx="294.5" cy="399.5" r="7.5" transform="rotate(0,294.5,399.5)"/><rect x="287" y="422" width="15" height="15" transform="rotate(0,294.5,429.5)"/><path d="M 287 467v 15h 7.5a 7.5 7.5, 0, 0, 0, 0 -15" transform="rotate(0,294.5,474.5)"/><rect x="302" y="2" width="15" height="15" transform="rotate(0,309.5,9.5)"/><rect x="302" y="17" width="15" height="15" transform="rotate(0,309.5,24.5)"/><path d="M 302 32v 15h 15v -7.5a 7.5 7.5, 0, 0, 0, -7.5 -7.5" transform="rotate(90,309.5,39.5)"/><path d="M 302 62v 15h 7.5a 7.5 7.5, 0, 0, 0, 0 -15" transform="rotate(-90,309.5,69.5)"/><rect x="302" y="77" width="15" height="15" transform="rotate(0,309.5,84.5)"/><rect x="302" y="92" width="15" height="15" transform="rotate(0,309.5,99.5)"/><path d="M 302 107v 15h 15v -7.5a 7.5 7.5, 0, 0, 0, -7.5 -7.5" transform="rotate(90,309.5,114.5)"/><path d="M 302 152v 15h 7.5a 7.5 7.5, 0, 0, 0, 0 -15" transform="rotate(-90,309.5,159.5)"/><rect x="302" y="167" width="15" height="15" transform="rotate(0,309.5,174.5)"/><rect x="302" y="182" width="15" height="15" transform="rotate(0,309.5,189.5)"/><path d="M 302 197v 15h 15v -7.5a 7.5 7.5, 0, 0, 0, -7.5 -7.5" transform="rotate(180,309.5,204.5)"/><path d="M 302 257v 15h 7.5a 7.5 7.5, 0, 0, 0, 0 -15" transform="rotate(0,309.5,264.5)"/><rect x="302" y="332" width="15" height="15" transform="rotate(0,309.5,339.5)"/><path d="M 302 347v 15h 7.5a 7.5 7.5, 0, 0, 0, 0 -15" transform="rotate(90,309.5,354.5)"/><path d="M 302 422v 15h 15v -7.5a 7.5 7.5, 0, 0, 0, -7.5 -7.5" transform="rotate(0,309.5,429.5)"/><rect x="302" y="437" width="15" height="15" transform="rotate(0,309.5,444.5)"/><path d="M 302 452v 15h 7.5a 7.5 7.5, 0, 0, 0, 0 -15" transform="rotate(90,309.5,459.5)"/><path d="M 302 482v 15h 7.5a 7.5 7.5, 0, 0, 0, 0 -15" transform="rotate(180,309.5,489.5)"/><path d="M 317 2v 15h 7.5a 7.5 7.5, 0, 0, 0, 0 -15" transform="rotate(0,324.5,9.5)"/><rect x="317" y="77" width="15" height="15" transform="rotate(0,324.5,84.5)"/><rect x="317" y="167" width="15" height="15" transform="rotate(0,324.5,174.5)"/><rect x="317" y="182" width="15" height="15" transform="rotate(0,324.5,189.5)"/><rect x="317" y="197" width="15" height="15" transform="rotate(0,324.5,204.5)"/><path d="M 317 212v 15h 7.5a 7.5 7.5, 0, 0, 0, 0 -15" transform="rotate(90,324.5,219.5)"/><path d="M 317 302v 15h 15v -7.5a 7.5 7.5, 0, 0, 0, -7.5 -7.5" transform="rotate(-90,324.5,309.5)"/><rect x="317" y="317" width="15" height="15" transform="rotate(0,324.5,324.5)"/><rect x="317" y="332" width="15" height="15" transform="rotate(0,324.5,339.5)"/><path d="M 317 377v 15h 15v -7.5a 7.5 7.5, 0, 0, 0, -7.5 -7.5" transform="rotate(-90,324.5,384.5)"/><path d="M 317 392v 15h 15v -7.5a 7.5 7.5, 0, 0, 0, -7.5 -7.5" transform="rotate(180,324.5,399.5)"/><rect x="317" y="437" width="15" height="15" transform="rotate(0,324.5,444.5)"/><rect x="317" y="482" width="15" height="15" transform="rotate(0,324.5,489.5)"/><path d="M 332 32v 15h 7.5a 7.5 7.5, 0, 0, 0, 0 -15" transform="rotate(180,339.5,39.5)"/><path d="M 332 62v 15h 15v -7.5a 7.5 7.5, 0, 0, 0, -7.5 -7.5" transform="rotate(-90,339.5,69.5)"/><rect x="332" y="77" width="15" height="15" transform="rotate(0,339.5,84.5)"/><rect x="332" y="92" width="15" height="15" transform="rotate(0,339.5,99.5)"/><rect x="332" y="107" width="15" height="15" transform="rotate(0,339.5,114.5)"/><rect x="332" y="122" width="15" height="15" transform="rotate(0,339.5,129.5)"/><path d="M 332 137v 15h 7.5a 7.5 7.5, 0, 0, 0, 0 -15" transform="rotate(90,339.5,144.5)"/><rect x="332" y="167" width="15" height="15" transform="rotate(0,339.5,174.5)"/><path d="M 332 197v 15h 7.5a 7.5 7.5, 0, 0, 0, 0 -15" transform="rotate(0,339.5,204.5)"/><path d="M 332 242v 15h 15v -7.5a 7.5 7.5, 0, 0, 0, -7.5 -7.5" transform="rotate(-90,339.5,249.5)"/><path d="M 332 257v 15h 7.5a 7.5 7.5, 0, 0, 0, 0 -15" transform="rotate(90,339.5,264.5)"/><path d="M 332 287v 15h 7.5a 7.5 7.5, 0, 0, 0, 0 -15" transform="rotate(-90,339.5,294.5)"/><rect x="332" y="302" width="15" height="15" transform="rotate(0,339.5,309.5)"/><path d="M 332 332v 15h 15v -7.5a 7.5 7.5, 0, 0, 0, -7.5 -7.5" transform="rotate(0,339.5,339.5)"/><rect x="332" y="347" width="15" height="15" transform="rotate(0,339.5,354.5)"/><rect x="332" y="362" width="15" height="15" transform="rotate(0,339.5,369.5)"/><rect x="332" y="377" width="15" height="15" transform="rotate(0,339.5,384.5)"/><rect x="332" y="392" width="15" height="15" transform="rotate(0,339.5,399.5)"/><path d="M 332 422v 15h 15v -7.5a 7.5 7.5, 0, 0, 0, -7.5 -7.5" transform="rotate(-90,339.5,429.5)"/><rect x="332" y="437" width="15" height="15" transform="rotate(0,339.5,444.5)"/><rect x="332" y="452" width="15" height="15" transform="rotate(0,339.5,459.5)"/><rect x="332" y="467" width="15" height="15" transform="rotate(0,339.5,474.5)"/><rect x="332" y="482" width="15" height="15" transform="rotate(0,339.5,489.5)"/><path d="M 347 17v 15h 7.5a 7.5 7.5, 0, 0, 0, 0 -15" transform="rotate(-90,354.5,24.5)"/><rect x="347" y="32" width="15" height="15" transform="rotate(0,354.5,39.5)"/><path d="M 347 62v 15h 7.5a 7.5 7.5, 0, 0, 0, 0 -15" transform="rotate(0,354.5,69.5)"/><path d="M 347 122v 15h 7.5a 7.5 7.5, 0, 0, 0, 0 -15" transform="rotate(0,354.5,129.5)"/><path d="M 347 152v 15h 15v -7.5a 7.5 7.5, 0, 0, 0, -7.5 -7.5" transform="rotate(-90,354.5,159.5)"/><rect x="347" y="167" width="15" height="15" transform="rotate(0,354.5,174.5)"/><path d="M 347 182v 15h 7.5a 7.5 7.5, 0, 0, 0, 0 -15" transform="rotate(90,354.5,189.5)"/><path d="M 347 227v 15h 15v -7.5a 7.5 7.5, 0, 0, 0, -7.5 -7.5" transform="rotate(-90,354.5,234.5)"/><path d="M 347 242v 15h 15v -7.5a 7.5 7.5, 0, 0, 0, -7.5 -7.5" transform="rotate(90,354.5,249.5)"/><path d="M 347 302v 15h 7.5a 7.5 7.5, 0, 0, 0, 0 -15" transform="rotate(0,354.5,309.5)"/><rect x="347" y="392" width="15" height="15" transform="rotate(0,354.5,399.5)"/><rect x="347" y="422" width="15" height="15" transform="rotate(0,354.5,429.5)"/><path d="M 347 437v 15h 15v -7.5a 7.5 7.5, 0, 0, 0, -7.5 -7.5" transform="rotate(90,354.5,444.5)"/><path d="M 347 482v 15h 7.5a 7.5 7.5, 0, 0, 0, 0 -15" transform="rotate(0,354.5,489.5)"/><circle cx="369.5" cy="9.5" r="7.5" transform="rotate(0,369.5,9.5)"/><path d="M 362 32v 15h 15v -7.5a 7.5 7.5, 0, 0, 0, -7.5 -7.5" transform="rotate(0,369.5,39.5)"/><path d="M 362 47v 15h 7.5a 7.5 7.5, 0, 0, 0, 0 -15" transform="rotate(90,369.5,54.5)"/><circle cx="369.5" cy="99.5" r="7.5" transform="rotate(0,369.5,99.5)"/><rect x="362" y="152" width="15" height="15" transform="rotate(0,369.5,159.5)"/><circle cx="369.5" cy="204.5" r="7.5" transform="rotate(0,369.5,204.5)"/><rect x="362" y="227" width="15" height="15" transform="rotate(0,369.5,234.5)"/><path d="M 362 257v 15h 15v -7.5a 7.5 7.5, 0, 0, 0, -7.5 -7.5" transform="rotate(-90,369.5,264.5)"/><rect x="362" y="272" width="15" height="15" transform="rotate(0,369.5,279.5)"/><path d="M 362 287v 15h 15v -7.5a 7.5 7.5, 0, 0, 0, -7.5 -7.5" transform="rotate(180,369.5,294.5)"/><path d="M 362 347v 15h 15v -7.5a 7.5 7.5, 0, 0, 0, -7.5 -7.5" transform="rotate(-90,369.5,354.5)"/><rect x="362" y="362" width="15" height="15" transform="rotate(0,369.5,369.5)"/><rect x="362" y="377" width="15" height="15" transform="rotate(0,369.5,384.5)"/><rect x="362" y="392" width="15" height="15" transform="rotate(0,369.5,399.5)"/><rect x="362" y="407" width="15" height="15" transform="rotate(0,369.5,414.5)"/><rect x="362" y="422" width="15" height="15" transform="rotate(0,369.5,429.5)"/><path d="M 377 122v 15h 7.5a 7.5 7.5, 0, 0, 0, 0 -15" transform="rotate(-90,384.5,129.5)"/><rect x="377" y="137" width="15" height="15" transform="rotate(0,384.5,144.5)"/><rect x="377" y="152" width="15" height="15" transform="rotate(0,384.5,159.5)"/><circle cx="384.5" cy="189.5" r="7.5" transform="rotate(0,384.5,189.5)"/><path d="M 377 212v 15h 15v -7.5a 7.5 7.5, 0, 0, 0, -7.5 -7.5" transform="rotate(-90,384.5,219.5)"/><rect x="377" y="227" width="15" height="15" transform="rotate(0,384.5,234.5)"/><rect x="377" y="242" width="15" height="15" transform="rotate(0,384.5,249.5)"/><rect x="377" y="257" width="15" height="15" transform="rotate(0,384.5,264.5)"/><rect x="377" y="272" width="15" height="15" transform="rotate(0,384.5,279.5)"/><rect x="377" y="287" width="15" height="15" transform="rotate(0,384.5,294.5)"/><path d="M 377 317v 15h 7.5a 7.5 7.5, 0, 0, 0, 0 -15" transform="rotate(180,384.5,324.5)"/><rect x="377" y="347" width="15" height="15" transform="rotate(0,384.5,354.5)"/><rect x="377" y="362" width="15" height="15" transform="rotate(0,384.5,369.5)"/><rect x="377" y="422" width="15" height="15" transform="rotate(0,384.5,429.5)"/><path d="M 377 437v 15h 7.5a 7.5 7.5, 0, 0, 0, 0 -15" transform="rotate(90,384.5,444.5)"/><rect x="392" y="137" width="15" height="15" transform="rotate(0,399.5,144.5)"/><rect x="392" y="152" width="15" height="15" transform="rotate(0,399.5,159.5)"/><path d="M 392 197v 15h 7.5a 7.5 7.5, 0, 0, 0, 0 -15" transform="rotate(-90,399.5,204.5)"/><rect x="392" y="212" width="15" height="15" transform="rotate(0,399.5,219.5)"/><rect x="392" y="242" width="15" height="15" transform="rotate(0,399.5,249.5)"/><rect x="392" y="272" width="15" height="15" transform="rotate(0,399.5,279.5)"/><rect x="392" y="287" width="15" height="15" transform="rotate(0,399.5,294.5)"/><rect x="392" y="302" width="15" height="15" transform="rotate(0,399.5,309.5)"/><path d="M 392 317v 15h 15v -7.5a 7.5 7.5, 0, 0, 0, -7.5 -7.5" transform="rotate(90,399.5,324.5)"/><path d="M 392 347v 15h 15v -7.5a 7.5 7.5, 0, 0, 0, -7.5 -7.5" transform="rotate(0,399.5,354.5)"/><rect x="392" y="362" width="15" height="15" transform="rotate(0,399.5,369.5)"/><circle cx="399.5" cy="399.5" r="7.5" transform="rotate(0,399.5,399.5)"/><rect x="392" y="422" width="15" height="15" transform="rotate(0,399.5,429.5)"/><circle cx="399.5" cy="474.5" r="7.5" transform="rotate(0,399.5,474.5)"/><path d="M 407 122v 15h 7.5a 7.5 7.5, 0, 0, 0, 0 -15" transform="rotate(-90,414.5,129.5)"/><rect x="407" y="137" width="15" height="15" transform="rotate(0,414.5,144.5)"/><path d="M 407 152v 15h 15v -7.5a 7.5 7.5, 0, 0, 0, -7.5 -7.5" transform="rotate(90,414.5,159.5)"/><path d="M 407 212v 15h 15v -7.5a 7.5 7.5, 0, 0, 0, -7.5 -7.5" transform="rotate(0,414.5,219.5)"/><rect x="407" y="227" width="15" height="15" transform="rotate(0,414.5,234.5)"/><rect x="407" y="242" width="15" height="15" transform="rotate(0,414.5,249.5)"/><rect x="407" y="257" width="15" height="15" transform="rotate(0,414.5,264.5)"/><path d="M 407 272v 15h 15v -7.5a 7.5 7.5, 0, 0, 0, -7.5 -7.5" transform="rotate(90,414.5,279.5)"/><rect x="407" y="362" width="15" height="15" transform="rotate(0,414.5,369.5)"/><rect x="407" y="422" width="15" height="15" transform="rotate(0,414.5,429.5)"/><rect x="407" y="437" width="15" height="15" transform="rotate(0,414.5,444.5)"/><path d="M 407 452v 15h 15v -7.5a 7.5 7.5, 0, 0, 0, -7.5 -7.5" transform="rotate(180,414.5,459.5)"/><path d="M 422 137v 15h 7.5a 7.5 7.5, 0, 0, 0, 0 -15" transform="rotate(0,429.5,144.5)"/><path d="M 422 167v 15h 7.5a 7.5 7.5, 0, 0, 0, 0 -15" transform="rotate(-90,429.5,174.5)"/><path d="M 422 182v 15h 15v -7.5a 7.5 7.5, 0, 0, 0, -7.5 -7.5" transform="rotate(180,429.5,189.5)"/><rect x="422" y="257" width="15" height="15" transform="rotate(0,429.5,264.5)"/><path d="M 422 287v 15h 7.5a 7.5 7.5, 0, 0, 0, 0 -15" transform="rotate(180,429.5,294.5)"/><path d="M 422 332v 15h 15v -7.5a 7.5 7.5, 0, 0, 0, -7.5 -7.5" transform="rotate(-90,429.5,339.5)"/><rect x="422" y="347" width="15" height="15" transform="rotate(0,429.5,354.5)"/><rect x="422" y="362" width="15" height="15" transform="rotate(0,429.5,369.5)"/><rect x="422" y="377" width="15" height="15" transform="rotate(0,429.5,384.5)"/><rect x="422" y="392" width="15" height="15" transform="rotate(0,429.5,399.5)"/><rect x="422" y="407" width="15" height="15" transform="rotate(0,429.5,414.5)"/><path d="M 422 422v 15h 15v -7.5a 7.5 7.5, 0, 0, 0, -7.5 -7.5" transform="rotate(90,429.5,429.5)"/><path d="M 422 452v 15h 15v -7.5a 7.5 7.5, 0, 0, 0, -7.5 -7.5" transform="rotate(0,429.5,459.5)"/><path d="M 422 467v 15h 15v -7.5a 7.5 7.5, 0, 0, 0, -7.5 -7.5" transform="rotate(180,429.5,474.5)"/><path d="M 437 122v 15h 7.5a 7.5 7.5, 0, 0, 0, 0 -15" transform="rotate(180,444.5,129.5)"/><path d="M 437 152v 15h 7.5a 7.5 7.5, 0, 0, 0, 0 -15" transform="rotate(180,444.5,159.5)"/><path d="M 437 182v 15h 7.5a 7.5 7.5, 0, 0, 0, 0 -15" transform="rotate(0,444.5,189.5)"/><circle cx="444.5" cy="234.5" r="7.5" transform="rotate(0,444.5,234.5)"/><path d="M 437 257v 15h 15v -7.5a 7.5 7.5, 0, 0, 0, -7.5 -7.5" transform="rotate(0,444.5,264.5)"/><rect x="437" y="272" width="15" height="15" transform="rotate(0,444.5,279.5)"/><path d="M 437 287v 15h 15v -7.5a 7.5 7.5, 0, 0, 0, -7.5 -7.5" transform="rotate(90,444.5,294.5)"/><path d="M 437 317v 15h 7.5a 7.5 7.5, 0, 0, 0, 0 -15" transform="rotate(-90,444.5,324.5)"/><rect x="437" y="332" width="15" height="15" transform="rotate(0,444.5,339.5)"/><rect x="437" y="347" width="15" height="15" transform="rotate(0,444.5,354.5)"/><path d="M 437 362v 15h 15v -7.5a 7.5 7.5, 0, 0, 0, -7.5 -7.5" transform="rotate(90,444.5,369.5)"/><rect x="437" y="407" width="15" height="15" transform="rotate(0,444.5,414.5)"/><path d="M 437 437v 15h 7.5a 7.5 7.5, 0, 0, 0, 0 -15" transform="rotate(180,444.5,444.5)"/><path d="M 437 467v 15h 15v -7.5a 7.5 7.5, 0, 0, 0, -7.5 -7.5" transform="rotate(0,444.5,474.5)"/><path d="M 437 482v 15h 7.5a 7.5 7.5, 0, 0, 0, 0 -15" transform="rotate(90,444.5,489.5)"/><rect x="452" y="122" width="15" height="15" transform="rotate(0,459.5,129.5)"/><rect x="452" y="137" width="15" height="15" transform="rotate(0,459.5,144.5)"/><rect x="452" y="152" width="15" height="15" transform="rotate(0,459.5,159.5)"/><path d="M 452 167v 15h 15v -7.5a 7.5 7.5, 0, 0, 0, -7.5 -7.5" transform="rotate(180,459.5,174.5)"/><path d="M 452 197v 15h 15v -7.5a 7.5 7.5, 0, 0, 0, -7.5 -7.5" transform="rotate(-90,459.5,204.5)"/><path d="M 452 212v 15h 15v -7.5a 7.5 7.5, 0, 0, 0, -7.5 -7.5" transform="rotate(180,459.5,219.5)"/><circle cx="459.5" cy="249.5" r="7.5" transform="rotate(0,459.5,249.5)"/><path d="M 452 302v 15h 7.5a 7.5 7.5, 0, 0, 0, 0 -15" transform="rotate(180,459.5,309.5)"/><path d="M 452 332v 15h 15v -7.5a 7.5 7.5, 0, 0, 0, -7.5 -7.5" transform="rotate(0,459.5,339.5)"/><path d="M 452 347v 15h 15v -7.5a 7.5 7.5, 0, 0, 0, -7.5 -7.5" transform="rotate(90,459.5,354.5)"/><path d="M 452 392v 15h 15v -7.5a 7.5 7.5, 0, 0, 0, -7.5 -7.5" transform="rotate(-90,459.5,399.5)"/><rect x="452" y="407" width="15" height="15" transform="rotate(0,459.5,414.5)"/><path d="M 452 437v 15h 7.5a 7.5 7.5, 0, 0, 0, 0 -15" transform="rotate(0,459.5,444.5)"/><path d="M 467 122v 15h 15v -7.5a 7.5 7.5, 0, 0, 0, -7.5 -7.5" transform="rotate(0,474.5,129.5)"/><rect x="467" y="137" width="15" height="15" transform="rotate(0,474.5,144.5)"/><path d="M 467 167v 15h 7.5a 7.5 7.5, 0, 0, 0, 0 -15" transform="rotate(0,474.5,174.5)"/><path d="M 467 197v 15h 15v -7.5a 7.5 7.5, 0, 0, 0, -7.5 -7.5" transform="rotate(0,474.5,204.5)"/><rect x="467" y="212" width="15" height="15" transform="rotate(0,474.5,219.5)"/><path d="M 467 227v 15h 7.5a 7.5 7.5, 0, 0, 0, 0 -15" transform="rotate(90,474.5,234.5)"/><path d="M 467 257v 15h 7.5a 7.5 7.5, 0, 0, 0, 0 -15" transform="rotate(-90,474.5,264.5)"/><path d="M 467 272v 15h 7.5a 7.5 7.5, 0, 0, 0, 0 -15" transform="rotate(90,474.5,279.5)"/><path d="M 467 302v 15h 7.5a 7.5 7.5, 0, 0, 0, 0 -15" transform="rotate(0,474.5,309.5)"/><path d="M 467 377v 15h 15v -7.5a 7.5 7.5, 0, 0, 0, -7.5 -7.5" transform="rotate(-90,474.5,384.5)"/><rect x="467" y="392" width="15" height="15" transform="rotate(0,474.5,399.5)"/><rect x="467" y="407" width="15" height="15" transform="rotate(0,474.5,414.5)"/><path d="M 467 422v 15h 15v -7.5a 7.5 7.5, 0, 0, 0, -7.5 -7.5" transform="rotate(180,474.5,429.5)"/><circle cx="474.5" cy="489.5" r="7.5" transform="rotate(0,474.5,489.5)"/><path d="M 482 137v 15h 15v -7.5a 7.5 7.5, 0, 0, 0, -7.5 -7.5" transform="rotate(0,489.5,144.5)"/><path d="M 482 152v 15h 7.5a 7.5 7.5, 0, 0, 0, 0 -15" transform="rotate(90,489.5,159.5)"/><circle cx="489.5" cy="189.5" r="7.5" transform="rotate(0,489.5,189.5)"/><circle cx="489.5" cy="294.5" r="7.5" transform="rotate(0,489.5,294.5)"/><circle cx="489.5" cy="324.5" r="7.5" transform="rotate(0,489.5,324.5)"/><circle cx="489.5" cy="354.5" r="7.5" transform="rotate(0,489.5,354.5)"/><path d="M 482 377v 15h 7.5a 7.5 7.5, 0, 0, 0, 0 -15" transform="rotate(0,489.5,384.5)"/><path d="M 482 422v 15h 15v -7.5a 7.5 7.5, 0, 0, 0, -7.5 -7.5" transform="rotate(0,489.5,429.5)"/><rect x="482" y="437" width="15" height="15" transform="rotate(0,489.5,444.5)"/><path d="M 482 452v 15h 7.5a 7.5 7.5, 0, 0, 0, 0 -15" transform="rotate(90,489.5,459.5)"/><path clip-rule="evenodd" d="M 2 39.5v 30a 37.5 37.5, 0, 0, 0, 37.5 37.5h 30a 37.5 37.5, 0, 0, 0, 37.5 -37.5v -30a 37.5 37.5, 0, 0, 0, -37.5 -37.5h -30a 37.5 37.5, 0, 0, 0, -37.5 37.5M 39.5 17h 30a 22.5 22.5, 0, 0, 1, 22.5 22.5v 30a 22.5 22.5, 0, 0, 1, -22.5 22.5h -30a 22.5 22.5, 0, 0, 1, -22.5 -22.5v -30a 22.5 22.5, 0, 0, 1, 22.5 -22.5" transform="rotate(0,54.5,54.5)"/><circle cx="54.5" cy="54.5" r="22.5" transform="rotate(0,54.5,54.5)"/><path clip-rule="evenodd" d="M 392 39.5v 30a 37.5 37.5, 0, 0, 0, 37.5 37.5h 30a 37.5 37.5, 0, 0, 0, 37.5 -37.5v -30a 37.5 37.5, 0, 0, 0, -37.5 -37.5h -30a 37.5 37.5, 0, 0, 0, -37.5 37.5M 429.5 17h 30a 22.5 22.5, 0, 0, 1, 22.5 22.5v 30a 22.5 22.5, 0, 0, 1, -22.5 22.5h -30a 22.5 22.5, 0, 0, 1, -22.5 -22.5v -30a 22.5 22.5, 0, 0, 1, 22.5 -22.5" transform="rotate(90,444.5,54.5)"/><circle cx="444.5" cy="54.5" r="22.5" transform="rotate(90,444.5,54.5)"/><path clip-rule="evenodd" d="M 2 429.5v 30a 37.5 37.5, 0, 0, 0, 37.5 37.5h 30a 37.5 37.5, 0, 0, 0, 37.5 -37.5v -30a 37.5 37.5, 0, 0, 0, -37.5 -37.5h -30a 37.5 37.5, 0, 0, 0, -37.5 37.5M 39.5 407h 30a 22.5 22.5, 0, 0, 1, 22.5 22.5v 30a 22.5 22.5, 0, 0, 1, -22.5 22.5h -30a 22.5 22.5, 0, 0, 1, -22.5 -22.5v -30a 22.5 22.5, 0, 0, 1, 22.5 -22.5" transform="rotate(-90,54.5,444.5)"/><circle cx="54.5" cy="444.5" r="22.5" transform="rotate(-90,54.5,444.5)"/></clipPath></defs><rect x="0" y="0" height="500" width="500" clip-path="url('#clip-path-dot-color')" fill="#000000"/></svg>