<?xml version="1.0" standalone="no"?>
<svg xmlns="http://www.w3.org/2000/svg" width="500" height="500"><defs><clipPath id="clip-path-dot-color"><path d="M 28 160v 12h 6a 6 6, 0, 0, 0, 0 -12" transform="rotate(180,34,166)"/><path d="M 28 208v 12h 6a 6 6, 0, 0, 0, 0 -12" transform="rotate(-90,34,214)"/><path d="M 28 220v 12h 12v -6a 6 6, 0, 0, 0, -6 -6" transform="rotate(180,34,226)"/><path d="M 28 244v 12h 6a 6 6, 0, 0, 0, 0 -12" transform="rotate(-90,34,250)"/><path d="M 28 256v 12h 6a 6 6, 0, 0, 0, 0 -12" transform="rotate(90,34,262)"/><path d="M 28 364v 12h 6a 6 6, 0, 0, 0, 0 -12" transform="rotate(180,34,370)"/><path d="M 40 124v 12h 6a 6 6, 0, 0, 0, 0 -12" transform="rotate(180,46,130)"/><rect x="40" y="160" width="12" height="12" transform="rotate(0,46,166)"/><path d="M 40 220v 12h 6a 6 6, 0, 0, 0, 0 -12" transform="rotate(0,46,226)"/><path d="M 40 340v 12h 6a 6 6, 0, 0, 0, 0 -12" transform="rotate(180,46,346)"/><path d="M 40 364v 12h 6a 6 6, 0, 0, 0, 0 -12" transform="rotate(0,46,370)"/><path d="M 52 124v 12h 6a 6 6, 0, 0, 0, 0 -12" transform="rotate(0,58,130)"/><path d="M 52 148v 12h 12v -6a 6 6, 0, 0, 0, -6 -6" transform="rotate(-90,58,154)"/><rect x="52" y="160" width="12" height="12" transform="rotate(0,58,166)"/><rect x="52" y="172" width="12" height="12" transform="rotate(0,58,178)"/><rect x="52" y="184" width="12" height="12" transform="rotate(0,58,190)"/><path d="M 52 196v 12h 6a 6 6, 0, 0, 0, 0 -12" transform="rotate(90,58,202)"/><path d="M 52 232v 12h 6a 6 6, 0, 0, 0, 0 -12" transform="rotate(-90,58,238)"/><path d="M 52 244v 12h 6a 6 6, 0, 0, 0, 0 -12" transform="rotate(90,58,250)"/><path d="M 52 292v 12h 6a 6 6, 0, 0, 0, 0 -12" transform="rotate(-90,58,298)"/><rect x="52" y="304" width="12" height="12" transform="rotate(0,58,310)"/><rect x="52" y="316" width="12" height="12" transform="rotate(0,58,322)"/><rect x="52" y="328" width="12" height="12" transform="rotate(0,58,334)"/><rect x="52" y="340" width="12" height="12" transform="rotate(0,58,346)"/><path d="M 64 136v 12h 6a 6 6, 0, 0, 0, 0 -12" transform="rotate(-90,70,142)"/><rect x="64" y="148" width="12" height="12" transform="rotate(0,70,154)"/><rect x="64" y="160" width="12" height="12" transform="rotate(0,70,166)"/><rect x="64" y="172" width="12" height="12" transform="rotate(0,70,178)"/><path d="M 64 184v 12h 12v -6a 6 6, 0, 0, 0, -6 -6" transform="rotate(90,70,190)"/><path d="M 64 208v 12h 6a 6 6, 0, 0, 0, 0 -12" transform="rotate(180,70,214)"/><path d="M 64 268v 12h 6a 6 6, 0, 0, 0, 0 -12" transform="rotate(180,70,274)"/><rect x="64" y="304" width="12" height="12" transform="rotate(0,70,310)"/><rect x="64" y="340" width="12" height="12" transform="rotate(0,70,346)"/><path d="M 76 160v 12h 12v -6a 6 6, 0, 0, 0, -6 -6" transform="rotate(0,82,166)"/><rect x="76" y="172" width="12" height="12" transform="rotate(0,82,178)"/><path d="M 76 196v 12h 6a 6 6, 0, 0, 0, 0 -12" transform="rotate(-90,82,202)"/><path d="M 76 208v 12h 12v -6a 6 6, 0, 0, 0, -6 -6" transform="rotate(90,82,214)"/><rect x="76" y="268" width="12" height="12" transform="rotate(0,82,274)"/><path d="M 76 280v 12h 6a 6 6, 0, 0, 0, 0 -12" transform="rotate(90,82,286)"/><path d="M 76 304v 12h 12v -6a 6 6, 0, 0, 0, -6 -6" transform="rotate(0,82,310)"/><path d="M 76 316v 12h 12v -6a 6 6, 0, 0, 0, -6 -6" transform="rotate(180,82,322)"/><rect x="76" y="340" width="12" height="12" transform="rotate(0,82,346)"/><path d="M 76 352v 12h 6a 6 6, 0, 0, 0, 0 -12" transform="rotate(90,82,358)"/><path d="M 88 136v 12h 6a 6 6, 0, 0, 0, 0 -12" transform="rotate(-90,94,142)"/><path d="M 88 148v 12h 12v -6a 6 6, 0, 0, 0, -6 -6" transform="rotate(180,94,154)"/><rect x="88" y="172" width="12" height="12" transform="rotate(0,94,178)"/><path d="M 88 184v 12h 6a 6 6, 0, 0, 0, 0 -12" transform="rotate(90,94,190)"/><path d="M 88 220v 12h 12v -6a 6 6, 0, 0, 0, -6 -6" transform="rotate(-90,94,226)"/><rect x="88" y="232" width="12" height="12" transform="rotate(0,94,238)"/><rect x="88" y="244" width="12" height="12" transform="rotate(0,94,250)"/><rect x="88" y="256" width="12" height="12" transform="rotate(0,94,262)"/><rect x="88" y="268" width="12" height="12" transform="rotate(0,94,274)"/><path d="M 88 292v 12h 6a 6 6, 0, 0, 0, 0 -12" transform="rotate(180,94,298)"/><rect x="88" y="316" width="12" height="12" transform="rotate(0,94,322)"/><rect x="88" y="328" width="12" height="12" transform="rotate(0,94,334)"/><rect x="88" y="340" width="12" height="12" transform="rotate(0,94,346)"/><circle cx="106" cy="130" r="6" transform="rotate(0,106,130)"/><rect x="100" y="148" width="12" height="12" transform="rotate(0,106,154)"/><path d="M 100 172v 12h 6a 6 6, 0, 0, 0, 0 -12" transform="rotate(0,106,178)"/><path d="M 100 196v 12h 6a 6 6, 0, 0, 0, 0 -12" transform="rotate(180,106,202)"/><path d="M 100 220v 12h 6a 6 6, 0, 0, 0, 0 -12" transform="rotate(0,106,226)"/><path d="M 100 244v 12h 6a 6 6, 0, 0, 0, 0 -12" transform="rotate(0,106,250)"/><path d="M 100 268v 12h 6a 6 6, 0, 0, 0, 0 -12" transform="rotate(0,106,274)"/><rect x="100" y="292" width="12" height="12" transform="rotate(0,106,298)"/><rect x="100" y="316" width="12" height="12" transform="rotate(0,106,322)"/><rect x="100" y="340" width="12" height="12" transform="rotate(0,106,346)"/><path d="M 100 364v 12h 6a 6 6, 0, 0, 0, 0 -12" transform="rotate(180,106,370)"/><path d="M 112 136v 12h 12v -6a 6 6, 0, 0, 0, -6 -6" transform="rotate(-90,118,142)"/><path d="M 112 148v 12h 12v -6a 6 6, 0, 0, 0, -6 -6" transform="rotate(90,118,154)"/><path d="M 112 184v 12h 6a 6 6, 0, 0, 0, 0 -12" transform="rotate(-90,118,190)"/><rect x="112" y="196" width="12" height="12" transform="rotate(0,118,202)"/><path d="M 112 208v 12h 12v -6a 6 6, 0, 0, 0, -6 -6" transform="rotate(180,118,214)"/><circle cx="118" cy="262" r="6" transform="rotate(0,118,262)"/><path d="M 112 292v 12h 12v -6a 6 6, 0, 0, 0, -6 -6" transform="rotate(0,118,298)"/><rect x="112" y="304" width="12" height="12" transform="rotate(0,118,310)"/><path d="M 112 316v 12h 12v -6a 6 6, 0, 0, 0, -6 -6" transform="rotate(90,118,322)"/><rect x="112" y="340" width="12" height="12" transform="rotate(0,118,346)"/><rect x="112" y="352" width="12" height="12" transform="rotate(0,118,358)"/><rect x="112" y="364" width="12" height="12" transform="rotate(0,118,370)"/><path d="M 124 40v 12h 12v -6a 6 6, 0, 0, 0, -6 -6" transform="rotate(-90,130,46)"/><rect x="124" y="52" width="12" height="12" transform="rotate(0,130,58)"/><path d="M 124 64v 12h 12v -6a 6 6, 0, 0, 0, -6 -6" transform="rotate(180,130,70)"/><path d="M 124 88v 12h 12v -6a 6 6, 0, 0, 0, -6 -6" transform="rotate(-90,130,94)"/><path d="M 124 100v 12h 6a 6 6, 0, 0, 0, 0 -12" transform="rotate(90,130,106)"/><rect x="124" y="136" width="12" height="12" transform="rotate(0,130,142)"/><rect x="124" y="208" width="12" height="12" transform="rotate(0,130,214)"/><path d="M 124 244v 12h 6a 6 6, 0, 0, 0, 0 -12" transform="rotate(180,130,250)"/><path d="M 124 268v 12h 6a 6 6, 0, 0, 0, 0 -12" transform="rotate(-90,130,274)"/><path d="M 124 280v 12h 6a 6 6, 0, 0, 0, 0 -12" transform="rotate(90,130,286)"/><path d="M 124 340v 12h 12v -6a 6 6, 0, 0, 0, -6 -6" transform="rotate(0,130,346)"/><rect x="124" y="352" width="12" height="12" transform="rotate(0,130,358)"/><rect x="124" y="364" width="12" height="12" transform="rotate(0,130,370)"/><path d="M 124 436v 12h 6a 6 6, 0, 0, 0, 0 -12" transform="rotate(-90,130,442)"/><path d="M 124 448v 12h 12v -6a 6 6, 0, 0, 0, -6 -6" transform="rotate(180,130,454)"/><path d="M 136 28v 12h 12v -6a 6 6, 0, 0, 0, -6 -6" transform="rotate(-90,142,34)"/><path d="M 136 40v 12h 12v -6a 6 6, 0, 0, 0, -6 -6" transform="rotate(90,142,46)"/><rect x="136" y="64" width="12" height="12" transform="rotate(0,142,70)"/><rect x="136" y="76" width="12" height="12" transform="rotate(0,142,82)"/><path d="M 136 88v 12h 12v -6a 6 6, 0, 0, 0, -6 -6" transform="rotate(90,142,94)"/><path d="M 136 136v 12h 6a 6 6, 0, 0, 0, 0 -12" transform="rotate(0,142,142)"/><circle cx="142" cy="190" r="6" transform="rotate(0,142,190)"/><rect x="136" y="208" width="12" height="12" transform="rotate(0,142,214)"/><rect x="136" y="220" width="12" height="12" transform="rotate(0,142,226)"/><rect x="136" y="232" width="12" height="12" transform="rotate(0,142,238)"/><path d="M 136 244v 12h 12v -6a 6 6, 0, 0, 0, -6 -6" transform="rotate(90,142,250)"/><path d="M 136 292v 12h 12v -6a 6 6, 0, 0, 0, -6 -6" transform="rotate(-90,142,298)"/><path d="M 136 304v 12h 12v -6a 6 6, 0, 0, 0, -6 -6" transform="rotate(180,142,310)"/><path d="M 136 328v 12h 6a 6 6, 0, 0, 0, 0 -12" transform="rotate(180,142,334)"/><path d="M 136 364v 12h 12v -6a 6 6, 0, 0, 0, -6 -6" transform="rotate(0,142,370)"/><path d="M 136 376v 12h 12v -6a 6 6, 0, 0, 0, -6 -6" transform="rotate(180,142,382)"/><rect x="136" y="448" width="12" height="12" transform="rotate(0,142,454)"/><path d="M 148 28v 12h 6a 6 6, 0, 0, 0, 0 -12" transform="rotate(0,154,34)"/><path d="M 148 52v 12h 6a 6 6, 0, 0, 0, 0 -12" transform="rotate(-90,154,58)"/><rect x="148" y="64" width="12" height="12" transform="rotate(0,154,70)"/><rect x="148" y="76" width="12" height="12" transform="rotate(0,154,82)"/><path d="M 148 100v 12h 6a 6 6, 0, 0, 0, 0 -12" transform="rotate(-90,154,106)"/><rect x="148" y="112" width="12" height="12" transform="rotate(0,154,118)"/><path d="M 148 124v 12h 6a 6 6, 0, 0, 0, 0 -12" transform="rotate(90,154,130)"/><circle cx="154" cy="178" r="6" transform="rotate(0,154,178)"/><path d="M 148 208v 12h 6a 6 6, 0, 0, 0, 0 -12" transform="rotate(0,154,214)"/><path d="M 148 280v 12h 6a 6 6, 0, 0, 0, 0 -12" transform="rotate(-90,154,286)"/><rect x="148" y="292" width="12" height="12" transform="rotate(0,154,298)"/><path d="M 148 304v 12h 12v -6a 6 6, 0, 0, 0, -6 -6" transform="rotate(90,154,310)"/><rect x="148" y="328" width="12" height="12" transform="rotate(0,154,334)"/><path d="M 148 376v 12h 6a 6 6, 0, 0, 0, 0 -12" transform="rotate(0,154,382)"/><path d="M 148 400v 12h 6a 6 6, 0, 0, 0, 0 -12" transform="rotate(-90,154,406)"/><rect x="148" y="412" width="12" height="12" transform="rotate(0,154,418)"/><path d="M 148 424v 12h 12v -6a 6 6, 0, 0, 0, -6 -6" transform="rotate(180,154,430)"/><rect x="148" y="448" width="12" height="12" transform="rotate(0,154,454)"/><circle cx="166" cy="46" r="6" transform="rotate(0,166,46)"/><path d="M 160 64v 12h 12v -6a 6 6, 0, 0, 0, -6 -6" transform="rotate(0,166,70)"/><rect x="160" y="76" width="12" height="12" transform="rotate(0,166,82)"/><path d="M 160 88v 12h 12v -6a 6 6, 0, 0, 0, -6 -6" transform="rotate(180,166,94)"/><path d="M 160 112v 12h 6a 6 6, 0, 0, 0, 0 -12" transform="rotate(0,166,118)"/><circle cx="166" cy="154" r="6" transform="rotate(0,166,154)"/><circle cx="166" cy="202" r="6" transform="rotate(0,166,202)"/><path d="M 160 220v 12h 12v -6a 6 6, 0, 0, 0, -6 -6" transform="rotate(-90,166,226)"/><path d="M 160 232v 12h 6a 6 6, 0, 0, 0, 0 -12" transform="rotate(90,166,238)"/><rect x="160" y="328" width="12" height="12" transform="rotate(0,166,334)"/><path d="M 160 340v 12h 12v -6a 6 6, 0, 0, 0, -6 -6" transform="rotate(180,166,346)"/><circle cx="166" cy="370" r="6" transform="rotate(0,166,370)"/><path d="M 160 424v 12h 12v -6a 6 6, 0, 0, 0, -6 -6" transform="rotate(0,166,430)"/><rect x="160" y="436" width="12" height="12" transform="rotate(0,166,442)"/><rect x="160" y="448" width="12" height="12" transform="rotate(0,166,454)"/><path d="M 160 460v 12h 6a 6 6, 0, 0, 0, 0 -12" transform="rotate(90,166,466)"/><path d="M 172 28v 12h 6a 6 6, 0, 0, 0, 0 -12" transform="rotate(180,178,34)"/><circle cx="178" cy="58" r="6" transform="rotate(0,178,58)"/><path d="M 172 76v 12h 12v -6a 6 6, 0, 0, 0, -6 -6" transform="rotate(0,178,82)"/><rect x="172" y="88" width="12" height="12" transform="rotate(0,178,94)"/><path d="M 172 100v 12h 6a 6 6, 0, 0, 0, 0 -12" transform="rotate(90,178,106)"/><path d="M 172 160v 12h 6a 6 6, 0, 0, 0, 0 -12" transform="rotate(-90,178,166)"/><rect x="172" y="172" width="12" height="12" transform="rotate(0,178,178)"/><path d="M 172 184v 12h 6a 6 6, 0, 0, 0, 0 -12" transform="rotate(90,178,190)"/><rect x="172" y="220" width="12" height="12" transform="rotate(0,178,226)"/><path d="M 172 268v 12h 6a 6 6, 0, 0, 0, 0 -12" transform="rotate(180,178,274)"/><path d="M 172 292v 12h 12v -6a 6 6, 0, 0, 0, -6 -6" transform="rotate(-90,178,298)"/><path d="M 172 304v 12h 6a 6 6, 0, 0, 0, 0 -12" transform="rotate(90,178,310)"/><path d="M 172 328v 12h 12v -6a 6 6, 0, 0, 0, -6 -6" transform="rotate(0,178,334)"/><rect x="172" y="340" width="12" height="12" transform="rotate(0,178,346)"/><path d="M 172 352v 12h 6a 6 6, 0, 0, 0, 0 -12" transform="rotate(90,178,358)"/><path d="M 172 376v 12h 6a 6 6, 0, 0, 0, 0 -12" transform="rotate(-90,178,382)"/><rect x="172" y="388" width="12" height="12" transform="rotate(0,178,394)"/><rect x="172" y="400" width="12" height="12" transform="rotate(0,178,406)"/><path d="M 172 412v 12h 12v -6a 6 6, 0, 0, 0, -6 -6" transform="rotate(180,178,418)"/><rect x="172" y="436" width="12" height="12" transform="rotate(0,178,442)"/><rect x="172" y="448" width="12" height="12" transform="rotate(0,178,454)"/><rect x="184" y="28" width="12" height="12" transform="rotate(0,190,34)"/><path d="M 184 136v 12h 6a 6 6, 0, 0, 0, 0 -12" transform="rotate(180,190,142)"/><rect x="184" y="172" width="12" height="12" transform="rotate(0,190,178)"/><rect x="184" y="220" width="12" height="12" transform="rotate(0,190,226)"/><path d="M 184 232v 12h 6a 6 6, 0, 0, 0, 0 -12" transform="rotate(90,190,238)"/><rect x="184" y="268" width="12" height="12" transform="rotate(0,190,274)"/><rect x="184" y="292" width="12" height="12" transform="rotate(0,190,298)"/><circle cx="190" cy="322" r="6" transform="rotate(0,190,322)"/><path d="M 184 340v 12h 6a 6 6, 0, 0, 0, 0 -12" transform="rotate(0,190,346)"/><path d="M 184 364v 12h 6a 6 6, 0, 0, 0, 0 -12" transform="rotate(180,190,370)"/><path d="M 184 388v 12h 6a 6 6, 0, 0, 0, 0 -12" transform="rotate(0,190,394)"/><rect x="184" y="412" width="12" height="12" transform="rotate(0,190,418)"/><rect x="184" y="436" width="12" height="12" transform="rotate(0,190,442)"/><rect x="184" y="448" width="12" height="12" transform="rotate(0,190,454)"/><path d="M 184 460v 12h 6a 6 6, 0, 0, 0, 0 -12" transform="rotate(90,190,466)"/><path d="M 196 28v 12h 12v -6a 6 6, 0, 0, 0, -6 -6" transform="rotate(0,202,34)"/><rect x="196" y="40" width="12" height="12" transform="rotate(0,202,46)"/><path d="M 196 52v 12h 12v -6a 6 6, 0, 0, 0, -6 -6" transform="rotate(180,202,58)"/><path d="M 196 88v 12h 12v -6a 6 6, 0, 0, 0, -6 -6" transform="rotate(-90,202,94)"/><path d="M 196 100v 12h 6a 6 6, 0, 0, 0, 0 -12" transform="rotate(90,202,106)"/><path d="M 196 124v 12h 12v -6a 6 6, 0, 0, 0, -6 -6" transform="rotate(-90,202,130)"/><rect x="196" y="136" width="12" height="12" transform="rotate(0,202,142)"/><path d="M 196 148v 12h 6a 6 6, 0, 0, 0, 0 -12" transform="rotate(90,202,154)"/><rect x="196" y="172" width="12" height="12" transform="rotate(0,202,178)"/><path d="M 196 184v 12h 6a 6 6, 0, 0, 0, 0 -12" transform="rotate(90,202,190)"/><path d="M 196 208v 12h 6a 6 6, 0, 0, 0, 0 -12" transform="rotate(-90,202,214)"/><rect x="196" y="220" width="12" height="12" transform="rotate(0,202,226)"/><path d="M 196 256v 12h 12v -6a 6 6, 0, 0, 0, -6 -6" transform="rotate(-90,202,262)"/><path d="M 196 268v 12h 12v -6a 6 6, 0, 0, 0, -6 -6" transform="rotate(90,202,274)"/><rect x="196" y="292" width="12" height="12" transform="rotate(0,202,298)"/><circle cx="202" cy="334" r="6" transform="rotate(0,202,334)"/><rect x="196" y="364" width="12" height="12" transform="rotate(0,202,370)"/><path d="M 196 400v 12h 6a 6 6, 0, 0, 0, 0 -12" transform="rotate(-90,202,406)"/><path d="M 196 412v 12h 12v -6a 6 6, 0, 0, 0, -6 -6" transform="rotate(90,202,418)"/><path d="M 196 436v 12h 6a 6 6, 0, 0, 0, 0 -12" transform="rotate(0,202,442)"/><rect x="208" y="40" width="12" height="12" transform="rotate(0,214,46)"/><rect x="208" y="52" width="12" height="12" transform="rotate(0,214,58)"/><rect x="208" y="64" width="12" height="12" transform="rotate(0,214,70)"/><rect x="208" y="76" width="12" height="12" transform="rotate(0,214,82)"/><path d="M 208 88v 12h 12v -6a 6 6, 0, 0, 0, -6 -6" transform="rotate(90,214,94)"/><path d="M 208 124v 12h 6a 6 6, 0, 0, 0, 0 -12" transform="rotate(0,214,130)"/><path d="M 208 160v 12h 6a 6 6, 0, 0, 0, 0 -12" transform="rotate(-90,214,166)"/><path d="M 208 172v 12h 12v -6a 6 6, 0, 0, 0, -6 -6" transform="rotate(90,214,178)"/><path d="M 208 196v 12h 6a 6 6, 0, 0, 0, 0 -12" transform="rotate(180,214,202)"/><path d="M 208 220v 12h 6a 6 6, 0, 0, 0, 0 -12" transform="rotate(0,214,226)"/><rect x="208" y="256" width="12" height="12" transform="rotate(0,214,262)"/><path d="M 208 280v 12h 6a 6 6, 0, 0, 0, 0 -12" transform="rotate(-90,214,286)"/><rect x="208" y="292" width="12" height="12" transform="rotate(0,214,298)"/><path d="M 208 304v 12h 12v -6a 6 6, 0, 0, 0, -6 -6" transform="rotate(180,214,310)"/><path d="M 208 340v 12h 6a 6 6, 0, 0, 0, 0 -12" transform="rotate(-90,214,346)"/><rect x="208" y="352" width="12" height="12" transform="rotate(0,214,358)"/><path d="M 208 364v 12h 12v -6a 6 6, 0, 0, 0, -6 -6" transform="rotate(90,214,370)"/><circle cx="214" cy="394" r="6" transform="rotate(0,214,394)"/><path d="M 208 448v 12h 6a 6 6, 0, 0, 0, 0 -12" transform="rotate(-90,214,454)"/><path d="M 208 460v 12h 6a 6 6, 0, 0, 0, 0 -12" transform="rotate(90,214,466)"/><path d="M 220 28v 12h 6a 6 6, 0, 0, 0, 0 -12" transform="rotate(-90,226,34)"/><path d="M 220 40v 12h 12v -6a 6 6, 0, 0, 0, -6 -6" transform="rotate(90,226,46)"/><path d="M 220 76v 12h 6a 6 6, 0, 0, 0, 0 -12" transform="rotate(0,226,82)"/><path d="M 220 100v 12h 6a 6 6, 0, 0, 0, 0 -12" transform="rotate(-90,226,106)"/><path d="M 220 112v 12h 12v -6a 6 6, 0, 0, 0, -6 -6" transform="rotate(180,226,118)"/><rect x="220" y="196" width="12" height="12" transform="rotate(0,226,202)"/><path d="M 220 208v 12h 6a 6 6, 0, 0, 0, 0 -12" transform="rotate(90,226,214)"/><rect x="220" y="256" width="12" height="12" transform="rotate(0,226,262)"/><path d="M 220 304v 12h 12v -6a 6 6, 0, 0, 0, -6 -6" transform="rotate(0,226,310)"/><rect x="220" y="316" width="12" height="12" transform="rotate(0,226,322)"/><path d="M 220 328v 12h 12v -6a 6 6, 0, 0, 0, -6 -6" transform="rotate(180,226,334)"/><circle cx="226" cy="406" r="6" transform="rotate(0,226,406)"/><path d="M 220 424v 12h 12v -6a 6 6, 0, 0, 0, -6 -6" transform="rotate(-90,226,430)"/><path d="M 220 436v 12h 6a 6 6, 0, 0, 0, 0 -12" transform="rotate(90,226,442)"/><circle cx="238" cy="70" r="6" transform="rotate(0,238,70)"/><rect x="232" y="112" width="12" height="12" transform="rotate(0,238,118)"/><path d="M 232 124v 12h 6a 6 6, 0, 0, 0, 0 -12" transform="rotate(90,238,130)"/><path d="M 232 160v 12h 6a 6 6, 0, 0, 0, 0 -12" transform="rotate(-90,238,166)"/><rect x="232" y="172" width="12" height="12" transform="rotate(0,238,178)"/><rect x="232" y="184" width="12" height="12" transform="rotate(0,238,190)"/><rect x="232" y="196" width="12" height="12" transform="rotate(0,238,202)"/><path d="M 232 244v 12h 12v -6a 6 6, 0, 0, 0, -6 -6" transform="rotate(-90,238,250)"/><rect x="232" y="256" width="12" height="12" transform="rotate(0,238,262)"/><rect x="232" y="268" width="12" height="12" transform="rotate(0,238,274)"/><path d="M 232 280v 12h 6a 6 6, 0, 0, 0, 0 -12" transform="rotate(90,238,286)"/><rect x="232" y="328" width="12" height="12" transform="rotate(0,238,334)"/><rect x="232" y="340" width="12" height="12" transform="rotate(0,238,346)"/><rect x="232" y="352" width="12" height="12" transform="rotate(0,238,358)"/><path d="M 232 364v 12h 6a 6 6, 0, 0, 0, 0 -12" transform="rotate(90,238,370)"/><path d="M 232 388v 12h 6a 6 6, 0, 0, 0, 0 -12" transform="rotate(180,238,394)"/><path d="M 232 424v 12h 6a 6 6, 0, 0, 0, 0 -12" transform="rotate(0,238,430)"/><path d="M 232 460v 12h 6a 6 6, 0, 0, 0, 0 -12" transform="rotate(180,238,466)"/><path d="M 244 28v 12h 12v -6a 6 6, 0, 0, 0, -6 -6" transform="rotate(-90,250,34)"/><rect x="244" y="40" width="12" height="12" transform="rotate(0,250,46)"/><path d="M 244 52v 12h 12v -6a 6 6, 0, 0, 0, -6 -6" transform="rotate(180,250,58)"/><path d="M 244 100v 12h 6a 6 6, 0, 0, 0, 0 -12" transform="rotate(-90,250,106)"/><rect x="244" y="112" width="12" height="12" transform="rotate(0,250,118)"/><path d="M 244 172v 12h 12v -6a 6 6, 0, 0, 0, -6 -6" transform="rotate(0,250,178)"/><rect x="244" y="184" width="12" height="12" transform="rotate(0,250,190)"/><rect x="244" y="196" width="12" height="12" transform="rotate(0,250,202)"/><path d="M 244 220v 12h 6a 6 6, 0, 0, 0, 0 -12" transform="rotate(180,250,226)"/><rect x="244" y="244" width="12" height="12" transform="rotate(0,250,250)"/><rect x="244" y="268" width="12" height="12" transform="rotate(0,250,274)"/><circle cx="250" cy="298" r="6" transform="rotate(0,250,298)"/><path d="M 244 328v 12h 12v -6a 6 6, 0, 0, 0, -6 -6" transform="rotate(0,250,334)"/><rect x="244" y="340" width="12" height="12" transform="rotate(0,250,346)"/><rect x="244" y="352" width="12" height="12" transform="rotate(0,250,358)"/><path d="M 244 376v 12h 6a 6 6, 0, 0, 0, 0 -12" transform="rotate(-90,250,382)"/><rect x="244" y="388" width="12" height="12" transform="rotate(0,250,394)"/><path d="M 244 400v 12h 6a 6 6, 0, 0, 0, 0 -12" transform="rotate(90,250,406)"/><path d="M 244 436v 12h 6a 6 6, 0, 0, 0, 0 -12" transform="rotate(-90,250,442)"/><rect x="244" y="448" width="12" height="12" transform="rotate(0,250,454)"/><rect x="244" y="460" width="12" height="12" transform="rotate(0,250,466)"/><path d="M 256 28v 12h 6a 6 6, 0, 0, 0, 0 -12" transform="rotate(0,262,34)"/><path d="M 256 52v 12h 6a 6 6, 0, 0, 0, 0 -12" transform="rotate(0,262,58)"/><rect x="256" y="112" width="12" height="12" transform="rotate(0,262,118)"/><path d="M 256 136v 12h 6a 6 6, 0, 0, 0, 0 -12" transform="rotate(-90,262,142)"/><path d="M 256 148v 12h 6a 6 6, 0, 0, 0, 0 -12" transform="rotate(90,262,154)"/><path d="M 256 196v 12h 12v -6a 6 6, 0, 0, 0, -6 -6" transform="rotate(0,262,202)"/><rect x="256" y="208" width="12" height="12" transform="rotate(0,262,214)"/><rect x="256" y="220" width="12" height="12" transform="rotate(0,262,226)"/><rect x="256" y="232" width="12" height="12" transform="rotate(0,262,238)"/><rect x="256" y="244" width="12" height="12" transform="rotate(0,262,250)"/><path d="M 256 268v 12h 6a 6 6, 0, 0, 0, 0 -12" transform="rotate(0,262,274)"/><circle cx="262" cy="310" r="6" transform="rotate(0,262,310)"/><rect x="256" y="340" width="12" height="12" transform="rotate(0,262,346)"/><path d="M 256 352v 12h 12v -6a 6 6, 0, 0, 0, -6 -6" transform="rotate(90,262,358)"/><path d="M 256 412v 12h 12v -6a 6 6, 0, 0, 0, -6 -6" transform="rotate(-90,262,418)"/><path d="M 256 424v 12h 12v -6a 6 6, 0, 0, 0, -6 -6" transform="rotate(180,262,430)"/><rect x="256" y="448" width="12" height="12" transform="rotate(0,262,454)"/><path d="M 256 460v 12h 12v -6a 6 6, 0, 0, 0, -6 -6" transform="rotate(90,262,466)"/><path d="M 268 64v 12h 12v -6a 6 6, 0, 0, 0, -6 -6" transform="rotate(-90,274,70)"/><rect x="268" y="76" width="12" height="12" transform="rotate(0,274,82)"/><rect x="268" y="88" width="12" height="12" transform="rotate(0,274,94)"/><rect x="268" y="100" width="12" height="12" transform="rotate(0,274,106)"/><rect x="268" y="112" width="12" height="12" transform="rotate(0,274,118)"/><path d="M 268 124v 12h 6a 6 6, 0, 0, 0, 0 -12" transform="rotate(90,274,130)"/><path d="M 268 160v 12h 6a 6 6, 0, 0, 0, 0 -12" transform="rotate(-90,274,166)"/><path d="M 268 172v 12h 12v -6a 6 6, 0, 0, 0, -6 -6" transform="rotate(180,274,178)"/><path d="M 268 244v 12h 6a 6 6, 0, 0, 0, 0 -12" transform="rotate(0,274,250)"/><path d="M 268 280v 12h 6a 6 6, 0, 0, 0, 0 -12" transform="rotate(180,274,286)"/><path d="M 268 316v 12h 6a 6 6, 0, 0, 0, 0 -12" transform="rotate(180,274,322)"/><rect x="268" y="340" width="12" height="12" transform="rotate(0,274,346)"/><circle cx="274" cy="370" r="6" transform="rotate(0,274,370)"/><path d="M 268 412v 12h 12v -6a 6 6, 0, 0, 0, -6 -6" transform="rotate(0,274,418)"/><rect x="268" y="424" width="12" height="12" transform="rotate(0,274,430)"/><path d="M 268 448v 12h 6a 6 6, 0, 0, 0, 0 -12" transform="rotate(0,274,454)"/><path d="M 280 40v 12h 12v -6a 6 6, 0, 0, 0, -6 -6" transform="rotate(-90,286,46)"/><rect x="280" y="52" width="12" height="12" transform="rotate(0,286,58)"/><rect x="280" y="64" width="12" height="12" transform="rotate(0,286,70)"/><path d="M 280 76v 12h 12v -6a 6 6, 0, 0, 0, -6 -6" transform="rotate(90,286,82)"/><rect x="280" y="112" width="12" height="12" transform="rotate(0,286,118)"/><path d="M 280 172v 12h 12v -6a 6 6, 0, 0, 0, -6 -6" transform="rotate(0,286,178)"/><rect x="280" y="184" width="12" height="12" transform="rotate(0,286,190)"/><path d="M 280 196v 12h 6a 6 6, 0, 0, 0, 0 -12" transform="rotate(90,286,202)"/><circle cx="286" cy="238" r="6" transform="rotate(0,286,238)"/><circle cx="286" cy="262" r="6" transform="rotate(0,286,262)"/><rect x="280" y="280" width="12" height="12" transform="rotate(0,286,286)"/><path d="M 280 304v 12h 12v -6a 6 6, 0, 0, 0, -6 -6" transform="rotate(-90,286,310)"/><path d="M 280 316v 12h 12v -6a 6 6, 0, 0, 0, -6 -6" transform="rotate(90,286,322)"/><path d="M 280 340v 12h 6a 6 6, 0, 0, 0, 0 -12" transform="rotate(0,286,346)"/><circle cx="286" cy="406" r="6" transform="rotate(0,286,406)"/><path d="M 280 424v 12h 6a 6 6, 0, 0, 0, 0 -12" transform="rotate(0,286,430)"/><path d="M 292 28v 12h 6a 6 6, 0, 0, 0, 0 -12" transform="rotate(-90,298,34)"/><rect x="292" y="40" width="12" height="12" transform="rotate(0,298,46)"/><rect x="292" y="52" width="12" height="12" transform="rotate(0,298,58)"/><rect x="292" y="64" width="12" height="12" transform="rotate(0,298,70)"/><path d="M 292 88v 12h 6a 6 6, 0, 0, 0, 0 -12" transform="rotate(-90,298,94)"/><rect x="292" y="100" width="12" height="12" transform="rotate(0,298,106)"/><rect x="292" y="112" width="12" height="12" transform="rotate(0,298,118)"/><path d="M 292 136v 12h 12v -6a 6 6, 0, 0, 0, -6 -6" transform="rotate(-90,298,142)"/><rect x="292" y="148" width="12" height="12" transform="rotate(0,298,154)"/><path d="M 292 160v 12h 6a 6 6, 0, 0, 0, 0 -12" transform="rotate(90,298,166)"/><path d="M 292 208v 12h 6a 6 6, 0, 0, 0, 0 -12" transform="rotate(-90,298,214)"/><path d="M 292 220v 12h 12v -6a 6 6, 0, 0, 0, -6 -6" transform="rotate(180,298,226)"/><path d="M 292 280v 12h 12v -6a 6 6, 0, 0, 0, -6 -6" transform="rotate(0,298,286)"/><rect x="292" y="292" width="12" height="12" transform="rotate(0,298,298)"/><rect x="292" y="304" width="12" height="12" transform="rotate(0,298,310)"/><path d="M 292 328v 12h 6a 6 6, 0, 0, 0, 0 -12" transform="rotate(180,298,334)"/><path d="M 292 376v 12h 6a 6 6, 0, 0, 0, 0 -12" transform="rotate(-90,298,382)"/><path d="M 292 388v 12h 6a 6 6, 0, 0, 0, 0 -12" transform="rotate(90,298,394)"/><circle cx="298" cy="418" r="6" transform="rotate(0,298,418)"/><path d="M 292 436v 12h 6a 6 6, 0, 0, 0, 0 -12" transform="rotate(180,298,442)"/><rect x="304" y="40" width="12" height="12" transform="rotate(0,310,46)"/><rect x="304" y="64" width="12" height="12" transform="rotate(0,310,70)"/><path d="M 304 76v 12h 6a 6 6, 0, 0, 0, 0 -12" transform="rotate(90,310,82)"/><rect x="304" y="112" width="12" height="12" transform="rotate(0,310,118)"/><rect x="304" y="136" width="12" height="12" transform="rotate(0,310,142)"/><path d="M 304 184v 12h 6a 6 6, 0, 0, 0, 0 -12" transform="rotate(-90,310,190)"/><path d="M 304 196v 12h 6a 6 6, 0, 0, 0, 0 -12" transform="rotate(90,310,202)"/><path d="M 304 220v 12h 12v -6a 6 6, 0, 0, 0, -6 -6" transform="rotate(0,310,226)"/><path d="M 304 232v 12h 12v -6a 6 6, 0, 0, 0, -6 -6" transform="rotate(180,310,238)"/><path d="M 304 256v 12h 6a 6 6, 0, 0, 0, 0 -12" transform="rotate(-90,310,262)"/><path d="M 304 268v 12h 12v -6a 6 6, 0, 0, 0, -6 -6" transform="rotate(180,310,274)"/><rect x="304" y="292" width="12" height="12" transform="rotate(0,310,298)"/><path d="M 304 304v 12h 12v -6a 6 6, 0, 0, 0, -6 -6" transform="rotate(90,310,310)"/><path d="M 304 328v 12h 6a 6 6, 0, 0, 0, 0 -12" transform="rotate(0,310,334)"/><path d="M 304 352v 12h 6a 6 6, 0, 0, 0, 0 -12" transform="rotate(-90,310,358)"/><path d="M 304 364v 12h 12v -6a 6 6, 0, 0, 0, -6 -6" transform="rotate(180,310,370)"/><rect x="304" y="436" width="12" height="12" transform="rotate(0,310,442)"/><path d="M 316 28v 12h 6a 6 6, 0, 0, 0, 0 -12" transform="rotate(-90,322,34)"/><rect x="316" y="40" width="12" height="12" transform="rotate(0,322,46)"/><rect x="316" y="52" width="12" height="12" transform="rotate(0,322,58)"/><path d="M 316 64v 12h 12v -6a 6 6, 0, 0, 0, -6 -6" transform="rotate(90,322,70)"/><path d="M 316 100v 12h 6a 6 6, 0, 0, 0, 0 -12" transform="rotate(-90,322,106)"/><rect x="316" y="112" width="12" height="12" transform="rotate(0,322,118)"/><rect x="316" y="124" width="12" height="12" transform="rotate(0,322,130)"/><rect x="316" y="136" width="12" height="12" transform="rotate(0,322,142)"/><rect x="316" y="148" width="12" height="12" transform="rotate(0,322,154)"/><path d="M 316 160v 12h 12v -6a 6 6, 0, 0, 0, -6 -6" transform="rotate(180,322,166)"/><circle cx="322" cy="214" r="6" transform="rotate(0,322,214)"/><rect x="316" y="232" width="12" height="12" transform="rotate(0,322,238)"/><path d="M 316 244v 12h 6a 6 6, 0, 0, 0, 0 -12" transform="rotate(90,322,250)"/><rect x="316" y="268" width="12" height="12" transform="rotate(0,322,274)"/><path d="M 316 292v 12h 6a 6 6, 0, 0, 0, 0 -12" transform="rotate(0,322,298)"/><path d="M 316 316v 12h 6a 6 6, 0, 0, 0, 0 -12" transform="rotate(180,322,322)"/><rect x="316" y="364" width="12" height="12" transform="rotate(0,322,370)"/><path d="M 316 388v 12h 12v -6a 6 6, 0, 0, 0, -6 -6" transform="rotate(-90,322,394)"/><rect x="316" y="400" width="12" height="12" transform="rotate(0,322,406)"/><path d="M 316 412v 12h 12v -6a 6 6, 0, 0, 0, -6 -6" transform="rotate(180,322,418)"/><path d="M 316 436v 12h 6a 6 6, 0, 0, 0, 0 -12" transform="rotate(0,322,442)"/><path d="M 316 460v 12h 6a 6 6, 0, 0, 0, 0 -12" transform="rotate(180,322,466)"/><path d="M 328 52v 12h 6a 6 6, 0, 0, 0, 0 -12" transform="rotate(0,334,58)"/><rect x="328" y="124" width="12" height="12" transform="rotate(0,334,130)"/><path d="M 328 136v 12h 12v -6a 6 6, 0, 0, 0, -6 -6" transform="rotate(90,334,142)"/><rect x="328" y="160" width="12" height="12" transform="rotate(0,334,166)"/><rect x="328" y="172" width="12" height="12" transform="rotate(0,334,178)"/><path d="M 328 184v 12h 6a 6 6, 0, 0, 0, 0 -12" transform="rotate(90,334,190)"/><rect x="328" y="232" width="12" height="12" transform="rotate(0,334,238)"/><path d="M 328 256v 12h 6a 6 6, 0, 0, 0, 0 -12" transform="rotate(-90,334,262)"/><path d="M 328 268v 12h 12v -6a 6 6, 0, 0, 0, -6 -6" transform="rotate(90,334,274)"/><rect x="328" y="316" width="12" height="12" transform="rotate(0,334,322)"/><path d="M 328 340v 12h 12v -6a 6 6, 0, 0, 0, -6 -6" transform="rotate(-90,334,346)"/><rect x="328" y="352" width="12" height="12" transform="rotate(0,334,358)"/><rect x="328" y="364" width="12" height="12" transform="rotate(0,334,370)"/><rect x="328" y="376" width="12" height="12" transform="rotate(0,334,382)"/><path d="M 328 388v 12h 12v -6a 6 6, 0, 0, 0, -6 -6" transform="rotate(90,334,394)"/><rect x="328" y="412" width="12" height="12" transform="rotate(0,334,418)"/><path d="M 328 448v 12h 6a 6 6, 0, 0, 0, 0 -12" transform="rotate(-90,334,454)"/><path d="M 328 460v 12h 12v -6a 6 6, 0, 0, 0, -6 -6" transform="rotate(90,334,466)"/><circle cx="346" cy="46" r="6" transform="rotate(0,346,46)"/><path d="M 340 64v 12h 6a 6 6, 0, 0, 0, 0 -12" transform="rotate(180,346,70)"/><circle cx="346" cy="106" r="6" transform="rotate(0,346,106)"/><rect x="340" y="124" width="12" height="12" transform="rotate(0,346,130)"/><path d="M 340 148v 12h 12v -6a 6 6, 0, 0, 0, -6 -6" transform="rotate(-90,346,154)"/><path d="M 340 160v 12h 12v -6a 6 6, 0, 0, 0, -6 -6" transform="rotate(90,346,166)"/><path d="M 340 220v 12h 6a 6 6, 0, 0, 0, 0 -12" transform="rotate(-90,346,226)"/><rect x="340" y="232" width="12" height="12" transform="rotate(0,346,238)"/><path d="M 340 244v 12h 6a 6 6, 0, 0, 0, 0 -12" transform="rotate(90,346,250)"/><circle cx="346" cy="298" r="6" transform="rotate(0,346,298)"/><rect x="340" y="316" width="12" height="12" transform="rotate(0,346,322)"/><rect x="340" y="328" width="12" height="12" transform="rotate(0,346,334)"/><path d="M 340 340v 12h 12v -6a 6 6, 0, 0, 0, -6 -6" transform="rotate(90,346,346)"/><rect x="340" y="364" width="12" height="12" transform="rotate(0,346,370)"/><rect x="340" y="412" width="12" height="12" transform="rotate(0,346,418)"/><circle cx="358" cy="34" r="6" transform="rotate(0,358,34)"/><path d="M 352 64v 12h 6a 6 6, 0, 0, 0, 0 -12" transform="rotate(0,358,70)"/><circle cx="358" cy="94" r="6" transform="rotate(0,358,94)"/><path d="M 352 112v 12h 12v -6a 6 6, 0, 0, 0, -6 -6" transform="rotate(-90,358,118)"/><rect x="352" y="124" width="12" height="12" transform="rotate(0,358,130)"/><rect x="352" y="148" width="12" height="12" transform="rotate(0,358,154)"/><path d="M 352 196v 12h 6a 6 6, 0, 0, 0, 0 -12" transform="rotate(180,358,202)"/><path d="M 352 256v 12h 6a 6 6, 0, 0, 0, 0 -12" transform="rotate(-90,358,262)"/><rect x="352" y="268" width="12" height="12" transform="rotate(0,358,274)"/><path d="M 352 280v 12h 12v -6a 6 6, 0, 0, 0, -6 -6" transform="rotate(180,358,286)"/><path d="M 352 304v 12h 12v -6a 6 6, 0, 0, 0, -6 -6" transform="rotate(-90,358,310)"/><path d="M 352 316v 12h 12v -6a 6 6, 0, 0, 0, -6 -6" transform="rotate(90,358,322)"/><rect x="352" y="364" width="12" height="12" transform="rotate(0,358,370)"/><path d="M 352 376v 12h 12v -6a 6 6, 0, 0, 0, -6 -6" transform="rotate(180,358,382)"/><path d="M 352 400v 12h 12v -6a 6 6, 0, 0, 0, -6 -6" transform="rotate(-90,358,406)"/><rect x="352" y="412" width="12" height="12" transform="rotate(0,358,418)"/><path d="M 352 448v 12h 6a 6 6, 0, 0, 0, 0 -12" transform="rotate(-90,358,454)"/><path d="M 352 460v 12h 6a 6 6, 0, 0, 0, 0 -12" transform="rotate(90,358,466)"/><circle cx="370" cy="58" r="6" transform="rotate(0,370,58)"/><circle cx="370" cy="82" r="6" transform="rotate(0,370,82)"/><path d="M 364 100v 12h 6a 6 6, 0, 0, 0, 0 -12" transform="rotate(-90,370,106)"/><rect x="364" y="112" width="12" height="12" transform="rotate(0,370,118)"/><rect x="364" y="124" width="12" height="12" transform="rotate(0,370,130)"/><rect x="364" y="136" width="12" height="12" transform="rotate(0,370,142)"/><path d="M 364 148v 12h 12v -6a 6 6, 0, 0, 0, -6 -6" transform="rotate(90,370,154)"/><path d="M 364 172v 12h 6a 6 6, 0, 0, 0, 0 -12" transform="rotate(-90,370,178)"/><rect x="364" y="184" width="12" height="12" transform="rotate(0,370,190)"/><rect x="364" y="196" width="12" height="12" transform="rotate(0,370,202)"/><path d="M 364 220v 12h 6a 6 6, 0, 0, 0, 0 -12" transform="rotate(-90,370,226)"/><path d="M 364 232v 12h 12v -6a 6 6, 0, 0, 0, -6 -6" transform="rotate(180,370,238)"/><rect x="364" y="280" width="12" height="12" transform="rotate(0,370,286)"/><rect x="364" y="292" width="12" height="12" transform="rotate(0,370,298)"/><rect x="364" y="304" width="12" height="12" transform="rotate(0,370,310)"/><path d="M 364 328v 12h 6a 6 6, 0, 0, 0, 0 -12" transform="rotate(180,370,334)"/><path d="M 364 352v 12h 6a 6 6, 0, 0, 0, 0 -12" transform="rotate(-90,370,358)"/><rect x="364" y="364" width="12" height="12" transform="rotate(0,370,370)"/><rect x="364" y="376" width="12" height="12" transform="rotate(0,370,382)"/><rect x="364" y="388" width="12" height="12" transform="rotate(0,370,394)"/><rect x="364" y="400" width="12" height="12" transform="rotate(0,370,406)"/><rect x="364" y="412" width="12" height="12" transform="rotate(0,370,418)"/><path d="M 364 424v 12h 12v -6a 6 6, 0, 0, 0, -6 -6" transform="rotate(180,370,430)"/><path d="M 376 124v 12h 6a 6 6, 0, 0, 0, 0 -12" transform="rotate(0,382,130)"/><rect x="376" y="184" width="12" height="12" transform="rotate(0,382,190)"/><rect x="376" y="196" width="12" height="12" transform="rotate(0,382,202)"/><path d="M 376 208v 12h 6a 6 6, 0, 0, 0, 0 -12" transform="rotate(90,382,214)"/><rect x="376" y="232" width="12" height="12" transform="rotate(0,382,238)"/><rect x="376" y="244" width="12" height="12" transform="rotate(0,382,250)"/><rect x="376" y="256" width="12" height="12" transform="rotate(0,382,262)"/><rect x="376" y="268" width="12" height="12" transform="rotate(0,382,274)"/><rect x="376" y="280" width="12" height="12" transform="rotate(0,382,286)"/><rect x="376" y="292" width="12" height="12" transform="rotate(0,382,298)"/><rect x="376" y="304" width="12" height="12" transform="rotate(0,382,310)"/><rect x="376" y="316" width="12" height="12" transform="rotate(0,382,322)"/><rect x="376" y="328" width="12" height="12" transform="rotate(0,382,334)"/><rect x="376" y="364" width="12" height="12" transform="rotate(0,382,370)"/><rect x="376" y="412" width="12" height="12" transform="rotate(0,382,418)"/><rect x="376" y="424" width="12" height="12" transform="rotate(0,382,430)"/><path d="M 376 436v 12h 6a 6 6, 0, 0, 0, 0 -12" transform="rotate(90,382,442)"/><path d="M 376 460v 12h 6a 6 6, 0, 0, 0, 0 -12" transform="rotate(180,382,466)"/><path d="M 388 184v 12h 12v -6a 6 6, 0, 0, 0, -6 -6" transform="rotate(0,394,190)"/><rect x="388" y="196" width="12" height="12" transform="rotate(0,394,202)"/><rect x="388" y="232" width="12" height="12" transform="rotate(0,394,238)"/><path d="M 388 268v 12h 6a 6 6, 0, 0, 0, 0 -12" transform="rotate(0,394,274)"/><path d="M 388 292v 12h 6a 6 6, 0, 0, 0, 0 -12" transform="rotate(0,394,298)"/><path d="M 388 328v 12h 6a 6 6, 0, 0, 0, 0 -12" transform="rotate(0,394,334)"/><path d="M 388 352v 12h 12v -6a 6 6, 0, 0, 0, -6 -6" transform="rotate(-90,394,358)"/><rect x="388" y="364" width="12" height="12" transform="rotate(0,394,370)"/><circle cx="394" cy="394" r="6" transform="rotate(0,394,394)"/><rect x="388" y="412" width="12" height="12" transform="rotate(0,394,418)"/><rect x="388" y="424" width="12" height="12" transform="rotate(0,394,430)"/><path d="M 388 448v 12h 12v -6a 6 6, 0, 0, 0, -6 -6" transform="rotate(-90,394,454)"/><path d="M 388 460v 12h 12v -6a 6 6, 0, 0, 0, -6 -6" transform="rotate(90,394,466)"/><path d="M 400 124v 12h 6a 6 6, 0, 0, 0, 0 -12" transform="rotate(-90,406,130)"/><rect x="400" y="136" width="12" height="12" transform="rotate(0,406,142)"/><path d="M 400 148v 12h 6a 6 6, 0, 0, 0, 0 -12" transform="rotate(90,406,154)"/><circle cx="406" cy="178" r="6" transform="rotate(0,406,178)"/><path d="M 400 196v 12h 12v -6a 6 6, 0, 0, 0, -6 -6" transform="rotate(0,406,202)"/><path d="M 400 208v 12h 6a 6 6, 0, 0, 0, 0 -12" transform="rotate(90,406,214)"/><path d="M 400 232v 12h 12v -6a 6 6, 0, 0, 0, -6 -6" transform="rotate(0,406,238)"/><path d="M 400 244v 12h 12v -6a 6 6, 0, 0, 0, -6 -6" transform="rotate(180,406,250)"/><circle cx="406" cy="286" r="6" transform="rotate(0,406,286)"/><circle cx="406" cy="310" r="6" transform="rotate(0,406,310)"/><path d="M 400 340v 12h 12v -6a 6 6, 0, 0, 0, -6 -6" transform="rotate(-90,406,346)"/><rect x="400" y="352" width="12" height="12" transform="rotate(0,406,358)"/><rect x="400" y="364" width="12" height="12" transform="rotate(0,406,370)"/><rect x="400" y="412" width="12" height="12" transform="rotate(0,406,418)"/><rect x="400" y="424" width="12" height="12" transform="rotate(0,406,430)"/><rect x="400" y="448" width="12" height="12" transform="rotate(0,406,454)"/><path d="M 412 136v 12h 6a 6 6, 0, 0, 0, 0 -12" transform="rotate(0,418,142)"/><circle cx="418" cy="190" r="6" transform="rotate(0,418,190)"/><circle cx="418" cy="226" r="6" transform="rotate(0,418,226)"/><rect x="412" y="244" width="12" height="12" transform="rotate(0,418,250)"/><circle cx="418" cy="274" r="6" transform="rotate(0,418,274)"/><path d="M 412 340v 12h 6a 6 6, 0, 0, 0, 0 -12" transform="rotate(0,418,346)"/><rect x="412" y="364" width="12" height="12" transform="rotate(0,418,370)"/><rect x="412" y="376" width="12" height="12" transform="rotate(0,418,382)"/><rect x="412" y="388" width="12" height="12" transform="rotate(0,418,394)"/><rect x="412" y="400" width="12" height="12" transform="rotate(0,418,406)"/><rect x="412" y="412" width="12" height="12" transform="rotate(0,418,418)"/><rect x="412" y="424" width="12" height="12" transform="rotate(0,418,430)"/><rect x="412" y="448" width="12" height="12" transform="rotate(0,418,454)"/><path d="M 424 124v 12h 6a 6 6, 0, 0, 0, 0 -12" transform="rotate(180,430,130)"/><path d="M 424 148v 12h 12v -6a 6 6, 0, 0, 0, -6 -6" transform="rotate(-90,430,154)"/><rect x="424" y="160" width="12" height="12" transform="rotate(0,430,166)"/><path d="M 424 172v 12h 12v -6a 6 6, 0, 0, 0, -6 -6" transform="rotate(180,430,178)"/><path d="M 424 196v 12h 6a 6 6, 0, 0, 0, 0 -12" transform="rotate(180,430,202)"/><path d="M 424 232v 12h 6a 6 6, 0, 0, 0, 0 -12" transform="rotate(-90,430,238)"/><rect x="424" y="244" width="12" height="12" transform="rotate(0,430,250)"/><circle cx="430" cy="286" r="6" transform="rotate(0,430,286)"/><circle cx="430" cy="334" r="6" transform="rotate(0,430,334)"/><rect x="424" y="364" width="12" height="12" transform="rotate(0,430,370)"/><rect x="424" y="388" width="12" height="12" transform="rotate(0,430,394)"/><rect x="424" y="400" width="12" height="12" transform="rotate(0,430,406)"/><rect x="424" y="412" width="12" height="12" transform="rotate(0,430,418)"/><path d="M 424 424v 12h 12v -6a 6 6, 0, 0, 0, -6 -6" transform="rotate(90,430,430)"/><rect x="424" y="448" width="12" height="12" transform="rotate(0,430,454)"/><rect x="436" y="124" width="12" height="12" transform="rotate(0,442,130)"/><rect x="436" y="148" width="12" height="12" transform="rotate(0,442,154)"/><path d="M 436 172v 12h 12v -6a 6 6, 0, 0, 0, -6 -6" transform="rotate(0,442,178)"/><rect x="436" y="184" width="12" height="12" transform="rotate(0,442,190)"/><rect x="436" y="196" width="12" height="12" transform="rotate(0,442,202)"/><rect x="436" y="244" width="12" height="12" transform="rotate(0,442,250)"/><path d="M 436 340v 12h 6a 6 6, 0, 0, 0, 0 -12" transform="rotate(-90,442,346)"/><rect x="436" y="352" width="12" height="12" transform="rotate(0,442,358)"/><path d="M 436 364v 12h 12v -6a 6 6, 0, 0, 0, -6 -6" transform="rotate(90,442,370)"/><path d="M 436 388v 12h 6a 6 6, 0, 0, 0, 0 -12" transform="rotate(0,442,394)"/><path d="M 436 412v 12h 6a 6 6, 0, 0, 0, 0 -12" transform="rotate(0,442,418)"/><path d="M 436 448v 12h 6a 6 6, 0, 0, 0, 0 -12" transform="rotate(0,442,454)"/><path d="M 448 124v 12h 12v -6a 6 6, 0, 0, 0, -6 -6" transform="rotate(0,454,130)"/><rect x="448" y="136" width="12" height="12" transform="rotate(0,454,142)"/><rect x="448" y="148" width="12" height="12" transform="rotate(0,454,154)"/><path d="M 448 160v 12h 12v -6a 6 6, 0, 0, 0, -6 -6" transform="rotate(180,454,166)"/><path d="M 448 196v 12h 12v -6a 6 6, 0, 0, 0, -6 -6" transform="rotate(0,454,202)"/><rect x="448" y="208" width="12" height="12" transform="rotate(0,454,214)"/><path d="M 448 220v 12h 12v -6a 6 6, 0, 0, 0, -6 -6" transform="rotate(180,454,226)"/><rect x="448" y="244" width="12" height="12" transform="rotate(0,454,250)"/><path d="M 448 256v 12h 6a 6 6, 0, 0, 0, 0 -12" transform="rotate(90,454,262)"/><path d="M 448 304v 12h 12v -6a 6 6, 0, 0, 0, -6 -6" transform="rotate(-90,454,310)"/><rect x="448" y="316" width="12" height="12" transform="rotate(0,454,322)"/><path d="M 448 328v 12h 12v -6a 6 6, 0, 0, 0, -6 -6" transform="rotate(180,454,334)"/><path d="M 448 352v 12h 6a 6 6, 0, 0, 0, 0 -12" transform="rotate(0,454,358)"/><path d="M 448 376v 12h 6a 6 6, 0, 0, 0, 0 -12" transform="rotate(180,454,382)"/><circle cx="454" cy="406" r="6" transform="rotate(0,454,406)"/><path d="M 448 424v 12h 12v -6a 6 6, 0, 0, 0, -6 -6" transform="rotate(-90,454,430)"/><path d="M 448 436v 12h 12v -6a 6 6, 0, 0, 0, -6 -6" transform="rotate(180,454,442)"/><path d="M 460 160v 12h 6a 6 6, 0, 0, 0, 0 -12" transform="rotate(0,466,166)"/><path d="M 460 208v 12h 12v -6a 6 6, 0, 0, 0, -6 -6" transform="rotate(0,466,214)"/><path d="M 460 220v 12h 12v -6a 6 6, 0, 0, 0, -6 -6" transform="rotate(90,466,226)"/><path d="M 460 244v 12h 6a 6 6, 0, 0, 0, 0 -12" transform="rotate(0,466,250)"/><circle cx="466" cy="274" r="6" transform="rotate(0,466,274)"/><path d="M 460 292v 12h 6a 6 6, 0, 0, 0, 0 -12" transform="rotate(-90,466,298)"/><path d="M 460 304v 12h 12v -6a 6 6, 0, 0, 0, -6 -6" transform="rotate(90,466,310)"/><path d="M 460 328v 12h 6a 6 6, 0, 0, 0, 0 -12" transform="rotate(0,466,334)"/><path d="M 460 376v 12h 12v -6a 6 6, 0, 0, 0, -6 -6" transform="rotate(0,466,382)"/><path d="M 460 388v 12h 6a 6 6, 0, 0, 0, 0 -12" transform="rotate(90,466,394)"/><path d="M 460 424v 12h 12v -6a 6 6, 0, 0, 0, -6 -6" transform="rotate(0,466,430)"/><rect x="460" y="436" width="12" height="12" transform="rotate(0,466,442)"/><rect x="460" y="448" width="12" height="12" transform="rotate(0,466,454)"/><path d="M 460 460v 12h 6a 6 6, 0, 0, 0, 0 -12" transform="rotate(90,466,466)"/><path clip-rule="evenodd" d="M 28 58v 24a 30 30, 0, 0, 0, 30 30h 24a 30 30, 0, 0, 0, 30 -30v -24a 30 30, 0, 0, 0, -30 -30h -24a 30 30, 0, 0, 0, -30 30M 58 40h 24a 18 18, 0, 0, 1, 18 18v 24a 18 18, 0, 0, 1, -18 18h -24a 18 18, 0, 0, 1, -18 -18v -24a 18 18, 0, 0, 1, 18 -18" transform="rotate(0,70,70)"/><circle cx="70" cy="70" r="18" transform="rotate(0,70,70)"/><path clip-rule="evenodd" d="M 388 58v 24a 30 30, 0, 0, 0, 30 30h 24a 30 30, 0, 0, 0, 30 -30v -24a 30 30, 0, 0, 0, -30 -30h -24a 30 30, 0, 0, 0, -30 30M 418 40h 24a 18 18, 0, 0, 1, 18 18v 24a 18 18, 0, 0, 1, -18 18h -24a 18 18, 0, 0, 1, -18 -18v -24a 18 18, 0, 0, 1, 18 -18" transform="rotate(90,430,70)"/><circle cx="430" cy="70" r="18" transform="rotate(90,430,70)"/><path clip-rule="evenodd" d="M 28 418v 24a 30 30, 0, 0, 0, 30 30h 24a 30 30, 0, 0, 0, 30 -30v -24a 30 30, 0, 0, 0, -30 -30h -24a 30 30, 0, 0, 0, -30 30M 58 400h 24a 18 18, 0, 0, 1, 18 18v 24a 18 18, 0, 0, 1, -18 18h -24a 18 18, 0, 0, 1, -18 -18v -24a 18 18, 0, 0, 1, 18 -18" transform="rotate(-90,70,430)"/><circle cx="70" cy="430" r="18" transform="rotate(-90,70,430)"/></clipPath></defs><rect x="0" y="0" height="500" width="500" clip-path="url('#clip-path-background-color')" fill="#ffffff00"/><rect x="0" y="0" height="500" width="500" clip-path="url('#clip-path-dot-color')" fill="#000000"/></svg>