<?xml version="1.0" standalone="no"?>
<svg xmlns="http://www.w3.org/2000/svg" width="500" height="500"><defs><clipPath id="clip-path-dot-color"><path d="M 2 122v 15h 7.5a 7.5 7.5, 0, 0, 0, 0 -15" transform="rotate(-90,9.5,129.5)"/><path d="M 2 137v 15h 15v -7.5a 7.5 7.5, 0, 0, 0, -7.5 -7.5" transform="rotate(180,9.5,144.5)"/><path d="M 2 167v 15h 7.5a 7.5 7.5, 0, 0, 0, 0 -15" transform="rotate(180,9.5,174.5)"/><path d="M 2 212v 15h 7.5a 7.5 7.5, 0, 0, 0, 0 -15" transform="rotate(180,9.5,219.5)"/><circle cx="9.5" cy="294.5" r="7.5" transform="rotate(0,9.5,294.5)"/><path d="M 2 332v 15h 15v -7.5a 7.5 7.5, 0, 0, 0, -7.5 -7.5" transform="rotate(-90,9.5,339.5)"/><path d="M 2 347v 15h 15v -7.5a 7.5 7.5, 0, 0, 0, -7.5 -7.5" transform="rotate(180,9.5,354.5)"/><rect x="17" y="137" width="15" height="15" transform="rotate(0,24.5,144.5)"/><rect x="17" y="167" width="15" height="15" transform="rotate(0,24.5,174.5)"/><rect x="17" y="182" width="15" height="15" transform="rotate(0,24.5,189.5)"/><rect x="17" y="197" width="15" height="15" transform="rotate(0,24.5,204.5)"/><rect x="17" y="212" width="15" height="15" transform="rotate(0,24.5,219.5)"/><rect x="17" y="227" width="15" height="15" transform="rotate(0,24.5,234.5)"/><rect x="17" y="242" width="15" height="15" transform="rotate(0,24.5,249.5)"/><path d="M 17 257v 15h 15v -7.5a 7.5 7.5, 0, 0, 0, -7.5 -7.5" transform="rotate(180,24.5,264.5)"/><path d="M 17 302v 15h 15v -7.5a 7.5 7.5, 0, 0, 0, -7.5 -7.5" transform="rotate(-90,24.5,309.5)"/><rect x="17" y="317" width="15" height="15" transform="rotate(0,24.5,324.5)"/><rect x="17" y="332" width="15" height="15" transform="rotate(0,24.5,339.5)"/><rect x="17" y="347" width="15" height="15" transform="rotate(0,24.5,354.5)"/><path d="M 32 122v 15h 15v -7.5a 7.5 7.5, 0, 0, 0, -7.5 -7.5" transform="rotate(-90,39.5,129.5)"/><rect x="32" y="137" width="15" height="15" transform="rotate(0,39.5,144.5)"/><rect x="32" y="152" width="15" height="15" transform="rotate(0,39.5,159.5)"/><path d="M 32 167v 15h 15v -7.5a 7.5 7.5, 0, 0, 0, -7.5 -7.5" transform="rotate(90,39.5,174.5)"/><rect x="32" y="257" width="15" height="15" transform="rotate(0,39.5,264.5)"/><path d="M 32 302v 15h 7.5a 7.5 7.5, 0, 0, 0, 0 -15" transform="rotate(0,39.5,309.5)"/><rect x="32" y="347" width="15" height="15" transform="rotate(0,39.5,354.5)"/><path d="M 47 122v 15h 7.5a 7.5 7.5, 0, 0, 0, 0 -15" transform="rotate(0,54.5,129.5)"/><path d="M 47 152v 15h 7.5a 7.5 7.5, 0, 0, 0, 0 -15" transform="rotate(0,54.5,159.5)"/><path d="M 47 182v 15h 7.5a 7.5 7.5, 0, 0, 0, 0 -15" transform="rotate(-90,54.5,189.5)"/><path d="M 47 197v 15h 7.5a 7.5 7.5, 0, 0, 0, 0 -15" transform="rotate(90,54.5,204.5)"/><path d="M 47 257v 15h 7.5a 7.5 7.5, 0, 0, 0, 0 -15" transform="rotate(0,54.5,264.5)"/><path d="M 47 287v 15h 7.5a 7.5 7.5, 0, 0, 0, 0 -15" transform="rotate(180,54.5,294.5)"/><path d="M 47 317v 15h 7.5a 7.5 7.5, 0, 0, 0, 0 -15" transform="rotate(180,54.5,324.5)"/><path d="M 47 347v 15h 7.5a 7.5 7.5, 0, 0, 0, 0 -15" transform="rotate(0,54.5,354.5)"/><path d="M 62 167v 15h 7.5a 7.5 7.5, 0, 0, 0, 0 -15" transform="rotate(180,69.5,174.5)"/><circle cx="69.5" cy="219.5" r="7.5" transform="rotate(0,69.5,219.5)"/><path d="M 62 242v 15h 7.5a 7.5 7.5, 0, 0, 0, 0 -15" transform="rotate(180,69.5,249.5)"/><path d="M 62 287v 15h 7.5a 7.5 7.5, 0, 0, 0, 0 -15" transform="rotate(0,69.5,294.5)"/><path d="M 62 317v 15h 15v -7.5a 7.5 7.5, 0, 0, 0, -7.5 -7.5" transform="rotate(0,69.5,324.5)"/><path d="M 62 332v 15h 15v -7.5a 7.5 7.5, 0, 0, 0, -7.5 -7.5" transform="rotate(180,69.5,339.5)"/><path d="M 77 122v 15h 15v -7.5a 7.5 7.5, 0, 0, 0, -7.5 -7.5" transform="rotate(-90,84.5,129.5)"/><rect x="77" y="137" width="15" height="15" transform="rotate(0,84.5,144.5)"/><rect x="77" y="152" width="15" height="15" transform="rotate(0,84.5,159.5)"/><path d="M 77 167v 15h 15v -7.5a 7.5 7.5, 0, 0, 0, -7.5 -7.5" transform="rotate(90,84.5,174.5)"/><path d="M 77 227v 15h 7.5a 7.5 7.5, 0, 0, 0, 0 -15" transform="rotate(-90,84.5,234.5)"/><rect x="77" y="242" width="15" height="15" transform="rotate(0,84.5,249.5)"/><path d="M 77 257v 15h 7.5a 7.5 7.5, 0, 0, 0, 0 -15" transform="rotate(90,84.5,264.5)"/><path d="M 77 302v 15h 7.5a 7.5 7.5, 0, 0, 0, 0 -15" transform="rotate(180,84.5,309.5)"/><rect x="77" y="332" width="15" height="15" transform="rotate(0,84.5,339.5)"/><path d="M 77 347v 15h 7.5a 7.5 7.5, 0, 0, 0, 0 -15" transform="rotate(90,84.5,354.5)"/><rect x="92" y="122" width="15" height="15" transform="rotate(0,99.5,129.5)"/><path d="M 92 152v 15h 7.5a 7.5 7.5, 0, 0, 0, 0 -15" transform="rotate(0,99.5,159.5)"/><circle cx="99.5" cy="189.5" r="7.5" transform="rotate(0,99.5,189.5)"/><circle cx="99.5" cy="219.5" r="7.5" transform="rotate(0,99.5,219.5)"/><path d="M 92 242v 15h 7.5a 7.5 7.5, 0, 0, 0, 0 -15" transform="rotate(0,99.5,249.5)"/><circle cx="99.5" cy="279.5" r="7.5" transform="rotate(0,99.5,279.5)"/><rect x="92" y="302" width="15" height="15" transform="rotate(0,99.5,309.5)"/><path d="M 92 332v 15h 7.5a 7.5 7.5, 0, 0, 0, 0 -15" transform="rotate(0,99.5,339.5)"/><path d="M 92 362v 15h 7.5a 7.5 7.5, 0, 0, 0, 0 -15" transform="rotate(180,99.5,369.5)"/><rect x="107" y="122" width="15" height="15" transform="rotate(0,114.5,129.5)"/><circle cx="114.5" cy="234.5" r="7.5" transform="rotate(0,114.5,234.5)"/><circle cx="114.5" cy="264.5" r="7.5" transform="rotate(0,114.5,264.5)"/><path d="M 107 287v 15h 15v -7.5a 7.5 7.5, 0, 0, 0, -7.5 -7.5" transform="rotate(-90,114.5,294.5)"/><rect x="107" y="302" width="15" height="15" transform="rotate(0,114.5,309.5)"/><path d="M 107 317v 15h 15v -7.5a 7.5 7.5, 0, 0, 0, -7.5 -7.5" transform="rotate(180,114.5,324.5)"/><rect x="107" y="362" width="15" height="15" transform="rotate(0,114.5,369.5)"/><path d="M 122 17v 15h 7.5a 7.5 7.5, 0, 0, 0, 0 -15" transform="rotate(180,129.5,24.5)"/><circle cx="129.5" cy="54.5" r="7.5" transform="rotate(0,129.5,54.5)"/><path d="M 122 77v 15h 7.5a 7.5 7.5, 0, 0, 0, 0 -15" transform="rotate(-90,129.5,84.5)"/><rect x="122" y="92" width="15" height="15" transform="rotate(0,129.5,99.5)"/><rect x="122" y="107" width="15" height="15" transform="rotate(0,129.5,114.5)"/><rect x="122" y="122" width="15" height="15" transform="rotate(0,129.5,129.5)"/><path d="M 122 137v 15h 15v -7.5a 7.5 7.5, 0, 0, 0, -7.5 -7.5" transform="rotate(180,129.5,144.5)"/><circle cx="129.5" cy="174.5" r="7.5" transform="rotate(0,129.5,174.5)"/><path d="M 122 197v 15h 15v -7.5a 7.5 7.5, 0, 0, 0, -7.5 -7.5" transform="rotate(-90,129.5,204.5)"/><path d="M 122 212v 15h 15v -7.5a 7.5 7.5, 0, 0, 0, -7.5 -7.5" transform="rotate(180,129.5,219.5)"/><path d="M 122 242v 15h 7.5a 7.5 7.5, 0, 0, 0, 0 -15" transform="rotate(180,129.5,249.5)"/><path d="M 122 287v 15h 15v -7.5a 7.5 7.5, 0, 0, 0, -7.5 -7.5" transform="rotate(0,129.5,294.5)"/><rect x="122" y="302" width="15" height="15" transform="rotate(0,129.5,309.5)"/><path d="M 122 317v 15h 15v -7.5a 7.5 7.5, 0, 0, 0, -7.5 -7.5" transform="rotate(90,129.5,324.5)"/><rect x="122" y="362" width="15" height="15" transform="rotate(0,129.5,369.5)"/><rect x="122" y="377" width="15" height="15" transform="rotate(0,129.5,384.5)"/><rect x="122" y="392" width="15" height="15" transform="rotate(0,129.5,399.5)"/><path d="M 122 407v 15h 15v -7.5a 7.5 7.5, 0, 0, 0, -7.5 -7.5" transform="rotate(180,129.5,414.5)"/><path d="M 122 437v 15h 7.5a 7.5 7.5, 0, 0, 0, 0 -15" transform="rotate(-90,129.5,444.5)"/><path d="M 122 452v 15h 7.5a 7.5 7.5, 0, 0, 0, 0 -15" transform="rotate(90,129.5,459.5)"/><path d="M 122 482v 15h 7.5a 7.5 7.5, 0, 0, 0, 0 -15" transform="rotate(180,129.5,489.5)"/><path d="M 137 2v 15h 15v -7.5a 7.5 7.5, 0, 0, 0, -7.5 -7.5" transform="rotate(-90,144.5,9.5)"/><rect x="137" y="17" width="15" height="15" transform="rotate(0,144.5,24.5)"/><path d="M 137 32v 15h 7.5a 7.5 7.5, 0, 0, 0, 0 -15" transform="rotate(90,144.5,39.5)"/><circle cx="144.5" cy="69.5" r="7.5" transform="rotate(0,144.5,69.5)"/><rect x="137" y="107" width="15" height="15" transform="rotate(0,144.5,114.5)"/><rect x="137" y="137" width="15" height="15" transform="rotate(0,144.5,144.5)"/><path d="M 137 152v 15h 15v -7.5a 7.5 7.5, 0, 0, 0, -7.5 -7.5" transform="rotate(180,144.5,159.5)"/><rect x="137" y="197" width="15" height="15" transform="rotate(0,144.5,204.5)"/><rect x="137" y="212" width="15" height="15" transform="rotate(0,144.5,219.5)"/><rect x="137" y="227" width="15" height="15" transform="rotate(0,144.5,234.5)"/><path d="M 137 242v 15h 15v -7.5a 7.5 7.5, 0, 0, 0, -7.5 -7.5" transform="rotate(90,144.5,249.5)"/><path d="M 137 302v 15h 7.5a 7.5 7.5, 0, 0, 0, 0 -15" transform="rotate(0,144.5,309.5)"/><path d="M 137 362v 15h 15v -7.5a 7.5 7.5, 0, 0, 0, -7.5 -7.5" transform="rotate(0,144.5,369.5)"/><rect x="137" y="377" width="15" height="15" transform="rotate(0,144.5,384.5)"/><rect x="137" y="392" width="15" height="15" transform="rotate(0,144.5,399.5)"/><rect x="137" y="407" width="15" height="15" transform="rotate(0,144.5,414.5)"/><rect x="137" y="482" width="15" height="15" transform="rotate(0,144.5,489.5)"/><path d="M 152 2v 15h 15v -7.5a 7.5 7.5, 0, 0, 0, -7.5 -7.5" transform="rotate(0,159.5,9.5)"/><rect x="152" y="17" width="15" height="15" transform="rotate(0,159.5,24.5)"/><circle cx="159.5" cy="54.5" r="7.5" transform="rotate(0,159.5,54.5)"/><path d="M 152 92v 15h 7.5a 7.5 7.5, 0, 0, 0, 0 -15" transform="rotate(-90,159.5,99.5)"/><path d="M 152 107v 15h 15v -7.5a 7.5 7.5, 0, 0, 0, -7.5 -7.5" transform="rotate(90,159.5,114.5)"/><rect x="152" y="137" width="15" height="15" transform="rotate(0,159.5,144.5)"/><rect x="152" y="152" width="15" height="15" transform="rotate(0,159.5,159.5)"/><rect x="152" y="167" width="15" height="15" transform="rotate(0,159.5,174.5)"/><rect x="152" y="182" width="15" height="15" transform="rotate(0,159.5,189.5)"/><rect x="152" y="197" width="15" height="15" transform="rotate(0,159.5,204.5)"/><path d="M 152 212v 15h 15v -7.5a 7.5 7.5, 0, 0, 0, -7.5 -7.5" transform="rotate(90,159.5,219.5)"/><path d="M 152 257v 15h 7.5a 7.5 7.5, 0, 0, 0, 0 -15" transform="rotate(180,159.5,264.5)"/><circle cx="159.5" cy="294.5" r="7.5" transform="rotate(0,159.5,294.5)"/><path d="M 152 317v 15h 7.5a 7.5 7.5, 0, 0, 0, 0 -15" transform="rotate(-90,159.5,324.5)"/><path d="M 152 332v 15h 7.5a 7.5 7.5, 0, 0, 0, 0 -15" transform="rotate(90,159.5,339.5)"/><rect x="152" y="392" width="15" height="15" transform="rotate(0,159.5,399.5)"/><rect x="152" y="407" width="15" height="15" transform="rotate(0,159.5,414.5)"/><path d="M 152 422v 15h 15v -7.5a 7.5 7.5, 0, 0, 0, -7.5 -7.5" transform="rotate(180,159.5,429.5)"/><circle cx="159.5" cy="459.5" r="7.5" transform="rotate(0,159.5,459.5)"/><rect x="152" y="482" width="15" height="15" transform="rotate(0,159.5,489.5)"/><path d="M 167 17v 15h 15v -7.5a 7.5 7.5, 0, 0, 0, -7.5 -7.5" transform="rotate(0,174.5,24.5)"/><path d="M 167 32v 15h 7.5a 7.5 7.5, 0, 0, 0, 0 -15" transform="rotate(90,174.5,39.5)"/><rect x="167" y="137" width="15" height="15" transform="rotate(0,174.5,144.5)"/><rect x="167" y="152" width="15" height="15" transform="rotate(0,174.5,159.5)"/><rect x="167" y="167" width="15" height="15" transform="rotate(0,174.5,174.5)"/><rect x="167" y="182" width="15" height="15" transform="rotate(0,174.5,189.5)"/><circle cx="174.5" cy="234.5" r="7.5" transform="rotate(0,174.5,234.5)"/><path d="M 167 257v 15h 7.5a 7.5 7.5, 0, 0, 0, 0 -15" transform="rotate(0,174.5,264.5)"/><path d="M 167 377v 15h 15v -7.5a 7.5 7.5, 0, 0, 0, -7.5 -7.5" transform="rotate(-90,174.5,384.5)"/><rect x="167" y="392" width="15" height="15" transform="rotate(0,174.5,399.5)"/><path d="M 167 422v 15h 15v -7.5a 7.5 7.5, 0, 0, 0, -7.5 -7.5" transform="rotate(0,174.5,429.5)"/><path d="M 167 437v 15h 15v -7.5a 7.5 7.5, 0, 0, 0, -7.5 -7.5" transform="rotate(180,174.5,444.5)"/><rect x="167" y="482" width="15" height="15" transform="rotate(0,174.5,489.5)"/><path d="M 182 62v 15h 7.5a 7.5 7.5, 0, 0, 0, 0 -15" transform="rotate(-90,189.5,69.5)"/><rect x="182" y="77" width="15" height="15" transform="rotate(0,189.5,84.5)"/><rect x="182" y="92" width="15" height="15" transform="rotate(0,189.5,99.5)"/><path d="M 182 107v 15h 7.5a 7.5 7.5, 0, 0, 0, 0 -15" transform="rotate(90,189.5,114.5)"/><rect x="182" y="137" width="15" height="15" transform="rotate(0,189.5,144.5)"/><rect x="182" y="152" width="15" height="15" transform="rotate(0,189.5,159.5)"/><rect x="182" y="182" width="15" height="15" transform="rotate(0,189.5,189.5)"/><path d="M 182 212v 15h 7.5a 7.5 7.5, 0, 0, 0, 0 -15" transform="rotate(180,189.5,219.5)"/><circle cx="189.5" cy="294.5" r="7.5" transform="rotate(0,189.5,294.5)"/><path d="M 182 362v 15h 7.5a 7.5 7.5, 0, 0, 0, 0 -15" transform="rotate(-90,189.5,369.5)"/><rect x="182" y="377" width="15" height="15" transform="rotate(0,189.5,384.5)"/><rect x="182" y="392" width="15" height="15" transform="rotate(0,189.5,399.5)"/><path d="M 182 437v 15h 7.5a 7.5 7.5, 0, 0, 0, 0 -15" transform="rotate(0,189.5,444.5)"/><path d="M 182 467v 15h 15v -7.5a 7.5 7.5, 0, 0, 0, -7.5 -7.5" transform="rotate(-90,189.5,474.5)"/><rect x="182" y="482" width="15" height="15" transform="rotate(0,189.5,489.5)"/><circle cx="204.5" cy="24.5" r="7.5" transform="rotate(0,204.5,24.5)"/><path d="M 197 122v 15h 15v -7.5a 7.5 7.5, 0, 0, 0, -7.5 -7.5" transform="rotate(-90,204.5,129.5)"/><rect x="197" y="137" width="15" height="15" transform="rotate(0,204.5,144.5)"/><path d="M 197 152v 15h 15v -7.5a 7.5 7.5, 0, 0, 0, -7.5 -7.5" transform="rotate(90,204.5,159.5)"/><rect x="197" y="182" width="15" height="15" transform="rotate(0,204.5,189.5)"/><rect x="197" y="212" width="15" height="15" transform="rotate(0,204.5,219.5)"/><rect x="197" y="227" width="15" height="15" transform="rotate(0,204.5,234.5)"/><path d="M 197 242v 15h 7.5a 7.5 7.5, 0, 0, 0, 0 -15" transform="rotate(90,204.5,249.5)"/><path d="M 197 317v 15h 15v -7.5a 7.5 7.5, 0, 0, 0, -7.5 -7.5" transform="rotate(-90,204.5,324.5)"/><rect x="197" y="332" width="15" height="15" transform="rotate(0,204.5,339.5)"/><path d="M 197 347v 15h 15v -7.5a 7.5 7.5, 0, 0, 0, -7.5 -7.5" transform="rotate(180,204.5,354.5)"/><rect x="197" y="392" width="15" height="15" transform="rotate(0,204.5,399.5)"/><circle cx="204.5" cy="429.5" r="7.5" transform="rotate(0,204.5,429.5)"/><rect x="197" y="467" width="15" height="15" transform="rotate(0,204.5,474.5)"/><path d="M 197 482v 15h 15v -7.5a 7.5 7.5, 0, 0, 0, -7.5 -7.5" transform="rotate(90,204.5,489.5)"/><circle cx="219.5" cy="9.5" r="7.5" transform="rotate(0,219.5,9.5)"/><path d="M 212 47v 15h 7.5a 7.5 7.5, 0, 0, 0, 0 -15" transform="rotate(180,219.5,54.5)"/><path d="M 212 77v 15h 15v -7.5a 7.5 7.5, 0, 0, 0, -7.5 -7.5" transform="rotate(-90,219.5,84.5)"/><rect x="212" y="92" width="15" height="15" transform="rotate(0,219.5,99.5)"/><rect x="212" y="107" width="15" height="15" transform="rotate(0,219.5,114.5)"/><rect x="212" y="122" width="15" height="15" transform="rotate(0,219.5,129.5)"/><path d="M 212 137v 15h 15v -7.5a 7.5 7.5, 0, 0, 0, -7.5 -7.5" transform="rotate(90,219.5,144.5)"/><path d="M 212 182v 15h 7.5a 7.5 7.5, 0, 0, 0, 0 -15" transform="rotate(0,219.5,189.5)"/><rect x="212" y="212" width="15" height="15" transform="rotate(0,219.5,219.5)"/><path d="M 212 257v 15h 15v -7.5a 7.5 7.5, 0, 0, 0, -7.5 -7.5" transform="rotate(-90,219.5,264.5)"/><path d="M 212 272v 15h 15v -7.5a 7.5 7.5, 0, 0, 0, -7.5 -7.5" transform="rotate(180,219.5,279.5)"/><path d="M 212 302v 15h 7.5a 7.5 7.5, 0, 0, 0, 0 -15" transform="rotate(-90,219.5,309.5)"/><rect x="212" y="317" width="15" height="15" transform="rotate(0,219.5,324.5)"/><rect x="212" y="332" width="15" height="15" transform="rotate(0,219.5,339.5)"/><rect x="212" y="347" width="15" height="15" transform="rotate(0,219.5,354.5)"/><rect x="212" y="362" width="15" height="15" transform="rotate(0,219.5,369.5)"/><rect x="212" y="377" width="15" height="15" transform="rotate(0,219.5,384.5)"/><rect x="212" y="392" width="15" height="15" transform="rotate(0,219.5,399.5)"/><path d="M 212 437v 15h 7.5a 7.5 7.5, 0, 0, 0, 0 -15" transform="rotate(-90,219.5,444.5)"/><rect x="212" y="452" width="15" height="15" transform="rotate(0,219.5,459.5)"/><rect x="212" y="467" width="15" height="15" transform="rotate(0,219.5,474.5)"/><path d="M 227 32v 15h 7.5a 7.5 7.5, 0, 0, 0, 0 -15" transform="rotate(-90,234.5,39.5)"/><path d="M 227 47v 15h 15v -7.5a 7.5 7.5, 0, 0, 0, -7.5 -7.5" transform="rotate(90,234.5,54.5)"/><path d="M 227 77v 15h 7.5a 7.5 7.5, 0, 0, 0, 0 -15" transform="rotate(0,234.5,84.5)"/><rect x="227" y="122" width="15" height="15" transform="rotate(0,234.5,129.5)"/><path d="M 227 197v 15h 15v -7.5a 7.5 7.5, 0, 0, 0, -7.5 -7.5" transform="rotate(-90,234.5,204.5)"/><rect x="227" y="212" width="15" height="15" transform="rotate(0,234.5,219.5)"/><path d="M 227 242v 15h 7.5a 7.5 7.5, 0, 0, 0, 0 -15" transform="rotate(-90,234.5,249.5)"/><rect x="227" y="257" width="15" height="15" transform="rotate(0,234.5,264.5)"/><rect x="227" y="272" width="15" height="15" transform="rotate(0,234.5,279.5)"/><path d="M 227 287v 15h 15v -7.5a 7.5 7.5, 0, 0, 0, -7.5 -7.5" transform="rotate(180,234.5,294.5)"/><rect x="227" y="317" width="15" height="15" transform="rotate(0,234.5,324.5)"/><rect x="227" y="392" width="15" height="15" transform="rotate(0,234.5,399.5)"/><rect x="227" y="407" width="15" height="15" transform="rotate(0,234.5,414.5)"/><path d="M 227 422v 15h 15v -7.5a 7.5 7.5, 0, 0, 0, -7.5 -7.5" transform="rotate(180,234.5,429.5)"/><rect x="227" y="467" width="15" height="15" transform="rotate(0,234.5,474.5)"/><path d="M 242 17v 15h 7.5a 7.5 7.5, 0, 0, 0, 0 -15" transform="rotate(180,249.5,24.5)"/><path d="M 242 62v 15h 7.5a 7.5 7.5, 0, 0, 0, 0 -15" transform="rotate(180,249.5,69.5)"/><path d="M 242 92v 15h 7.5a 7.5 7.5, 0, 0, 0, 0 -15" transform="rotate(-90,249.5,99.5)"/><rect x="242" y="107" width="15" height="15" transform="rotate(0,249.5,114.5)"/><rect x="242" y="122" width="15" height="15" transform="rotate(0,249.5,129.5)"/><path d="M 242 167v 15h 7.5a 7.5 7.5, 0, 0, 0, 0 -15" transform="rotate(180,249.5,174.5)"/><rect x="242" y="197" width="15" height="15" transform="rotate(0,249.5,204.5)"/><path d="M 242 212v 15h 15v -7.5a 7.5 7.5, 0, 0, 0, -7.5 -7.5" transform="rotate(90,249.5,219.5)"/><rect x="242" y="272" width="15" height="15" transform="rotate(0,249.5,279.5)"/><rect x="242" y="287" width="15" height="15" transform="rotate(0,249.5,294.5)"/><rect x="242" y="302" width="15" height="15" transform="rotate(0,249.5,309.5)"/><rect x="242" y="317" width="15" height="15" transform="rotate(0,249.5,324.5)"/><path d="M 242 332v 15h 7.5a 7.5 7.5, 0, 0, 0, 0 -15" transform="rotate(90,249.5,339.5)"/><path d="M 242 362v 15h 7.5a 7.5 7.5, 0, 0, 0, 0 -15" transform="rotate(180,249.5,369.5)"/><path d="M 242 392v 15h 7.5a 7.5 7.5, 0, 0, 0, 0 -15" transform="rotate(0,249.5,399.5)"/><path d="M 242 422v 15h 7.5a 7.5 7.5, 0, 0, 0, 0 -15" transform="rotate(0,249.5,429.5)"/><rect x="242" y="467" width="15" height="15" transform="rotate(0,249.5,474.5)"/><path d="M 257 2v 15h 7.5a 7.5 7.5, 0, 0, 0, 0 -15" transform="rotate(-90,264.5,9.5)"/><rect x="257" y="17" width="15" height="15" transform="rotate(0,264.5,24.5)"/><rect x="257" y="32" width="15" height="15" transform="rotate(0,264.5,39.5)"/><rect x="257" y="47" width="15" height="15" transform="rotate(0,264.5,54.5)"/><rect x="257" y="62" width="15" height="15" transform="rotate(0,264.5,69.5)"/><rect x="257" y="122" width="15" height="15" transform="rotate(0,264.5,129.5)"/><path d="M 257 167v 15h 15v -7.5a 7.5 7.5, 0, 0, 0, -7.5 -7.5" transform="rotate(0,264.5,174.5)"/><rect x="257" y="182" width="15" height="15" transform="rotate(0,264.5,189.5)"/><rect x="257" y="197" width="15" height="15" transform="rotate(0,264.5,204.5)"/><path d="M 257 227v 15h 15v -7.5a 7.5 7.5, 0, 0, 0, -7.5 -7.5" transform="rotate(-90,264.5,234.5)"/><path d="M 257 242v 15h 7.5a 7.5 7.5, 0, 0, 0, 0 -15" transform="rotate(90,264.5,249.5)"/><rect x="257" y="272" width="15" height="15" transform="rotate(0,264.5,279.5)"/><path d="M 257 302v 15h 15v -7.5a 7.5 7.5, 0, 0, 0, -7.5 -7.5" transform="rotate(0,264.5,309.5)"/><path d="M 257 317v 15h 15v -7.5a 7.5 7.5, 0, 0, 0, -7.5 -7.5" transform="rotate(90,264.5,324.5)"/><path d="M 257 347v 15h 7.5a 7.5 7.5, 0, 0, 0, 0 -15" transform="rotate(-90,264.5,354.5)"/><rect x="257" y="362" width="15" height="15" transform="rotate(0,264.5,369.5)"/><path d="M 257 377v 15h 7.5a 7.5 7.5, 0, 0, 0, 0 -15" transform="rotate(90,264.5,384.5)"/><circle cx="264.5" cy="414.5" r="7.5" transform="rotate(0,264.5,414.5)"/><circle cx="264.5" cy="444.5" r="7.5" transform="rotate(0,264.5,444.5)"/><rect x="257" y="467" width="15" height="15" transform="rotate(0,264.5,474.5)"/><path d="M 272 32v 15h 7.5a 7.5 7.5, 0, 0, 0, 0 -15" transform="rotate(0,279.5,39.5)"/><path d="M 272 62v 15h 15v -7.5a 7.5 7.5, 0, 0, 0, -7.5 -7.5" transform="rotate(0,279.5,69.5)"/><rect x="272" y="77" width="15" height="15" transform="rotate(0,279.5,84.5)"/><path d="M 272 92v 15h 7.5a 7.5 7.5, 0, 0, 0, 0 -15" transform="rotate(90,279.5,99.5)"/><rect x="272" y="122" width="15" height="15" transform="rotate(0,279.5,129.5)"/><rect x="272" y="137" width="15" height="15" transform="rotate(0,279.5,144.5)"/><path d="M 272 152v 15h 7.5a 7.5 7.5, 0, 0, 0, 0 -15" transform="rotate(90,279.5,159.5)"/><path d="M 272 182v 15h 15v -7.5a 7.5 7.5, 0, 0, 0, -7.5 -7.5" transform="rotate(0,279.5,189.5)"/><rect x="272" y="197" width="15" height="15" transform="rotate(0,279.5,204.5)"/><path d="M 272 227v 15h 7.5a 7.5 7.5, 0, 0, 0, 0 -15" transform="rotate(0,279.5,234.5)"/><path d="M 272 272v 15h 7.5a 7.5 7.5, 0, 0, 0, 0 -15" transform="rotate(0,279.5,279.5)"/><circle cx="279.5" cy="339.5" r="7.5" transform="rotate(0,279.5,339.5)"/><rect x="272" y="362" width="15" height="15" transform="rotate(0,279.5,369.5)"/><path d="M 272 452v 15h 7.5a 7.5 7.5, 0, 0, 0, 0 -15" transform="rotate(-90,279.5,459.5)"/><rect x="272" y="467" width="15" height="15" transform="rotate(0,279.5,474.5)"/><path d="M 272 482v 15h 15v -7.5a 7.5 7.5, 0, 0, 0, -7.5 -7.5" transform="rotate(180,279.5,489.5)"/><path d="M 287 2v 15h 7.5a 7.5 7.5, 0, 0, 0, 0 -15" transform="rotate(180,294.5,9.5)"/><path d="M 287 47v 15h 7.5a 7.5 7.5, 0, 0, 0, 0 -15" transform="rotate(180,294.5,54.5)"/><path d="M 287 77v 15h 7.5a 7.5 7.5, 0, 0, 0, 0 -15" transform="rotate(0,294.5,84.5)"/><path d="M 287 107v 15h 7.5a 7.5 7.5, 0, 0, 0, 0 -15" transform="rotate(-90,294.5,114.5)"/><path d="M 287 122v 15h 15v -7.5a 7.5 7.5, 0, 0, 0, -7.5 -7.5" transform="rotate(90,294.5,129.5)"/><rect x="287" y="197" width="15" height="15" transform="rotate(0,294.5,204.5)"/><path d="M 287 212v 15h 7.5a 7.5 7.5, 0, 0, 0, 0 -15" transform="rotate(90,294.5,219.5)"/><circle cx="294.5" cy="264.5" r="7.5" transform="rotate(0,294.5,264.5)"/><path d="M 287 287v 15h 15v -7.5a 7.5 7.5, 0, 0, 0, -7.5 -7.5" transform="rotate(-90,294.5,294.5)"/><rect x="287" y="302" width="15" height="15" transform="rotate(0,294.5,309.5)"/><path d="M 287 317v 15h 7.5a 7.5 7.5, 0, 0, 0, 0 -15" transform="rotate(90,294.5,324.5)"/><rect x="287" y="362" width="15" height="15" transform="rotate(0,294.5,369.5)"/><path d="M 287 377v 15h 15v -7.5a 7.5 7.5, 0, 0, 0, -7.5 -7.5" transform="rotate(180,294.5,384.5)"/><circle cx="294.5" cy="414.5" r="7.5" transform="rotate(0,294.5,414.5)"/><rect x="287" y="467" width="15" height="15" transform="rotate(0,294.5,474.5)"/><rect x="287" y="482" width="15" height="15" transform="rotate(0,294.5,489.5)"/><path d="M 302 2v 15h 15v -7.5a 7.5 7.5, 0, 0, 0, -7.5 -7.5" transform="rotate(0,309.5,9.5)"/><rect x="302" y="17" width="15" height="15" transform="rotate(0,309.5,24.5)"/><rect x="302" y="32" width="15" height="15" transform="rotate(0,309.5,39.5)"/><rect x="302" y="47" width="15" height="15" transform="rotate(0,309.5,54.5)"/><path d="M 302 62v 15h 7.5a 7.5 7.5, 0, 0, 0, 0 -15" transform="rotate(90,309.5,69.5)"/><circle cx="309.5" cy="99.5" r="7.5" transform="rotate(0,309.5,99.5)"/><circle cx="309.5" cy="159.5" r="7.5" transform="rotate(0,309.5,159.5)"/><path d="M 302 182v 15h 7.5a 7.5 7.5, 0, 0, 0, 0 -15" transform="rotate(-90,309.5,189.5)"/><path d="M 302 197v 15h 15v -7.5a 7.5 7.5, 0, 0, 0, -7.5 -7.5" transform="rotate(90,309.5,204.5)"/><path d="M 302 272v 15h 15v -7.5a 7.5 7.5, 0, 0, 0, -7.5 -7.5" transform="rotate(-90,309.5,279.5)"/><rect x="302" y="287" width="15" height="15" transform="rotate(0,309.5,294.5)"/><path d="M 302 332v 15h 7.5a 7.5 7.5, 0, 0, 0, 0 -15" transform="rotate(180,309.5,339.5)"/><rect x="302" y="362" width="15" height="15" transform="rotate(0,309.5,369.5)"/><path d="M 302 377v 15h 15v -7.5a 7.5 7.5, 0, 0, 0, -7.5 -7.5" transform="rotate(90,309.5,384.5)"/><circle cx="309.5" cy="429.5" r="7.5" transform="rotate(0,309.5,429.5)"/><rect x="302" y="467" width="15" height="15" transform="rotate(0,309.5,474.5)"/><rect x="302" y="482" width="15" height="15" transform="rotate(0,309.5,489.5)"/><rect x="317" y="17" width="15" height="15" transform="rotate(0,324.5,24.5)"/><rect x="317" y="32" width="15" height="15" transform="rotate(0,324.5,39.5)"/><path d="M 317 47v 15h 15v -7.5a 7.5 7.5, 0, 0, 0, -7.5 -7.5" transform="rotate(90,324.5,54.5)"/><circle cx="324.5" cy="84.5" r="7.5" transform="rotate(0,324.5,84.5)"/><path d="M 317 107v 15h 7.5a 7.5 7.5, 0, 0, 0, 0 -15" transform="rotate(-90,324.5,114.5)"/><path d="M 317 122v 15h 15v -7.5a 7.5 7.5, 0, 0, 0, -7.5 -7.5" transform="rotate(180,324.5,129.5)"/><path d="M 317 257v 15h 7.5a 7.5 7.5, 0, 0, 0, 0 -15" transform="rotate(-90,324.5,264.5)"/><rect x="317" y="272" width="15" height="15" transform="rotate(0,324.5,279.5)"/><rect x="317" y="287" width="15" height="15" transform="rotate(0,324.5,294.5)"/><rect x="317" y="302" width="15" height="15" transform="rotate(0,324.5,309.5)"/><rect x="317" y="317" width="15" height="15" transform="rotate(0,324.5,324.5)"/><rect x="317" y="332" width="15" height="15" transform="rotate(0,324.5,339.5)"/><path d="M 317 362v 15h 7.5a 7.5 7.5, 0, 0, 0, 0 -15" transform="rotate(0,324.5,369.5)"/><path d="M 317 452v 15h 7.5a 7.5 7.5, 0, 0, 0, 0 -15" transform="rotate(-90,324.5,459.5)"/><rect x="317" y="467" width="15" height="15" transform="rotate(0,324.5,474.5)"/><rect x="317" y="482" width="15" height="15" transform="rotate(0,324.5,489.5)"/><path d="M 332 2v 15h 7.5a 7.5 7.5, 0, 0, 0, 0 -15" transform="rotate(-90,339.5,9.5)"/><rect x="332" y="17" width="15" height="15" transform="rotate(0,339.5,24.5)"/><circle cx="339.5" cy="69.5" r="7.5" transform="rotate(0,339.5,69.5)"/><circle cx="339.5" cy="99.5" r="7.5" transform="rotate(0,339.5,99.5)"/><rect x="332" y="122" width="15" height="15" transform="rotate(0,339.5,129.5)"/><path d="M 332 137v 15h 15v -7.5a 7.5 7.5, 0, 0, 0, -7.5 -7.5" transform="rotate(180,339.5,144.5)"/><path d="M 332 167v 15h 7.5a 7.5 7.5, 0, 0, 0, 0 -15" transform="rotate(180,339.5,174.5)"/><path d="M 332 227v 15h 7.5a 7.5 7.5, 0, 0, 0, 0 -15" transform="rotate(-90,339.5,234.5)"/><path d="M 332 242v 15h 7.5a 7.5 7.5, 0, 0, 0, 0 -15" transform="rotate(90,339.5,249.5)"/><path d="M 332 272v 15h 7.5a 7.5 7.5, 0, 0, 0, 0 -15" transform="rotate(0,339.5,279.5)"/><path d="M 332 302v 15h 7.5a 7.5 7.5, 0, 0, 0, 0 -15" transform="rotate(0,339.5,309.5)"/><rect x="332" y="332" width="15" height="15" transform="rotate(0,339.5,339.5)"/><circle cx="339.5" cy="399.5" r="7.5" transform="rotate(0,339.5,399.5)"/><path d="M 332 422v 15h 7.5a 7.5 7.5, 0, 0, 0, 0 -15" transform="rotate(-90,339.5,429.5)"/><path d="M 332 437v 15h 15v -7.5a 7.5 7.5, 0, 0, 0, -7.5 -7.5" transform="rotate(180,339.5,444.5)"/><path d="M 332 482v 15h 7.5a 7.5 7.5, 0, 0, 0, 0 -15" transform="rotate(0,339.5,489.5)"/><path d="M 347 17v 15h 15v -7.5a 7.5 7.5, 0, 0, 0, -7.5 -7.5" transform="rotate(0,354.5,24.5)"/><path d="M 347 32v 15h 7.5a 7.5 7.5, 0, 0, 0, 0 -15" transform="rotate(90,354.5,39.5)"/><rect x="347" y="122" width="15" height="15" transform="rotate(0,354.5,129.5)"/><rect x="347" y="137" width="15" height="15" transform="rotate(0,354.5,144.5)"/><path d="M 347 167v 15h 15v -7.5a 7.5 7.5, 0, 0, 0, -7.5 -7.5" transform="rotate(0,354.5,174.5)"/><path d="M 347 182v 15h 7.5a 7.5 7.5, 0, 0, 0, 0 -15" transform="rotate(90,354.5,189.5)"/><path d="M 347 212v 15h 7.5a 7.5 7.5, 0, 0, 0, 0 -15" transform="rotate(180,354.5,219.5)"/><path d="M 347 317v 15h 15v -7.5a 7.5 7.5, 0, 0, 0, -7.5 -7.5" transform="rotate(-90,354.5,324.5)"/><rect x="347" y="332" width="15" height="15" transform="rotate(0,354.5,339.5)"/><path d="M 347 362v 15h 7.5a 7.5 7.5, 0, 0, 0, 0 -15" transform="rotate(180,354.5,369.5)"/><path d="M 347 407v 15h 7.5a 7.5 7.5, 0, 0, 0, 0 -15" transform="rotate(180,354.5,414.5)"/><path d="M 347 437v 15h 7.5a 7.5 7.5, 0, 0, 0, 0 -15" transform="rotate(0,354.5,444.5)"/><circle cx="369.5" cy="9.5" r="7.5" transform="rotate(0,369.5,9.5)"/><circle cx="369.5" cy="69.5" r="7.5" transform="rotate(0,369.5,69.5)"/><path d="M 362 92v 15h 7.5a 7.5 7.5, 0, 0, 0, 0 -15" transform="rotate(-90,369.5,99.5)"/><rect x="362" y="107" width="15" height="15" transform="rotate(0,369.5,114.5)"/><rect x="362" y="122" width="15" height="15" transform="rotate(0,369.5,129.5)"/><path d="M 362 137v 15h 15v -7.5a 7.5 7.5, 0, 0, 0, -7.5 -7.5" transform="rotate(90,369.5,144.5)"/><path d="M 362 197v 15h 15v -7.5a 7.5 7.5, 0, 0, 0, -7.5 -7.5" transform="rotate(-90,369.5,204.5)"/><path d="M 362 212v 15h 15v -7.5a 7.5 7.5, 0, 0, 0, -7.5 -7.5" transform="rotate(90,369.5,219.5)"/><path d="M 362 242v 15h 7.5a 7.5 7.5, 0, 0, 0, 0 -15" transform="rotate(-90,369.5,249.5)"/><rect x="362" y="257" width="15" height="15" transform="rotate(0,369.5,264.5)"/><rect x="362" y="272" width="15" height="15" transform="rotate(0,369.5,279.5)"/><rect x="362" y="287" width="15" height="15" transform="rotate(0,369.5,294.5)"/><rect x="362" y="302" width="15" height="15" transform="rotate(0,369.5,309.5)"/><rect x="362" y="317" width="15" height="15" transform="rotate(0,369.5,324.5)"/><rect x="362" y="332" width="15" height="15" transform="rotate(0,369.5,339.5)"/><rect x="362" y="362" width="15" height="15" transform="rotate(0,369.5,369.5)"/><rect x="362" y="377" width="15" height="15" transform="rotate(0,369.5,384.5)"/><rect x="362" y="392" width="15" height="15" transform="rotate(0,369.5,399.5)"/><rect x="362" y="407" width="15" height="15" transform="rotate(0,369.5,414.5)"/><path d="M 362 422v 15h 15v -7.5a 7.5 7.5, 0, 0, 0, -7.5 -7.5" transform="rotate(180,369.5,429.5)"/><circle cx="369.5" cy="459.5" r="7.5" transform="rotate(0,369.5,459.5)"/><path d="M 362 482v 15h 7.5a 7.5 7.5, 0, 0, 0, 0 -15" transform="rotate(180,369.5,489.5)"/><rect x="377" y="122" width="15" height="15" transform="rotate(0,384.5,129.5)"/><path d="M 377 182v 15h 15v -7.5a 7.5 7.5, 0, 0, 0, -7.5 -7.5" transform="rotate(-90,384.5,189.5)"/><path d="M 377 197v 15h 15v -7.5a 7.5 7.5, 0, 0, 0, -7.5 -7.5" transform="rotate(90,384.5,204.5)"/><path d="M 377 257v 15h 15v -7.5a 7.5 7.5, 0, 0, 0, -7.5 -7.5" transform="rotate(0,384.5,264.5)"/><rect x="377" y="272" width="15" height="15" transform="rotate(0,384.5,279.5)"/><rect x="377" y="287" width="15" height="15" transform="rotate(0,384.5,294.5)"/><rect x="377" y="302" width="15" height="15" transform="rotate(0,384.5,309.5)"/><path d="M 377 332v 15h 15v -7.5a 7.5 7.5, 0, 0, 0, -7.5 -7.5" transform="rotate(0,384.5,339.5)"/><rect x="377" y="347" width="15" height="15" transform="rotate(0,384.5,354.5)"/><rect x="377" y="362" width="15" height="15" transform="rotate(0,384.5,369.5)"/><rect x="377" y="422" width="15" height="15" transform="rotate(0,384.5,429.5)"/><path d="M 377 437v 15h 15v -7.5a 7.5 7.5, 0, 0, 0, -7.5 -7.5" transform="rotate(180,384.5,444.5)"/><path d="M 377 482v 15h 7.5a 7.5 7.5, 0, 0, 0, 0 -15" transform="rotate(0,384.5,489.5)"/><rect x="392" y="122" width="15" height="15" transform="rotate(0,399.5,129.5)"/><rect x="392" y="137" width="15" height="15" transform="rotate(0,399.5,144.5)"/><rect x="392" y="152" width="15" height="15" transform="rotate(0,399.5,159.5)"/><rect x="392" y="167" width="15" height="15" transform="rotate(0,399.5,174.5)"/><rect x="392" y="182" width="15" height="15" transform="rotate(0,399.5,189.5)"/><path d="M 392 242v 15h 7.5a 7.5 7.5, 0, 0, 0, 0 -15" transform="rotate(180,399.5,249.5)"/><path d="M 392 302v 15h 15v -7.5a 7.5 7.5, 0, 0, 0, -7.5 -7.5" transform="rotate(0,399.5,309.5)"/><path d="M 392 317v 15h 7.5a 7.5 7.5, 0, 0, 0, 0 -15" transform="rotate(90,399.5,324.5)"/><rect x="392" y="362" width="15" height="15" transform="rotate(0,399.5,369.5)"/><circle cx="399.5" cy="399.5" r="7.5" transform="rotate(0,399.5,399.5)"/><rect x="392" y="422" width="15" height="15" transform="rotate(0,399.5,429.5)"/><rect x="392" y="437" width="15" height="15" transform="rotate(0,399.5,444.5)"/><path d="M 392 452v 15h 7.5a 7.5 7.5, 0, 0, 0, 0 -15" transform="rotate(90,399.5,459.5)"/><path d="M 407 122v 15h 15v -7.5a 7.5 7.5, 0, 0, 0, -7.5 -7.5" transform="rotate(0,414.5,129.5)"/><rect x="407" y="137" width="15" height="15" transform="rotate(0,414.5,144.5)"/><rect x="407" y="152" width="15" height="15" transform="rotate(0,414.5,159.5)"/><rect x="407" y="167" width="15" height="15" transform="rotate(0,414.5,174.5)"/><rect x="407" y="182" width="15" height="15" transform="rotate(0,414.5,189.5)"/><path d="M 407 197v 15h 15v -7.5a 7.5 7.5, 0, 0, 0, -7.5 -7.5" transform="rotate(180,414.5,204.5)"/><path d="M 407 227v 15h 7.5a 7.5 7.5, 0, 0, 0, 0 -15" transform="rotate(-90,414.5,234.5)"/><rect x="407" y="242" width="15" height="15" transform="rotate(0,414.5,249.5)"/><path d="M 407 257v 15h 7.5a 7.5 7.5, 0, 0, 0, 0 -15" transform="rotate(90,414.5,264.5)"/><circle cx="414.5" cy="294.5" r="7.5" transform="rotate(0,414.5,294.5)"/><path d="M 407 347v 15h 7.5a 7.5 7.5, 0, 0, 0, 0 -15" transform="rotate(-90,414.5,354.5)"/><rect x="407" y="362" width="15" height="15" transform="rotate(0,414.5,369.5)"/><rect x="407" y="422" width="15" height="15" transform="rotate(0,414.5,429.5)"/><circle cx="414.5" cy="474.5" r="7.5" transform="rotate(0,414.5,474.5)"/><path d="M 422 197v 15h 7.5a 7.5 7.5, 0, 0, 0, 0 -15" transform="rotate(0,429.5,204.5)"/><circle cx="429.5" cy="339.5" r="7.5" transform="rotate(0,429.5,339.5)"/><rect x="422" y="362" width="15" height="15" transform="rotate(0,429.5,369.5)"/><rect x="422" y="377" width="15" height="15" transform="rotate(0,429.5,384.5)"/><rect x="422" y="392" width="15" height="15" transform="rotate(0,429.5,399.5)"/><rect x="422" y="407" width="15" height="15" transform="rotate(0,429.5,414.5)"/><rect x="422" y="422" width="15" height="15" transform="rotate(0,429.5,429.5)"/><path d="M 422 437v 15h 15v -7.5a 7.5 7.5, 0, 0, 0, -7.5 -7.5" transform="rotate(180,429.5,444.5)"/><path d="M 437 122v 15h 7.5a 7.5 7.5, 0, 0, 0, 0 -15" transform="rotate(-90,444.5,129.5)"/><rect x="437" y="137" width="15" height="15" transform="rotate(0,444.5,144.5)"/><path d="M 437 152v 15h 7.5a 7.5 7.5, 0, 0, 0, 0 -15" transform="rotate(90,444.5,159.5)"/><path d="M 437 182v 15h 7.5a 7.5 7.5, 0, 0, 0, 0 -15" transform="rotate(180,444.5,189.5)"/><path d="M 437 212v 15h 7.5a 7.5 7.5, 0, 0, 0, 0 -15" transform="rotate(-90,444.5,219.5)"/><path d="M 437 227v 15h 15v -7.5a 7.5 7.5, 0, 0, 0, -7.5 -7.5" transform="rotate(180,444.5,234.5)"/><circle cx="444.5" cy="264.5" r="7.5" transform="rotate(0,444.5,264.5)"/><path d="M 437 287v 15h 7.5a 7.5 7.5, 0, 0, 0, 0 -15" transform="rotate(-90,444.5,294.5)"/><path d="M 437 302v 15h 7.5a 7.5 7.5, 0, 0, 0, 0 -15" transform="rotate(90,444.5,309.5)"/><path d="M 437 347v 15h 15v -7.5a 7.5 7.5, 0, 0, 0, -7.5 -7.5" transform="rotate(-90,444.5,354.5)"/><path d="M 437 362v 15h 15v -7.5a 7.5 7.5, 0, 0, 0, -7.5 -7.5" transform="rotate(90,444.5,369.5)"/><path d="M 437 392v 15h 7.5a 7.5 7.5, 0, 0, 0, 0 -15" transform="rotate(0,444.5,399.5)"/><rect x="437" y="422" width="15" height="15" transform="rotate(0,444.5,429.5)"/><path d="M 437 437v 15h 15v -7.5a 7.5 7.5, 0, 0, 0, -7.5 -7.5" transform="rotate(90,444.5,444.5)"/><circle cx="444.5" cy="474.5" r="7.5" transform="rotate(0,444.5,474.5)"/><rect x="452" y="182" width="15" height="15" transform="rotate(0,459.5,189.5)"/><path d="M 452 197v 15h 15v -7.5a 7.5 7.5, 0, 0, 0, -7.5 -7.5" transform="rotate(180,459.5,204.5)"/><path d="M 452 227v 15h 7.5a 7.5 7.5, 0, 0, 0, 0 -15" transform="rotate(0,459.5,234.5)"/><path d="M 452 317v 15h 7.5a 7.5 7.5, 0, 0, 0, 0 -15" transform="rotate(180,459.5,324.5)"/><path d="M 452 347v 15h 7.5a 7.5 7.5, 0, 0, 0, 0 -15" transform="rotate(0,459.5,354.5)"/><path d="M 452 422v 15h 7.5a 7.5 7.5, 0, 0, 0, 0 -15" transform="rotate(0,459.5,429.5)"/><circle cx="459.5" cy="489.5" r="7.5" transform="rotate(0,459.5,489.5)"/><circle cx="474.5" cy="129.5" r="7.5" transform="rotate(0,474.5,129.5)"/><path d="M 467 152v 15h 7.5a 7.5 7.5, 0, 0, 0, 0 -15" transform="rotate(180,474.5,159.5)"/><path d="M 467 182v 15h 15v -7.5a 7.5 7.5, 0, 0, 0, -7.5 -7.5" transform="rotate(0,474.5,189.5)"/><rect x="467" y="197" width="15" height="15" transform="rotate(0,474.5,204.5)"/><path d="M 467 257v 15h 15v -7.5a 7.5 7.5, 0, 0, 0, -7.5 -7.5" transform="rotate(-90,474.5,264.5)"/><path d="M 467 272v 15h 15v -7.5a 7.5 7.5, 0, 0, 0, -7.5 -7.5" transform="rotate(180,474.5,279.5)"/><rect x="467" y="317" width="15" height="15" transform="rotate(0,474.5,324.5)"/><path d="M 467 332v 15h 7.5a 7.5 7.5, 0, 0, 0, 0 -15" transform="rotate(90,474.5,339.5)"/><path d="M 467 362v 15h 15v -7.5a 7.5 7.5, 0, 0, 0, -7.5 -7.5" transform="rotate(-90,474.5,369.5)"/><path d="M 467 377v 15h 7.5a 7.5 7.5, 0, 0, 0, 0 -15" transform="rotate(90,474.5,384.5)"/><path d="M 482 137v 15h 7.5a 7.5 7.5, 0, 0, 0, 0 -15" transform="rotate(-90,489.5,144.5)"/><path d="M 482 152v 15h 15v -7.5a 7.5 7.5, 0, 0, 0, -7.5 -7.5" transform="rotate(90,489.5,159.5)"/><path d="M 482 197v 15h 7.5a 7.5 7.5, 0, 0, 0, 0 -15" transform="rotate(0,489.5,204.5)"/><path d="M 482 257v 15h 15v -7.5a 7.5 7.5, 0, 0, 0, -7.5 -7.5" transform="rotate(0,489.5,264.5)"/><path d="M 482 272v 15h 15v -7.5a 7.5 7.5, 0, 0, 0, -7.5 -7.5" transform="rotate(90,489.5,279.5)"/><path d="M 482 317v 15h 7.5a 7.5 7.5, 0, 0, 0, 0 -15" transform="rotate(0,489.5,324.5)"/><path d="M 482 362v 15h 7.5a 7.5 7.5, 0, 0, 0, 0 -15" transform="rotate(0,489.5,369.5)"/><circle cx="489.5" cy="399.5" r="7.5" transform="rotate(0,489.5,399.5)"/><circle cx="489.5" cy="429.5" r="7.5" transform="rotate(0,489.5,429.5)"/><path d="M 482 452v 15h 7.5a 7.5 7.5, 0, 0, 0, 0 -15" transform="rotate(-90,489.5,459.5)"/><path d="M 482 467v 15h 7.5a 7.5 7.5, 0, 0, 0, 0 -15" transform="rotate(90,489.5,474.5)"/><path clip-rule="evenodd" d="M 2 39.5v 30a 37.5 37.5, 0, 0, 0, 37.5 37.5h 30a 37.5 37.5, 0, 0, 0, 37.5 -37.5v -30a 37.5 37.5, 0, 0, 0, -37.5 -37.5h -30a 37.5 37.5, 0, 0, 0, -37.5 37.5M 39.5 17h 30a 22.5 22.5, 0, 0, 1, 22.5 22.5v 30a 22.5 22.5, 0, 0, 1, -22.5 22.5h -30a 22.5 22.5, 0, 0, 1, -22.5 -22.5v -30a 22.5 22.5, 0, 0, 1, 22.5 -22.5" transform="rotate(0,54.5,54.5)"/><circle cx="54.5" cy="54.5" r="22.5" transform="rotate(0,54.5,54.5)"/><path clip-rule="evenodd" d="M 392 39.5v 30a 37.5 37.5, 0, 0, 0, 37.5 37.5h 30a 37.5 37.5, 0, 0, 0, 37.5 -37.5v -30a 37.5 37.5, 0, 0, 0, -37.5 -37.5h -30a 37.5 37.5, 0, 0, 0, -37.5 37.5M 429.5 17h 30a 22.5 22.5, 0, 0, 1, 22.5 22.5v 30a 22.5 22.5, 0, 0, 1, -22.5 22.5h -30a 22.5 22.5, 0, 0, 1, -22.5 -22.5v -30a 22.5 22.5, 0, 0, 1, 22.5 -22.5" transform="rotate(90,444.5,54.5)"/><circle cx="444.5" cy="54.5" r="22.5" transform="rotate(90,444.5,54.5)"/><path clip-rule="evenodd" d="M 2 429.5v 30a 37.5 37.5, 0, 0, 0, 37.5 37.5h 30a 37.5 37.5, 0, 0, 0, 37.5 -37.5v -30a 37.5 37.5, 0, 0, 0, -37.5 -37.5h -30a 37.5 37.5, 0, 0, 0, -37.5 37.5M 39.5 407h 30a 22.5 22.5, 0, 0, 1, 22.5 22.5v 30a 22.5 22.5, 0, 0, 1, -22.5 22.5h -30a 22.5 22.5, 0, 0, 1, -22.5 -22.5v -30a 22.5 22.5, 0, 0, 1, 22.5 -22.5" transform="rotate(-90,54.5,444.5)"/><circle cx="54.5" cy="444.5" r="22.5" transform="rotate(-90,54.5,444.5)"/></clipPath></defs><rect x="0" y="0" height="500" width="500" clip-path="url('#clip-path-dot-color')" fill="#000000"/></svg>