<?xml version="1.0" standalone="no"?>
<svg xmlns="http://www.w3.org/2000/svg" width="500" height="500"><defs><clipPath id="clip-path-dot-color"><path d="M 19 131v 14h 14v -7a 7 7, 0, 0, 0, -7 -7" transform="rotate(-90,26,138)"/><rect x="19" y="145" width="14" height="14" transform="rotate(0,26,152)"/><path d="M 19 159v 14h 7a 7 7, 0, 0, 0, 0 -14" transform="rotate(90,26,166)"/><circle cx="26" cy="208" r="7" transform="rotate(0,26,208)"/><path d="M 19 229v 14h 7a 7 7, 0, 0, 0, 0 -14" transform="rotate(180,26,236)"/><circle cx="26" cy="278" r="7" transform="rotate(0,26,278)"/><path d="M 33 131v 14h 14v -7a 7 7, 0, 0, 0, -7 -7" transform="rotate(0,40,138)"/><path d="M 33 145v 14h 14v -7a 7 7, 0, 0, 0, -7 -7" transform="rotate(90,40,152)"/><path d="M 33 173v 14h 14v -7a 7 7, 0, 0, 0, -7 -7" transform="rotate(-90,40,180)"/><path d="M 33 187v 14h 7a 7 7, 0, 0, 0, 0 -14" transform="rotate(90,40,194)"/><path d="M 33 215v 14h 7a 7 7, 0, 0, 0, 0 -14" transform="rotate(-90,40,222)"/><rect x="33" y="229" width="14" height="14" transform="rotate(0,40,236)"/><path d="M 33 257v 14h 7a 7 7, 0, 0, 0, 0 -14" transform="rotate(180,40,264)"/><path d="M 33 327v 14h 7a 7 7, 0, 0, 0, 0 -14" transform="rotate(180,40,334)"/><circle cx="40" cy="362" r="7" transform="rotate(0,40,362)"/><path d="M 47 173v 14h 7a 7 7, 0, 0, 0, 0 -14" transform="rotate(0,54,180)"/><rect x="47" y="229" width="14" height="14" transform="rotate(0,54,236)"/><rect x="47" y="243" width="14" height="14" transform="rotate(0,54,250)"/><rect x="47" y="257" width="14" height="14" transform="rotate(0,54,264)"/><path d="M 47 271v 14h 7a 7 7, 0, 0, 0, 0 -14" transform="rotate(90,54,278)"/><path d="M 47 299v 14h 7a 7 7, 0, 0, 0, 0 -14" transform="rotate(-90,54,306)"/><rect x="47" y="313" width="14" height="14" transform="rotate(0,54,320)"/><path d="M 47 327v 14h 14v -7a 7 7, 0, 0, 0, -7 -7" transform="rotate(90,54,334)"/><path d="M 61 159v 14h 7a 7 7, 0, 0, 0, 0 -14" transform="rotate(180,68,166)"/><rect x="61" y="229" width="14" height="14" transform="rotate(0,68,236)"/><rect x="61" y="313" width="14" height="14" transform="rotate(0,68,320)"/><path d="M 61 355v 14h 7a 7 7, 0, 0, 0, 0 -14" transform="rotate(180,68,362)"/><path d="M 75 145v 14h 14v -7a 7 7, 0, 0, 0, -7 -7" transform="rotate(-90,82,152)"/><rect x="75" y="159" width="14" height="14" transform="rotate(0,82,166)"/><path d="M 75 187v 14h 14v -7a 7 7, 0, 0, 0, -7 -7" transform="rotate(-90,82,194)"/><rect x="75" y="201" width="14" height="14" transform="rotate(0,82,208)"/><rect x="75" y="215" width="14" height="14" transform="rotate(0,82,222)"/><rect x="75" y="229" width="14" height="14" transform="rotate(0,82,236)"/><path d="M 75 257v 14h 7a 7 7, 0, 0, 0, 0 -14" transform="rotate(-90,82,264)"/><path d="M 75 271v 14h 14v -7a 7 7, 0, 0, 0, -7 -7" transform="rotate(180,82,278)"/><path d="M 75 313v 14h 7a 7 7, 0, 0, 0, 0 -14" transform="rotate(0,82,320)"/><path d="M 75 341v 14h 7a 7 7, 0, 0, 0, 0 -14" transform="rotate(-90,82,348)"/><path d="M 75 355v 14h 14v -7a 7 7, 0, 0, 0, -7 -7" transform="rotate(90,82,362)"/><path d="M 89 145v 14h 14v -7a 7 7, 0, 0, 0, -7 -7" transform="rotate(0,96,152)"/><rect x="89" y="159" width="14" height="14" transform="rotate(0,96,166)"/><rect x="89" y="187" width="14" height="14" transform="rotate(0,96,194)"/><path d="M 89 229v 14h 14v -7a 7 7, 0, 0, 0, -7 -7" transform="rotate(0,96,236)"/><path d="M 89 243v 14h 14v -7a 7 7, 0, 0, 0, -7 -7" transform="rotate(180,96,250)"/><rect x="89" y="271" width="14" height="14" transform="rotate(0,96,278)"/><path d="M 89 299v 14h 7a 7 7, 0, 0, 0, 0 -14" transform="rotate(180,96,306)"/><path d="M 89 327v 14h 7a 7 7, 0, 0, 0, 0 -14" transform="rotate(180,96,334)"/><circle cx="110" cy="138" r="7" transform="rotate(0,110,138)"/><rect x="103" y="159" width="14" height="14" transform="rotate(0,110,166)"/><path d="M 103 187v 14h 7a 7 7, 0, 0, 0, 0 -14" transform="rotate(0,110,194)"/><path d="M 103 215v 14h 7a 7 7, 0, 0, 0, 0 -14" transform="rotate(180,110,222)"/><path d="M 103 243v 14h 7a 7 7, 0, 0, 0, 0 -14" transform="rotate(0,110,250)"/><rect x="103" y="271" width="14" height="14" transform="rotate(0,110,278)"/><path d="M 103 299v 14h 7a 7 7, 0, 0, 0, 0 -14" transform="rotate(0,110,306)"/><rect x="103" y="327" width="14" height="14" transform="rotate(0,110,334)"/><path d="M 103 355v 14h 7a 7 7, 0, 0, 0, 0 -14" transform="rotate(180,110,362)"/><path d="M 117 145v 14h 14v -7a 7 7, 0, 0, 0, -7 -7" transform="rotate(-90,124,152)"/><path d="M 117 159v 14h 14v -7a 7 7, 0, 0, 0, -7 -7" transform="rotate(90,124,166)"/><path d="M 117 215v 14h 14v -7a 7 7, 0, 0, 0, -7 -7" transform="rotate(0,124,222)"/><path d="M 117 229v 14h 7a 7 7, 0, 0, 0, 0 -14" transform="rotate(90,124,236)"/><path d="M 117 271v 14h 7a 7 7, 0, 0, 0, 0 -14" transform="rotate(0,124,278)"/><rect x="117" y="327" width="14" height="14" transform="rotate(0,124,334)"/><rect x="117" y="341" width="14" height="14" transform="rotate(0,124,348)"/><path d="M 117 355v 14h 14v -7a 7 7, 0, 0, 0, -7 -7" transform="rotate(90,124,362)"/><path d="M 131 33v 14h 7a 7 7, 0, 0, 0, 0 -14" transform="rotate(180,138,40)"/><path d="M 131 103v 14h 7a 7 7, 0, 0, 0, 0 -14" transform="rotate(-90,138,110)"/><rect x="131" y="117" width="14" height="14" transform="rotate(0,138,124)"/><rect x="131" y="131" width="14" height="14" transform="rotate(0,138,138)"/><rect x="131" y="145" width="14" height="14" transform="rotate(0,138,152)"/><circle cx="138" cy="208" r="7" transform="rotate(0,138,208)"/><path d="M 131 243v 14h 14v -7a 7 7, 0, 0, 0, -7 -7" transform="rotate(-90,138,250)"/><path d="M 131 257v 14h 7a 7 7, 0, 0, 0, 0 -14" transform="rotate(90,138,264)"/><circle cx="138" cy="306" r="7" transform="rotate(0,138,306)"/><rect x="131" y="327" width="14" height="14" transform="rotate(0,138,334)"/><circle cx="138" cy="376" r="7" transform="rotate(0,138,376)"/><path d="M 131 453v 14h 7a 7 7, 0, 0, 0, 0 -14" transform="rotate(-90,138,460)"/><path d="M 131 467v 14h 7a 7 7, 0, 0, 0, 0 -14" transform="rotate(90,138,474)"/><rect x="145" y="33" width="14" height="14" transform="rotate(0,152,40)"/><path d="M 145 61v 14h 7a 7 7, 0, 0, 0, 0 -14" transform="rotate(180,152,68)"/><path d="M 145 89v 14h 7a 7 7, 0, 0, 0, 0 -14" transform="rotate(180,152,96)"/><rect x="145" y="145" width="14" height="14" transform="rotate(0,152,152)"/><path d="M 145 159v 14h 7a 7 7, 0, 0, 0, 0 -14" transform="rotate(90,152,166)"/><path d="M 145 187v 14h 7a 7 7, 0, 0, 0, 0 -14" transform="rotate(180,152,194)"/><rect x="145" y="243" width="14" height="14" transform="rotate(0,152,250)"/><circle cx="152" cy="292" r="7" transform="rotate(0,152,292)"/><rect x="145" y="327" width="14" height="14" transform="rotate(0,152,334)"/><path d="M 145 341v 14h 7a 7 7, 0, 0, 0, 0 -14" transform="rotate(90,152,348)"/><path d="M 145 411v 14h 14v -7a 7 7, 0, 0, 0, -7 -7" transform="rotate(-90,152,418)"/><rect x="145" y="425" width="14" height="14" transform="rotate(0,152,432)"/><path d="M 145 439v 14h 14v -7a 7 7, 0, 0, 0, -7 -7" transform="rotate(180,152,446)"/><path d="M 159 19v 14h 7a 7 7, 0, 0, 0, 0 -14" transform="rotate(-90,166,26)"/><path d="M 159 33v 14h 14v -7a 7 7, 0, 0, 0, -7 -7" transform="rotate(90,166,40)"/><path d="M 159 61v 14h 14v -7a 7 7, 0, 0, 0, -7 -7" transform="rotate(0,166,68)"/><rect x="159" y="75" width="14" height="14" transform="rotate(0,166,82)"/><rect x="159" y="89" width="14" height="14" transform="rotate(0,166,96)"/><path d="M 159 103v 14h 7a 7 7, 0, 0, 0, 0 -14" transform="rotate(90,166,110)"/><rect x="159" y="145" width="14" height="14" transform="rotate(0,166,152)"/><path d="M 159 187v 14h 7a 7 7, 0, 0, 0, 0 -14" transform="rotate(0,166,194)"/><path d="M 159 215v 14h 7a 7 7, 0, 0, 0, 0 -14" transform="rotate(180,166,222)"/><rect x="159" y="243" width="14" height="14" transform="rotate(0,166,250)"/><circle cx="166" cy="278" r="7" transform="rotate(0,166,278)"/><path d="M 159 299v 14h 7a 7 7, 0, 0, 0, 0 -14" transform="rotate(-90,166,306)"/><rect x="159" y="313" width="14" height="14" transform="rotate(0,166,320)"/><path d="M 159 327v 14h 14v -7a 7 7, 0, 0, 0, -7 -7" transform="rotate(90,166,334)"/><rect x="159" y="411" width="14" height="14" transform="rotate(0,166,418)"/><rect x="159" y="439" width="14" height="14" transform="rotate(0,166,446)"/><path d="M 159 453v 14h 7a 7 7, 0, 0, 0, 0 -14" transform="rotate(90,166,460)"/><path d="M 173 47v 14h 7a 7 7, 0, 0, 0, 0 -14" transform="rotate(180,180,54)"/><rect x="173" y="75" width="14" height="14" transform="rotate(0,180,82)"/><path d="M 173 117v 14h 7a 7 7, 0, 0, 0, 0 -14" transform="rotate(180,180,124)"/><path d="M 173 145v 14h 14v -7a 7 7, 0, 0, 0, -7 -7" transform="rotate(0,180,152)"/><path d="M 173 159v 14h 7a 7 7, 0, 0, 0, 0 -14" transform="rotate(90,180,166)"/><path d="M 173 201v 14h 14v -7a 7 7, 0, 0, 0, -7 -7" transform="rotate(-90,180,208)"/><rect x="173" y="215" width="14" height="14" transform="rotate(0,180,222)"/><path d="M 173 243v 14h 7a 7 7, 0, 0, 0, 0 -14" transform="rotate(0,180,250)"/><path d="M 173 341v 14h 14v -7a 7 7, 0, 0, 0, -7 -7" transform="rotate(-90,180,348)"/><rect x="173" y="355" width="14" height="14" transform="rotate(0,180,362)"/><path d="M 173 369v 14h 7a 7 7, 0, 0, 0, 0 -14" transform="rotate(90,180,376)"/><path d="M 173 397v 14h 14v -7a 7 7, 0, 0, 0, -7 -7" transform="rotate(-90,180,404)"/><rect x="173" y="411" width="14" height="14" transform="rotate(0,180,418)"/><rect x="173" y="425" width="14" height="14" transform="rotate(0,180,432)"/><path d="M 173 439v 14h 14v -7a 7 7, 0, 0, 0, -7 -7" transform="rotate(90,180,446)"/><circle cx="180" cy="474" r="7" transform="rotate(0,180,474)"/><path d="M 187 19v 14h 7a 7 7, 0, 0, 0, 0 -14" transform="rotate(-90,194,26)"/><rect x="187" y="33" width="14" height="14" transform="rotate(0,194,40)"/><rect x="187" y="47" width="14" height="14" transform="rotate(0,194,54)"/><rect x="187" y="61" width="14" height="14" transform="rotate(0,194,68)"/><rect x="187" y="75" width="14" height="14" transform="rotate(0,194,82)"/><rect x="187" y="89" width="14" height="14" transform="rotate(0,194,96)"/><rect x="187" y="103" width="14" height="14" transform="rotate(0,194,110)"/><path d="M 187 117v 14h 14v -7a 7 7, 0, 0, 0, -7 -7" transform="rotate(90,194,124)"/><path d="M 187 173v 14h 7a 7 7, 0, 0, 0, 0 -14" transform="rotate(180,194,180)"/><rect x="187" y="201" width="14" height="14" transform="rotate(0,194,208)"/><path d="M 187 215v 14h 14v -7a 7 7, 0, 0, 0, -7 -7" transform="rotate(90,194,222)"/><path d="M 187 257v 14h 14v -7a 7 7, 0, 0, 0, -7 -7" transform="rotate(-90,194,264)"/><path d="M 187 271v 14h 7a 7 7, 0, 0, 0, 0 -14" transform="rotate(90,194,278)"/><path d="M 187 299v 14h 7a 7 7, 0, 0, 0, 0 -14" transform="rotate(180,194,306)"/><rect x="187" y="341" width="14" height="14" transform="rotate(0,194,348)"/><path d="M 187 383v 14h 14v -7a 7 7, 0, 0, 0, -7 -7" transform="rotate(-90,194,390)"/><rect x="187" y="397" width="14" height="14" transform="rotate(0,194,404)"/><path d="M 201 33v 14h 7a 7 7, 0, 0, 0, 0 -14" transform="rotate(0,208,40)"/><path d="M 201 61v 14h 14v -7a 7 7, 0, 0, 0, -7 -7" transform="rotate(0,208,68)"/><path d="M 201 75v 14h 14v -7a 7 7, 0, 0, 0, -7 -7" transform="rotate(90,208,82)"/><path d="M 201 145v 14h 7a 7 7, 0, 0, 0, 0 -14" transform="rotate(180,208,152)"/><path d="M 201 173v 14h 14v -7a 7 7, 0, 0, 0, -7 -7" transform="rotate(0,208,180)"/><rect x="201" y="187" width="14" height="14" transform="rotate(0,208,194)"/><rect x="201" y="201" width="14" height="14" transform="rotate(0,208,208)"/><path d="M 201 229v 14h 14v -7a 7 7, 0, 0, 0, -7 -7" transform="rotate(-90,208,236)"/><rect x="201" y="243" width="14" height="14" transform="rotate(0,208,250)"/><rect x="201" y="257" width="14" height="14" transform="rotate(0,208,264)"/><path d="M 201 299v 14h 7a 7 7, 0, 0, 0, 0 -14" transform="rotate(0,208,306)"/><path d="M 201 341v 14h 7a 7 7, 0, 0, 0, 0 -14" transform="rotate(0,208,348)"/><rect x="201" y="383" width="14" height="14" transform="rotate(0,208,390)"/><path d="M 201 397v 14h 14v -7a 7 7, 0, 0, 0, -7 -7" transform="rotate(90,208,404)"/><path d="M 201 453v 14h 14v -7a 7 7, 0, 0, 0, -7 -7" transform="rotate(-90,208,460)"/><path d="M 201 467v 14h 7a 7 7, 0, 0, 0, 0 -14" transform="rotate(90,208,474)"/><path d="M 215 19v 14h 7a 7 7, 0, 0, 0, 0 -14" transform="rotate(180,222,26)"/><path d="M 215 89v 14h 7a 7 7, 0, 0, 0, 0 -14" transform="rotate(-90,222,96)"/><rect x="215" y="103" width="14" height="14" transform="rotate(0,222,110)"/><rect x="215" y="117" width="14" height="14" transform="rotate(0,222,124)"/><rect x="215" y="131" width="14" height="14" transform="rotate(0,222,138)"/><rect x="215" y="145" width="14" height="14" transform="rotate(0,222,152)"/><path d="M 215 201v 14h 7a 7 7, 0, 0, 0, 0 -14" transform="rotate(0,222,208)"/><path d="M 215 229v 14h 14v -7a 7 7, 0, 0, 0, -7 -7" transform="rotate(0,222,236)"/><rect x="215" y="243" width="14" height="14" transform="rotate(0,222,250)"/><rect x="215" y="257" width="14" height="14" transform="rotate(0,222,264)"/><rect x="215" y="271" width="14" height="14" transform="rotate(0,222,278)"/><path d="M 215 285v 14h 14v -7a 7 7, 0, 0, 0, -7 -7" transform="rotate(180,222,292)"/><path d="M 215 313v 14h 7a 7 7, 0, 0, 0, 0 -14" transform="rotate(-90,222,320)"/><path d="M 215 327v 14h 14v -7a 7 7, 0, 0, 0, -7 -7" transform="rotate(180,222,334)"/><path d="M 215 369v 14h 14v -7a 7 7, 0, 0, 0, -7 -7" transform="rotate(-90,222,376)"/><path d="M 215 383v 14h 14v -7a 7 7, 0, 0, 0, -7 -7" transform="rotate(90,222,390)"/><path d="M 215 425v 14h 14v -7a 7 7, 0, 0, 0, -7 -7" transform="rotate(-90,222,432)"/><rect x="215" y="439" width="14" height="14" transform="rotate(0,222,446)"/><path d="M 215 453v 14h 14v -7a 7 7, 0, 0, 0, -7 -7" transform="rotate(90,222,460)"/><path d="M 229 19v 14h 14v -7a 7 7, 0, 0, 0, -7 -7" transform="rotate(0,236,26)"/><rect x="229" y="33" width="14" height="14" transform="rotate(0,236,40)"/><rect x="229" y="47" width="14" height="14" transform="rotate(0,236,54)"/><path d="M 229 61v 14h 14v -7a 7 7, 0, 0, 0, -7 -7" transform="rotate(180,236,68)"/><path d="M 229 117v 14h 7a 7 7, 0, 0, 0, 0 -14" transform="rotate(0,236,124)"/><rect x="229" y="145" width="14" height="14" transform="rotate(0,236,152)"/><rect x="229" y="159" width="14" height="14" transform="rotate(0,236,166)"/><rect x="229" y="173" width="14" height="14" transform="rotate(0,236,180)"/><path d="M 229 187v 14h 7a 7 7, 0, 0, 0, 0 -14" transform="rotate(90,236,194)"/><path d="M 229 257v 14h 7a 7 7, 0, 0, 0, 0 -14" transform="rotate(0,236,264)"/><rect x="229" y="285" width="14" height="14" transform="rotate(0,236,292)"/><rect x="229" y="327" width="14" height="14" transform="rotate(0,236,334)"/><rect x="229" y="341" width="14" height="14" transform="rotate(0,236,348)"/><rect x="229" y="355" width="14" height="14" transform="rotate(0,236,362)"/><rect x="229" y="369" width="14" height="14" transform="rotate(0,236,376)"/><path d="M 229 397v 14h 14v -7a 7 7, 0, 0, 0, -7 -7" transform="rotate(-90,236,404)"/><rect x="229" y="411" width="14" height="14" transform="rotate(0,236,418)"/><rect x="229" y="425" width="14" height="14" transform="rotate(0,236,432)"/><path d="M 229 439v 14h 14v -7a 7 7, 0, 0, 0, -7 -7" transform="rotate(90,236,446)"/><path d="M 229 467v 14h 7a 7 7, 0, 0, 0, 0 -14" transform="rotate(180,236,474)"/><path d="M 243 33v 14h 7a 7 7, 0, 0, 0, 0 -14" transform="rotate(0,250,40)"/><rect x="243" y="61" width="14" height="14" transform="rotate(0,250,68)"/><circle cx="250" cy="110" r="7" transform="rotate(0,250,110)"/><rect x="243" y="145" width="14" height="14" transform="rotate(0,250,152)"/><path d="M 243 173v 14h 7a 7 7, 0, 0, 0, 0 -14" transform="rotate(0,250,180)"/><path d="M 243 229v 14h 7a 7 7, 0, 0, 0, 0 -14" transform="rotate(-90,250,236)"/><path d="M 243 243v 14h 14v -7a 7 7, 0, 0, 0, -7 -7" transform="rotate(180,250,250)"/><rect x="243" y="285" width="14" height="14" transform="rotate(0,250,292)"/><path d="M 243 327v 14h 7a 7 7, 0, 0, 0, 0 -14" transform="rotate(0,250,334)"/><rect x="243" y="369" width="14" height="14" transform="rotate(0,250,376)"/><path d="M 243 397v 14h 14v -7a 7 7, 0, 0, 0, -7 -7" transform="rotate(0,250,404)"/><path d="M 243 411v 14h 14v -7a 7 7, 0, 0, 0, -7 -7" transform="rotate(90,250,418)"/><rect x="243" y="467" width="14" height="14" transform="rotate(0,250,474)"/><path d="M 257 47v 14h 14v -7a 7 7, 0, 0, 0, -7 -7" transform="rotate(-90,264,54)"/><path d="M 257 61v 14h 14v -7a 7 7, 0, 0, 0, -7 -7" transform="rotate(90,264,68)"/><path d="M 257 131v 14h 14v -7a 7 7, 0, 0, 0, -7 -7" transform="rotate(-90,264,138)"/><rect x="257" y="145" width="14" height="14" transform="rotate(0,264,152)"/><path d="M 257 159v 14h 7a 7 7, 0, 0, 0, 0 -14" transform="rotate(90,264,166)"/><path d="M 257 187v 14h 7a 7 7, 0, 0, 0, 0 -14" transform="rotate(180,264,194)"/><circle cx="264" cy="222" r="7" transform="rotate(0,264,222)"/><rect x="257" y="243" width="14" height="14" transform="rotate(0,264,250)"/><path d="M 257 271v 14h 14v -7a 7 7, 0, 0, 0, -7 -7" transform="rotate(-90,264,278)"/><rect x="257" y="285" width="14" height="14" transform="rotate(0,264,292)"/><rect x="257" y="299" width="14" height="14" transform="rotate(0,264,306)"/><path d="M 257 313v 14h 7a 7 7, 0, 0, 0, 0 -14" transform="rotate(90,264,320)"/><path d="M 257 341v 14h 7a 7 7, 0, 0, 0, 0 -14" transform="rotate(180,264,348)"/><path d="M 257 369v 14h 14v -7a 7 7, 0, 0, 0, -7 -7" transform="rotate(0,264,376)"/><path d="M 257 383v 14h 7a 7 7, 0, 0, 0, 0 -14" transform="rotate(90,264,390)"/><path d="M 257 425v 14h 14v -7a 7 7, 0, 0, 0, -7 -7" transform="rotate(-90,264,432)"/><path d="M 257 439v 14h 14v -7a 7 7, 0, 0, 0, -7 -7" transform="rotate(180,264,446)"/><rect x="257" y="467" width="14" height="14" transform="rotate(0,264,474)"/><path d="M 271 19v 14h 7a 7 7, 0, 0, 0, 0 -14" transform="rotate(-90,278,26)"/><rect x="271" y="33" width="14" height="14" transform="rotate(0,278,40)"/><path d="M 271 47v 14h 14v -7a 7 7, 0, 0, 0, -7 -7" transform="rotate(90,278,54)"/><path d="M 271 75v 14h 7a 7 7, 0, 0, 0, 0 -14" transform="rotate(180,278,82)"/><path d="M 271 103v 14h 7a 7 7, 0, 0, 0, 0 -14" transform="rotate(-90,278,110)"/><rect x="271" y="117" width="14" height="14" transform="rotate(0,278,124)"/><rect x="271" y="131" width="14" height="14" transform="rotate(0,278,138)"/><rect x="271" y="145" width="14" height="14" transform="rotate(0,278,152)"/><path d="M 271 173v 14h 14v -7a 7 7, 0, 0, 0, -7 -7" transform="rotate(-90,278,180)"/><rect x="271" y="187" width="14" height="14" transform="rotate(0,278,194)"/><path d="M 271 201v 14h 14v -7a 7 7, 0, 0, 0, -7 -7" transform="rotate(180,278,208)"/><path d="M 271 229v 14h 7a 7 7, 0, 0, 0, 0 -14" transform="rotate(-90,278,236)"/><rect x="271" y="243" width="14" height="14" transform="rotate(0,278,250)"/><rect x="271" y="271" width="14" height="14" transform="rotate(0,278,278)"/><rect x="271" y="285" width="14" height="14" transform="rotate(0,278,292)"/><path d="M 271 341v 14h 7a 7 7, 0, 0, 0, 0 -14" transform="rotate(0,278,348)"/><circle cx="278" cy="404" r="7" transform="rotate(0,278,404)"/><rect x="271" y="425" width="14" height="14" transform="rotate(0,278,432)"/><rect x="271" y="439" width="14" height="14" transform="rotate(0,278,446)"/><rect x="271" y="453" width="14" height="14" transform="rotate(0,278,460)"/><rect x="271" y="467" width="14" height="14" transform="rotate(0,278,474)"/><rect x="285" y="33" width="14" height="14" transform="rotate(0,292,40)"/><path d="M 285 75v 14h 7a 7 7, 0, 0, 0, 0 -14" transform="rotate(0,292,82)"/><path d="M 285 117v 14h 14v -7a 7 7, 0, 0, 0, -7 -7" transform="rotate(0,292,124)"/><rect x="285" y="131" width="14" height="14" transform="rotate(0,292,138)"/><rect x="285" y="145" width="14" height="14" transform="rotate(0,292,152)"/><path d="M 285 173v 14h 14v -7a 7 7, 0, 0, 0, -7 -7" transform="rotate(0,292,180)"/><rect x="285" y="187" width="14" height="14" transform="rotate(0,292,194)"/><rect x="285" y="201" width="14" height="14" transform="rotate(0,292,208)"/><path d="M 285 215v 14h 7a 7 7, 0, 0, 0, 0 -14" transform="rotate(90,292,222)"/><path d="M 285 243v 14h 14v -7a 7 7, 0, 0, 0, -7 -7" transform="rotate(0,292,250)"/><rect x="285" y="257" width="14" height="14" transform="rotate(0,292,264)"/><rect x="285" y="271" width="14" height="14" transform="rotate(0,292,278)"/><rect x="285" y="285" width="14" height="14" transform="rotate(0,292,292)"/><path d="M 285 299v 14h 7a 7 7, 0, 0, 0, 0 -14" transform="rotate(90,292,306)"/><path d="M 285 327v 14h 7a 7 7, 0, 0, 0, 0 -14" transform="rotate(180,292,334)"/><path d="M 285 369v 14h 7a 7 7, 0, 0, 0, 0 -14" transform="rotate(180,292,376)"/><path d="M 285 411v 14h 14v -7a 7 7, 0, 0, 0, -7 -7" transform="rotate(-90,292,418)"/><rect x="285" y="425" width="14" height="14" transform="rotate(0,292,432)"/><path d="M 285 439v 14h 14v -7a 7 7, 0, 0, 0, -7 -7" transform="rotate(90,292,446)"/><path d="M 285 467v 14h 7a 7 7, 0, 0, 0, 0 -14" transform="rotate(0,292,474)"/><path d="M 299 33v 14h 7a 7 7, 0, 0, 0, 0 -14" transform="rotate(0,306,40)"/><circle cx="306" cy="68" r="7" transform="rotate(0,306,68)"/><circle cx="306" cy="110" r="7" transform="rotate(0,306,110)"/><path d="M 299 131v 14h 14v -7a 7 7, 0, 0, 0, -7 -7" transform="rotate(0,306,138)"/><rect x="299" y="145" width="14" height="14" transform="rotate(0,306,152)"/><rect x="299" y="257" width="14" height="14" transform="rotate(0,306,264)"/><rect x="299" y="327" width="14" height="14" transform="rotate(0,306,334)"/><path d="M 299 341v 14h 14v -7a 7 7, 0, 0, 0, -7 -7" transform="rotate(180,306,348)"/><path d="M 299 369v 14h 7a 7 7, 0, 0, 0, 0 -14" transform="rotate(0,306,376)"/><path d="M 299 397v 14h 14v -7a 7 7, 0, 0, 0, -7 -7" transform="rotate(-90,306,404)"/><rect x="299" y="411" width="14" height="14" transform="rotate(0,306,418)"/><rect x="299" y="425" width="14" height="14" transform="rotate(0,306,432)"/><path d="M 313 19v 14h 7a 7 7, 0, 0, 0, 0 -14" transform="rotate(180,320,26)"/><path d="M 313 75v 14h 7a 7 7, 0, 0, 0, 0 -14" transform="rotate(180,320,82)"/><circle cx="320" cy="124" r="7" transform="rotate(0,320,124)"/><rect x="313" y="145" width="14" height="14" transform="rotate(0,320,152)"/><path d="M 313 159v 14h 14v -7a 7 7, 0, 0, 0, -7 -7" transform="rotate(180,320,166)"/><circle cx="320" cy="208" r="7" transform="rotate(0,320,208)"/><path d="M 313 229v 14h 7a 7 7, 0, 0, 0, 0 -14" transform="rotate(-90,320,236)"/><rect x="313" y="243" width="14" height="14" transform="rotate(0,320,250)"/><rect x="313" y="257" width="14" height="14" transform="rotate(0,320,264)"/><path d="M 313 299v 14h 14v -7a 7 7, 0, 0, 0, -7 -7" transform="rotate(-90,320,306)"/><rect x="313" y="313" width="14" height="14" transform="rotate(0,320,320)"/><rect x="313" y="327" width="14" height="14" transform="rotate(0,320,334)"/><path d="M 313 341v 14h 14v -7a 7 7, 0, 0, 0, -7 -7" transform="rotate(90,320,348)"/><path d="M 313 397v 14h 14v -7a 7 7, 0, 0, 0, -7 -7" transform="rotate(0,320,404)"/><rect x="313" y="411" width="14" height="14" transform="rotate(0,320,418)"/><rect x="313" y="425" width="14" height="14" transform="rotate(0,320,432)"/><rect x="327" y="19" width="14" height="14" transform="rotate(0,334,26)"/><path d="M 327 47v 14h 14v -7a 7 7, 0, 0, 0, -7 -7" transform="rotate(-90,334,54)"/><rect x="327" y="61" width="14" height="14" transform="rotate(0,334,68)"/><rect x="327" y="75" width="14" height="14" transform="rotate(0,334,82)"/><rect x="327" y="89" width="14" height="14" transform="rotate(0,334,96)"/><path d="M 327 103v 14h 7a 7 7, 0, 0, 0, 0 -14" transform="rotate(90,334,110)"/><path d="M 327 131v 14h 14v -7a 7 7, 0, 0, 0, -7 -7" transform="rotate(-90,334,138)"/><rect x="327" y="145" width="14" height="14" transform="rotate(0,334,152)"/><rect x="327" y="159" width="14" height="14" transform="rotate(0,334,166)"/><path d="M 327 187v 14h 7a 7 7, 0, 0, 0, 0 -14" transform="rotate(180,334,194)"/><path d="M 327 257v 14h 14v -7a 7 7, 0, 0, 0, -7 -7" transform="rotate(0,334,264)"/><path d="M 327 271v 14h 7a 7 7, 0, 0, 0, 0 -14" transform="rotate(90,334,278)"/><rect x="327" y="299" width="14" height="14" transform="rotate(0,334,306)"/><path d="M 327 313v 14h 14v -7a 7 7, 0, 0, 0, -7 -7" transform="rotate(90,334,320)"/><circle cx="334" cy="376" r="7" transform="rotate(0,334,376)"/><path d="M 327 411v 14h 14v -7a 7 7, 0, 0, 0, -7 -7" transform="rotate(0,334,418)"/><path d="M 327 425v 14h 14v -7a 7 7, 0, 0, 0, -7 -7" transform="rotate(90,334,432)"/><circle cx="334" cy="460" r="7" transform="rotate(0,334,460)"/><rect x="341" y="19" width="14" height="14" transform="rotate(0,348,26)"/><path d="M 341 47v 14h 14v -7a 7 7, 0, 0, 0, -7 -7" transform="rotate(0,348,54)"/><rect x="341" y="61" width="14" height="14" transform="rotate(0,348,68)"/><rect x="341" y="75" width="14" height="14" transform="rotate(0,348,82)"/><rect x="341" y="89" width="14" height="14" transform="rotate(0,348,96)"/><path d="M 341 117v 14h 7a 7 7, 0, 0, 0, 0 -14" transform="rotate(-90,348,124)"/><rect x="341" y="131" width="14" height="14" transform="rotate(0,348,138)"/><rect x="341" y="145" width="14" height="14" transform="rotate(0,348,152)"/><rect x="341" y="159" width="14" height="14" transform="rotate(0,348,166)"/><rect x="341" y="173" width="14" height="14" transform="rotate(0,348,180)"/><rect x="341" y="187" width="14" height="14" transform="rotate(0,348,194)"/><path d="M 341 215v 14h 14v -7a 7 7, 0, 0, 0, -7 -7" transform="rotate(-90,348,222)"/><rect x="341" y="229" width="14" height="14" transform="rotate(0,348,236)"/><path d="M 341 243v 14h 14v -7a 7 7, 0, 0, 0, -7 -7" transform="rotate(180,348,250)"/><path d="M 341 285v 14h 7a 7 7, 0, 0, 0, 0 -14" transform="rotate(-90,348,292)"/><rect x="341" y="299" width="14" height="14" transform="rotate(0,348,306)"/><circle cx="348" cy="334" r="7" transform="rotate(0,348,334)"/><circle cx="348" cy="446" r="7" transform="rotate(0,348,446)"/><circle cx="348" cy="474" r="7" transform="rotate(0,348,474)"/><path d="M 355 19v 14h 14v -7a 7 7, 0, 0, 0, -7 -7" transform="rotate(0,362,26)"/><path d="M 355 33v 14h 7a 7 7, 0, 0, 0, 0 -14" transform="rotate(90,362,40)"/><path d="M 355 75v 14h 14v -7a 7 7, 0, 0, 0, -7 -7" transform="rotate(0,362,82)"/><rect x="355" y="89" width="14" height="14" transform="rotate(0,362,96)"/><path d="M 355 103v 14h 7a 7 7, 0, 0, 0, 0 -14" transform="rotate(90,362,110)"/><rect x="355" y="145" width="14" height="14" transform="rotate(0,362,152)"/><rect x="355" y="159" width="14" height="14" transform="rotate(0,362,166)"/><rect x="355" y="173" width="14" height="14" transform="rotate(0,362,180)"/><path d="M 355 187v 14h 14v -7a 7 7, 0, 0, 0, -7 -7" transform="rotate(90,362,194)"/><path d="M 355 215v 14h 7a 7 7, 0, 0, 0, 0 -14" transform="rotate(0,362,222)"/><rect x="355" y="243" width="14" height="14" transform="rotate(0,362,250)"/><rect x="355" y="257" width="14" height="14" transform="rotate(0,362,264)"/><path d="M 355 271v 14h 7a 7 7, 0, 0, 0, 0 -14" transform="rotate(90,362,278)"/><rect x="355" y="299" width="14" height="14" transform="rotate(0,362,306)"/><path d="M 355 341v 14h 7a 7 7, 0, 0, 0, 0 -14" transform="rotate(-90,362,348)"/><rect x="355" y="355" width="14" height="14" transform="rotate(0,362,362)"/><rect x="355" y="369" width="14" height="14" transform="rotate(0,362,376)"/><rect x="355" y="383" width="14" height="14" transform="rotate(0,362,390)"/><rect x="355" y="397" width="14" height="14" transform="rotate(0,362,404)"/><rect x="355" y="411" width="14" height="14" transform="rotate(0,362,418)"/><path d="M 355 425v 14h 7a 7 7, 0, 0, 0, 0 -14" transform="rotate(90,362,432)"/><circle cx="362" cy="460" r="7" transform="rotate(0,362,460)"/><path d="M 369 131v 14h 14v -7a 7 7, 0, 0, 0, -7 -7" transform="rotate(-90,376,138)"/><rect x="369" y="145" width="14" height="14" transform="rotate(0,376,152)"/><path d="M 369 159v 14h 14v -7a 7 7, 0, 0, 0, -7 -7" transform="rotate(90,376,166)"/><circle cx="376" cy="208" r="7" transform="rotate(0,376,208)"/><path d="M 369 229v 14h 14v -7a 7 7, 0, 0, 0, -7 -7" transform="rotate(-90,376,236)"/><rect x="369" y="243" width="14" height="14" transform="rotate(0,376,250)"/><path d="M 369 257v 14h 14v -7a 7 7, 0, 0, 0, -7 -7" transform="rotate(90,376,264)"/><path d="M 369 285v 14h 7a 7 7, 0, 0, 0, 0 -14" transform="rotate(-90,376,292)"/><path d="M 369 299v 14h 14v -7a 7 7, 0, 0, 0, -7 -7" transform="rotate(90,376,306)"/><rect x="369" y="355" width="14" height="14" transform="rotate(0,376,362)"/><rect x="369" y="411" width="14" height="14" transform="rotate(0,376,418)"/><path d="M 369 439v 14h 7a 7 7, 0, 0, 0, 0 -14" transform="rotate(180,376,446)"/><circle cx="376" cy="474" r="7" transform="rotate(0,376,474)"/><path d="M 383 131v 14h 14v -7a 7 7, 0, 0, 0, -7 -7" transform="rotate(0,390,138)"/><path d="M 383 145v 14h 14v -7a 7 7, 0, 0, 0, -7 -7" transform="rotate(90,390,152)"/><path d="M 383 173v 14h 14v -7a 7 7, 0, 0, 0, -7 -7" transform="rotate(-90,390,180)"/><path d="M 383 187v 14h 7a 7 7, 0, 0, 0, 0 -14" transform="rotate(90,390,194)"/><path d="M 383 229v 14h 7a 7 7, 0, 0, 0, 0 -14" transform="rotate(0,390,236)"/><path d="M 383 341v 14h 7a 7 7, 0, 0, 0, 0 -14" transform="rotate(-90,390,348)"/><rect x="383" y="355" width="14" height="14" transform="rotate(0,390,362)"/><circle cx="390" cy="390" r="7" transform="rotate(0,390,390)"/><rect x="383" y="411" width="14" height="14" transform="rotate(0,390,418)"/><rect x="383" y="439" width="14" height="14" transform="rotate(0,390,446)"/><path d="M 383 453v 14h 14v -7a 7 7, 0, 0, 0, -7 -7" transform="rotate(180,390,460)"/><path d="M 397 173v 14h 7a 7 7, 0, 0, 0, 0 -14" transform="rotate(0,404,180)"/><circle cx="404" cy="222" r="7" transform="rotate(0,404,222)"/><path d="M 397 243v 14h 14v -7a 7 7, 0, 0, 0, -7 -7" transform="rotate(-90,404,250)"/><path d="M 397 257v 14h 14v -7a 7 7, 0, 0, 0, -7 -7" transform="rotate(180,404,264)"/><path d="M 397 285v 14h 7a 7 7, 0, 0, 0, 0 -14" transform="rotate(180,404,292)"/><rect x="397" y="355" width="14" height="14" transform="rotate(0,404,362)"/><rect x="397" y="411" width="14" height="14" transform="rotate(0,404,418)"/><rect x="397" y="425" width="14" height="14" transform="rotate(0,404,432)"/><rect x="397" y="439" width="14" height="14" transform="rotate(0,404,446)"/><rect x="397" y="453" width="14" height="14" transform="rotate(0,404,460)"/><path d="M 397 467v 14h 7a 7 7, 0, 0, 0, 0 -14" transform="rotate(90,404,474)"/><path d="M 411 145v 14h 14v -7a 7 7, 0, 0, 0, -7 -7" transform="rotate(-90,418,152)"/><path d="M 411 159v 14h 7a 7 7, 0, 0, 0, 0 -14" transform="rotate(90,418,166)"/><path d="M 411 187v 14h 7a 7 7, 0, 0, 0, 0 -14" transform="rotate(-90,418,194)"/><path d="M 411 201v 14h 14v -7a 7 7, 0, 0, 0, -7 -7" transform="rotate(180,418,208)"/><rect x="411" y="243" width="14" height="14" transform="rotate(0,418,250)"/><rect x="411" y="257" width="14" height="14" transform="rotate(0,418,264)"/><rect x="411" y="271" width="14" height="14" transform="rotate(0,418,278)"/><rect x="411" y="285" width="14" height="14" transform="rotate(0,418,292)"/><path d="M 411 327v 14h 7a 7 7, 0, 0, 0, 0 -14" transform="rotate(180,418,334)"/><rect x="411" y="355" width="14" height="14" transform="rotate(0,418,362)"/><rect x="411" y="369" width="14" height="14" transform="rotate(0,418,376)"/><rect x="411" y="383" width="14" height="14" transform="rotate(0,418,390)"/><rect x="411" y="397" width="14" height="14" transform="rotate(0,418,404)"/><rect x="411" y="411" width="14" height="14" transform="rotate(0,418,418)"/><rect x="411" y="425" width="14" height="14" transform="rotate(0,418,432)"/><path d="M 411 453v 14h 7a 7 7, 0, 0, 0, 0 -14" transform="rotate(0,418,460)"/><path d="M 425 145v 14h 7a 7 7, 0, 0, 0, 0 -14" transform="rotate(0,432,152)"/><rect x="425" y="201" width="14" height="14" transform="rotate(0,432,208)"/><path d="M 425 229v 14h 14v -7a 7 7, 0, 0, 0, -7 -7" transform="rotate(-90,432,236)"/><path d="M 425 243v 14h 14v -7a 7 7, 0, 0, 0, -7 -7" transform="rotate(90,432,250)"/><rect x="425" y="285" width="14" height="14" transform="rotate(0,432,292)"/><path d="M 425 313v 14h 7a 7 7, 0, 0, 0, 0 -14" transform="rotate(-90,432,320)"/><rect x="425" y="327" width="14" height="14" transform="rotate(0,432,334)"/><rect x="425" y="341" width="14" height="14" transform="rotate(0,432,348)"/><rect x="425" y="355" width="14" height="14" transform="rotate(0,432,362)"/><path d="M 425 369v 14h 14v -7a 7 7, 0, 0, 0, -7 -7" transform="rotate(90,432,376)"/><rect x="425" y="397" width="14" height="14" transform="rotate(0,432,404)"/><rect x="425" y="411" width="14" height="14" transform="rotate(0,432,418)"/><path d="M 425 425v 14h 14v -7a 7 7, 0, 0, 0, -7 -7" transform="rotate(90,432,432)"/><path d="M 425 467v 14h 7a 7 7, 0, 0, 0, 0 -14" transform="rotate(180,432,474)"/><path d="M 439 159v 14h 7a 7 7, 0, 0, 0, 0 -14" transform="rotate(180,446,166)"/><path d="M 439 201v 14h 14v -7a 7 7, 0, 0, 0, -7 -7" transform="rotate(0,446,208)"/><rect x="439" y="215" width="14" height="14" transform="rotate(0,446,222)"/><path d="M 439 229v 14h 14v -7a 7 7, 0, 0, 0, -7 -7" transform="rotate(90,446,236)"/><path d="M 439 271v 14h 14v -7a 7 7, 0, 0, 0, -7 -7" transform="rotate(-90,446,278)"/><rect x="439" y="285" width="14" height="14" transform="rotate(0,446,292)"/><path d="M 439 355v 14h 7a 7 7, 0, 0, 0, 0 -14" transform="rotate(0,446,362)"/><rect x="439" y="397" width="14" height="14" transform="rotate(0,446,404)"/><rect x="439" y="411" width="14" height="14" transform="rotate(0,446,418)"/><path d="M 439 453v 14h 7a 7 7, 0, 0, 0, 0 -14" transform="rotate(-90,446,460)"/><path d="M 439 467v 14h 14v -7a 7 7, 0, 0, 0, -7 -7" transform="rotate(90,446,474)"/><path d="M 453 131v 14h 7a 7 7, 0, 0, 0, 0 -14" transform="rotate(-90,460,138)"/><rect x="453" y="145" width="14" height="14" transform="rotate(0,460,152)"/><rect x="453" y="159" width="14" height="14" transform="rotate(0,460,166)"/><rect x="453" y="173" width="14" height="14" transform="rotate(0,460,180)"/><path d="M 453 187v 14h 7a 7 7, 0, 0, 0, 0 -14" transform="rotate(90,460,194)"/><path d="M 453 215v 14h 7a 7 7, 0, 0, 0, 0 -14" transform="rotate(0,460,222)"/><path d="M 453 243v 14h 14v -7a 7 7, 0, 0, 0, -7 -7" transform="rotate(-90,460,250)"/><rect x="453" y="257" width="14" height="14" transform="rotate(0,460,264)"/><rect x="453" y="271" width="14" height="14" transform="rotate(0,460,278)"/><path d="M 453 285v 14h 14v -7a 7 7, 0, 0, 0, -7 -7" transform="rotate(90,460,292)"/><circle cx="460" cy="334" r="7" transform="rotate(0,460,334)"/><path d="M 453 369v 14h 7a 7 7, 0, 0, 0, 0 -14" transform="rotate(-90,460,376)"/><rect x="453" y="383" width="14" height="14" transform="rotate(0,460,390)"/><rect x="453" y="397" width="14" height="14" transform="rotate(0,460,404)"/><rect x="453" y="411" width="14" height="14" transform="rotate(0,460,418)"/><rect x="453" y="425" width="14" height="14" transform="rotate(0,460,432)"/><path d="M 453 439v 14h 7a 7 7, 0, 0, 0, 0 -14" transform="rotate(90,460,446)"/><path d="M 467 145v 14h 7a 7 7, 0, 0, 0, 0 -14" transform="rotate(0,474,152)"/><circle cx="474" cy="208" r="7" transform="rotate(0,474,208)"/><path d="M 467 229v 14h 7a 7 7, 0, 0, 0, 0 -14" transform="rotate(-90,474,236)"/><path d="M 467 243v 14h 14v -7a 7 7, 0, 0, 0, -7 -7" transform="rotate(90,474,250)"/><path d="M 467 341v 14h 7a 7 7, 0, 0, 0, 0 -14" transform="rotate(-90,474,348)"/><path d="M 467 355v 14h 7a 7 7, 0, 0, 0, 0 -14" transform="rotate(90,474,362)"/><path d="M 467 397v 14h 7a 7 7, 0, 0, 0, 0 -14" transform="rotate(0,474,404)"/><path d="M 467 425v 14h 7a 7 7, 0, 0, 0, 0 -14" transform="rotate(0,474,432)"/><circle cx="474" cy="460" r="7" transform="rotate(0,474,460)"/><path clip-rule="evenodd" d="M 19 54v 28a 35 35, 0, 0, 0, 35 35h 28a 35 35, 0, 0, 0, 35 -35v -28a 35 35, 0, 0, 0, -35 -35h -28a 35 35, 0, 0, 0, -35 35M 54 33h 28a 21 21, 0, 0, 1, 21 21v 28a 21 21, 0, 0, 1, -21 21h -28a 21 21, 0, 0, 1, -21 -21v -28a 21 21, 0, 0, 1, 21 -21" transform="rotate(0,68,68)"/><circle cx="68" cy="68" r="21" transform="rotate(0,68,68)"/><path clip-rule="evenodd" d="M 383 54v 28a 35 35, 0, 0, 0, 35 35h 28a 35 35, 0, 0, 0, 35 -35v -28a 35 35, 0, 0, 0, -35 -35h -28a 35 35, 0, 0, 0, -35 35M 418 33h 28a 21 21, 0, 0, 1, 21 21v 28a 21 21, 0, 0, 1, -21 21h -28a 21 21, 0, 0, 1, -21 -21v -28a 21 21, 0, 0, 1, 21 -21" transform="rotate(90,432,68)"/><circle cx="432" cy="68" r="21" transform="rotate(90,432,68)"/><path clip-rule="evenodd" d="M 19 418v 28a 35 35, 0, 0, 0, 35 35h 28a 35 35, 0, 0, 0, 35 -35v -28a 35 35, 0, 0, 0, -35 -35h -28a 35 35, 0, 0, 0, -35 35M 54 397h 28a 21 21, 0, 0, 1, 21 21v 28a 21 21, 0, 0, 1, -21 21h -28a 21 21, 0, 0, 1, -21 -21v -28a 21 21, 0, 0, 1, 21 -21" transform="rotate(-90,68,432)"/><circle cx="68" cy="432" r="21" transform="rotate(-90,68,432)"/></clipPath></defs><rect x="0" y="0" height="500" width="500" clip-path="url('#clip-path-background-color')" fill="#fff"/><rect x="0" y="0" height="500" width="500" clip-path="url('#clip-path-dot-color')" fill="#000000"/></svg>