<?xml version="1.0" encoding="utf-8" standalone="no"?>
<!DOCTYPE svg PUBLIC "-//W3C//DTD SVG 1.1//EN"
  "http://www.w3.org/Graphics/SVG/1.1/DTD/svg11.dtd">
<svg xmlns:xlink="http://www.w3.org/1999/xlink" width="576pt" height="576pt" viewBox="0 0 576 576" xmlns="http://www.w3.org/2000/svg" version="1.1">
 <metadata>
  <rdf:RDF xmlns:dc="http://purl.org/dc/elements/1.1/" xmlns:cc="http://creativecommons.org/ns#" xmlns:rdf="http://www.w3.org/1999/02/22-rdf-syntax-ns#">
   <cc:Work>
    <dc:type rdf:resource="http://purl.org/dc/dcmitype/StillImage"/>
    <dc:date>2025-06-18T12:22:36.735170</dc:date>
    <dc:format>image/svg+xml</dc:format>
    <dc:creator>
     <cc:Agent>
      <dc:title>Matplotlib v3.10.1, https://matplotlib.org/</dc:title>
     </cc:Agent>
    </dc:creator>
   </cc:Work>
  </rdf:RDF>
 </metadata>
 <defs>
  <style type="text/css">*{stroke-linejoin: round; stroke-linecap: butt}</style>
 </defs>
 <g id="figure_1">
  <g id="patch_1">
   <path d="M 0 576 
L 576 576 
L 576 0 
L 0 0 
z
" style="fill: #ffffff"/>
  </g>
  <g id="axes_1">
   <g id="patch_2">
    <path d="M 0 576 
L 576 576 
L 576 0 
L 0 0 
z
" style="fill: #ffffff"/>
   </g>
   <g id="PathCollection_1">
    <defs>
     <path id="C0_0_05ad7edbe0" d="M 0 4.330127 
C 1.148363 4.330127 2.249847 3.873878 3.061862 3.061862 
C 3.873878 2.249847 4.330127 1.148363 4.330127 -0 
C 4.330127 -1.148363 3.873878 -2.249847 3.061862 -3.061862 
C 2.249847 -3.873878 1.148363 -4.330127 0 -4.330127 
C -1.148363 -4.330127 -2.249847 -3.873878 -3.061862 -3.061862 
C -3.873878 -2.249847 -4.330127 -1.148363 -4.330127 0 
C -4.330127 1.148363 -3.873878 2.249847 -3.061862 3.061862 
C -2.249847 3.873878 -1.148363 4.330127 0 4.330127 
z
"/>
    </defs>
    <g clip-path="url(#pac42d39563)">
     <use xlink:href="#C0_0_05ad7edbe0" x="344.80741" y="100.537365" style="fill: #00d3ff; stroke: #000000"/>
    </g>
    <g clip-path="url(#pac42d39563)">
     <use xlink:href="#C0_0_05ad7edbe0" x="424.848244" y="497.396942" style="fill: #8400ff; stroke: #000000"/>
    </g>
    <g clip-path="url(#pac42d39563)">
     <use xlink:href="#C0_0_05ad7edbe0" x="401.947277" y="282.16921" style="fill: #00ff2d; stroke: #000000"/>
    </g>
    <g clip-path="url(#pac42d39563)">
     <use xlink:href="#C0_0_05ad7edbe0" x="302.492252" y="167.735395" style="fill: #00ffe4; stroke: #000000"/>
    </g>
    <g clip-path="url(#pac42d39563)">
     <use xlink:href="#C0_0_05ad7edbe0" x="71.864679" y="408.185572" style="fill: #fcf500; stroke: #000000"/>
    </g>
    <g clip-path="url(#pac42d39563)">
     <use xlink:href="#C0_0_05ad7edbe0" x="523.320059" y="298.917365" style="fill: #49ff00; stroke: #000000"/>
    </g>
    <g clip-path="url(#pac42d39563)">
     <use xlink:href="#C0_0_05ad7edbe0" x="456.543217" y="295.100716" style="fill: #00ff1b; stroke: #000000"/>
    </g>
    <g clip-path="url(#pac42d39563)">
     <use xlink:href="#C0_0_05ad7edbe0" x="142.766647" y="389.483133" style="fill: #ff8e00; stroke: #000000"/>
    </g>
    <g clip-path="url(#pac42d39563)">
     <use xlink:href="#C0_0_05ad7edbe0" x="304.249537" y="126.962299" style="fill: #00dfff; stroke: #000000"/>
    </g>
    <g clip-path="url(#pac42d39563)">
     <use xlink:href="#C0_0_05ad7edbe0" x="359.306213" y="292.67844" style="fill: #ff00bd; stroke: #000000"/>
    </g>
    <g clip-path="url(#pac42d39563)">
     <use xlink:href="#C0_0_05ad7edbe0" x="324.348932" y="209.92299" style="fill: #00ff45; stroke: #000000"/>
    </g>
    <g clip-path="url(#pac42d39563)">
     <use xlink:href="#C0_0_05ad7edbe0" x="357.808828" y="510.778135" style="fill: #4900ff; stroke: #000000"/>
    </g>
    <g clip-path="url(#pac42d39563)">
     <use xlink:href="#C0_0_05ad7edbe0" x="361.172971" y="220.687025" style="fill: #00ff57; stroke: #000000"/>
    </g>
    <g clip-path="url(#pac42d39563)">
     <use xlink:href="#C0_0_05ad7edbe0" x="304.196199" y="538.611431" style="fill: #2b00ff; stroke: #000000"/>
    </g>
    <g clip-path="url(#pac42d39563)">
     <use xlink:href="#C0_0_05ad7edbe0" x="398.688586" y="215.124724" style="fill: #00ff39; stroke: #000000"/>
    </g>
    <g clip-path="url(#pac42d39563)">
     <use xlink:href="#C0_0_05ad7edbe0" x="211.433773" y="125.818056" style="fill: #ff5300; stroke: #000000"/>
    </g>
    <g clip-path="url(#pac42d39563)">
     <use xlink:href="#C0_0_05ad7edbe0" x="147.645109" y="235.460898" style="fill: #0098ff; stroke: #000000"/>
    </g>
    <g clip-path="url(#pac42d39563)">
     <use xlink:href="#C0_0_05ad7edbe0" x="341.539909" y="445.698011" style="fill: #0604ff; stroke: #000000"/>
    </g>
    <g clip-path="url(#pac42d39563)">
     <use xlink:href="#C0_0_05ad7edbe0" x="216.220636" y="192.159307" style="fill: #00aaff; stroke: #000000"/>
    </g>
    <g clip-path="url(#pac42d39563)">
     <use xlink:href="#C0_0_05ad7edbe0" x="468.127115" y="328.672992" style="fill: #00ff10; stroke: #000000"/>
    </g>
    <g clip-path="url(#pac42d39563)">
     <use xlink:href="#C0_0_05ad7edbe0" x="177.656505" y="151.908028" style="fill: #ff7000; stroke: #000000"/>
    </g>
    <g clip-path="url(#pac42d39563)">
     <use xlink:href="#C0_0_05ad7edbe0" x="241.277185" y="524.041775" style="fill: #ffdb00; stroke: #000000"/>
    </g>
    <g clip-path="url(#pac42d39563)">
     <use xlink:href="#C0_0_05ad7edbe0" x="187.54111" y="411.735469" style="fill: #001cff; stroke: #000000"/>
    </g>
    <g clip-path="url(#pac42d39563)">
     <use xlink:href="#C0_0_05ad7edbe0" x="106.719526" y="368.072179" style="fill: #ffc900; stroke: #000000"/>
    </g>
    <g clip-path="url(#pac42d39563)">
     <use xlink:href="#C0_0_05ad7edbe0" x="275.952722" y="300.911476" style="fill: #ff00db; stroke: #000000"/>
    </g>
    <g clip-path="url(#pac42d39563)">
     <use xlink:href="#C0_0_05ad7edbe0" x="152.979383" y="468.383766" style="fill: #f4ff00; stroke: #000000"/>
    </g>
    <g clip-path="url(#pac42d39563)">
     <use xlink:href="#C0_0_05ad7edbe0" x="173.532271" y="343.985182" style="fill: #ff0059; stroke: #000000"/>
    </g>
    <g clip-path="url(#pac42d39563)">
     <use xlink:href="#C0_0_05ad7edbe0" x="512.281065" y="247.012181" style="fill: #0eff00; stroke: #000000"/>
    </g>
    <g clip-path="url(#pac42d39563)">
     <use xlink:href="#C0_0_05ad7edbe0" x="314.891628" y="59.547186" style="fill: #00fcff; stroke: #000000"/>
    </g>
    <g clip-path="url(#pac42d39563)">
     <use xlink:href="#C0_0_05ad7edbe0" x="241.638854" y="147.573604" style="fill: #ff0c00; stroke: #000000"/>
    </g>
    <g clip-path="url(#pac42d39563)">
     <use xlink:href="#C0_0_05ad7edbe0" x="380.752024" y="54.8615" style="fill: #00ffc7; stroke: #000000"/>
    </g>
    <g clip-path="url(#pac42d39563)">
     <use xlink:href="#C0_0_05ad7edbe0" x="389.57311" y="351.073827" style="fill: #cb00ff; stroke: #000000"/>
    </g>
    <g clip-path="url(#pac42d39563)">
     <use xlink:href="#C0_0_05ad7edbe0" x="217.186275" y="303.508103" style="fill: #008cff; stroke: #000000"/>
    </g>
    <g clip-path="url(#pac42d39563)">
     <use xlink:href="#C0_0_05ad7edbe0" x="73.998636" y="167.357972" style="fill: #ff1800; stroke: #000000"/>
    </g>
    <g clip-path="url(#pac42d39563)">
     <use xlink:href="#C0_0_05ad7edbe0" x="290.529864" y="224.58264" style="fill: #ff008e; stroke: #000000"/>
    </g>
    <g clip-path="url(#pac42d39563)">
     <use xlink:href="#C0_0_05ad7edbe0" x="436.355324" y="180.179867" style="fill: #00ff9d; stroke: #000000"/>
    </g>
    <g clip-path="url(#pac42d39563)">
     <use xlink:href="#C0_0_05ad7edbe0" x="247.390613" y="270.825648" style="fill: #0051ff; stroke: #000000"/>
    </g>
    <g clip-path="url(#pac42d39563)">
     <use xlink:href="#C0_0_05ad7edbe0" x="128.244352" y="172.905441" style="fill: #ff0000; stroke: #000000"/>
    </g>
    <g clip-path="url(#pac42d39563)">
     <use xlink:href="#C0_0_05ad7edbe0" x="161.387186" y="81.939245" style="fill: #ff7c00; stroke: #000000"/>
    </g>
    <g clip-path="url(#pac42d39563)">
     <use xlink:href="#C0_0_05ad7edbe0" x="309.366913" y="376.050699" style="fill: #7eff00; stroke: #000000"/>
    </g>
    <g clip-path="url(#pac42d39563)">
     <use xlink:href="#C0_0_05ad7edbe0" x="204.929575" y="440.320925" style="fill: #3d00ff; stroke: #000000"/>
    </g>
    <g clip-path="url(#pac42d39563)">
     <use xlink:href="#C0_0_05ad7edbe0" x="235.799041" y="465.095661" style="fill: #5a00ff; stroke: #000000"/>
    </g>
    <g clip-path="url(#pac42d39563)">
     <use xlink:href="#C0_0_05ad7edbe0" x="438.139847" y="85.072203" style="fill: #00fff0; stroke: #000000"/>
    </g>
    <g clip-path="url(#pac42d39563)">
     <use xlink:href="#C0_0_05ad7edbe0" x="399.009559" y="169.427024" style="fill: #00ffbb; stroke: #000000"/>
    </g>
    <g clip-path="url(#pac42d39563)">
     <use xlink:href="#C0_0_05ad7edbe0" x="254.763903" y="213.25898" style="fill: #0080ff; stroke: #000000"/>
    </g>
    <g clip-path="url(#pac42d39563)">
     <use xlink:href="#C0_0_05ad7edbe0" x="111.130743" y="220.708054" style="fill: #0028ff; stroke: #000000"/>
    </g>
    <g clip-path="url(#pac42d39563)">
     <use xlink:href="#C0_0_05ad7edbe0" x="186.462321" y="503.388147" style="fill: #ffbd00; stroke: #000000"/>
    </g>
    <g clip-path="url(#pac42d39563)">
     <use xlink:href="#C0_0_05ad7edbe0" x="407.234473" y="312.330228" style="fill: #06ff04; stroke: #000000"/>
    </g>
    <g clip-path="url(#pac42d39563)">
     <use xlink:href="#C0_0_05ad7edbe0" x="251.198663" y="399.539005" style="fill: #6cff00; stroke: #000000"/>
    </g>
    <g clip-path="url(#pac42d39563)">
     <use xlink:href="#C0_0_05ad7edbe0" x="362.885267" y="395.926992" style="fill: #bf00ff; stroke: #000000"/>
    </g>
    <g clip-path="url(#pac42d39563)">
     <use xlink:href="#C0_0_05ad7edbe0" x="354.247773" y="259.475872" style="fill: #ff00ed; stroke: #000000"/>
    </g>
    <g clip-path="url(#pac42d39563)">
     <use xlink:href="#C0_0_05ad7edbe0" x="279.453574" y="364.770693" style="fill: #9cff00; stroke: #000000"/>
    </g>
    <g clip-path="url(#pac42d39563)">
     <use xlink:href="#C0_0_05ad7edbe0" x="467.140903" y="410.762115" style="fill: #a100ff; stroke: #000000"/>
    </g>
    <g clip-path="url(#pac42d39563)">
     <use xlink:href="#C0_0_05ad7edbe0" x="195.120646" y="369.995722" style="fill: #ff006b; stroke: #000000"/>
    </g>
    <g clip-path="url(#pac42d39563)">
     <use xlink:href="#C0_0_05ad7edbe0" x="512.773132" y="182.209591" style="fill: #00ff8c; stroke: #000000"/>
    </g>
    <g clip-path="url(#pac42d39563)">
     <use xlink:href="#C0_0_05ad7edbe0" x="259.463375" y="40.601521" style="fill: #ff5f00; stroke: #000000"/>
    </g>
    <g clip-path="url(#pac42d39563)">
     <use xlink:href="#C0_0_05ad7edbe0" x="255.232412" y="329.969893" style="fill: #90ff00; stroke: #000000"/>
    </g>
    <g clip-path="url(#pac42d39563)">
     <use xlink:href="#C0_0_05ad7edbe0" x="446.600246" y="446.793554" style="fill: #f400ff; stroke: #000000"/>
    </g>
    <g clip-path="url(#pac42d39563)">
     <use xlink:href="#C0_0_05ad7edbe0" x="219.738553" y="80.167974" style="fill: #ff4700; stroke: #000000"/>
    </g>
    <g clip-path="url(#pac42d39563)">
     <use xlink:href="#C0_0_05ad7edbe0" x="225.84466" y="236.914948" style="fill: #0045ff; stroke: #000000"/>
    </g>
    <g clip-path="url(#pac42d39563)">
     <use xlink:href="#C0_0_05ad7edbe0" x="285.042676" y="261.980942" style="fill: #fc00f5; stroke: #000000"/>
    </g>
    <g clip-path="url(#pac42d39563)">
     <use xlink:href="#C0_0_05ad7edbe0" x="346.655113" y="178.032383" style="fill: #00ff62; stroke: #000000"/>
    </g>
    <g clip-path="url(#pac42d39563)">
     <use xlink:href="#C0_0_05ad7edbe0" x="400.426958" y="120.82877" style="fill: #00b5ff; stroke: #000000"/>
    </g>
    <g clip-path="url(#pac42d39563)">
     <use xlink:href="#C0_0_05ad7edbe0" x="185.692944" y="241.462811" style="fill: #0033ff; stroke: #000000"/>
    </g>
    <g clip-path="url(#pac42d39563)">
     <use xlink:href="#C0_0_05ad7edbe0" x="309.93812" y="304.082173" style="fill: #ff00ac; stroke: #000000"/>
    </g>
    <g clip-path="url(#pac42d39563)">
     <use xlink:href="#C0_0_05ad7edbe0" x="113.943226" y="325.140703" style="fill: #ff0018; stroke: #000000"/>
    </g>
    <g clip-path="url(#pac42d39563)">
     <use xlink:href="#C0_0_05ad7edbe0" x="225.743899" y="340.127475" style="fill: #d1ff00; stroke: #000000"/>
    </g>
    <g clip-path="url(#pac42d39563)">
     <use xlink:href="#C0_0_05ad7edbe0" x="272.809273" y="105.011324" style="fill: #00ffd8; stroke: #000000"/>
    </g>
    <g clip-path="url(#pac42d39563)">
     <use xlink:href="#C0_0_05ad7edbe0" x="412.216902" y="439.851706" style="fill: #e800ff; stroke: #000000"/>
    </g>
    <g clip-path="url(#pac42d39563)">
     <use xlink:href="#C0_0_05ad7edbe0" x="292.799857" y="490.254404" style="fill: #020cff; stroke: #000000"/>
    </g>
    <g clip-path="url(#pac42d39563)">
     <use xlink:href="#C0_0_05ad7edbe0" x="313.469184" y="335.178258" style="fill: #ff00c9; stroke: #000000"/>
    </g>
    <g clip-path="url(#pac42d39563)">
     <use xlink:href="#C0_0_05ad7edbe0" x="463.476242" y="209.527104" style="fill: #00ffa9; stroke: #000000"/>
    </g>
    <g clip-path="url(#pac42d39563)">
     <use xlink:href="#C0_0_05ad7edbe0" x="199.384157" y="277.86943" style="fill: #0063ff; stroke: #000000"/>
    </g>
    <g clip-path="url(#pac42d39563)">
     <use xlink:href="#C0_0_05ad7edbe0" x="509.820608" y="356.719869" style="fill: #1aff00; stroke: #000000"/>
    </g>
    <g clip-path="url(#pac42d39563)">
     <use xlink:href="#C0_0_05ad7edbe0" x="301.325957" y="444.86408" style="fill: #6600ff; stroke: #000000"/>
    </g>
    <g clip-path="url(#pac42d39563)">
     <use xlink:href="#C0_0_05ad7edbe0" x="53.0709" y="228.639612" style="fill: #00ff80; stroke: #000000"/>
    </g>
    <g clip-path="url(#pac42d39563)">
     <use xlink:href="#C0_0_05ad7edbe0" x="126.314587" y="433.494347" style="fill: #ff9a00; stroke: #000000"/>
    </g>
    <g clip-path="url(#pac42d39563)">
     <use xlink:href="#C0_0_05ad7edbe0" x="355.569536" y="142.403051" style="fill: #00f0ff; stroke: #000000"/>
    </g>
    <g clip-path="url(#pac42d39563)">
     <use xlink:href="#C0_0_05ad7edbe0" x="396.70806" y="414.35897" style="fill: #d600ff; stroke: #000000"/>
    </g>
    <g clip-path="url(#pac42d39563)">
     <use xlink:href="#C0_0_05ad7edbe0" x="519.014105" y="415.82864" style="fill: #2bff00; stroke: #000000"/>
    </g>
    <g clip-path="url(#pac42d39563)">
     <use xlink:href="#C0_0_05ad7edbe0" x="267.20405" y="175.46438" style="fill: #00c7ff; stroke: #000000"/>
    </g>
    <g clip-path="url(#pac42d39563)">
     <use xlink:href="#C0_0_05ad7edbe0" x="147.800351" y="330.985901" style="fill: #ff0047; stroke: #000000"/>
    </g>
    <g clip-path="url(#pac42d39563)">
     <use xlink:href="#C0_0_05ad7edbe0" x="411.89732" y="246.74772" style="fill: #37ff00; stroke: #000000"/>
    </g>
    <g clip-path="url(#pac42d39563)">
     <use xlink:href="#C0_0_05ad7edbe0" x="421.590677" y="359.381744" style="fill: #7800ff; stroke: #000000"/>
    </g>
    <g clip-path="url(#pac42d39563)">
     <use xlink:href="#C0_0_05ad7edbe0" x="319.830242" y="260.795212" style="fill: #ff007c; stroke: #000000"/>
    </g>
    <g clip-path="url(#pac42d39563)">
     <use xlink:href="#C0_0_05ad7edbe0" x="267.441516" y="434.204596" style="fill: #1f00ff; stroke: #000000"/>
    </g>
    <g clip-path="url(#pac42d39563)">
     <use xlink:href="#C0_0_05ad7edbe0" x="350.829952" y="326.075837" style="fill: #ff009a; stroke: #000000"/>
    </g>
    <g clip-path="url(#pac42d39563)">
     <use xlink:href="#C0_0_05ad7edbe0" x="84.916145" y="280.950566" style="fill: #ff0035; stroke: #000000"/>
    </g>
    <g clip-path="url(#pac42d39563)">
     <use xlink:href="#C0_0_05ad7edbe0" x="178.023053" y="194.949483" style="fill: #006eff; stroke: #000000"/>
    </g>
    <g clip-path="url(#pac42d39563)">
     <use xlink:href="#C0_0_05ad7edbe0" x="457.387739" y="255.544086" style="fill: #55ff00; stroke: #000000"/>
    </g>
    <g clip-path="url(#pac42d39563)">
     <use xlink:href="#C0_0_05ad7edbe0" x="465.240955" y="138.558918" style="fill: #00ff74; stroke: #000000"/>
    </g>
    <g clip-path="url(#pac42d39563)">
     <use xlink:href="#C0_0_05ad7edbe0" x="140.270176" y="129.4088" style="fill: #ff2900; stroke: #000000"/>
    </g>
    <g clip-path="url(#pac42d39563)">
     <use xlink:href="#C0_0_05ad7edbe0" x="448.540501" y="380.981149" style="fill: #9000ff; stroke: #000000"/>
    </g>
   </g>
   <g id="matplotlib.axis_1">
    <g id="xtick_1">
     <g id="line2d_1">
      <path d="M 0 576 
L 0 0 
" clip-path="url(#pac42d39563)" style="fill: none; stroke-dasharray: 1.85,0.8; stroke-dashoffset: 0; stroke: #808080; stroke-width: 0.5"/>
     </g>
     <g id="line2d_2">
      <defs>
       <path id="m47c86bff0a" d="M 0 0 
L 0 3.5 
" style="stroke: #000000; stroke-width: 0.8"/>
      </defs>
      <g>
       <use xlink:href="#m47c86bff0a" x="0" y="576" style="stroke: #000000; stroke-width: 0.8"/>
      </g>
     </g>
     <g id="text_1">
      <!-- −1.0 -->
      <g transform="translate(-12.141406 590.598438) scale(0.1 -0.1)">
       <defs>
        <path id="DejaVuSans-2212" d="M 678 2272 
L 4684 2272 
L 4684 1741 
L 678 1741 
L 678 2272 
z
" transform="scale(0.015625)"/>
        <path id="DejaVuSans-31" d="M 794 531 
L 1825 531 
L 1825 4091 
L 703 3866 
L 703 4441 
L 1819 4666 
L 2450 4666 
L 2450 531 
L 3481 531 
L 3481 0 
L 794 0 
L 794 531 
z
" transform="scale(0.015625)"/>
        <path id="DejaVuSans-2e" d="M 684 794 
L 1344 794 
L 1344 0 
L 684 0 
L 684 794 
z
" transform="scale(0.015625)"/>
        <path id="DejaVuSans-30" d="M 2034 4250 
Q 1547 4250 1301 3770 
Q 1056 3291 1056 2328 
Q 1056 1369 1301 889 
Q 1547 409 2034 409 
Q 2525 409 2770 889 
Q 3016 1369 3016 2328 
Q 3016 3291 2770 3770 
Q 2525 4250 2034 4250 
z
M 2034 4750 
Q 2819 4750 3233 4129 
Q 3647 3509 3647 2328 
Q 3647 1150 3233 529 
Q 2819 -91 2034 -91 
Q 1250 -91 836 529 
Q 422 1150 422 2328 
Q 422 3509 836 4129 
Q 1250 4750 2034 4750 
z
" transform="scale(0.015625)"/>
       </defs>
       <use xlink:href="#DejaVuSans-2212"/>
       <use xlink:href="#DejaVuSans-31" transform="translate(83.789062 0)"/>
       <use xlink:href="#DejaVuSans-2e" transform="translate(147.412109 0)"/>
       <use xlink:href="#DejaVuSans-30" transform="translate(179.199219 0)"/>
      </g>
     </g>
    </g>
    <g id="xtick_2">
     <g id="line2d_3">
      <path d="M 57.6 576 
L 57.6 0 
" clip-path="url(#pac42d39563)" style="fill: none; stroke-dasharray: 1.85,0.8; stroke-dashoffset: 0; stroke: #808080; stroke-width: 0.5"/>
     </g>
     <g id="line2d_4">
      <g>
       <use xlink:href="#m47c86bff0a" x="57.6" y="576" style="stroke: #000000; stroke-width: 0.8"/>
      </g>
     </g>
     <g id="text_2">
      <!-- −0.8 -->
      <g transform="translate(45.458594 590.598438) scale(0.1 -0.1)">
       <defs>
        <path id="DejaVuSans-38" d="M 2034 2216 
Q 1584 2216 1326 1975 
Q 1069 1734 1069 1313 
Q 1069 891 1326 650 
Q 1584 409 2034 409 
Q 2484 409 2743 651 
Q 3003 894 3003 1313 
Q 3003 1734 2745 1975 
Q 2488 2216 2034 2216 
z
M 1403 2484 
Q 997 2584 770 2862 
Q 544 3141 544 3541 
Q 544 4100 942 4425 
Q 1341 4750 2034 4750 
Q 2731 4750 3128 4425 
Q 3525 4100 3525 3541 
Q 3525 3141 3298 2862 
Q 3072 2584 2669 2484 
Q 3125 2378 3379 2068 
Q 3634 1759 3634 1313 
Q 3634 634 3220 271 
Q 2806 -91 2034 -91 
Q 1263 -91 848 271 
Q 434 634 434 1313 
Q 434 1759 690 2068 
Q 947 2378 1403 2484 
z
M 1172 3481 
Q 1172 3119 1398 2916 
Q 1625 2713 2034 2713 
Q 2441 2713 2670 2916 
Q 2900 3119 2900 3481 
Q 2900 3844 2670 4047 
Q 2441 4250 2034 4250 
Q 1625 4250 1398 4047 
Q 1172 3844 1172 3481 
z
" transform="scale(0.015625)"/>
       </defs>
       <use xlink:href="#DejaVuSans-2212"/>
       <use xlink:href="#DejaVuSans-30" transform="translate(83.789062 0)"/>
       <use xlink:href="#DejaVuSans-2e" transform="translate(147.412109 0)"/>
       <use xlink:href="#DejaVuSans-38" transform="translate(179.199219 0)"/>
      </g>
     </g>
    </g>
    <g id="xtick_3">
     <g id="line2d_5">
      <path d="M 115.2 576 
L 115.2 0 
" clip-path="url(#pac42d39563)" style="fill: none; stroke-dasharray: 1.85,0.8; stroke-dashoffset: 0; stroke: #808080; stroke-width: 0.5"/>
     </g>
     <g id="line2d_6">
      <g>
       <use xlink:href="#m47c86bff0a" x="115.2" y="576" style="stroke: #000000; stroke-width: 0.8"/>
      </g>
     </g>
     <g id="text_3">
      <!-- −0.6 -->
      <g transform="translate(103.058594 590.598438) scale(0.1 -0.1)">
       <defs>
        <path id="DejaVuSans-36" d="M 2113 2584 
Q 1688 2584 1439 2293 
Q 1191 2003 1191 1497 
Q 1191 994 1439 701 
Q 1688 409 2113 409 
Q 2538 409 2786 701 
Q 3034 994 3034 1497 
Q 3034 2003 2786 2293 
Q 2538 2584 2113 2584 
z
M 3366 4563 
L 3366 3988 
Q 3128 4100 2886 4159 
Q 2644 4219 2406 4219 
Q 1781 4219 1451 3797 
Q 1122 3375 1075 2522 
Q 1259 2794 1537 2939 
Q 1816 3084 2150 3084 
Q 2853 3084 3261 2657 
Q 3669 2231 3669 1497 
Q 3669 778 3244 343 
Q 2819 -91 2113 -91 
Q 1303 -91 875 529 
Q 447 1150 447 2328 
Q 447 3434 972 4092 
Q 1497 4750 2381 4750 
Q 2619 4750 2861 4703 
Q 3103 4656 3366 4563 
z
" transform="scale(0.015625)"/>
       </defs>
       <use xlink:href="#DejaVuSans-2212"/>
       <use xlink:href="#DejaVuSans-30" transform="translate(83.789062 0)"/>
       <use xlink:href="#DejaVuSans-2e" transform="translate(147.412109 0)"/>
       <use xlink:href="#DejaVuSans-36" transform="translate(179.199219 0)"/>
      </g>
     </g>
    </g>
    <g id="xtick_4">
     <g id="line2d_7">
      <path d="M 172.8 576 
L 172.8 0 
" clip-path="url(#pac42d39563)" style="fill: none; stroke-dasharray: 1.85,0.8; stroke-dashoffset: 0; stroke: #808080; stroke-width: 0.5"/>
     </g>
     <g id="line2d_8">
      <g>
       <use xlink:href="#m47c86bff0a" x="172.8" y="576" style="stroke: #000000; stroke-width: 0.8"/>
      </g>
     </g>
     <g id="text_4">
      <!-- −0.4 -->
      <g transform="translate(160.658594 590.598438) scale(0.1 -0.1)">
       <defs>
        <path id="DejaVuSans-34" d="M 2419 4116 
L 825 1625 
L 2419 1625 
L 2419 4116 
z
M 2253 4666 
L 3047 4666 
L 3047 1625 
L 3713 1625 
L 3713 1100 
L 3047 1100 
L 3047 0 
L 2419 0 
L 2419 1100 
L 313 1100 
L 313 1709 
L 2253 4666 
z
" transform="scale(0.015625)"/>
       </defs>
       <use xlink:href="#DejaVuSans-2212"/>
       <use xlink:href="#DejaVuSans-30" transform="translate(83.789062 0)"/>
       <use xlink:href="#DejaVuSans-2e" transform="translate(147.412109 0)"/>
       <use xlink:href="#DejaVuSans-34" transform="translate(179.199219 0)"/>
      </g>
     </g>
    </g>
    <g id="xtick_5">
     <g id="line2d_9">
      <path d="M 230.4 576 
L 230.4 0 
" clip-path="url(#pac42d39563)" style="fill: none; stroke-dasharray: 1.85,0.8; stroke-dashoffset: 0; stroke: #808080; stroke-width: 0.5"/>
     </g>
     <g id="line2d_10">
      <g>
       <use xlink:href="#m47c86bff0a" x="230.4" y="576" style="stroke: #000000; stroke-width: 0.8"/>
      </g>
     </g>
     <g id="text_5">
      <!-- −0.2 -->
      <g transform="translate(218.258594 590.598438) scale(0.1 -0.1)">
       <defs>
        <path id="DejaVuSans-32" d="M 1228 531 
L 3431 531 
L 3431 0 
L 469 0 
L 469 531 
Q 828 903 1448 1529 
Q 2069 2156 2228 2338 
Q 2531 2678 2651 2914 
Q 2772 3150 2772 3378 
Q 2772 3750 2511 3984 
Q 2250 4219 1831 4219 
Q 1534 4219 1204 4116 
Q 875 4013 500 3803 
L 500 4441 
Q 881 4594 1212 4672 
Q 1544 4750 1819 4750 
Q 2544 4750 2975 4387 
Q 3406 4025 3406 3419 
Q 3406 3131 3298 2873 
Q 3191 2616 2906 2266 
Q 2828 2175 2409 1742 
Q 1991 1309 1228 531 
z
" transform="scale(0.015625)"/>
       </defs>
       <use xlink:href="#DejaVuSans-2212"/>
       <use xlink:href="#DejaVuSans-30" transform="translate(83.789062 0)"/>
       <use xlink:href="#DejaVuSans-2e" transform="translate(147.412109 0)"/>
       <use xlink:href="#DejaVuSans-32" transform="translate(179.199219 0)"/>
      </g>
     </g>
    </g>
    <g id="xtick_6">
     <g id="line2d_11">
      <path d="M 288 576 
L 288 0 
" clip-path="url(#pac42d39563)" style="fill: none; stroke-dasharray: 1.85,0.8; stroke-dashoffset: 0; stroke: #808080; stroke-width: 0.5"/>
     </g>
     <g id="line2d_12">
      <g>
       <use xlink:href="#m47c86bff0a" x="288" y="576" style="stroke: #000000; stroke-width: 0.8"/>
      </g>
     </g>
     <g id="text_6">
      <!-- 0.0 -->
      <g transform="translate(280.048437 590.598438) scale(0.1 -0.1)">
       <use xlink:href="#DejaVuSans-30"/>
       <use xlink:href="#DejaVuSans-2e" transform="translate(63.623047 0)"/>
       <use xlink:href="#DejaVuSans-30" transform="translate(95.410156 0)"/>
      </g>
     </g>
    </g>
    <g id="xtick_7">
     <g id="line2d_13">
      <path d="M 345.6 576 
L 345.6 0 
" clip-path="url(#pac42d39563)" style="fill: none; stroke-dasharray: 1.85,0.8; stroke-dashoffset: 0; stroke: #808080; stroke-width: 0.5"/>
     </g>
     <g id="line2d_14">
      <g>
       <use xlink:href="#m47c86bff0a" x="345.6" y="576" style="stroke: #000000; stroke-width: 0.8"/>
      </g>
     </g>
     <g id="text_7">
      <!-- 0.2 -->
      <g transform="translate(337.648437 590.598438) scale(0.1 -0.1)">
       <use xlink:href="#DejaVuSans-30"/>
       <use xlink:href="#DejaVuSans-2e" transform="translate(63.623047 0)"/>
       <use xlink:href="#DejaVuSans-32" transform="translate(95.410156 0)"/>
      </g>
     </g>
    </g>
    <g id="xtick_8">
     <g id="line2d_15">
      <path d="M 403.2 576 
L 403.2 0 
" clip-path="url(#pac42d39563)" style="fill: none; stroke-dasharray: 1.85,0.8; stroke-dashoffset: 0; stroke: #808080; stroke-width: 0.5"/>
     </g>
     <g id="line2d_16">
      <g>
       <use xlink:href="#m47c86bff0a" x="403.2" y="576" style="stroke: #000000; stroke-width: 0.8"/>
      </g>
     </g>
     <g id="text_8">
      <!-- 0.4 -->
      <g transform="translate(395.248437 590.598438) scale(0.1 -0.1)">
       <use xlink:href="#DejaVuSans-30"/>
       <use xlink:href="#DejaVuSans-2e" transform="translate(63.623047 0)"/>
       <use xlink:href="#DejaVuSans-34" transform="translate(95.410156 0)"/>
      </g>
     </g>
    </g>
    <g id="xtick_9">
     <g id="line2d_17">
      <path d="M 460.8 576 
L 460.8 0 
" clip-path="url(#pac42d39563)" style="fill: none; stroke-dasharray: 1.85,0.8; stroke-dashoffset: 0; stroke: #808080; stroke-width: 0.5"/>
     </g>
     <g id="line2d_18">
      <g>
       <use xlink:href="#m47c86bff0a" x="460.8" y="576" style="stroke: #000000; stroke-width: 0.8"/>
      </g>
     </g>
     <g id="text_9">
      <!-- 0.6 -->
      <g transform="translate(452.848437 590.598438) scale(0.1 -0.1)">
       <use xlink:href="#DejaVuSans-30"/>
       <use xlink:href="#DejaVuSans-2e" transform="translate(63.623047 0)"/>
       <use xlink:href="#DejaVuSans-36" transform="translate(95.410156 0)"/>
      </g>
     </g>
    </g>
    <g id="xtick_10">
     <g id="line2d_19">
      <path d="M 518.4 576 
L 518.4 0 
" clip-path="url(#pac42d39563)" style="fill: none; stroke-dasharray: 1.85,0.8; stroke-dashoffset: 0; stroke: #808080; stroke-width: 0.5"/>
     </g>
     <g id="line2d_20">
      <g>
       <use xlink:href="#m47c86bff0a" x="518.4" y="576" style="stroke: #000000; stroke-width: 0.8"/>
      </g>
     </g>
     <g id="text_10">
      <!-- 0.8 -->
      <g transform="translate(510.448437 590.598438) scale(0.1 -0.1)">
       <use xlink:href="#DejaVuSans-30"/>
       <use xlink:href="#DejaVuSans-2e" transform="translate(63.623047 0)"/>
       <use xlink:href="#DejaVuSans-38" transform="translate(95.410156 0)"/>
      </g>
     </g>
    </g>
    <g id="xtick_11">
     <g id="line2d_21">
      <path d="M 576 576 
L 576 0 
" clip-path="url(#pac42d39563)" style="fill: none; stroke-dasharray: 1.85,0.8; stroke-dashoffset: 0; stroke: #808080; stroke-width: 0.5"/>
     </g>
     <g id="line2d_22">
      <g>
       <use xlink:href="#m47c86bff0a" x="576" y="576" style="stroke: #000000; stroke-width: 0.8"/>
      </g>
     </g>
     <g id="text_11">
      <!-- 1.0 -->
      <g transform="translate(568.048437 590.598438) scale(0.1 -0.1)">
       <use xlink:href="#DejaVuSans-31"/>
       <use xlink:href="#DejaVuSans-2e" transform="translate(63.623047 0)"/>
       <use xlink:href="#DejaVuSans-30" transform="translate(95.410156 0)"/>
      </g>
     </g>
    </g>
   </g>
   <g id="matplotlib.axis_2">
    <g id="ytick_1">
     <g id="line2d_23">
      <path d="M 0 576 
L 576 576 
" clip-path="url(#pac42d39563)" style="fill: none; stroke-dasharray: 1.85,0.8; stroke-dashoffset: 0; stroke: #808080; stroke-width: 0.5"/>
     </g>
     <g id="line2d_24">
      <defs>
       <path id="m0fe3646ef9" d="M 0 0 
L -3.5 0 
" style="stroke: #000000; stroke-width: 0.8"/>
      </defs>
      <g>
       <use xlink:href="#m0fe3646ef9" x="0" y="576" style="stroke: #000000; stroke-width: 0.8"/>
      </g>
     </g>
     <g id="text_12">
      <!-- −1.0 -->
      <g transform="translate(-31.282813 579.799219) scale(0.1 -0.1)">
       <use xlink:href="#DejaVuSans-2212"/>
       <use xlink:href="#DejaVuSans-31" transform="translate(83.789062 0)"/>
       <use xlink:href="#DejaVuSans-2e" transform="translate(147.412109 0)"/>
       <use xlink:href="#DejaVuSans-30" transform="translate(179.199219 0)"/>
      </g>
     </g>
    </g>
    <g id="ytick_2">
     <g id="line2d_25">
      <path d="M 0 518.4 
L 576 518.4 
" clip-path="url(#pac42d39563)" style="fill: none; stroke-dasharray: 1.85,0.8; stroke-dashoffset: 0; stroke: #808080; stroke-width: 0.5"/>
     </g>
     <g id="line2d_26">
      <g>
       <use xlink:href="#m0fe3646ef9" x="0" y="518.4" style="stroke: #000000; stroke-width: 0.8"/>
      </g>
     </g>
     <g id="text_13">
      <!-- −0.8 -->
      <g transform="translate(-31.282813 522.199219) scale(0.1 -0.1)">
       <use xlink:href="#DejaVuSans-2212"/>
       <use xlink:href="#DejaVuSans-30" transform="translate(83.789062 0)"/>
       <use xlink:href="#DejaVuSans-2e" transform="translate(147.412109 0)"/>
       <use xlink:href="#DejaVuSans-38" transform="translate(179.199219 0)"/>
      </g>
     </g>
    </g>
    <g id="ytick_3">
     <g id="line2d_27">
      <path d="M 0 460.8 
L 576 460.8 
" clip-path="url(#pac42d39563)" style="fill: none; stroke-dasharray: 1.85,0.8; stroke-dashoffset: 0; stroke: #808080; stroke-width: 0.5"/>
     </g>
     <g id="line2d_28">
      <g>
       <use xlink:href="#m0fe3646ef9" x="0" y="460.8" style="stroke: #000000; stroke-width: 0.8"/>
      </g>
     </g>
     <g id="text_14">
      <!-- −0.6 -->
      <g transform="translate(-31.282813 464.599219) scale(0.1 -0.1)">
       <use xlink:href="#DejaVuSans-2212"/>
       <use xlink:href="#DejaVuSans-30" transform="translate(83.789062 0)"/>
       <use xlink:href="#DejaVuSans-2e" transform="translate(147.412109 0)"/>
       <use xlink:href="#DejaVuSans-36" transform="translate(179.199219 0)"/>
      </g>
     </g>
    </g>
    <g id="ytick_4">
     <g id="line2d_29">
      <path d="M 0 403.2 
L 576 403.2 
" clip-path="url(#pac42d39563)" style="fill: none; stroke-dasharray: 1.85,0.8; stroke-dashoffset: 0; stroke: #808080; stroke-width: 0.5"/>
     </g>
     <g id="line2d_30">
      <g>
       <use xlink:href="#m0fe3646ef9" x="0" y="403.2" style="stroke: #000000; stroke-width: 0.8"/>
      </g>
     </g>
     <g id="text_15">
      <!-- −0.4 -->
      <g transform="translate(-31.282813 406.999219) scale(0.1 -0.1)">
       <use xlink:href="#DejaVuSans-2212"/>
       <use xlink:href="#DejaVuSans-30" transform="translate(83.789062 0)"/>
       <use xlink:href="#DejaVuSans-2e" transform="translate(147.412109 0)"/>
       <use xlink:href="#DejaVuSans-34" transform="translate(179.199219 0)"/>
      </g>
     </g>
    </g>
    <g id="ytick_5">
     <g id="line2d_31">
      <path d="M 0 345.6 
L 576 345.6 
" clip-path="url(#pac42d39563)" style="fill: none; stroke-dasharray: 1.85,0.8; stroke-dashoffset: 0; stroke: #808080; stroke-width: 0.5"/>
     </g>
     <g id="line2d_32">
      <g>
       <use xlink:href="#m0fe3646ef9" x="0" y="345.6" style="stroke: #000000; stroke-width: 0.8"/>
      </g>
     </g>
     <g id="text_16">
      <!-- −0.2 -->
      <g transform="translate(-31.282813 349.399219) scale(0.1 -0.1)">
       <use xlink:href="#DejaVuSans-2212"/>
       <use xlink:href="#DejaVuSans-30" transform="translate(83.789062 0)"/>
       <use xlink:href="#DejaVuSans-2e" transform="translate(147.412109 0)"/>
       <use xlink:href="#DejaVuSans-32" transform="translate(179.199219 0)"/>
      </g>
     </g>
    </g>
    <g id="ytick_6">
     <g id="line2d_33">
      <path d="M 0 288 
L 576 288 
" clip-path="url(#pac42d39563)" style="fill: none; stroke-dasharray: 1.85,0.8; stroke-dashoffset: 0; stroke: #808080; stroke-width: 0.5"/>
     </g>
     <g id="line2d_34">
      <g>
       <use xlink:href="#m0fe3646ef9" x="0" y="288" style="stroke: #000000; stroke-width: 0.8"/>
      </g>
     </g>
     <g id="text_17">
      <!-- 0.0 -->
      <g transform="translate(-22.903125 291.799219) scale(0.1 -0.1)">
       <use xlink:href="#DejaVuSans-30"/>
       <use xlink:href="#DejaVuSans-2e" transform="translate(63.623047 0)"/>
       <use xlink:href="#DejaVuSans-30" transform="translate(95.410156 0)"/>
      </g>
     </g>
    </g>
    <g id="ytick_7">
     <g id="line2d_35">
      <path d="M 0 230.4 
L 576 230.4 
" clip-path="url(#pac42d39563)" style="fill: none; stroke-dasharray: 1.85,0.8; stroke-dashoffset: 0; stroke: #808080; stroke-width: 0.5"/>
     </g>
     <g id="line2d_36">
      <g>
       <use xlink:href="#m0fe3646ef9" x="0" y="230.4" style="stroke: #000000; stroke-width: 0.8"/>
      </g>
     </g>
     <g id="text_18">
      <!-- 0.2 -->
      <g transform="translate(-22.903125 234.199219) scale(0.1 -0.1)">
       <use xlink:href="#DejaVuSans-30"/>
       <use xlink:href="#DejaVuSans-2e" transform="translate(63.623047 0)"/>
       <use xlink:href="#DejaVuSans-32" transform="translate(95.410156 0)"/>
      </g>
     </g>
    </g>
    <g id="ytick_8">
     <g id="line2d_37">
      <path d="M 0 172.8 
L 576 172.8 
" clip-path="url(#pac42d39563)" style="fill: none; stroke-dasharray: 1.85,0.8; stroke-dashoffset: 0; stroke: #808080; stroke-width: 0.5"/>
     </g>
     <g id="line2d_38">
      <g>
       <use xlink:href="#m0fe3646ef9" x="0" y="172.8" style="stroke: #000000; stroke-width: 0.8"/>
      </g>
     </g>
     <g id="text_19">
      <!-- 0.4 -->
      <g transform="translate(-22.903125 176.599219) scale(0.1 -0.1)">
       <use xlink:href="#DejaVuSans-30"/>
       <use xlink:href="#DejaVuSans-2e" transform="translate(63.623047 0)"/>
       <use xlink:href="#DejaVuSans-34" transform="translate(95.410156 0)"/>
      </g>
     </g>
    </g>
    <g id="ytick_9">
     <g id="line2d_39">
      <path d="M 0 115.2 
L 576 115.2 
" clip-path="url(#pac42d39563)" style="fill: none; stroke-dasharray: 1.85,0.8; stroke-dashoffset: 0; stroke: #808080; stroke-width: 0.5"/>
     </g>
     <g id="line2d_40">
      <g>
       <use xlink:href="#m0fe3646ef9" x="0" y="115.2" style="stroke: #000000; stroke-width: 0.8"/>
      </g>
     </g>
     <g id="text_20">
      <!-- 0.6 -->
      <g transform="translate(-22.903125 118.999219) scale(0.1 -0.1)">
       <use xlink:href="#DejaVuSans-30"/>
       <use xlink:href="#DejaVuSans-2e" transform="translate(63.623047 0)"/>
       <use xlink:href="#DejaVuSans-36" transform="translate(95.410156 0)"/>
      </g>
     </g>
    </g>
    <g id="ytick_10">
     <g id="line2d_41">
      <path d="M 0 57.6 
L 576 57.6 
" clip-path="url(#pac42d39563)" style="fill: none; stroke-dasharray: 1.85,0.8; stroke-dashoffset: 0; stroke: #808080; stroke-width: 0.5"/>
     </g>
     <g id="line2d_42">
      <g>
       <use xlink:href="#m0fe3646ef9" x="0" y="57.6" style="stroke: #000000; stroke-width: 0.8"/>
      </g>
     </g>
     <g id="text_21">
      <!-- 0.8 -->
      <g transform="translate(-22.903125 61.399219) scale(0.1 -0.1)">
       <use xlink:href="#DejaVuSans-30"/>
       <use xlink:href="#DejaVuSans-2e" transform="translate(63.623047 0)"/>
       <use xlink:href="#DejaVuSans-38" transform="translate(95.410156 0)"/>
      </g>
     </g>
    </g>
    <g id="ytick_11">
     <g id="line2d_43">
      <path d="M 0 0 
L 576 0 
" clip-path="url(#pac42d39563)" style="fill: none; stroke-dasharray: 1.85,0.8; stroke-dashoffset: 0; stroke: #808080; stroke-width: 0.5"/>
     </g>
     <g id="line2d_44">
      <g>
       <use xlink:href="#m0fe3646ef9" x="0" y="0" style="stroke: #000000; stroke-width: 0.8"/>
      </g>
     </g>
     <g id="text_22">
      <!-- 1.0 -->
      <g transform="translate(-22.903125 3.799219) scale(0.1 -0.1)">
       <use xlink:href="#DejaVuSans-31"/>
       <use xlink:href="#DejaVuSans-2e" transform="translate(63.623047 0)"/>
       <use xlink:href="#DejaVuSans-30" transform="translate(95.410156 0)"/>
      </g>
     </g>
    </g>
   </g>
   <g id="patch_3">
    <path d="M 0 576 
L 0 0 
" style="fill: none; stroke: #000000; stroke-width: 0.8; stroke-linejoin: miter; stroke-linecap: square"/>
   </g>
   <g id="patch_4">
    <path d="M 576 576 
L 576 0 
" style="fill: none; stroke: #000000; stroke-width: 0.8; stroke-linejoin: miter; stroke-linecap: square"/>
   </g>
   <g id="patch_5">
    <path d="M 0 576 
L 576 576 
" style="fill: none; stroke: #000000; stroke-width: 0.8; stroke-linejoin: miter; stroke-linecap: square"/>
   </g>
   <g id="patch_6">
    <path d="M 0 0 
L 576 0 
" style="fill: none; stroke: #000000; stroke-width: 0.8; stroke-linejoin: miter; stroke-linecap: square"/>
   </g>
  </g>
 </g>
 <defs>
  <clipPath id="pac42d39563">
   <rect x="0" y="0" width="576" height="576"/>
  </clipPath>
 </defs>
</svg>
