<?xml version="1.0" encoding="utf-8" standalone="no"?>
<!DOCTYPE svg PUBLIC "-//W3C//DTD SVG 1.1//EN"
  "http://www.w3.org/Graphics/SVG/1.1/DTD/svg11.dtd">
<svg xmlns:xlink="http://www.w3.org/1999/xlink" width="576pt" height="576pt" viewBox="0 0 576 576" xmlns="http://www.w3.org/2000/svg" version="1.1">
 <metadata>
  <rdf:RDF xmlns:dc="http://purl.org/dc/elements/1.1/" xmlns:cc="http://creativecommons.org/ns#" xmlns:rdf="http://www.w3.org/1999/02/22-rdf-syntax-ns#">
   <cc:Work>
    <dc:type rdf:resource="http://purl.org/dc/dcmitype/StillImage"/>
    <dc:date>2025-06-18T12:22:36.989937</dc:date>
    <dc:format>image/svg+xml</dc:format>
    <dc:creator>
     <cc:Agent>
      <dc:title>Matplotlib v3.10.1, https://matplotlib.org/</dc:title>
     </cc:Agent>
    </dc:creator>
   </cc:Work>
  </rdf:RDF>
 </metadata>
 <defs>
  <style type="text/css">*{stroke-linejoin: round; stroke-linecap: butt}</style>
 </defs>
 <g id="figure_1">
  <g id="patch_1">
   <path d="M 0 576 
L 576 576 
L 576 0 
L 0 0 
z
" style="fill: #ffffff"/>
  </g>
  <g id="axes_1">
   <g id="patch_2">
    <path d="M 0 576 
L 576 576 
L 576 0 
L 0 0 
z
" style="fill: #ffffff"/>
   </g>
   <g id="PathCollection_1">
    <defs>
     <path id="C0_0_394558ce85" d="M 0 4.330127 
C 1.148363 4.330127 2.249847 3.873878 3.061862 3.061862 
C 3.873878 2.249847 4.330127 1.148363 4.330127 -0 
C 4.330127 -1.148363 3.873878 -2.249847 3.061862 -3.061862 
C 2.249847 -3.873878 1.148363 -4.330127 0 -4.330127 
C -1.148363 -4.330127 -2.249847 -3.873878 -3.061862 -3.061862 
C -3.873878 -2.249847 -4.330127 -1.148363 -4.330127 0 
C -4.330127 1.148363 -3.873878 2.249847 -3.061862 3.061862 
C -2.249847 3.873878 -1.148363 4.330127 0 4.330127 
z
"/>
    </defs>
    <g clip-path="url(#p630e170d0b)">
     <use xlink:href="#C0_0_394558ce85" x="225.846016" y="237.112671" style="fill: #0057ff; stroke: #000000"/>
    </g>
    <g clip-path="url(#p630e170d0b)">
     <use xlink:href="#C0_0_394558ce85" x="185.664714" y="241.231047" style="fill: #004bff; stroke: #000000"/>
    </g>
    <g clip-path="url(#p630e170d0b)">
     <use xlink:href="#C0_0_394558ce85" x="113.537315" y="325.257179" style="fill: #ff0035; stroke: #000000"/>
    </g>
    <g clip-path="url(#p630e170d0b)">
     <use xlink:href="#C0_0_394558ce85" x="463.394806" y="209.491339" style="fill: #00ff9d; stroke: #000000"/>
    </g>
    <g clip-path="url(#p630e170d0b)">
     <use xlink:href="#C0_0_394558ce85" x="302.434409" y="167.820419" style="fill: #00ffd3; stroke: #000000"/>
    </g>
    <g clip-path="url(#p630e170d0b)">
     <use xlink:href="#C0_0_394558ce85" x="250.93821" y="399.529212" style="fill: #72ff00; stroke: #000000"/>
    </g>
    <g clip-path="url(#p630e170d0b)">
     <use xlink:href="#C0_0_394558ce85" x="350.826476" y="326.057271" style="fill: #ff00bd; stroke: #000000"/>
    </g>
    <g clip-path="url(#p630e170d0b)">
     <use xlink:href="#C0_0_394558ce85" x="314.947881" y="59.653393" style="fill: #00fff0; stroke: #000000"/>
    </g>
    <g clip-path="url(#p630e170d0b)">
     <use xlink:href="#C0_0_394558ce85" x="396.61211" y="414.409481" style="fill: #bf00ff; stroke: #000000"/>
    </g>
    <g clip-path="url(#p630e170d0b)">
     <use xlink:href="#C0_0_394558ce85" x="241.070273" y="524.092329" style="fill: #ffd500; stroke: #000000"/>
    </g>
    <g clip-path="url(#p630e170d0b)">
     <use xlink:href="#C0_0_394558ce85" x="275.919866" y="300.952354" style="fill: #fc00f5; stroke: #000000"/>
    </g>
    <g clip-path="url(#p630e170d0b)">
     <use xlink:href="#C0_0_394558ce85" x="446.286158" y="446.696669" style="fill: #d600ff; stroke: #000000"/>
    </g>
    <g clip-path="url(#p630e170d0b)">
     <use xlink:href="#C0_0_394558ce85" x="361.527546" y="220.886084" style="fill: #00ff4b; stroke: #000000"/>
    </g>
    <g clip-path="url(#p630e170d0b)">
     <use xlink:href="#C0_0_394558ce85" x="225.677775" y="340.163515" style="fill: #d7ff00; stroke: #000000"/>
    </g>
    <g clip-path="url(#p630e170d0b)">
     <use xlink:href="#C0_0_394558ce85" x="235.719622" y="465.301552" style="fill: #3d00ff; stroke: #000000"/>
    </g>
    <g clip-path="url(#p630e170d0b)">
     <use xlink:href="#C0_0_394558ce85" x="259.430067" y="40.554983" style="fill: #ff5f00; stroke: #000000"/>
    </g>
    <g clip-path="url(#p630e170d0b)">
     <use xlink:href="#C0_0_394558ce85" x="216.245622" y="192.126117" style="fill: #00bbff; stroke: #000000"/>
    </g>
    <g clip-path="url(#p630e170d0b)">
     <use xlink:href="#C0_0_394558ce85" x="512.659218" y="182.121589" style="fill: #00ff80; stroke: #000000"/>
    </g>
    <g clip-path="url(#p630e170d0b)">
     <use xlink:href="#C0_0_394558ce85" x="142.695425" y="389.489751" style="fill: #ff8800; stroke: #000000"/>
    </g>
    <g clip-path="url(#p630e170d0b)">
     <use xlink:href="#C0_0_394558ce85" x="400.348286" y="120.756655" style="fill: #00c7ff; stroke: #000000"/>
    </g>
    <g clip-path="url(#p630e170d0b)">
     <use xlink:href="#C0_0_394558ce85" x="217.094474" y="303.485219" style="fill: #009eff; stroke: #000000"/>
    </g>
    <g clip-path="url(#p630e170d0b)">
     <use xlink:href="#C0_0_394558ce85" x="438.007856" y="85.036291" style="fill: #00ffde; stroke: #000000"/>
    </g>
    <g clip-path="url(#p630e170d0b)">
     <use xlink:href="#C0_0_394558ce85" x="247.319833" y="270.681948" style="fill: #0069ff; stroke: #000000"/>
    </g>
    <g clip-path="url(#p630e170d0b)">
     <use xlink:href="#C0_0_394558ce85" x="362.929118" y="395.962561" style="fill: #a100ff; stroke: #000000"/>
    </g>
    <g clip-path="url(#p630e170d0b)">
     <use xlink:href="#C0_0_394558ce85" x="284.789922" y="262.176625" style="fill: #e800ff; stroke: #000000"/>
    </g>
    <g clip-path="url(#p630e170d0b)">
     <use xlink:href="#C0_0_394558ce85" x="254.535215" y="213.275794" style="fill: #0092ff; stroke: #000000"/>
    </g>
    <g clip-path="url(#p630e170d0b)">
     <use xlink:href="#C0_0_394558ce85" x="204.992901" y="440.350965" style="fill: #2500ff; stroke: #000000"/>
    </g>
    <g clip-path="url(#p630e170d0b)">
     <use xlink:href="#C0_0_394558ce85" x="411.814819" y="246.836627" style="fill: #43ff00; stroke: #000000"/>
    </g>
    <g clip-path="url(#p630e170d0b)">
     <use xlink:href="#C0_0_394558ce85" x="346.613236" y="177.956732" style="fill: #00ff57; stroke: #000000"/>
    </g>
    <g clip-path="url(#p630e170d0b)">
     <use xlink:href="#C0_0_394558ce85" x="177.604165" y="151.826162" style="fill: #ff6a00; stroke: #000000"/>
    </g>
    <g clip-path="url(#p630e170d0b)">
     <use xlink:href="#C0_0_394558ce85" x="73.970037" y="167.441314" style="fill: #ff1800; stroke: #000000"/>
    </g>
    <g clip-path="url(#p630e170d0b)">
     <use xlink:href="#C0_0_394558ce85" x="407.229023" y="312.196583" style="fill: #0eff00; stroke: #000000"/>
    </g>
    <g clip-path="url(#p630e170d0b)">
     <use xlink:href="#C0_0_394558ce85" x="357.860713" y="510.774565" style="fill: #3100ff; stroke: #000000"/>
    </g>
    <g clip-path="url(#p630e170d0b)">
     <use xlink:href="#C0_0_394558ce85" x="354.259189" y="259.423048" style="fill: #f400ff; stroke: #000000"/>
    </g>
    <g clip-path="url(#p630e170d0b)">
     <use xlink:href="#C0_0_394558ce85" x="457.213245" y="255.673946" style="fill: #61ff00; stroke: #000000"/>
    </g>
    <g clip-path="url(#p630e170d0b)">
     <use xlink:href="#C0_0_394558ce85" x="272.817299" y="104.930677" style="fill: #00ffc7; stroke: #000000"/>
    </g>
    <g clip-path="url(#p630e170d0b)">
     <use xlink:href="#C0_0_394558ce85" x="195.070298" y="369.874374" style="fill: #ff008e; stroke: #000000"/>
    </g>
    <g clip-path="url(#p630e170d0b)">
     <use xlink:href="#C0_0_394558ce85" x="341.637413" y="445.696278" style="fill: #0016ff; stroke: #000000"/>
    </g>
    <g clip-path="url(#p630e170d0b)">
     <use xlink:href="#C0_0_394558ce85" x="186.10136" y="503.275692" style="fill: #ffb700; stroke: #000000"/>
    </g>
    <g clip-path="url(#p630e170d0b)">
     <use xlink:href="#C0_0_394558ce85" x="436.384953" y="179.976946" style="fill: #00ff8c; stroke: #000000"/>
    </g>
    <g clip-path="url(#p630e170d0b)">
     <use xlink:href="#C0_0_394558ce85" x="448.494255" y="381.112607" style="fill: #7800ff; stroke: #000000"/>
    </g>
    <g clip-path="url(#p630e170d0b)">
     <use xlink:href="#C0_0_394558ce85" x="319.995232" y="260.926917" style="fill: #ff00a0; stroke: #000000"/>
    </g>
    <g clip-path="url(#p630e170d0b)">
     <use xlink:href="#C0_0_394558ce85" x="304.214514" y="127.063974" style="fill: #00f0ff; stroke: #000000"/>
    </g>
    <g clip-path="url(#p630e170d0b)">
     <use xlink:href="#C0_0_394558ce85" x="324.429523" y="209.935083" style="fill: #00ff39; stroke: #000000"/>
    </g>
    <g clip-path="url(#p630e170d0b)">
     <use xlink:href="#C0_0_394558ce85" x="344.919999" y="100.352606" style="fill: #00e5ff; stroke: #000000"/>
    </g>
    <g clip-path="url(#p630e170d0b)">
     <use xlink:href="#C0_0_394558ce85" x="140.213064" y="129.33193" style="fill: #ff2900; stroke: #000000"/>
    </g>
    <g clip-path="url(#p630e170d0b)">
     <use xlink:href="#C0_0_394558ce85" x="219.760242" y="80.084633" style="fill: #ff4100; stroke: #000000"/>
    </g>
    <g clip-path="url(#p630e170d0b)">
     <use xlink:href="#C0_0_394558ce85" x="211.53913" y="125.682667" style="fill: #ff5300; stroke: #000000"/>
    </g>
    <g clip-path="url(#p630e170d0b)">
     <use xlink:href="#C0_0_394558ce85" x="52.965174" y="228.773795" style="fill: #00ff74; stroke: #000000"/>
    </g>
    <g clip-path="url(#p630e170d0b)">
     <use xlink:href="#C0_0_394558ce85" x="512.247969" y="246.8593" style="fill: #1aff00; stroke: #000000"/>
    </g>
    <g clip-path="url(#p630e170d0b)">
     <use xlink:href="#C0_0_394558ce85" x="267.327604" y="175.618876" style="fill: #00d9ff; stroke: #000000"/>
    </g>
    <g clip-path="url(#p630e170d0b)">
     <use xlink:href="#C0_0_394558ce85" x="509.720152" y="356.781311" style="fill: #25ff00; stroke: #000000"/>
    </g>
    <g clip-path="url(#p630e170d0b)">
     <use xlink:href="#C0_0_394558ce85" x="241.590982" y="147.532774" style="fill: #ff0c00; stroke: #000000"/>
    </g>
    <g clip-path="url(#p630e170d0b)">
     <use xlink:href="#C0_0_394558ce85" x="389.540614" y="351.283859" style="fill: #ad00ff; stroke: #000000"/>
    </g>
    <g clip-path="url(#p630e170d0b)">
     <use xlink:href="#C0_0_394558ce85" x="71.83445" y="408.286431" style="fill: #fef100; stroke: #000000"/>
    </g>
    <g clip-path="url(#p630e170d0b)">
     <use xlink:href="#C0_0_394558ce85" x="267.387722" y="434.191635" style="fill: #0800ff; stroke: #000000"/>
    </g>
    <g clip-path="url(#p630e170d0b)">
     <use xlink:href="#C0_0_394558ce85" x="111.12628" y="220.775881" style="fill: #003fff; stroke: #000000"/>
    </g>
    <g clip-path="url(#p630e170d0b)">
     <use xlink:href="#C0_0_394558ce85" x="398.610695" y="215.07011" style="fill: #00ff2d; stroke: #000000"/>
    </g>
    <g clip-path="url(#p630e170d0b)">
     <use xlink:href="#C0_0_394558ce85" x="424.753916" y="497.459719" style="fill: #6c00ff; stroke: #000000"/>
    </g>
    <g clip-path="url(#p630e170d0b)">
     <use xlink:href="#C0_0_394558ce85" x="465.245127" y="138.619755" style="fill: #00ff62; stroke: #000000"/>
    </g>
    <g clip-path="url(#p630e170d0b)">
     <use xlink:href="#C0_0_394558ce85" x="380.85018" y="54.911385" style="fill: #00ffb5; stroke: #000000"/>
    </g>
    <g clip-path="url(#p630e170d0b)">
     <use xlink:href="#C0_0_394558ce85" x="255.236167" y="329.853722" style="fill: #96ff00; stroke: #000000"/>
    </g>
    <g clip-path="url(#p630e170d0b)">
     <use xlink:href="#C0_0_394558ce85" x="359.237549" y="292.656184" style="fill: #ff00db; stroke: #000000"/>
    </g>
    <g clip-path="url(#p630e170d0b)">
     <use xlink:href="#C0_0_394558ce85" x="279.357522" y="364.645114" style="fill: #a7ff00; stroke: #000000"/>
    </g>
    <g clip-path="url(#p630e170d0b)">
     <use xlink:href="#C0_0_394558ce85" x="313.56543" y="334.947721" style="fill: #ff00e7; stroke: #000000"/>
    </g>
    <g clip-path="url(#p630e170d0b)">
     <use xlink:href="#C0_0_394558ce85" x="467.017067" y="410.773951" style="fill: #8400ff; stroke: #000000"/>
    </g>
    <g clip-path="url(#p630e170d0b)">
     <use xlink:href="#C0_0_394558ce85" x="523.419949" y="298.830511" style="fill: #4fff00; stroke: #000000"/>
    </g>
    <g clip-path="url(#p630e170d0b)">
     <use xlink:href="#C0_0_394558ce85" x="106.637421" y="368.136689" style="fill: #ffc300; stroke: #000000"/>
    </g>
    <g clip-path="url(#p630e170d0b)">
     <use xlink:href="#C0_0_394558ce85" x="292.68106" y="489.961721" style="fill: #0022ff; stroke: #000000"/>
    </g>
    <g clip-path="url(#p630e170d0b)">
     <use xlink:href="#C0_0_394558ce85" x="309.030626" y="375.930442" style="fill: #84ff00; stroke: #000000"/>
    </g>
    <g clip-path="url(#p630e170d0b)">
     <use xlink:href="#C0_0_394558ce85" x="145.782832" y="280.988305" style="fill: #ff0018; stroke: #000000"/>
    </g>
    <g clip-path="url(#p630e170d0b)">
     <use xlink:href="#C0_0_394558ce85" x="187.480273" y="411.797276" style="fill: #002dff; stroke: #000000"/>
    </g>
    <g clip-path="url(#p630e170d0b)">
     <use xlink:href="#C0_0_394558ce85" x="177.9522" y="194.836143" style="fill: #0086ff; stroke: #000000"/>
    </g>
    <g clip-path="url(#p630e170d0b)">
     <use xlink:href="#C0_0_394558ce85" x="301.569351" y="444.802282" style="fill: #4f00ff; stroke: #000000"/>
    </g>
    <g clip-path="url(#p630e170d0b)">
     <use xlink:href="#C0_0_394558ce85" x="199.423742" y="278.134517" style="fill: #0074ff; stroke: #000000"/>
    </g>
    <g clip-path="url(#p630e170d0b)">
     <use xlink:href="#C0_0_394558ce85" x="290.682438" y="224.510362" style="fill: #ff00ac; stroke: #000000"/>
    </g>
    <g clip-path="url(#p630e170d0b)">
     <use xlink:href="#C0_0_394558ce85" x="161.39988" y="81.887146" style="fill: #ff7c00; stroke: #000000"/>
    </g>
    <g clip-path="url(#p630e170d0b)">
     <use xlink:href="#C0_0_394558ce85" x="421.54608" y="359.372475" style="fill: #5a00ff; stroke: #000000"/>
    </g>
    <g clip-path="url(#p630e170d0b)">
     <use xlink:href="#C0_0_394558ce85" x="84.930616" y="281.003804" style="fill: #ff0059; stroke: #000000"/>
    </g>
    <g clip-path="url(#p630e170d0b)">
     <use xlink:href="#C0_0_394558ce85" x="518.920052" y="415.893296" style="fill: #37ff00; stroke: #000000"/>
    </g>
    <g clip-path="url(#p630e170d0b)">
     <use xlink:href="#C0_0_394558ce85" x="309.980081" y="303.973503" style="fill: #ff00c9; stroke: #000000"/>
    </g>
    <g clip-path="url(#p630e170d0b)">
     <use xlink:href="#C0_0_394558ce85" x="152.787998" y="468.149414" style="fill: #f8fd00; stroke: #000000"/>
    </g>
    <g clip-path="url(#p630e170d0b)">
     <use xlink:href="#C0_0_394558ce85" x="467.892059" y="328.657903" style="fill: #04ff08; stroke: #000000"/>
    </g>
    <g clip-path="url(#p630e170d0b)">
     <use xlink:href="#C0_0_394558ce85" x="148.061912" y="330.826497" style="fill: #ff006b; stroke: #000000"/>
    </g>
    <g clip-path="url(#p630e170d0b)">
     <use xlink:href="#C0_0_394558ce85" x="147.545863" y="235.329539" style="fill: #00afff; stroke: #000000"/>
    </g>
    <g clip-path="url(#p630e170d0b)">
     <use xlink:href="#C0_0_394558ce85" x="173.313326" y="343.81686" style="fill: #ff007c; stroke: #000000"/>
    </g>
    <g clip-path="url(#p630e170d0b)">
     <use xlink:href="#C0_0_394558ce85" x="399.016983" y="169.521446" style="fill: #00ffa9; stroke: #000000"/>
    </g>
    <g clip-path="url(#p630e170d0b)">
     <use xlink:href="#C0_0_394558ce85" x="126.13908" y="433.442608" style="fill: #ff9a00; stroke: #000000"/>
    </g>
    <g clip-path="url(#p630e170d0b)">
     <use xlink:href="#C0_0_394558ce85" x="456.471411" y="295.048482" style="fill: #00ff10; stroke: #000000"/>
    </g>
    <g clip-path="url(#p630e170d0b)">
     <use xlink:href="#C0_0_394558ce85" x="412.045146" y="440.007505" style="fill: #cb00ff; stroke: #000000"/>
    </g>
    <g clip-path="url(#p630e170d0b)">
     <use xlink:href="#C0_0_394558ce85" x="355.626373" y="142.419119" style="fill: #00fffc; stroke: #000000"/>
    </g>
    <g clip-path="url(#p630e170d0b)">
     <use xlink:href="#C0_0_394558ce85" x="128.538202" y="172.883263" style="fill: #ff0000; stroke: #000000"/>
    </g>
    <g clip-path="url(#p630e170d0b)">
     <use xlink:href="#C0_0_394558ce85" x="401.859103" y="282.229166" style="fill: #00ff1b; stroke: #000000"/>
    </g>
    <g clip-path="url(#p630e170d0b)">
     <use xlink:href="#C0_0_394558ce85" x="304.183275" y="538.549822" style="fill: #1300ff; stroke: #000000"/>
    </g>
   </g>
   <g id="matplotlib.axis_1">
    <g id="xtick_1">
     <g id="line2d_1">
      <path d="M 0 576 
L 0 0 
" clip-path="url(#p630e170d0b)" style="fill: none; stroke-dasharray: 1.85,0.8; stroke-dashoffset: 0; stroke: #808080; stroke-width: 0.5"/>
     </g>
     <g id="line2d_2">
      <defs>
       <path id="mfeb805d5c7" d="M 0 0 
L 0 3.5 
" style="stroke: #000000; stroke-width: 0.8"/>
      </defs>
      <g>
       <use xlink:href="#mfeb805d5c7" x="0" y="576" style="stroke: #000000; stroke-width: 0.8"/>
      </g>
     </g>
     <g id="text_1">
      <!-- −1.0 -->
      <g transform="translate(-12.141406 590.598438) scale(0.1 -0.1)">
       <defs>
        <path id="DejaVuSans-2212" d="M 678 2272 
L 4684 2272 
L 4684 1741 
L 678 1741 
L 678 2272 
z
" transform="scale(0.015625)"/>
        <path id="DejaVuSans-31" d="M 794 531 
L 1825 531 
L 1825 4091 
L 703 3866 
L 703 4441 
L 1819 4666 
L 2450 4666 
L 2450 531 
L 3481 531 
L 3481 0 
L 794 0 
L 794 531 
z
" transform="scale(0.015625)"/>
        <path id="DejaVuSans-2e" d="M 684 794 
L 1344 794 
L 1344 0 
L 684 0 
L 684 794 
z
" transform="scale(0.015625)"/>
        <path id="DejaVuSans-30" d="M 2034 4250 
Q 1547 4250 1301 3770 
Q 1056 3291 1056 2328 
Q 1056 1369 1301 889 
Q 1547 409 2034 409 
Q 2525 409 2770 889 
Q 3016 1369 3016 2328 
Q 3016 3291 2770 3770 
Q 2525 4250 2034 4250 
z
M 2034 4750 
Q 2819 4750 3233 4129 
Q 3647 3509 3647 2328 
Q 3647 1150 3233 529 
Q 2819 -91 2034 -91 
Q 1250 -91 836 529 
Q 422 1150 422 2328 
Q 422 3509 836 4129 
Q 1250 4750 2034 4750 
z
" transform="scale(0.015625)"/>
       </defs>
       <use xlink:href="#DejaVuSans-2212"/>
       <use xlink:href="#DejaVuSans-31" transform="translate(83.789062 0)"/>
       <use xlink:href="#DejaVuSans-2e" transform="translate(147.412109 0)"/>
       <use xlink:href="#DejaVuSans-30" transform="translate(179.199219 0)"/>
      </g>
     </g>
    </g>
    <g id="xtick_2">
     <g id="line2d_3">
      <path d="M 57.6 576 
L 57.6 0 
" clip-path="url(#p630e170d0b)" style="fill: none; stroke-dasharray: 1.85,0.8; stroke-dashoffset: 0; stroke: #808080; stroke-width: 0.5"/>
     </g>
     <g id="line2d_4">
      <g>
       <use xlink:href="#mfeb805d5c7" x="57.6" y="576" style="stroke: #000000; stroke-width: 0.8"/>
      </g>
     </g>
     <g id="text_2">
      <!-- −0.8 -->
      <g transform="translate(45.458594 590.598438) scale(0.1 -0.1)">
       <defs>
        <path id="DejaVuSans-38" d="M 2034 2216 
Q 1584 2216 1326 1975 
Q 1069 1734 1069 1313 
Q 1069 891 1326 650 
Q 1584 409 2034 409 
Q 2484 409 2743 651 
Q 3003 894 3003 1313 
Q 3003 1734 2745 1975 
Q 2488 2216 2034 2216 
z
M 1403 2484 
Q 997 2584 770 2862 
Q 544 3141 544 3541 
Q 544 4100 942 4425 
Q 1341 4750 2034 4750 
Q 2731 4750 3128 4425 
Q 3525 4100 3525 3541 
Q 3525 3141 3298 2862 
Q 3072 2584 2669 2484 
Q 3125 2378 3379 2068 
Q 3634 1759 3634 1313 
Q 3634 634 3220 271 
Q 2806 -91 2034 -91 
Q 1263 -91 848 271 
Q 434 634 434 1313 
Q 434 1759 690 2068 
Q 947 2378 1403 2484 
z
M 1172 3481 
Q 1172 3119 1398 2916 
Q 1625 2713 2034 2713 
Q 2441 2713 2670 2916 
Q 2900 3119 2900 3481 
Q 2900 3844 2670 4047 
Q 2441 4250 2034 4250 
Q 1625 4250 1398 4047 
Q 1172 3844 1172 3481 
z
" transform="scale(0.015625)"/>
       </defs>
       <use xlink:href="#DejaVuSans-2212"/>
       <use xlink:href="#DejaVuSans-30" transform="translate(83.789062 0)"/>
       <use xlink:href="#DejaVuSans-2e" transform="translate(147.412109 0)"/>
       <use xlink:href="#DejaVuSans-38" transform="translate(179.199219 0)"/>
      </g>
     </g>
    </g>
    <g id="xtick_3">
     <g id="line2d_5">
      <path d="M 115.2 576 
L 115.2 0 
" clip-path="url(#p630e170d0b)" style="fill: none; stroke-dasharray: 1.85,0.8; stroke-dashoffset: 0; stroke: #808080; stroke-width: 0.5"/>
     </g>
     <g id="line2d_6">
      <g>
       <use xlink:href="#mfeb805d5c7" x="115.2" y="576" style="stroke: #000000; stroke-width: 0.8"/>
      </g>
     </g>
     <g id="text_3">
      <!-- −0.6 -->
      <g transform="translate(103.058594 590.598438) scale(0.1 -0.1)">
       <defs>
        <path id="DejaVuSans-36" d="M 2113 2584 
Q 1688 2584 1439 2293 
Q 1191 2003 1191 1497 
Q 1191 994 1439 701 
Q 1688 409 2113 409 
Q 2538 409 2786 701 
Q 3034 994 3034 1497 
Q 3034 2003 2786 2293 
Q 2538 2584 2113 2584 
z
M 3366 4563 
L 3366 3988 
Q 3128 4100 2886 4159 
Q 2644 4219 2406 4219 
Q 1781 4219 1451 3797 
Q 1122 3375 1075 2522 
Q 1259 2794 1537 2939 
Q 1816 3084 2150 3084 
Q 2853 3084 3261 2657 
Q 3669 2231 3669 1497 
Q 3669 778 3244 343 
Q 2819 -91 2113 -91 
Q 1303 -91 875 529 
Q 447 1150 447 2328 
Q 447 3434 972 4092 
Q 1497 4750 2381 4750 
Q 2619 4750 2861 4703 
Q 3103 4656 3366 4563 
z
" transform="scale(0.015625)"/>
       </defs>
       <use xlink:href="#DejaVuSans-2212"/>
       <use xlink:href="#DejaVuSans-30" transform="translate(83.789062 0)"/>
       <use xlink:href="#DejaVuSans-2e" transform="translate(147.412109 0)"/>
       <use xlink:href="#DejaVuSans-36" transform="translate(179.199219 0)"/>
      </g>
     </g>
    </g>
    <g id="xtick_4">
     <g id="line2d_7">
      <path d="M 172.8 576 
L 172.8 0 
" clip-path="url(#p630e170d0b)" style="fill: none; stroke-dasharray: 1.85,0.8; stroke-dashoffset: 0; stroke: #808080; stroke-width: 0.5"/>
     </g>
     <g id="line2d_8">
      <g>
       <use xlink:href="#mfeb805d5c7" x="172.8" y="576" style="stroke: #000000; stroke-width: 0.8"/>
      </g>
     </g>
     <g id="text_4">
      <!-- −0.4 -->
      <g transform="translate(160.658594 590.598438) scale(0.1 -0.1)">
       <defs>
        <path id="DejaVuSans-34" d="M 2419 4116 
L 825 1625 
L 2419 1625 
L 2419 4116 
z
M 2253 4666 
L 3047 4666 
L 3047 1625 
L 3713 1625 
L 3713 1100 
L 3047 1100 
L 3047 0 
L 2419 0 
L 2419 1100 
L 313 1100 
L 313 1709 
L 2253 4666 
z
" transform="scale(0.015625)"/>
       </defs>
       <use xlink:href="#DejaVuSans-2212"/>
       <use xlink:href="#DejaVuSans-30" transform="translate(83.789062 0)"/>
       <use xlink:href="#DejaVuSans-2e" transform="translate(147.412109 0)"/>
       <use xlink:href="#DejaVuSans-34" transform="translate(179.199219 0)"/>
      </g>
     </g>
    </g>
    <g id="xtick_5">
     <g id="line2d_9">
      <path d="M 230.4 576 
L 230.4 0 
" clip-path="url(#p630e170d0b)" style="fill: none; stroke-dasharray: 1.85,0.8; stroke-dashoffset: 0; stroke: #808080; stroke-width: 0.5"/>
     </g>
     <g id="line2d_10">
      <g>
       <use xlink:href="#mfeb805d5c7" x="230.4" y="576" style="stroke: #000000; stroke-width: 0.8"/>
      </g>
     </g>
     <g id="text_5">
      <!-- −0.2 -->
      <g transform="translate(218.258594 590.598438) scale(0.1 -0.1)">
       <defs>
        <path id="DejaVuSans-32" d="M 1228 531 
L 3431 531 
L 3431 0 
L 469 0 
L 469 531 
Q 828 903 1448 1529 
Q 2069 2156 2228 2338 
Q 2531 2678 2651 2914 
Q 2772 3150 2772 3378 
Q 2772 3750 2511 3984 
Q 2250 4219 1831 4219 
Q 1534 4219 1204 4116 
Q 875 4013 500 3803 
L 500 4441 
Q 881 4594 1212 4672 
Q 1544 4750 1819 4750 
Q 2544 4750 2975 4387 
Q 3406 4025 3406 3419 
Q 3406 3131 3298 2873 
Q 3191 2616 2906 2266 
Q 2828 2175 2409 1742 
Q 1991 1309 1228 531 
z
" transform="scale(0.015625)"/>
       </defs>
       <use xlink:href="#DejaVuSans-2212"/>
       <use xlink:href="#DejaVuSans-30" transform="translate(83.789062 0)"/>
       <use xlink:href="#DejaVuSans-2e" transform="translate(147.412109 0)"/>
       <use xlink:href="#DejaVuSans-32" transform="translate(179.199219 0)"/>
      </g>
     </g>
    </g>
    <g id="xtick_6">
     <g id="line2d_11">
      <path d="M 288 576 
L 288 0 
" clip-path="url(#p630e170d0b)" style="fill: none; stroke-dasharray: 1.85,0.8; stroke-dashoffset: 0; stroke: #808080; stroke-width: 0.5"/>
     </g>
     <g id="line2d_12">
      <g>
       <use xlink:href="#mfeb805d5c7" x="288" y="576" style="stroke: #000000; stroke-width: 0.8"/>
      </g>
     </g>
     <g id="text_6">
      <!-- 0.0 -->
      <g transform="translate(280.048437 590.598438) scale(0.1 -0.1)">
       <use xlink:href="#DejaVuSans-30"/>
       <use xlink:href="#DejaVuSans-2e" transform="translate(63.623047 0)"/>
       <use xlink:href="#DejaVuSans-30" transform="translate(95.410156 0)"/>
      </g>
     </g>
    </g>
    <g id="xtick_7">
     <g id="line2d_13">
      <path d="M 345.6 576 
L 345.6 0 
" clip-path="url(#p630e170d0b)" style="fill: none; stroke-dasharray: 1.85,0.8; stroke-dashoffset: 0; stroke: #808080; stroke-width: 0.5"/>
     </g>
     <g id="line2d_14">
      <g>
       <use xlink:href="#mfeb805d5c7" x="345.6" y="576" style="stroke: #000000; stroke-width: 0.8"/>
      </g>
     </g>
     <g id="text_7">
      <!-- 0.2 -->
      <g transform="translate(337.648437 590.598438) scale(0.1 -0.1)">
       <use xlink:href="#DejaVuSans-30"/>
       <use xlink:href="#DejaVuSans-2e" transform="translate(63.623047 0)"/>
       <use xlink:href="#DejaVuSans-32" transform="translate(95.410156 0)"/>
      </g>
     </g>
    </g>
    <g id="xtick_8">
     <g id="line2d_15">
      <path d="M 403.2 576 
L 403.2 0 
" clip-path="url(#p630e170d0b)" style="fill: none; stroke-dasharray: 1.85,0.8; stroke-dashoffset: 0; stroke: #808080; stroke-width: 0.5"/>
     </g>
     <g id="line2d_16">
      <g>
       <use xlink:href="#mfeb805d5c7" x="403.2" y="576" style="stroke: #000000; stroke-width: 0.8"/>
      </g>
     </g>
     <g id="text_8">
      <!-- 0.4 -->
      <g transform="translate(395.248437 590.598438) scale(0.1 -0.1)">
       <use xlink:href="#DejaVuSans-30"/>
       <use xlink:href="#DejaVuSans-2e" transform="translate(63.623047 0)"/>
       <use xlink:href="#DejaVuSans-34" transform="translate(95.410156 0)"/>
      </g>
     </g>
    </g>
    <g id="xtick_9">
     <g id="line2d_17">
      <path d="M 460.8 576 
L 460.8 0 
" clip-path="url(#p630e170d0b)" style="fill: none; stroke-dasharray: 1.85,0.8; stroke-dashoffset: 0; stroke: #808080; stroke-width: 0.5"/>
     </g>
     <g id="line2d_18">
      <g>
       <use xlink:href="#mfeb805d5c7" x="460.8" y="576" style="stroke: #000000; stroke-width: 0.8"/>
      </g>
     </g>
     <g id="text_9">
      <!-- 0.6 -->
      <g transform="translate(452.848437 590.598438) scale(0.1 -0.1)">
       <use xlink:href="#DejaVuSans-30"/>
       <use xlink:href="#DejaVuSans-2e" transform="translate(63.623047 0)"/>
       <use xlink:href="#DejaVuSans-36" transform="translate(95.410156 0)"/>
      </g>
     </g>
    </g>
    <g id="xtick_10">
     <g id="line2d_19">
      <path d="M 518.4 576 
L 518.4 0 
" clip-path="url(#p630e170d0b)" style="fill: none; stroke-dasharray: 1.85,0.8; stroke-dashoffset: 0; stroke: #808080; stroke-width: 0.5"/>
     </g>
     <g id="line2d_20">
      <g>
       <use xlink:href="#mfeb805d5c7" x="518.4" y="576" style="stroke: #000000; stroke-width: 0.8"/>
      </g>
     </g>
     <g id="text_10">
      <!-- 0.8 -->
      <g transform="translate(510.448437 590.598438) scale(0.1 -0.1)">
       <use xlink:href="#DejaVuSans-30"/>
       <use xlink:href="#DejaVuSans-2e" transform="translate(63.623047 0)"/>
       <use xlink:href="#DejaVuSans-38" transform="translate(95.410156 0)"/>
      </g>
     </g>
    </g>
    <g id="xtick_11">
     <g id="line2d_21">
      <path d="M 576 576 
L 576 0 
" clip-path="url(#p630e170d0b)" style="fill: none; stroke-dasharray: 1.85,0.8; stroke-dashoffset: 0; stroke: #808080; stroke-width: 0.5"/>
     </g>
     <g id="line2d_22">
      <g>
       <use xlink:href="#mfeb805d5c7" x="576" y="576" style="stroke: #000000; stroke-width: 0.8"/>
      </g>
     </g>
     <g id="text_11">
      <!-- 1.0 -->
      <g transform="translate(568.048437 590.598438) scale(0.1 -0.1)">
       <use xlink:href="#DejaVuSans-31"/>
       <use xlink:href="#DejaVuSans-2e" transform="translate(63.623047 0)"/>
       <use xlink:href="#DejaVuSans-30" transform="translate(95.410156 0)"/>
      </g>
     </g>
    </g>
   </g>
   <g id="matplotlib.axis_2">
    <g id="ytick_1">
     <g id="line2d_23">
      <path d="M 0 576 
L 576 576 
" clip-path="url(#p630e170d0b)" style="fill: none; stroke-dasharray: 1.85,0.8; stroke-dashoffset: 0; stroke: #808080; stroke-width: 0.5"/>
     </g>
     <g id="line2d_24">
      <defs>
       <path id="m32ba2e6be0" d="M 0 0 
L -3.5 0 
" style="stroke: #000000; stroke-width: 0.8"/>
      </defs>
      <g>
       <use xlink:href="#m32ba2e6be0" x="0" y="576" style="stroke: #000000; stroke-width: 0.8"/>
      </g>
     </g>
     <g id="text_12">
      <!-- −1.0 -->
      <g transform="translate(-31.282813 579.799219) scale(0.1 -0.1)">
       <use xlink:href="#DejaVuSans-2212"/>
       <use xlink:href="#DejaVuSans-31" transform="translate(83.789062 0)"/>
       <use xlink:href="#DejaVuSans-2e" transform="translate(147.412109 0)"/>
       <use xlink:href="#DejaVuSans-30" transform="translate(179.199219 0)"/>
      </g>
     </g>
    </g>
    <g id="ytick_2">
     <g id="line2d_25">
      <path d="M 0 518.4 
L 576 518.4 
" clip-path="url(#p630e170d0b)" style="fill: none; stroke-dasharray: 1.85,0.8; stroke-dashoffset: 0; stroke: #808080; stroke-width: 0.5"/>
     </g>
     <g id="line2d_26">
      <g>
       <use xlink:href="#m32ba2e6be0" x="0" y="518.4" style="stroke: #000000; stroke-width: 0.8"/>
      </g>
     </g>
     <g id="text_13">
      <!-- −0.8 -->
      <g transform="translate(-31.282813 522.199219) scale(0.1 -0.1)">
       <use xlink:href="#DejaVuSans-2212"/>
       <use xlink:href="#DejaVuSans-30" transform="translate(83.789062 0)"/>
       <use xlink:href="#DejaVuSans-2e" transform="translate(147.412109 0)"/>
       <use xlink:href="#DejaVuSans-38" transform="translate(179.199219 0)"/>
      </g>
     </g>
    </g>
    <g id="ytick_3">
     <g id="line2d_27">
      <path d="M 0 460.8 
L 576 460.8 
" clip-path="url(#p630e170d0b)" style="fill: none; stroke-dasharray: 1.85,0.8; stroke-dashoffset: 0; stroke: #808080; stroke-width: 0.5"/>
     </g>
     <g id="line2d_28">
      <g>
       <use xlink:href="#m32ba2e6be0" x="0" y="460.8" style="stroke: #000000; stroke-width: 0.8"/>
      </g>
     </g>
     <g id="text_14">
      <!-- −0.6 -->
      <g transform="translate(-31.282813 464.599219) scale(0.1 -0.1)">
       <use xlink:href="#DejaVuSans-2212"/>
       <use xlink:href="#DejaVuSans-30" transform="translate(83.789062 0)"/>
       <use xlink:href="#DejaVuSans-2e" transform="translate(147.412109 0)"/>
       <use xlink:href="#DejaVuSans-36" transform="translate(179.199219 0)"/>
      </g>
     </g>
    </g>
    <g id="ytick_4">
     <g id="line2d_29">
      <path d="M 0 403.2 
L 576 403.2 
" clip-path="url(#p630e170d0b)" style="fill: none; stroke-dasharray: 1.85,0.8; stroke-dashoffset: 0; stroke: #808080; stroke-width: 0.5"/>
     </g>
     <g id="line2d_30">
      <g>
       <use xlink:href="#m32ba2e6be0" x="0" y="403.2" style="stroke: #000000; stroke-width: 0.8"/>
      </g>
     </g>
     <g id="text_15">
      <!-- −0.4 -->
      <g transform="translate(-31.282813 406.999219) scale(0.1 -0.1)">
       <use xlink:href="#DejaVuSans-2212"/>
       <use xlink:href="#DejaVuSans-30" transform="translate(83.789062 0)"/>
       <use xlink:href="#DejaVuSans-2e" transform="translate(147.412109 0)"/>
       <use xlink:href="#DejaVuSans-34" transform="translate(179.199219 0)"/>
      </g>
     </g>
    </g>
    <g id="ytick_5">
     <g id="line2d_31">
      <path d="M 0 345.6 
L 576 345.6 
" clip-path="url(#p630e170d0b)" style="fill: none; stroke-dasharray: 1.85,0.8; stroke-dashoffset: 0; stroke: #808080; stroke-width: 0.5"/>
     </g>
     <g id="line2d_32">
      <g>
       <use xlink:href="#m32ba2e6be0" x="0" y="345.6" style="stroke: #000000; stroke-width: 0.8"/>
      </g>
     </g>
     <g id="text_16">
      <!-- −0.2 -->
      <g transform="translate(-31.282813 349.399219) scale(0.1 -0.1)">
       <use xlink:href="#DejaVuSans-2212"/>
       <use xlink:href="#DejaVuSans-30" transform="translate(83.789062 0)"/>
       <use xlink:href="#DejaVuSans-2e" transform="translate(147.412109 0)"/>
       <use xlink:href="#DejaVuSans-32" transform="translate(179.199219 0)"/>
      </g>
     </g>
    </g>
    <g id="ytick_6">
     <g id="line2d_33">
      <path d="M 0 288 
L 576 288 
" clip-path="url(#p630e170d0b)" style="fill: none; stroke-dasharray: 1.85,0.8; stroke-dashoffset: 0; stroke: #808080; stroke-width: 0.5"/>
     </g>
     <g id="line2d_34">
      <g>
       <use xlink:href="#m32ba2e6be0" x="0" y="288" style="stroke: #000000; stroke-width: 0.8"/>
      </g>
     </g>
     <g id="text_17">
      <!-- 0.0 -->
      <g transform="translate(-22.903125 291.799219) scale(0.1 -0.1)">
       <use xlink:href="#DejaVuSans-30"/>
       <use xlink:href="#DejaVuSans-2e" transform="translate(63.623047 0)"/>
       <use xlink:href="#DejaVuSans-30" transform="translate(95.410156 0)"/>
      </g>
     </g>
    </g>
    <g id="ytick_7">
     <g id="line2d_35">
      <path d="M 0 230.4 
L 576 230.4 
" clip-path="url(#p630e170d0b)" style="fill: none; stroke-dasharray: 1.85,0.8; stroke-dashoffset: 0; stroke: #808080; stroke-width: 0.5"/>
     </g>
     <g id="line2d_36">
      <g>
       <use xlink:href="#m32ba2e6be0" x="0" y="230.4" style="stroke: #000000; stroke-width: 0.8"/>
      </g>
     </g>
     <g id="text_18">
      <!-- 0.2 -->
      <g transform="translate(-22.903125 234.199219) scale(0.1 -0.1)">
       <use xlink:href="#DejaVuSans-30"/>
       <use xlink:href="#DejaVuSans-2e" transform="translate(63.623047 0)"/>
       <use xlink:href="#DejaVuSans-32" transform="translate(95.410156 0)"/>
      </g>
     </g>
    </g>
    <g id="ytick_8">
     <g id="line2d_37">
      <path d="M 0 172.8 
L 576 172.8 
" clip-path="url(#p630e170d0b)" style="fill: none; stroke-dasharray: 1.85,0.8; stroke-dashoffset: 0; stroke: #808080; stroke-width: 0.5"/>
     </g>
     <g id="line2d_38">
      <g>
       <use xlink:href="#m32ba2e6be0" x="0" y="172.8" style="stroke: #000000; stroke-width: 0.8"/>
      </g>
     </g>
     <g id="text_19">
      <!-- 0.4 -->
      <g transform="translate(-22.903125 176.599219) scale(0.1 -0.1)">
       <use xlink:href="#DejaVuSans-30"/>
       <use xlink:href="#DejaVuSans-2e" transform="translate(63.623047 0)"/>
       <use xlink:href="#DejaVuSans-34" transform="translate(95.410156 0)"/>
      </g>
     </g>
    </g>
    <g id="ytick_9">
     <g id="line2d_39">
      <path d="M 0 115.2 
L 576 115.2 
" clip-path="url(#p630e170d0b)" style="fill: none; stroke-dasharray: 1.85,0.8; stroke-dashoffset: 0; stroke: #808080; stroke-width: 0.5"/>
     </g>
     <g id="line2d_40">
      <g>
       <use xlink:href="#m32ba2e6be0" x="0" y="115.2" style="stroke: #000000; stroke-width: 0.8"/>
      </g>
     </g>
     <g id="text_20">
      <!-- 0.6 -->
      <g transform="translate(-22.903125 118.999219) scale(0.1 -0.1)">
       <use xlink:href="#DejaVuSans-30"/>
       <use xlink:href="#DejaVuSans-2e" transform="translate(63.623047 0)"/>
       <use xlink:href="#DejaVuSans-36" transform="translate(95.410156 0)"/>
      </g>
     </g>
    </g>
    <g id="ytick_10">
     <g id="line2d_41">
      <path d="M 0 57.6 
L 576 57.6 
" clip-path="url(#p630e170d0b)" style="fill: none; stroke-dasharray: 1.85,0.8; stroke-dashoffset: 0; stroke: #808080; stroke-width: 0.5"/>
     </g>
     <g id="line2d_42">
      <g>
       <use xlink:href="#m32ba2e6be0" x="0" y="57.6" style="stroke: #000000; stroke-width: 0.8"/>
      </g>
     </g>
     <g id="text_21">
      <!-- 0.8 -->
      <g transform="translate(-22.903125 61.399219) scale(0.1 -0.1)">
       <use xlink:href="#DejaVuSans-30"/>
       <use xlink:href="#DejaVuSans-2e" transform="translate(63.623047 0)"/>
       <use xlink:href="#DejaVuSans-38" transform="translate(95.410156 0)"/>
      </g>
     </g>
    </g>
    <g id="ytick_11">
     <g id="line2d_43">
      <path d="M 0 0 
L 576 0 
" clip-path="url(#p630e170d0b)" style="fill: none; stroke-dasharray: 1.85,0.8; stroke-dashoffset: 0; stroke: #808080; stroke-width: 0.5"/>
     </g>
     <g id="line2d_44">
      <g>
       <use xlink:href="#m32ba2e6be0" x="0" y="0" style="stroke: #000000; stroke-width: 0.8"/>
      </g>
     </g>
     <g id="text_22">
      <!-- 1.0 -->
      <g transform="translate(-22.903125 3.799219) scale(0.1 -0.1)">
       <use xlink:href="#DejaVuSans-31"/>
       <use xlink:href="#DejaVuSans-2e" transform="translate(63.623047 0)"/>
       <use xlink:href="#DejaVuSans-30" transform="translate(95.410156 0)"/>
      </g>
     </g>
    </g>
   </g>
   <g id="patch_3">
    <path d="M 0 576 
L 0 0 
" style="fill: none; stroke: #000000; stroke-width: 0.8; stroke-linejoin: miter; stroke-linecap: square"/>
   </g>
   <g id="patch_4">
    <path d="M 576 576 
L 576 0 
" style="fill: none; stroke: #000000; stroke-width: 0.8; stroke-linejoin: miter; stroke-linecap: square"/>
   </g>
   <g id="patch_5">
    <path d="M 0 576 
L 576 576 
" style="fill: none; stroke: #000000; stroke-width: 0.8; stroke-linejoin: miter; stroke-linecap: square"/>
   </g>
   <g id="patch_6">
    <path d="M 0 0 
L 576 0 
" style="fill: none; stroke: #000000; stroke-width: 0.8; stroke-linejoin: miter; stroke-linecap: square"/>
   </g>
  </g>
 </g>
 <defs>
  <clipPath id="p630e170d0b">
   <rect x="0" y="0" width="576" height="576"/>
  </clipPath>
 </defs>
</svg>
