<?xml version="1.0" encoding="utf-8" standalone="no"?>
<!DOCTYPE svg PUBLIC "-//W3C//DTD SVG 1.1//EN"
  "http://www.w3.org/Graphics/SVG/1.1/DTD/svg11.dtd">
<svg xmlns:xlink="http://www.w3.org/1999/xlink" width="576pt" height="576pt" viewBox="0 0 576 576" xmlns="http://www.w3.org/2000/svg" version="1.1">
 <metadata>
  <rdf:RDF xmlns:dc="http://purl.org/dc/elements/1.1/" xmlns:cc="http://creativecommons.org/ns#" xmlns:rdf="http://www.w3.org/1999/02/22-rdf-syntax-ns#">
   <cc:Work>
    <dc:type rdf:resource="http://purl.org/dc/dcmitype/StillImage"/>
    <dc:date>2025-06-18T12:22:37.223948</dc:date>
    <dc:format>image/svg+xml</dc:format>
    <dc:creator>
     <cc:Agent>
      <dc:title>Matplotlib v3.10.1, https://matplotlib.org/</dc:title>
     </cc:Agent>
    </dc:creator>
   </cc:Work>
  </rdf:RDF>
 </metadata>
 <defs>
  <style type="text/css">*{stroke-linejoin: round; stroke-linecap: butt}</style>
 </defs>
 <g id="figure_1">
  <g id="patch_1">
   <path d="M 0 576 
L 576 576 
L 576 0 
L 0 0 
z
" style="fill: #ffffff"/>
  </g>
  <g id="axes_1">
   <g id="patch_2">
    <path d="M 0 576 
L 576 576 
L 576 0 
L 0 0 
z
" style="fill: #ffffff"/>
   </g>
   <g id="PathCollection_1">
    <defs>
     <path id="C0_0_c5ac375d0e" d="M 0 4.330127 
C 1.148363 4.330127 2.249847 3.873878 3.061862 3.061862 
C 3.873878 2.249847 4.330127 1.148363 4.330127 -0 
C 4.330127 -1.148363 3.873878 -2.249847 3.061862 -3.061862 
C 2.249847 -3.873878 1.148363 -4.330127 0 -4.330127 
C -1.148363 -4.330127 -2.249847 -3.873878 -3.061862 -3.061862 
C -3.873878 -2.249847 -4.330127 -1.148363 -4.330127 0 
C -4.330127 1.148363 -3.873878 2.249847 -3.061862 3.061862 
C -2.249847 3.873878 -1.148363 4.330127 0 4.330127 
z
"/>
    </defs>
    <g clip-path="url(#p5be2fdc5f9)">
     <use xlink:href="#C0_0_c5ac375d0e" x="225.713644" y="237.21466" style="fill: #0057ff; stroke: #000000"/>
    </g>
    <g clip-path="url(#p5be2fdc5f9)">
     <use xlink:href="#C0_0_c5ac375d0e" x="309.156314" y="376.059566" style="fill: #84ff00; stroke: #000000"/>
    </g>
    <g clip-path="url(#p5be2fdc5f9)">
     <use xlink:href="#C0_0_c5ac375d0e" x="446.401205" y="446.914558" style="fill: #d600ff; stroke: #000000"/>
    </g>
    <g clip-path="url(#p5be2fdc5f9)">
     <use xlink:href="#C0_0_c5ac375d0e" x="285.018253" y="261.942067" style="fill: #e800ff; stroke: #000000"/>
    </g>
    <g clip-path="url(#p5be2fdc5f9)">
     <use xlink:href="#C0_0_c5ac375d0e" x="199.360073" y="277.969685" style="fill: #0074ff; stroke: #000000"/>
    </g>
    <g clip-path="url(#p5be2fdc5f9)">
     <use xlink:href="#C0_0_c5ac375d0e" x="177.607367" y="151.853113" style="fill: #ff6a00; stroke: #000000"/>
    </g>
    <g clip-path="url(#p5be2fdc5f9)">
     <use xlink:href="#C0_0_c5ac375d0e" x="216.15798" y="192.212831" style="fill: #00bbff; stroke: #000000"/>
    </g>
    <g clip-path="url(#p5be2fdc5f9)">
     <use xlink:href="#C0_0_c5ac375d0e" x="398.984565" y="169.49053" style="fill: #00ffa9; stroke: #000000"/>
    </g>
    <g clip-path="url(#p5be2fdc5f9)">
     <use xlink:href="#C0_0_c5ac375d0e" x="380.909969" y="54.91341" style="fill: #00ffb5; stroke: #000000"/>
    </g>
    <g clip-path="url(#p5be2fdc5f9)">
     <use xlink:href="#C0_0_c5ac375d0e" x="438.186642" y="85.109642" style="fill: #00ffde; stroke: #000000"/>
    </g>
    <g clip-path="url(#p5be2fdc5f9)">
     <use xlink:href="#C0_0_c5ac375d0e" x="292.669664" y="490.071894" style="fill: #0022ff; stroke: #000000"/>
    </g>
    <g clip-path="url(#p5be2fdc5f9)">
     <use xlink:href="#C0_0_c5ac375d0e" x="424.969394" y="497.239563" style="fill: #6c00ff; stroke: #000000"/>
    </g>
    <g clip-path="url(#p5be2fdc5f9)">
     <use xlink:href="#C0_0_c5ac375d0e" x="241.785324" y="147.616845" style="fill: #ff0c00; stroke: #000000"/>
    </g>
    <g clip-path="url(#p5be2fdc5f9)">
     <use xlink:href="#C0_0_c5ac375d0e" x="411.834217" y="246.840662" style="fill: #43ff00; stroke: #000000"/>
    </g>
    <g clip-path="url(#p5be2fdc5f9)">
     <use xlink:href="#C0_0_c5ac375d0e" x="211.335677" y="125.814777" style="fill: #ff5300; stroke: #000000"/>
    </g>
    <g clip-path="url(#p5be2fdc5f9)">
     <use xlink:href="#C0_0_c5ac375d0e" x="448.481003" y="380.945366" style="fill: #7800ff; stroke: #000000"/>
    </g>
    <g clip-path="url(#p5be2fdc5f9)">
     <use xlink:href="#C0_0_c5ac375d0e" x="142.870056" y="389.494712" style="fill: #ff8800; stroke: #000000"/>
    </g>
    <g clip-path="url(#p5be2fdc5f9)">
     <use xlink:href="#C0_0_c5ac375d0e" x="407.180889" y="312.32893" style="fill: #0eff00; stroke: #000000"/>
    </g>
    <g clip-path="url(#p5be2fdc5f9)">
     <use xlink:href="#C0_0_c5ac375d0e" x="173.45753" y="343.893858" style="fill: #ff007c; stroke: #000000"/>
    </g>
    <g clip-path="url(#p5be2fdc5f9)">
     <use xlink:href="#C0_0_c5ac375d0e" x="147.821405" y="330.909512" style="fill: #ff006b; stroke: #000000"/>
    </g>
    <g clip-path="url(#p5be2fdc5f9)">
     <use xlink:href="#C0_0_c5ac375d0e" x="32.377962" y="290.046914" style="fill: #ffe600; stroke: #000000"/>
    </g>
    <g clip-path="url(#p5be2fdc5f9)">
     <use xlink:href="#C0_0_c5ac375d0e" x="304.195013" y="127.163177" style="fill: #00f0ff; stroke: #000000"/>
    </g>
    <g clip-path="url(#p5be2fdc5f9)">
     <use xlink:href="#C0_0_c5ac375d0e" x="186.02134" y="503.446049" style="fill: #ffb700; stroke: #000000"/>
    </g>
    <g clip-path="url(#p5be2fdc5f9)">
     <use xlink:href="#C0_0_c5ac375d0e" x="421.555607" y="359.500646" style="fill: #5a00ff; stroke: #000000"/>
    </g>
    <g clip-path="url(#p5be2fdc5f9)">
     <use xlink:href="#C0_0_c5ac375d0e" x="235.652344" y="465.125736" style="fill: #3d00ff; stroke: #000000"/>
    </g>
    <g clip-path="url(#p5be2fdc5f9)">
     <use xlink:href="#C0_0_c5ac375d0e" x="54.238335" y="344.399611" style="fill: #ffa500; stroke: #000000"/>
    </g>
    <g clip-path="url(#p5be2fdc5f9)">
     <use xlink:href="#C0_0_c5ac375d0e" x="467.08283" y="410.742099" style="fill: #8400ff; stroke: #000000"/>
    </g>
    <g clip-path="url(#p5be2fdc5f9)">
     <use xlink:href="#C0_0_c5ac375d0e" x="205.053532" y="440.359652" style="fill: #2500ff; stroke: #000000"/>
    </g>
    <g clip-path="url(#p5be2fdc5f9)">
     <use xlink:href="#C0_0_c5ac375d0e" x="457.391962" y="255.721668" style="fill: #61ff00; stroke: #000000"/>
    </g>
    <g clip-path="url(#p5be2fdc5f9)">
     <use xlink:href="#C0_0_c5ac375d0e" x="177.712818" y="194.990639" style="fill: #0086ff; stroke: #000000"/>
    </g>
    <g clip-path="url(#p5be2fdc5f9)">
     <use xlink:href="#C0_0_c5ac375d0e" x="168.938278" y="303.836605" style="fill: #ff0047; stroke: #000000"/>
    </g>
    <g clip-path="url(#p5be2fdc5f9)">
     <use xlink:href="#C0_0_c5ac375d0e" x="113.733644" y="325.118674" style="fill: #ff0035; stroke: #000000"/>
    </g>
    <g clip-path="url(#p5be2fdc5f9)">
     <use xlink:href="#C0_0_c5ac375d0e" x="161.381495" y="81.957664" style="fill: #ff7c00; stroke: #000000"/>
    </g>
    <g clip-path="url(#p5be2fdc5f9)">
     <use xlink:href="#C0_0_c5ac375d0e" x="241.061892" y="523.988886" style="fill: #ffd500; stroke: #000000"/>
    </g>
    <g clip-path="url(#p5be2fdc5f9)">
     <use xlink:href="#C0_0_c5ac375d0e" x="518.924429" y="415.997546" style="fill: #37ff00; stroke: #000000"/>
    </g>
    <g clip-path="url(#p5be2fdc5f9)">
     <use xlink:href="#C0_0_c5ac375d0e" x="304.107071" y="538.559126" style="fill: #1300ff; stroke: #000000"/>
    </g>
    <g clip-path="url(#p5be2fdc5f9)">
     <use xlink:href="#C0_0_c5ac375d0e" x="361.239979" y="220.827315" style="fill: #00ff4b; stroke: #000000"/>
    </g>
    <g clip-path="url(#p5be2fdc5f9)">
     <use xlink:href="#C0_0_c5ac375d0e" x="324.209118" y="209.815195" style="fill: #00ff39; stroke: #000000"/>
    </g>
    <g clip-path="url(#p5be2fdc5f9)">
     <use xlink:href="#C0_0_c5ac375d0e" x="152.831102" y="468.273336" style="fill: #f8fd00; stroke: #000000"/>
    </g>
    <g clip-path="url(#p5be2fdc5f9)">
     <use xlink:href="#C0_0_c5ac375d0e" x="225.776708" y="340.153988" style="fill: #d7ff00; stroke: #000000"/>
    </g>
    <g clip-path="url(#p5be2fdc5f9)">
     <use xlink:href="#C0_0_c5ac375d0e" x="389.794467" y="351.178399" style="fill: #ad00ff; stroke: #000000"/>
    </g>
    <g clip-path="url(#p5be2fdc5f9)">
     <use xlink:href="#C0_0_c5ac375d0e" x="194.969078" y="369.903857" style="fill: #ff008e; stroke: #000000"/>
    </g>
    <g clip-path="url(#p5be2fdc5f9)">
     <use xlink:href="#C0_0_c5ac375d0e" x="140.294655" y="129.334917" style="fill: #ff2900; stroke: #000000"/>
    </g>
    <g clip-path="url(#p5be2fdc5f9)">
     <use xlink:href="#C0_0_c5ac375d0e" x="463.434408" y="209.519139" style="fill: #00ff9d; stroke: #000000"/>
    </g>
    <g clip-path="url(#p5be2fdc5f9)">
     <use xlink:href="#C0_0_c5ac375d0e" x="99.277353" y="110.454071" style="fill: #ff3500; stroke: #000000"/>
    </g>
    <g clip-path="url(#p5be2fdc5f9)">
     <use xlink:href="#C0_0_c5ac375d0e" x="314.742272" y="59.724426" style="fill: #00fff0; stroke: #000000"/>
    </g>
    <g clip-path="url(#p5be2fdc5f9)">
     <use xlink:href="#C0_0_c5ac375d0e" x="290.563912" y="224.650399" style="fill: #ff00ac; stroke: #000000"/>
    </g>
    <g clip-path="url(#p5be2fdc5f9)">
     <use xlink:href="#C0_0_c5ac375d0e" x="354.25985" y="259.400605" style="fill: #f400ff; stroke: #000000"/>
    </g>
    <g clip-path="url(#p5be2fdc5f9)">
     <use xlink:href="#C0_0_c5ac375d0e" x="344.743153" y="100.672943" style="fill: #00e5ff; stroke: #000000"/>
    </g>
    <g clip-path="url(#p5be2fdc5f9)">
     <use xlink:href="#C0_0_c5ac375d0e" x="275.95562" y="300.946886" style="fill: #fc00f5; stroke: #000000"/>
    </g>
    <g clip-path="url(#p5be2fdc5f9)">
     <use xlink:href="#C0_0_c5ac375d0e" x="436.406599" y="180.069901" style="fill: #00ff8c; stroke: #000000"/>
    </g>
    <g clip-path="url(#p5be2fdc5f9)">
     <use xlink:href="#C0_0_c5ac375d0e" x="398.761534" y="215.06654" style="fill: #00ff2d; stroke: #000000"/>
    </g>
    <g clip-path="url(#p5be2fdc5f9)">
     <use xlink:href="#C0_0_c5ac375d0e" x="272.838871" y="104.953096" style="fill: #00ffc7; stroke: #000000"/>
    </g>
    <g clip-path="url(#p5be2fdc5f9)">
     <use xlink:href="#C0_0_c5ac375d0e" x="401.878647" y="282.166864" style="fill: #00ff1b; stroke: #000000"/>
    </g>
    <g clip-path="url(#p5be2fdc5f9)">
     <use xlink:href="#C0_0_c5ac375d0e" x="400.321" y="120.777821" style="fill: #00c7ff; stroke: #000000"/>
    </g>
    <g clip-path="url(#p5be2fdc5f9)">
     <use xlink:href="#C0_0_c5ac375d0e" x="84.882998" y="281.114008" style="fill: #ff0059; stroke: #000000"/>
    </g>
    <g clip-path="url(#p5be2fdc5f9)">
     <use xlink:href="#C0_0_c5ac375d0e" x="267.46639" y="434.158899" style="fill: #0800ff; stroke: #000000"/>
    </g>
    <g clip-path="url(#p5be2fdc5f9)">
     <use xlink:href="#C0_0_c5ac375d0e" x="217.303313" y="303.351705" style="fill: #009eff; stroke: #000000"/>
    </g>
    <g clip-path="url(#p5be2fdc5f9)">
     <use xlink:href="#C0_0_c5ac375d0e" x="185.740811" y="241.448168" style="fill: #004bff; stroke: #000000"/>
    </g>
    <g clip-path="url(#p5be2fdc5f9)">
     <use xlink:href="#C0_0_c5ac375d0e" x="523.342924" y="298.972054" style="fill: #4fff00; stroke: #000000"/>
    </g>
    <g clip-path="url(#p5be2fdc5f9)">
     <use xlink:href="#C0_0_c5ac375d0e" x="219.708474" y="80.086435" style="fill: #ff4100; stroke: #000000"/>
    </g>
    <g clip-path="url(#p5be2fdc5f9)">
     <use xlink:href="#C0_0_c5ac375d0e" x="468.009476" y="328.857172" style="fill: #04ff08; stroke: #000000"/>
    </g>
    <g clip-path="url(#p5be2fdc5f9)">
     <use xlink:href="#C0_0_c5ac375d0e" x="279.441215" y="364.700535" style="fill: #a7ff00; stroke: #000000"/>
    </g>
    <g clip-path="url(#p5be2fdc5f9)">
     <use xlink:href="#C0_0_c5ac375d0e" x="396.511499" y="414.503981" style="fill: #bf00ff; stroke: #000000"/>
    </g>
    <g clip-path="url(#p5be2fdc5f9)">
     <use xlink:href="#C0_0_c5ac375d0e" x="355.639097" y="142.369543" style="fill: #00fffc; stroke: #000000"/>
    </g>
    <g clip-path="url(#p5be2fdc5f9)">
     <use xlink:href="#C0_0_c5ac375d0e" x="465.374886" y="138.601095" style="fill: #00ff62; stroke: #000000"/>
    </g>
    <g clip-path="url(#p5be2fdc5f9)">
     <use xlink:href="#C0_0_c5ac375d0e" x="363.032372" y="395.809353" style="fill: #a100ff; stroke: #000000"/>
    </g>
    <g clip-path="url(#p5be2fdc5f9)">
     <use xlink:href="#C0_0_c5ac375d0e" x="126.210302" y="433.684153" style="fill: #ff9a00; stroke: #000000"/>
    </g>
    <g clip-path="url(#p5be2fdc5f9)">
     <use xlink:href="#C0_0_c5ac375d0e" x="412.038151" y="440.030062" style="fill: #cb00ff; stroke: #000000"/>
    </g>
    <g clip-path="url(#p5be2fdc5f9)">
     <use xlink:href="#C0_0_c5ac375d0e" x="254.652303" y="213.240578" style="fill: #0092ff; stroke: #000000"/>
    </g>
    <g clip-path="url(#p5be2fdc5f9)">
     <use xlink:href="#C0_0_c5ac375d0e" x="73.986551" y="167.459639" style="fill: #ff1800; stroke: #000000"/>
    </g>
    <g clip-path="url(#p5be2fdc5f9)">
     <use xlink:href="#C0_0_c5ac375d0e" x="309.93303" y="304.093014" style="fill: #ff00c9; stroke: #000000"/>
    </g>
    <g clip-path="url(#p5be2fdc5f9)">
     <use xlink:href="#C0_0_c5ac375d0e" x="267.297522" y="175.545585" style="fill: #00d9ff; stroke: #000000"/>
    </g>
    <g clip-path="url(#p5be2fdc5f9)">
     <use xlink:href="#C0_0_c5ac375d0e" x="251.025551" y="399.60918" style="fill: #72ff00; stroke: #000000"/>
    </g>
    <g clip-path="url(#p5be2fdc5f9)">
     <use xlink:href="#C0_0_c5ac375d0e" x="509.585449" y="356.783795" style="fill: #25ff00; stroke: #000000"/>
    </g>
    <g clip-path="url(#p5be2fdc5f9)">
     <use xlink:href="#C0_0_c5ac375d0e" x="313.604642" y="335.1323" style="fill: #ff00e7; stroke: #000000"/>
    </g>
    <g clip-path="url(#p5be2fdc5f9)">
     <use xlink:href="#C0_0_c5ac375d0e" x="147.600666" y="235.493995" style="fill: #00afff; stroke: #000000"/>
    </g>
    <g clip-path="url(#p5be2fdc5f9)">
     <use xlink:href="#C0_0_c5ac375d0e" x="259.45788" y="40.53883" style="fill: #ff5f00; stroke: #000000"/>
    </g>
    <g clip-path="url(#p5be2fdc5f9)">
     <use xlink:href="#C0_0_c5ac375d0e" x="128.290787" y="172.940683" style="fill: #ff0000; stroke: #000000"/>
    </g>
    <g clip-path="url(#p5be2fdc5f9)">
     <use xlink:href="#C0_0_c5ac375d0e" x="71.77914" y="408.214119" style="fill: #fef100; stroke: #000000"/>
    </g>
    <g clip-path="url(#p5be2fdc5f9)">
     <use xlink:href="#C0_0_c5ac375d0e" x="302.391905" y="167.761771" style="fill: #00ffd3; stroke: #000000"/>
    </g>
    <g clip-path="url(#p5be2fdc5f9)">
     <use xlink:href="#C0_0_c5ac375d0e" x="346.744188" y="178.08207" style="fill: #00ff57; stroke: #000000"/>
    </g>
    <g clip-path="url(#p5be2fdc5f9)">
     <use xlink:href="#C0_0_c5ac375d0e" x="301.54711" y="444.725687" style="fill: #4f00ff; stroke: #000000"/>
    </g>
    <g clip-path="url(#p5be2fdc5f9)">
     <use xlink:href="#C0_0_c5ac375d0e" x="350.790217" y="326.01539" style="fill: #ff00bd; stroke: #000000"/>
    </g>
    <g clip-path="url(#p5be2fdc5f9)">
     <use xlink:href="#C0_0_c5ac375d0e" x="319.821846" y="261.004804" style="fill: #ff00a0; stroke: #000000"/>
    </g>
    <g clip-path="url(#p5be2fdc5f9)">
     <use xlink:href="#C0_0_c5ac375d0e" x="357.830355" y="510.785809" style="fill: #3100ff; stroke: #000000"/>
    </g>
    <g clip-path="url(#p5be2fdc5f9)">
     <use xlink:href="#C0_0_c5ac375d0e" x="512.717806" y="182.101393" style="fill: #00ff80; stroke: #000000"/>
    </g>
    <g clip-path="url(#p5be2fdc5f9)">
     <use xlink:href="#C0_0_c5ac375d0e" x="255.205057" y="329.911975" style="fill: #96ff00; stroke: #000000"/>
    </g>
    <g clip-path="url(#p5be2fdc5f9)">
     <use xlink:href="#C0_0_c5ac375d0e" x="52.912422" y="228.626441" style="fill: #00ff74; stroke: #000000"/>
    </g>
    <g clip-path="url(#p5be2fdc5f9)">
     <use xlink:href="#C0_0_c5ac375d0e" x="145.613789" y="281.097983" style="fill: #ff0018; stroke: #000000"/>
    </g>
    <g clip-path="url(#p5be2fdc5f9)">
     <use xlink:href="#C0_0_c5ac375d0e" x="111.058886" y="220.720907" style="fill: #003fff; stroke: #000000"/>
    </g>
    <g clip-path="url(#p5be2fdc5f9)">
     <use xlink:href="#C0_0_c5ac375d0e" x="341.331911" y="445.80724" style="fill: #0016ff; stroke: #000000"/>
    </g>
    <g clip-path="url(#p5be2fdc5f9)">
     <use xlink:href="#C0_0_c5ac375d0e" x="359.284996" y="292.794759" style="fill: #ff00db; stroke: #000000"/>
    </g>
    <g clip-path="url(#p5be2fdc5f9)">
     <use xlink:href="#C0_0_c5ac375d0e" x="456.485916" y="295.118225" style="fill: #00ff10; stroke: #000000"/>
    </g>
    <g clip-path="url(#p5be2fdc5f9)">
     <use xlink:href="#C0_0_c5ac375d0e" x="512.089405" y="247.013164" style="fill: #1aff00; stroke: #000000"/>
    </g>
    <g clip-path="url(#p5be2fdc5f9)">
     <use xlink:href="#C0_0_c5ac375d0e" x="187.498409" y="411.717101" style="fill: #002dff; stroke: #000000"/>
    </g>
    <g clip-path="url(#p5be2fdc5f9)">
     <use xlink:href="#C0_0_c5ac375d0e" x="247.38082" y="270.771305" style="fill: #0069ff; stroke: #000000"/>
    </g>
    <g clip-path="url(#p5be2fdc5f9)">
     <use xlink:href="#C0_0_c5ac375d0e" x="106.598059" y="368.089336" style="fill: #ffc300; stroke: #000000"/>
    </g>
   </g>
   <g id="matplotlib.axis_1">
    <g id="xtick_1">
     <g id="line2d_1">
      <path d="M 0 576 
L 0 0 
" clip-path="url(#p5be2fdc5f9)" style="fill: none; stroke-dasharray: 1.85,0.8; stroke-dashoffset: 0; stroke: #808080; stroke-width: 0.5"/>
     </g>
     <g id="line2d_2">
      <defs>
       <path id="m7ef9246d80" d="M 0 0 
L 0 3.5 
" style="stroke: #000000; stroke-width: 0.8"/>
      </defs>
      <g>
       <use xlink:href="#m7ef9246d80" x="0" y="576" style="stroke: #000000; stroke-width: 0.8"/>
      </g>
     </g>
     <g id="text_1">
      <!-- −1.0 -->
      <g transform="translate(-12.141406 590.598438) scale(0.1 -0.1)">
       <defs>
        <path id="DejaVuSans-2212" d="M 678 2272 
L 4684 2272 
L 4684 1741 
L 678 1741 
L 678 2272 
z
" transform="scale(0.015625)"/>
        <path id="DejaVuSans-31" d="M 794 531 
L 1825 531 
L 1825 4091 
L 703 3866 
L 703 4441 
L 1819 4666 
L 2450 4666 
L 2450 531 
L 3481 531 
L 3481 0 
L 794 0 
L 794 531 
z
" transform="scale(0.015625)"/>
        <path id="DejaVuSans-2e" d="M 684 794 
L 1344 794 
L 1344 0 
L 684 0 
L 684 794 
z
" transform="scale(0.015625)"/>
        <path id="DejaVuSans-30" d="M 2034 4250 
Q 1547 4250 1301 3770 
Q 1056 3291 1056 2328 
Q 1056 1369 1301 889 
Q 1547 409 2034 409 
Q 2525 409 2770 889 
Q 3016 1369 3016 2328 
Q 3016 3291 2770 3770 
Q 2525 4250 2034 4250 
z
M 2034 4750 
Q 2819 4750 3233 4129 
Q 3647 3509 3647 2328 
Q 3647 1150 3233 529 
Q 2819 -91 2034 -91 
Q 1250 -91 836 529 
Q 422 1150 422 2328 
Q 422 3509 836 4129 
Q 1250 4750 2034 4750 
z
" transform="scale(0.015625)"/>
       </defs>
       <use xlink:href="#DejaVuSans-2212"/>
       <use xlink:href="#DejaVuSans-31" transform="translate(83.789062 0)"/>
       <use xlink:href="#DejaVuSans-2e" transform="translate(147.412109 0)"/>
       <use xlink:href="#DejaVuSans-30" transform="translate(179.199219 0)"/>
      </g>
     </g>
    </g>
    <g id="xtick_2">
     <g id="line2d_3">
      <path d="M 57.6 576 
L 57.6 0 
" clip-path="url(#p5be2fdc5f9)" style="fill: none; stroke-dasharray: 1.85,0.8; stroke-dashoffset: 0; stroke: #808080; stroke-width: 0.5"/>
     </g>
     <g id="line2d_4">
      <g>
       <use xlink:href="#m7ef9246d80" x="57.6" y="576" style="stroke: #000000; stroke-width: 0.8"/>
      </g>
     </g>
     <g id="text_2">
      <!-- −0.8 -->
      <g transform="translate(45.458594 590.598438) scale(0.1 -0.1)">
       <defs>
        <path id="DejaVuSans-38" d="M 2034 2216 
Q 1584 2216 1326 1975 
Q 1069 1734 1069 1313 
Q 1069 891 1326 650 
Q 1584 409 2034 409 
Q 2484 409 2743 651 
Q 3003 894 3003 1313 
Q 3003 1734 2745 1975 
Q 2488 2216 2034 2216 
z
M 1403 2484 
Q 997 2584 770 2862 
Q 544 3141 544 3541 
Q 544 4100 942 4425 
Q 1341 4750 2034 4750 
Q 2731 4750 3128 4425 
Q 3525 4100 3525 3541 
Q 3525 3141 3298 2862 
Q 3072 2584 2669 2484 
Q 3125 2378 3379 2068 
Q 3634 1759 3634 1313 
Q 3634 634 3220 271 
Q 2806 -91 2034 -91 
Q 1263 -91 848 271 
Q 434 634 434 1313 
Q 434 1759 690 2068 
Q 947 2378 1403 2484 
z
M 1172 3481 
Q 1172 3119 1398 2916 
Q 1625 2713 2034 2713 
Q 2441 2713 2670 2916 
Q 2900 3119 2900 3481 
Q 2900 3844 2670 4047 
Q 2441 4250 2034 4250 
Q 1625 4250 1398 4047 
Q 1172 3844 1172 3481 
z
" transform="scale(0.015625)"/>
       </defs>
       <use xlink:href="#DejaVuSans-2212"/>
       <use xlink:href="#DejaVuSans-30" transform="translate(83.789062 0)"/>
       <use xlink:href="#DejaVuSans-2e" transform="translate(147.412109 0)"/>
       <use xlink:href="#DejaVuSans-38" transform="translate(179.199219 0)"/>
      </g>
     </g>
    </g>
    <g id="xtick_3">
     <g id="line2d_5">
      <path d="M 115.2 576 
L 115.2 0 
" clip-path="url(#p5be2fdc5f9)" style="fill: none; stroke-dasharray: 1.85,0.8; stroke-dashoffset: 0; stroke: #808080; stroke-width: 0.5"/>
     </g>
     <g id="line2d_6">
      <g>
       <use xlink:href="#m7ef9246d80" x="115.2" y="576" style="stroke: #000000; stroke-width: 0.8"/>
      </g>
     </g>
     <g id="text_3">
      <!-- −0.6 -->
      <g transform="translate(103.058594 590.598438) scale(0.1 -0.1)">
       <defs>
        <path id="DejaVuSans-36" d="M 2113 2584 
Q 1688 2584 1439 2293 
Q 1191 2003 1191 1497 
Q 1191 994 1439 701 
Q 1688 409 2113 409 
Q 2538 409 2786 701 
Q 3034 994 3034 1497 
Q 3034 2003 2786 2293 
Q 2538 2584 2113 2584 
z
M 3366 4563 
L 3366 3988 
Q 3128 4100 2886 4159 
Q 2644 4219 2406 4219 
Q 1781 4219 1451 3797 
Q 1122 3375 1075 2522 
Q 1259 2794 1537 2939 
Q 1816 3084 2150 3084 
Q 2853 3084 3261 2657 
Q 3669 2231 3669 1497 
Q 3669 778 3244 343 
Q 2819 -91 2113 -91 
Q 1303 -91 875 529 
Q 447 1150 447 2328 
Q 447 3434 972 4092 
Q 1497 4750 2381 4750 
Q 2619 4750 2861 4703 
Q 3103 4656 3366 4563 
z
" transform="scale(0.015625)"/>
       </defs>
       <use xlink:href="#DejaVuSans-2212"/>
       <use xlink:href="#DejaVuSans-30" transform="translate(83.789062 0)"/>
       <use xlink:href="#DejaVuSans-2e" transform="translate(147.412109 0)"/>
       <use xlink:href="#DejaVuSans-36" transform="translate(179.199219 0)"/>
      </g>
     </g>
    </g>
    <g id="xtick_4">
     <g id="line2d_7">
      <path d="M 172.8 576 
L 172.8 0 
" clip-path="url(#p5be2fdc5f9)" style="fill: none; stroke-dasharray: 1.85,0.8; stroke-dashoffset: 0; stroke: #808080; stroke-width: 0.5"/>
     </g>
     <g id="line2d_8">
      <g>
       <use xlink:href="#m7ef9246d80" x="172.8" y="576" style="stroke: #000000; stroke-width: 0.8"/>
      </g>
     </g>
     <g id="text_4">
      <!-- −0.4 -->
      <g transform="translate(160.658594 590.598438) scale(0.1 -0.1)">
       <defs>
        <path id="DejaVuSans-34" d="M 2419 4116 
L 825 1625 
L 2419 1625 
L 2419 4116 
z
M 2253 4666 
L 3047 4666 
L 3047 1625 
L 3713 1625 
L 3713 1100 
L 3047 1100 
L 3047 0 
L 2419 0 
L 2419 1100 
L 313 1100 
L 313 1709 
L 2253 4666 
z
" transform="scale(0.015625)"/>
       </defs>
       <use xlink:href="#DejaVuSans-2212"/>
       <use xlink:href="#DejaVuSans-30" transform="translate(83.789062 0)"/>
       <use xlink:href="#DejaVuSans-2e" transform="translate(147.412109 0)"/>
       <use xlink:href="#DejaVuSans-34" transform="translate(179.199219 0)"/>
      </g>
     </g>
    </g>
    <g id="xtick_5">
     <g id="line2d_9">
      <path d="M 230.4 576 
L 230.4 0 
" clip-path="url(#p5be2fdc5f9)" style="fill: none; stroke-dasharray: 1.85,0.8; stroke-dashoffset: 0; stroke: #808080; stroke-width: 0.5"/>
     </g>
     <g id="line2d_10">
      <g>
       <use xlink:href="#m7ef9246d80" x="230.4" y="576" style="stroke: #000000; stroke-width: 0.8"/>
      </g>
     </g>
     <g id="text_5">
      <!-- −0.2 -->
      <g transform="translate(218.258594 590.598438) scale(0.1 -0.1)">
       <defs>
        <path id="DejaVuSans-32" d="M 1228 531 
L 3431 531 
L 3431 0 
L 469 0 
L 469 531 
Q 828 903 1448 1529 
Q 2069 2156 2228 2338 
Q 2531 2678 2651 2914 
Q 2772 3150 2772 3378 
Q 2772 3750 2511 3984 
Q 2250 4219 1831 4219 
Q 1534 4219 1204 4116 
Q 875 4013 500 3803 
L 500 4441 
Q 881 4594 1212 4672 
Q 1544 4750 1819 4750 
Q 2544 4750 2975 4387 
Q 3406 4025 3406 3419 
Q 3406 3131 3298 2873 
Q 3191 2616 2906 2266 
Q 2828 2175 2409 1742 
Q 1991 1309 1228 531 
z
" transform="scale(0.015625)"/>
       </defs>
       <use xlink:href="#DejaVuSans-2212"/>
       <use xlink:href="#DejaVuSans-30" transform="translate(83.789062 0)"/>
       <use xlink:href="#DejaVuSans-2e" transform="translate(147.412109 0)"/>
       <use xlink:href="#DejaVuSans-32" transform="translate(179.199219 0)"/>
      </g>
     </g>
    </g>
    <g id="xtick_6">
     <g id="line2d_11">
      <path d="M 288 576 
L 288 0 
" clip-path="url(#p5be2fdc5f9)" style="fill: none; stroke-dasharray: 1.85,0.8; stroke-dashoffset: 0; stroke: #808080; stroke-width: 0.5"/>
     </g>
     <g id="line2d_12">
      <g>
       <use xlink:href="#m7ef9246d80" x="288" y="576" style="stroke: #000000; stroke-width: 0.8"/>
      </g>
     </g>
     <g id="text_6">
      <!-- 0.0 -->
      <g transform="translate(280.048437 590.598438) scale(0.1 -0.1)">
       <use xlink:href="#DejaVuSans-30"/>
       <use xlink:href="#DejaVuSans-2e" transform="translate(63.623047 0)"/>
       <use xlink:href="#DejaVuSans-30" transform="translate(95.410156 0)"/>
      </g>
     </g>
    </g>
    <g id="xtick_7">
     <g id="line2d_13">
      <path d="M 345.6 576 
L 345.6 0 
" clip-path="url(#p5be2fdc5f9)" style="fill: none; stroke-dasharray: 1.85,0.8; stroke-dashoffset: 0; stroke: #808080; stroke-width: 0.5"/>
     </g>
     <g id="line2d_14">
      <g>
       <use xlink:href="#m7ef9246d80" x="345.6" y="576" style="stroke: #000000; stroke-width: 0.8"/>
      </g>
     </g>
     <g id="text_7">
      <!-- 0.2 -->
      <g transform="translate(337.648437 590.598438) scale(0.1 -0.1)">
       <use xlink:href="#DejaVuSans-30"/>
       <use xlink:href="#DejaVuSans-2e" transform="translate(63.623047 0)"/>
       <use xlink:href="#DejaVuSans-32" transform="translate(95.410156 0)"/>
      </g>
     </g>
    </g>
    <g id="xtick_8">
     <g id="line2d_15">
      <path d="M 403.2 576 
L 403.2 0 
" clip-path="url(#p5be2fdc5f9)" style="fill: none; stroke-dasharray: 1.85,0.8; stroke-dashoffset: 0; stroke: #808080; stroke-width: 0.5"/>
     </g>
     <g id="line2d_16">
      <g>
       <use xlink:href="#m7ef9246d80" x="403.2" y="576" style="stroke: #000000; stroke-width: 0.8"/>
      </g>
     </g>
     <g id="text_8">
      <!-- 0.4 -->
      <g transform="translate(395.248437 590.598438) scale(0.1 -0.1)">
       <use xlink:href="#DejaVuSans-30"/>
       <use xlink:href="#DejaVuSans-2e" transform="translate(63.623047 0)"/>
       <use xlink:href="#DejaVuSans-34" transform="translate(95.410156 0)"/>
      </g>
     </g>
    </g>
    <g id="xtick_9">
     <g id="line2d_17">
      <path d="M 460.8 576 
L 460.8 0 
" clip-path="url(#p5be2fdc5f9)" style="fill: none; stroke-dasharray: 1.85,0.8; stroke-dashoffset: 0; stroke: #808080; stroke-width: 0.5"/>
     </g>
     <g id="line2d_18">
      <g>
       <use xlink:href="#m7ef9246d80" x="460.8" y="576" style="stroke: #000000; stroke-width: 0.8"/>
      </g>
     </g>
     <g id="text_9">
      <!-- 0.6 -->
      <g transform="translate(452.848437 590.598438) scale(0.1 -0.1)">
       <use xlink:href="#DejaVuSans-30"/>
       <use xlink:href="#DejaVuSans-2e" transform="translate(63.623047 0)"/>
       <use xlink:href="#DejaVuSans-36" transform="translate(95.410156 0)"/>
      </g>
     </g>
    </g>
    <g id="xtick_10">
     <g id="line2d_19">
      <path d="M 518.4 576 
L 518.4 0 
" clip-path="url(#p5be2fdc5f9)" style="fill: none; stroke-dasharray: 1.85,0.8; stroke-dashoffset: 0; stroke: #808080; stroke-width: 0.5"/>
     </g>
     <g id="line2d_20">
      <g>
       <use xlink:href="#m7ef9246d80" x="518.4" y="576" style="stroke: #000000; stroke-width: 0.8"/>
      </g>
     </g>
     <g id="text_10">
      <!-- 0.8 -->
      <g transform="translate(510.448437 590.598438) scale(0.1 -0.1)">
       <use xlink:href="#DejaVuSans-30"/>
       <use xlink:href="#DejaVuSans-2e" transform="translate(63.623047 0)"/>
       <use xlink:href="#DejaVuSans-38" transform="translate(95.410156 0)"/>
      </g>
     </g>
    </g>
    <g id="xtick_11">
     <g id="line2d_21">
      <path d="M 576 576 
L 576 0 
" clip-path="url(#p5be2fdc5f9)" style="fill: none; stroke-dasharray: 1.85,0.8; stroke-dashoffset: 0; stroke: #808080; stroke-width: 0.5"/>
     </g>
     <g id="line2d_22">
      <g>
       <use xlink:href="#m7ef9246d80" x="576" y="576" style="stroke: #000000; stroke-width: 0.8"/>
      </g>
     </g>
     <g id="text_11">
      <!-- 1.0 -->
      <g transform="translate(568.048437 590.598438) scale(0.1 -0.1)">
       <use xlink:href="#DejaVuSans-31"/>
       <use xlink:href="#DejaVuSans-2e" transform="translate(63.623047 0)"/>
       <use xlink:href="#DejaVuSans-30" transform="translate(95.410156 0)"/>
      </g>
     </g>
    </g>
   </g>
   <g id="matplotlib.axis_2">
    <g id="ytick_1">
     <g id="line2d_23">
      <path d="M 0 576 
L 576 576 
" clip-path="url(#p5be2fdc5f9)" style="fill: none; stroke-dasharray: 1.85,0.8; stroke-dashoffset: 0; stroke: #808080; stroke-width: 0.5"/>
     </g>
     <g id="line2d_24">
      <defs>
       <path id="m6d73294a57" d="M 0 0 
L -3.5 0 
" style="stroke: #000000; stroke-width: 0.8"/>
      </defs>
      <g>
       <use xlink:href="#m6d73294a57" x="0" y="576" style="stroke: #000000; stroke-width: 0.8"/>
      </g>
     </g>
     <g id="text_12">
      <!-- −1.0 -->
      <g transform="translate(-31.282813 579.799219) scale(0.1 -0.1)">
       <use xlink:href="#DejaVuSans-2212"/>
       <use xlink:href="#DejaVuSans-31" transform="translate(83.789062 0)"/>
       <use xlink:href="#DejaVuSans-2e" transform="translate(147.412109 0)"/>
       <use xlink:href="#DejaVuSans-30" transform="translate(179.199219 0)"/>
      </g>
     </g>
    </g>
    <g id="ytick_2">
     <g id="line2d_25">
      <path d="M 0 518.4 
L 576 518.4 
" clip-path="url(#p5be2fdc5f9)" style="fill: none; stroke-dasharray: 1.85,0.8; stroke-dashoffset: 0; stroke: #808080; stroke-width: 0.5"/>
     </g>
     <g id="line2d_26">
      <g>
       <use xlink:href="#m6d73294a57" x="0" y="518.4" style="stroke: #000000; stroke-width: 0.8"/>
      </g>
     </g>
     <g id="text_13">
      <!-- −0.8 -->
      <g transform="translate(-31.282813 522.199219) scale(0.1 -0.1)">
       <use xlink:href="#DejaVuSans-2212"/>
       <use xlink:href="#DejaVuSans-30" transform="translate(83.789062 0)"/>
       <use xlink:href="#DejaVuSans-2e" transform="translate(147.412109 0)"/>
       <use xlink:href="#DejaVuSans-38" transform="translate(179.199219 0)"/>
      </g>
     </g>
    </g>
    <g id="ytick_3">
     <g id="line2d_27">
      <path d="M 0 460.8 
L 576 460.8 
" clip-path="url(#p5be2fdc5f9)" style="fill: none; stroke-dasharray: 1.85,0.8; stroke-dashoffset: 0; stroke: #808080; stroke-width: 0.5"/>
     </g>
     <g id="line2d_28">
      <g>
       <use xlink:href="#m6d73294a57" x="0" y="460.8" style="stroke: #000000; stroke-width: 0.8"/>
      </g>
     </g>
     <g id="text_14">
      <!-- −0.6 -->
      <g transform="translate(-31.282813 464.599219) scale(0.1 -0.1)">
       <use xlink:href="#DejaVuSans-2212"/>
       <use xlink:href="#DejaVuSans-30" transform="translate(83.789062 0)"/>
       <use xlink:href="#DejaVuSans-2e" transform="translate(147.412109 0)"/>
       <use xlink:href="#DejaVuSans-36" transform="translate(179.199219 0)"/>
      </g>
     </g>
    </g>
    <g id="ytick_4">
     <g id="line2d_29">
      <path d="M 0 403.2 
L 576 403.2 
" clip-path="url(#p5be2fdc5f9)" style="fill: none; stroke-dasharray: 1.85,0.8; stroke-dashoffset: 0; stroke: #808080; stroke-width: 0.5"/>
     </g>
     <g id="line2d_30">
      <g>
       <use xlink:href="#m6d73294a57" x="0" y="403.2" style="stroke: #000000; stroke-width: 0.8"/>
      </g>
     </g>
     <g id="text_15">
      <!-- −0.4 -->
      <g transform="translate(-31.282813 406.999219) scale(0.1 -0.1)">
       <use xlink:href="#DejaVuSans-2212"/>
       <use xlink:href="#DejaVuSans-30" transform="translate(83.789062 0)"/>
       <use xlink:href="#DejaVuSans-2e" transform="translate(147.412109 0)"/>
       <use xlink:href="#DejaVuSans-34" transform="translate(179.199219 0)"/>
      </g>
     </g>
    </g>
    <g id="ytick_5">
     <g id="line2d_31">
      <path d="M 0 345.6 
L 576 345.6 
" clip-path="url(#p5be2fdc5f9)" style="fill: none; stroke-dasharray: 1.85,0.8; stroke-dashoffset: 0; stroke: #808080; stroke-width: 0.5"/>
     </g>
     <g id="line2d_32">
      <g>
       <use xlink:href="#m6d73294a57" x="0" y="345.6" style="stroke: #000000; stroke-width: 0.8"/>
      </g>
     </g>
     <g id="text_16">
      <!-- −0.2 -->
      <g transform="translate(-31.282813 349.399219) scale(0.1 -0.1)">
       <use xlink:href="#DejaVuSans-2212"/>
       <use xlink:href="#DejaVuSans-30" transform="translate(83.789062 0)"/>
       <use xlink:href="#DejaVuSans-2e" transform="translate(147.412109 0)"/>
       <use xlink:href="#DejaVuSans-32" transform="translate(179.199219 0)"/>
      </g>
     </g>
    </g>
    <g id="ytick_6">
     <g id="line2d_33">
      <path d="M 0 288 
L 576 288 
" clip-path="url(#p5be2fdc5f9)" style="fill: none; stroke-dasharray: 1.85,0.8; stroke-dashoffset: 0; stroke: #808080; stroke-width: 0.5"/>
     </g>
     <g id="line2d_34">
      <g>
       <use xlink:href="#m6d73294a57" x="0" y="288" style="stroke: #000000; stroke-width: 0.8"/>
      </g>
     </g>
     <g id="text_17">
      <!-- 0.0 -->
      <g transform="translate(-22.903125 291.799219) scale(0.1 -0.1)">
       <use xlink:href="#DejaVuSans-30"/>
       <use xlink:href="#DejaVuSans-2e" transform="translate(63.623047 0)"/>
       <use xlink:href="#DejaVuSans-30" transform="translate(95.410156 0)"/>
      </g>
     </g>
    </g>
    <g id="ytick_7">
     <g id="line2d_35">
      <path d="M 0 230.4 
L 576 230.4 
" clip-path="url(#p5be2fdc5f9)" style="fill: none; stroke-dasharray: 1.85,0.8; stroke-dashoffset: 0; stroke: #808080; stroke-width: 0.5"/>
     </g>
     <g id="line2d_36">
      <g>
       <use xlink:href="#m6d73294a57" x="0" y="230.4" style="stroke: #000000; stroke-width: 0.8"/>
      </g>
     </g>
     <g id="text_18">
      <!-- 0.2 -->
      <g transform="translate(-22.903125 234.199219) scale(0.1 -0.1)">
       <use xlink:href="#DejaVuSans-30"/>
       <use xlink:href="#DejaVuSans-2e" transform="translate(63.623047 0)"/>
       <use xlink:href="#DejaVuSans-32" transform="translate(95.410156 0)"/>
      </g>
     </g>
    </g>
    <g id="ytick_8">
     <g id="line2d_37">
      <path d="M 0 172.8 
L 576 172.8 
" clip-path="url(#p5be2fdc5f9)" style="fill: none; stroke-dasharray: 1.85,0.8; stroke-dashoffset: 0; stroke: #808080; stroke-width: 0.5"/>
     </g>
     <g id="line2d_38">
      <g>
       <use xlink:href="#m6d73294a57" x="0" y="172.8" style="stroke: #000000; stroke-width: 0.8"/>
      </g>
     </g>
     <g id="text_19">
      <!-- 0.4 -->
      <g transform="translate(-22.903125 176.599219) scale(0.1 -0.1)">
       <use xlink:href="#DejaVuSans-30"/>
       <use xlink:href="#DejaVuSans-2e" transform="translate(63.623047 0)"/>
       <use xlink:href="#DejaVuSans-34" transform="translate(95.410156 0)"/>
      </g>
     </g>
    </g>
    <g id="ytick_9">
     <g id="line2d_39">
      <path d="M 0 115.2 
L 576 115.2 
" clip-path="url(#p5be2fdc5f9)" style="fill: none; stroke-dasharray: 1.85,0.8; stroke-dashoffset: 0; stroke: #808080; stroke-width: 0.5"/>
     </g>
     <g id="line2d_40">
      <g>
       <use xlink:href="#m6d73294a57" x="0" y="115.2" style="stroke: #000000; stroke-width: 0.8"/>
      </g>
     </g>
     <g id="text_20">
      <!-- 0.6 -->
      <g transform="translate(-22.903125 118.999219) scale(0.1 -0.1)">
       <use xlink:href="#DejaVuSans-30"/>
       <use xlink:href="#DejaVuSans-2e" transform="translate(63.623047 0)"/>
       <use xlink:href="#DejaVuSans-36" transform="translate(95.410156 0)"/>
      </g>
     </g>
    </g>
    <g id="ytick_10">
     <g id="line2d_41">
      <path d="M 0 57.6 
L 576 57.6 
" clip-path="url(#p5be2fdc5f9)" style="fill: none; stroke-dasharray: 1.85,0.8; stroke-dashoffset: 0; stroke: #808080; stroke-width: 0.5"/>
     </g>
     <g id="line2d_42">
      <g>
       <use xlink:href="#m6d73294a57" x="0" y="57.6" style="stroke: #000000; stroke-width: 0.8"/>
      </g>
     </g>
     <g id="text_21">
      <!-- 0.8 -->
      <g transform="translate(-22.903125 61.399219) scale(0.1 -0.1)">
       <use xlink:href="#DejaVuSans-30"/>
       <use xlink:href="#DejaVuSans-2e" transform="translate(63.623047 0)"/>
       <use xlink:href="#DejaVuSans-38" transform="translate(95.410156 0)"/>
      </g>
     </g>
    </g>
    <g id="ytick_11">
     <g id="line2d_43">
      <path d="M 0 0 
L 576 0 
" clip-path="url(#p5be2fdc5f9)" style="fill: none; stroke-dasharray: 1.85,0.8; stroke-dashoffset: 0; stroke: #808080; stroke-width: 0.5"/>
     </g>
     <g id="line2d_44">
      <g>
       <use xlink:href="#m6d73294a57" x="0" y="0" style="stroke: #000000; stroke-width: 0.8"/>
      </g>
     </g>
     <g id="text_22">
      <!-- 1.0 -->
      <g transform="translate(-22.903125 3.799219) scale(0.1 -0.1)">
       <use xlink:href="#DejaVuSans-31"/>
       <use xlink:href="#DejaVuSans-2e" transform="translate(63.623047 0)"/>
       <use xlink:href="#DejaVuSans-30" transform="translate(95.410156 0)"/>
      </g>
     </g>
    </g>
   </g>
   <g id="patch_3">
    <path d="M 0 576 
L 0 0 
" style="fill: none; stroke: #000000; stroke-width: 0.8; stroke-linejoin: miter; stroke-linecap: square"/>
   </g>
   <g id="patch_4">
    <path d="M 576 576 
L 576 0 
" style="fill: none; stroke: #000000; stroke-width: 0.8; stroke-linejoin: miter; stroke-linecap: square"/>
   </g>
   <g id="patch_5">
    <path d="M 0 576 
L 576 576 
" style="fill: none; stroke: #000000; stroke-width: 0.8; stroke-linejoin: miter; stroke-linecap: square"/>
   </g>
   <g id="patch_6">
    <path d="M 0 0 
L 576 0 
" style="fill: none; stroke: #000000; stroke-width: 0.8; stroke-linejoin: miter; stroke-linecap: square"/>
   </g>
  </g>
 </g>
 <defs>
  <clipPath id="p5be2fdc5f9">
   <rect x="0" y="0" width="576" height="576"/>
  </clipPath>
 </defs>
</svg>
