<?xml version="1.0" encoding="utf-8" standalone="no"?>
<!DOCTYPE svg PUBLIC "-//W3C//DTD SVG 1.1//EN"
  "http://www.w3.org/Graphics/SVG/1.1/DTD/svg11.dtd">
<svg xmlns:xlink="http://www.w3.org/1999/xlink" width="576pt" height="576pt" viewBox="0 0 576 576" xmlns="http://www.w3.org/2000/svg" version="1.1">
 <metadata>
  <rdf:RDF xmlns:dc="http://purl.org/dc/elements/1.1/" xmlns:cc="http://creativecommons.org/ns#" xmlns:rdf="http://www.w3.org/1999/02/22-rdf-syntax-ns#">
   <cc:Work>
    <dc:type rdf:resource="http://purl.org/dc/dcmitype/StillImage"/>
    <dc:date>2025-06-18T12:22:38.939678</dc:date>
    <dc:format>image/svg+xml</dc:format>
    <dc:creator>
     <cc:Agent>
      <dc:title>Matplotlib v3.10.1, https://matplotlib.org/</dc:title>
     </cc:Agent>
    </dc:creator>
   </cc:Work>
  </rdf:RDF>
 </metadata>
 <defs>
  <style type="text/css">*{stroke-linejoin: round; stroke-linecap: butt}</style>
 </defs>
 <g id="figure_1">
  <g id="patch_1">
   <path d="M 0 576 
L 576 576 
L 576 0 
L 0 0 
z
" style="fill: #ffffff"/>
  </g>
  <g id="axes_1">
   <g id="patch_2">
    <path d="M 0 576 
L 576 576 
L 576 0 
L 0 0 
z
" style="fill: #ffffff"/>
   </g>
   <g id="PathCollection_1">
    <defs>
     <path id="C0_0_ce235f6d16" d="M 0 4.330127 
C 1.148363 4.330127 2.249847 3.873878 3.061862 3.061862 
C 3.873878 2.249847 4.330127 1.148363 4.330127 -0 
C 4.330127 -1.148363 3.873878 -2.249847 3.061862 -3.061862 
C 2.249847 -3.873878 1.148363 -4.330127 0 -4.330127 
C -1.148363 -4.330127 -2.249847 -3.873878 -3.061862 -3.061862 
C -3.873878 -2.249847 -4.330127 -1.148363 -4.330127 0 
C -4.330127 1.148363 -3.873878 2.249847 -3.061862 3.061862 
C -2.249847 3.873878 -1.148363 4.330127 0 4.330127 
z
"/>
    </defs>
    <g clip-path="url(#p0877ad3378)">
     <use xlink:href="#C0_0_ce235f6d16" x="128.373665" y="172.899442" style="fill: #ff0000; stroke: #000000"/>
    </g>
    <g clip-path="url(#p0877ad3378)">
     <use xlink:href="#C0_0_ce235f6d16" x="354.203695" y="259.325124" style="fill: #f400ff; stroke: #000000"/>
    </g>
    <g clip-path="url(#p0877ad3378)">
     <use xlink:href="#C0_0_ce235f6d16" x="398.60685" y="215.195835" style="fill: #00ff2d; stroke: #000000"/>
    </g>
    <g clip-path="url(#p0877ad3378)">
     <use xlink:href="#C0_0_ce235f6d16" x="211.435404" y="125.63903" style="fill: #ff5300; stroke: #000000"/>
    </g>
    <g clip-path="url(#p0877ad3378)">
     <use xlink:href="#C0_0_ce235f6d16" x="324.35397" y="403.434277" style="fill: #e8ff00; stroke: #000000"/>
    </g>
    <g clip-path="url(#p0877ad3378)">
     <use xlink:href="#C0_0_ce235f6d16" x="411.771174" y="246.774327" style="fill: #43ff00; stroke: #000000"/>
    </g>
    <g clip-path="url(#p0877ad3378)">
     <use xlink:href="#C0_0_ce235f6d16" x="195.082023" y="369.940009" style="fill: #ff008e; stroke: #000000"/>
    </g>
    <g clip-path="url(#p0877ad3378)">
     <use xlink:href="#C0_0_ce235f6d16" x="73.988714" y="167.533419" style="fill: #ff1800; stroke: #000000"/>
    </g>
    <g clip-path="url(#p0877ad3378)">
     <use xlink:href="#C0_0_ce235f6d16" x="350.841415" y="325.955605" style="fill: #ff00bd; stroke: #000000"/>
    </g>
    <g clip-path="url(#p0877ad3378)">
     <use xlink:href="#C0_0_ce235f6d16" x="448.376564" y="380.884014" style="fill: #7800ff; stroke: #000000"/>
    </g>
    <g clip-path="url(#p0877ad3378)">
     <use xlink:href="#C0_0_ce235f6d16" x="346.731575" y="177.991124" style="fill: #00ff57; stroke: #000000"/>
    </g>
    <g clip-path="url(#p0877ad3378)">
     <use xlink:href="#C0_0_ce235f6d16" x="309.929494" y="303.973392" style="fill: #ff00c9; stroke: #000000"/>
    </g>
    <g clip-path="url(#p0877ad3378)">
     <use xlink:href="#C0_0_ce235f6d16" x="168.891475" y="303.970765" style="fill: #ff0047; stroke: #000000"/>
    </g>
    <g clip-path="url(#p0877ad3378)">
     <use xlink:href="#C0_0_ce235f6d16" x="250.92237" y="399.440145" style="fill: #72ff00; stroke: #000000"/>
    </g>
    <g clip-path="url(#p0877ad3378)">
     <use xlink:href="#C0_0_ce235f6d16" x="313.674145" y="335.008296" style="fill: #ff00e7; stroke: #000000"/>
    </g>
    <g clip-path="url(#p0877ad3378)">
     <use xlink:href="#C0_0_ce235f6d16" x="241.189685" y="524.066288" style="fill: #ffd500; stroke: #000000"/>
    </g>
    <g clip-path="url(#p0877ad3378)">
     <use xlink:href="#C0_0_ce235f6d16" x="314.723524" y="59.635265" style="fill: #00fff0; stroke: #000000"/>
    </g>
    <g clip-path="url(#p0877ad3378)">
     <use xlink:href="#C0_0_ce235f6d16" x="355.680141" y="363.273188" style="fill: #9500ff; stroke: #000000"/>
    </g>
    <g clip-path="url(#p0877ad3378)">
     <use xlink:href="#C0_0_ce235f6d16" x="254.754895" y="213.240741" style="fill: #0092ff; stroke: #000000"/>
    </g>
    <g clip-path="url(#p0877ad3378)">
     <use xlink:href="#C0_0_ce235f6d16" x="512.622362" y="182.293499" style="fill: #00ff80; stroke: #000000"/>
    </g>
    <g clip-path="url(#p0877ad3378)">
     <use xlink:href="#C0_0_ce235f6d16" x="463.494816" y="209.368515" style="fill: #00ff9d; stroke: #000000"/>
    </g>
    <g clip-path="url(#p0877ad3378)">
     <use xlink:href="#C0_0_ce235f6d16" x="219.678364" y="80.238785" style="fill: #ff4100; stroke: #000000"/>
    </g>
    <g clip-path="url(#p0877ad3378)">
     <use xlink:href="#C0_0_ce235f6d16" x="272.845547" y="105.012405" style="fill: #00ffc7; stroke: #000000"/>
    </g>
    <g clip-path="url(#p0877ad3378)">
     <use xlink:href="#C0_0_ce235f6d16" x="341.567087" y="445.652023" style="fill: #0016ff; stroke: #000000"/>
    </g>
    <g clip-path="url(#p0877ad3378)">
     <use xlink:href="#C0_0_ce235f6d16" x="145.719798" y="281.092658" style="fill: #ff0018; stroke: #000000"/>
    </g>
    <g clip-path="url(#p0877ad3378)">
     <use xlink:href="#C0_0_ce235f6d16" x="106.760365" y="367.894638" style="fill: #ffc300; stroke: #000000"/>
    </g>
    <g clip-path="url(#p0877ad3378)">
     <use xlink:href="#C0_0_ce235f6d16" x="399.053246" y="169.587544" style="fill: #00ffa9; stroke: #000000"/>
    </g>
    <g clip-path="url(#p0877ad3378)">
     <use xlink:href="#C0_0_ce235f6d16" x="396.848848" y="414.391113" style="fill: #bf00ff; stroke: #000000"/>
    </g>
    <g clip-path="url(#p0877ad3378)">
     <use xlink:href="#C0_0_ce235f6d16" x="185.923116" y="241.356475" style="fill: #004bff; stroke: #000000"/>
    </g>
    <g clip-path="url(#p0877ad3378)">
     <use xlink:href="#C0_0_ce235f6d16" x="217.24188" y="303.340637" style="fill: #009eff; stroke: #000000"/>
    </g>
    <g clip-path="url(#p0877ad3378)">
     <use xlink:href="#C0_0_ce235f6d16" x="407.233606" y="312.333567" style="fill: #0eff00; stroke: #000000"/>
    </g>
    <g clip-path="url(#p0877ad3378)">
     <use xlink:href="#C0_0_ce235f6d16" x="523.474846" y="298.938148" style="fill: #4fff00; stroke: #000000"/>
    </g>
    <g clip-path="url(#p0877ad3378)">
     <use xlink:href="#C0_0_ce235f6d16" x="126.363647" y="433.624037" style="fill: #ff9a00; stroke: #000000"/>
    </g>
    <g clip-path="url(#p0877ad3378)">
     <use xlink:href="#C0_0_ce235f6d16" x="290.51703" y="403.219133" style="fill: #b9ff00; stroke: #000000"/>
    </g>
    <g clip-path="url(#p0877ad3378)">
     <use xlink:href="#C0_0_ce235f6d16" x="147.593731" y="235.509315" style="fill: #00afff; stroke: #000000"/>
    </g>
    <g clip-path="url(#p0877ad3378)">
     <use xlink:href="#C0_0_ce235f6d16" x="292.70901" y="490.182203" style="fill: #0022ff; stroke: #000000"/>
    </g>
    <g clip-path="url(#p0877ad3378)">
     <use xlink:href="#C0_0_ce235f6d16" x="309.475692" y="376.129457" style="fill: #84ff00; stroke: #000000"/>
    </g>
    <g clip-path="url(#p0877ad3378)">
     <use xlink:href="#C0_0_ce235f6d16" x="457.390795" y="255.471051" style="fill: #61ff00; stroke: #000000"/>
    </g>
    <g clip-path="url(#p0877ad3378)">
     <use xlink:href="#C0_0_ce235f6d16" x="290.78019" y="224.668852" style="fill: #ff00ac; stroke: #000000"/>
    </g>
    <g clip-path="url(#p0877ad3378)">
     <use xlink:href="#C0_0_ce235f6d16" x="359.432281" y="292.643663" style="fill: #ff00db; stroke: #000000"/>
    </g>
    <g clip-path="url(#p0877ad3378)">
     <use xlink:href="#C0_0_ce235f6d16" x="113.73313" y="325.20396" style="fill: #ff0035; stroke: #000000"/>
    </g>
    <g clip-path="url(#p0877ad3378)">
     <use xlink:href="#C0_0_ce235f6d16" x="361.511847" y="220.793382" style="fill: #00ff4b; stroke: #000000"/>
    </g>
    <g clip-path="url(#p0877ad3378)">
     <use xlink:href="#C0_0_ce235f6d16" x="52.921434" y="228.694857" style="fill: #00ff74; stroke: #000000"/>
    </g>
    <g clip-path="url(#p0877ad3378)">
     <use xlink:href="#C0_0_ce235f6d16" x="304.136914" y="538.661453" style="fill: #1300ff; stroke: #000000"/>
    </g>
    <g clip-path="url(#p0877ad3378)">
     <use xlink:href="#C0_0_ce235f6d16" x="467.28673" y="410.651041" style="fill: #8400ff; stroke: #000000"/>
    </g>
    <g clip-path="url(#p0877ad3378)">
     <use xlink:href="#C0_0_ce235f6d16" x="247.361744" y="270.713264" style="fill: #0069ff; stroke: #000000"/>
    </g>
    <g clip-path="url(#p0877ad3378)">
     <use xlink:href="#C0_0_ce235f6d16" x="424.908686" y="497.53264" style="fill: #6c00ff; stroke: #000000"/>
    </g>
    <g clip-path="url(#p0877ad3378)">
     <use xlink:href="#C0_0_ce235f6d16" x="401.734151" y="282.262961" style="fill: #00ff1b; stroke: #000000"/>
    </g>
    <g clip-path="url(#p0877ad3378)">
     <use xlink:href="#C0_0_ce235f6d16" x="161.388894" y="81.920071" style="fill: #ff7c00; stroke: #000000"/>
    </g>
    <g clip-path="url(#p0877ad3378)">
     <use xlink:href="#C0_0_ce235f6d16" x="436.355839" y="179.999794" style="fill: #00ff8c; stroke: #000000"/>
    </g>
    <g clip-path="url(#p0877ad3378)">
     <use xlink:href="#C0_0_ce235f6d16" x="357.825128" y="510.846577" style="fill: #3100ff; stroke: #000000"/>
    </g>
    <g clip-path="url(#p0877ad3378)">
     <use xlink:href="#C0_0_ce235f6d16" x="389.759843" y="351.171249" style="fill: #ad00ff; stroke: #000000"/>
    </g>
    <g clip-path="url(#p0877ad3378)">
     <use xlink:href="#C0_0_ce235f6d16" x="400.538538" y="120.65177" style="fill: #00c7ff; stroke: #000000"/>
    </g>
    <g clip-path="url(#p0877ad3378)">
     <use xlink:href="#C0_0_ce235f6d16" x="467.968637" y="328.763123" style="fill: #04ff08; stroke: #000000"/>
    </g>
    <g clip-path="url(#p0877ad3378)">
     <use xlink:href="#C0_0_ce235f6d16" x="380.757105" y="54.995722" style="fill: #00ffb5; stroke: #000000"/>
    </g>
    <g clip-path="url(#p0877ad3378)">
     <use xlink:href="#C0_0_ce235f6d16" x="255.38204" y="329.968657" style="fill: #96ff00; stroke: #000000"/>
    </g>
    <g clip-path="url(#p0877ad3378)">
     <use xlink:href="#C0_0_ce235f6d16" x="235.763014" y="465.364861" style="fill: #3d00ff; stroke: #000000"/>
    </g>
    <g clip-path="url(#p0877ad3378)">
     <use xlink:href="#C0_0_ce235f6d16" x="421.609569" y="359.343189" style="fill: #5a00ff; stroke: #000000"/>
    </g>
    <g clip-path="url(#p0877ad3378)">
     <use xlink:href="#C0_0_ce235f6d16" x="412.514468" y="440.041031" style="fill: #cb00ff; stroke: #000000"/>
    </g>
    <g clip-path="url(#p0877ad3378)">
     <use xlink:href="#C0_0_ce235f6d16" x="362.976385" y="395.805971" style="fill: #a100ff; stroke: #000000"/>
    </g>
    <g clip-path="url(#p0877ad3378)">
     <use xlink:href="#C0_0_ce235f6d16" x="32.532492" y="290.344632" style="fill: #ffe600; stroke: #000000"/>
    </g>
    <g clip-path="url(#p0877ad3378)">
     <use xlink:href="#C0_0_ce235f6d16" x="199.644979" y="277.988568" style="fill: #0074ff; stroke: #000000"/>
    </g>
    <g clip-path="url(#p0877ad3378)">
     <use xlink:href="#C0_0_ce235f6d16" x="177.805429" y="151.658106" style="fill: #ff6a00; stroke: #000000"/>
    </g>
    <g clip-path="url(#p0877ad3378)">
     <use xlink:href="#C0_0_ce235f6d16" x="279.423868" y="364.753492" style="fill: #a7ff00; stroke: #000000"/>
    </g>
    <g clip-path="url(#p0877ad3378)">
     <use xlink:href="#C0_0_ce235f6d16" x="275.920687" y="300.830199" style="fill: #fc00f5; stroke: #000000"/>
    </g>
    <g clip-path="url(#p0877ad3378)">
     <use xlink:href="#C0_0_ce235f6d16" x="509.87051" y="356.70157" style="fill: #25ff00; stroke: #000000"/>
    </g>
    <g clip-path="url(#p0877ad3378)">
     <use xlink:href="#C0_0_ce235f6d16" x="177.951548" y="194.643462" style="fill: #0086ff; stroke: #000000"/>
    </g>
    <g clip-path="url(#p0877ad3378)">
     <use xlink:href="#C0_0_ce235f6d16" x="187.577408" y="411.948964" style="fill: #002dff; stroke: #000000"/>
    </g>
    <g clip-path="url(#p0877ad3378)">
     <use xlink:href="#C0_0_ce235f6d16" x="114.860962" y="272.099105" style="fill: #ff0024; stroke: #000000"/>
    </g>
    <g clip-path="url(#p0877ad3378)">
     <use xlink:href="#C0_0_ce235f6d16" x="267.288089" y="175.498764" style="fill: #00d9ff; stroke: #000000"/>
    </g>
    <g clip-path="url(#p0877ad3378)">
     <use xlink:href="#C0_0_ce235f6d16" x="367.367887" y="468.177824" style="fill: #0408ff; stroke: #000000"/>
    </g>
    <g clip-path="url(#p0877ad3378)">
     <use xlink:href="#C0_0_ce235f6d16" x="111.023094" y="220.894087" style="fill: #003fff; stroke: #000000"/>
    </g>
    <g clip-path="url(#p0877ad3378)">
     <use xlink:href="#C0_0_ce235f6d16" x="71.732946" y="408.260871" style="fill: #fef100; stroke: #000000"/>
    </g>
    <g clip-path="url(#p0877ad3378)">
     <use xlink:href="#C0_0_ce235f6d16" x="344.700019" y="100.656103" style="fill: #00e5ff; stroke: #000000"/>
    </g>
    <g clip-path="url(#p0877ad3378)">
     <use xlink:href="#C0_0_ce235f6d16" x="456.520918" y="295.360556" style="fill: #00ff10; stroke: #000000"/>
    </g>
    <g clip-path="url(#p0877ad3378)">
     <use xlink:href="#C0_0_ce235f6d16" x="355.937033" y="142.205572" style="fill: #00fffc; stroke: #000000"/>
    </g>
    <g clip-path="url(#p0877ad3378)">
     <use xlink:href="#C0_0_ce235f6d16" x="518.952358" y="415.965042" style="fill: #37ff00; stroke: #000000"/>
    </g>
    <g clip-path="url(#p0877ad3378)">
     <use xlink:href="#C0_0_ce235f6d16" x="267.42129" y="434.097221" style="fill: #0800ff; stroke: #000000"/>
    </g>
    <g clip-path="url(#p0877ad3378)">
     <use xlink:href="#C0_0_ce235f6d16" x="304.184102" y="127.274706" style="fill: #00f0ff; stroke: #000000"/>
    </g>
    <g clip-path="url(#p0877ad3378)">
     <use xlink:href="#C0_0_ce235f6d16" x="225.773236" y="340.079375" style="fill: #d7ff00; stroke: #000000"/>
    </g>
    <g clip-path="url(#p0877ad3378)">
     <use xlink:href="#C0_0_ce235f6d16" x="301.521325" y="444.830091" style="fill: #4f00ff; stroke: #000000"/>
    </g>
    <g clip-path="url(#p0877ad3378)">
     <use xlink:href="#C0_0_ce235f6d16" x="142.781891" y="389.729914" style="fill: #ff8800; stroke: #000000"/>
    </g>
    <g clip-path="url(#p0877ad3378)">
     <use xlink:href="#C0_0_ce235f6d16" x="512.134998" y="246.893417" style="fill: #1aff00; stroke: #000000"/>
    </g>
    <g clip-path="url(#p0877ad3378)">
     <use xlink:href="#C0_0_ce235f6d16" x="54.138067" y="344.520804" style="fill: #ffa500; stroke: #000000"/>
    </g>
    <g clip-path="url(#p0877ad3378)">
     <use xlink:href="#C0_0_ce235f6d16" x="285.064163" y="261.942623" style="fill: #e800ff; stroke: #000000"/>
    </g>
    <g clip-path="url(#p0877ad3378)">
     <use xlink:href="#C0_0_ce235f6d16" x="84.927286" y="280.931172" style="fill: #ff0059; stroke: #000000"/>
    </g>
    <g clip-path="url(#p0877ad3378)">
     <use xlink:href="#C0_0_ce235f6d16" x="241.511833" y="147.40323" style="fill: #ff0c00; stroke: #000000"/>
    </g>
    <g clip-path="url(#p0877ad3378)">
     <use xlink:href="#C0_0_ce235f6d16" x="320.129671" y="260.731202" style="fill: #ff00a0; stroke: #000000"/>
    </g>
    <g clip-path="url(#p0877ad3378)">
     <use xlink:href="#C0_0_ce235f6d16" x="216.23073" y="192.111963" style="fill: #00bbff; stroke: #000000"/>
    </g>
    <g clip-path="url(#p0877ad3378)">
     <use xlink:href="#C0_0_ce235f6d16" x="259.639251" y="40.605572" style="fill: #ff5f00; stroke: #000000"/>
    </g>
    <g clip-path="url(#p0877ad3378)">
     <use xlink:href="#C0_0_ce235f6d16" x="152.99467" y="468.277319" style="fill: #f8fd00; stroke: #000000"/>
    </g>
    <g clip-path="url(#p0877ad3378)">
     <use xlink:href="#C0_0_ce235f6d16" x="438.061586" y="85.252069" style="fill: #00ffde; stroke: #000000"/>
    </g>
    <g clip-path="url(#p0877ad3378)">
     <use xlink:href="#C0_0_ce235f6d16" x="225.691958" y="237.157046" style="fill: #0057ff; stroke: #000000"/>
    </g>
    <g clip-path="url(#p0877ad3378)">
     <use xlink:href="#C0_0_ce235f6d16" x="205.144976" y="440.478922" style="fill: #2500ff; stroke: #000000"/>
    </g>
    <g clip-path="url(#p0877ad3378)">
     <use xlink:href="#C0_0_ce235f6d16" x="233.784728" y="379.113816" style="fill: #cbff00; stroke: #000000"/>
    </g>
    <g clip-path="url(#p0877ad3378)">
     <use xlink:href="#C0_0_ce235f6d16" x="173.498574" y="344.076407" style="fill: #ff007c; stroke: #000000"/>
    </g>
    <g clip-path="url(#p0877ad3378)">
     <use xlink:href="#C0_0_ce235f6d16" x="446.251911" y="446.70702" style="fill: #d600ff; stroke: #000000"/>
    </g>
    <g clip-path="url(#p0877ad3378)">
     <use xlink:href="#C0_0_ce235f6d16" x="186.376928" y="503.362467" style="fill: #ffb700; stroke: #000000"/>
    </g>
    <g clip-path="url(#p0877ad3378)">
     <use xlink:href="#C0_0_ce235f6d16" x="465.235668" y="138.648302" style="fill: #00ff62; stroke: #000000"/>
    </g>
    <g clip-path="url(#p0877ad3378)">
     <use xlink:href="#C0_0_ce235f6d16" x="324.39368" y="209.889215" style="fill: #00ff39; stroke: #000000"/>
    </g>
    <g clip-path="url(#p0877ad3378)">
     <use xlink:href="#C0_0_ce235f6d16" x="302.455888" y="167.789632" style="fill: #00ffd3; stroke: #000000"/>
    </g>
   </g>
   <g id="matplotlib.axis_1">
    <g id="xtick_1">
     <g id="line2d_1">
      <path d="M 0 576 
L 0 0 
" clip-path="url(#p0877ad3378)" style="fill: none; stroke-dasharray: 1.85,0.8; stroke-dashoffset: 0; stroke: #808080; stroke-width: 0.5"/>
     </g>
     <g id="line2d_2">
      <defs>
       <path id="md6e3e1dcb8" d="M 0 0 
L 0 3.5 
" style="stroke: #000000; stroke-width: 0.8"/>
      </defs>
      <g>
       <use xlink:href="#md6e3e1dcb8" x="0" y="576" style="stroke: #000000; stroke-width: 0.8"/>
      </g>
     </g>
     <g id="text_1">
      <!-- −1.0 -->
      <g transform="translate(-12.141406 590.598438) scale(0.1 -0.1)">
       <defs>
        <path id="DejaVuSans-2212" d="M 678 2272 
L 4684 2272 
L 4684 1741 
L 678 1741 
L 678 2272 
z
" transform="scale(0.015625)"/>
        <path id="DejaVuSans-31" d="M 794 531 
L 1825 531 
L 1825 4091 
L 703 3866 
L 703 4441 
L 1819 4666 
L 2450 4666 
L 2450 531 
L 3481 531 
L 3481 0 
L 794 0 
L 794 531 
z
" transform="scale(0.015625)"/>
        <path id="DejaVuSans-2e" d="M 684 794 
L 1344 794 
L 1344 0 
L 684 0 
L 684 794 
z
" transform="scale(0.015625)"/>
        <path id="DejaVuSans-30" d="M 2034 4250 
Q 1547 4250 1301 3770 
Q 1056 3291 1056 2328 
Q 1056 1369 1301 889 
Q 1547 409 2034 409 
Q 2525 409 2770 889 
Q 3016 1369 3016 2328 
Q 3016 3291 2770 3770 
Q 2525 4250 2034 4250 
z
M 2034 4750 
Q 2819 4750 3233 4129 
Q 3647 3509 3647 2328 
Q 3647 1150 3233 529 
Q 2819 -91 2034 -91 
Q 1250 -91 836 529 
Q 422 1150 422 2328 
Q 422 3509 836 4129 
Q 1250 4750 2034 4750 
z
" transform="scale(0.015625)"/>
       </defs>
       <use xlink:href="#DejaVuSans-2212"/>
       <use xlink:href="#DejaVuSans-31" transform="translate(83.789062 0)"/>
       <use xlink:href="#DejaVuSans-2e" transform="translate(147.412109 0)"/>
       <use xlink:href="#DejaVuSans-30" transform="translate(179.199219 0)"/>
      </g>
     </g>
    </g>
    <g id="xtick_2">
     <g id="line2d_3">
      <path d="M 57.6 576 
L 57.6 0 
" clip-path="url(#p0877ad3378)" style="fill: none; stroke-dasharray: 1.85,0.8; stroke-dashoffset: 0; stroke: #808080; stroke-width: 0.5"/>
     </g>
     <g id="line2d_4">
      <g>
       <use xlink:href="#md6e3e1dcb8" x="57.6" y="576" style="stroke: #000000; stroke-width: 0.8"/>
      </g>
     </g>
     <g id="text_2">
      <!-- −0.8 -->
      <g transform="translate(45.458594 590.598438) scale(0.1 -0.1)">
       <defs>
        <path id="DejaVuSans-38" d="M 2034 2216 
Q 1584 2216 1326 1975 
Q 1069 1734 1069 1313 
Q 1069 891 1326 650 
Q 1584 409 2034 409 
Q 2484 409 2743 651 
Q 3003 894 3003 1313 
Q 3003 1734 2745 1975 
Q 2488 2216 2034 2216 
z
M 1403 2484 
Q 997 2584 770 2862 
Q 544 3141 544 3541 
Q 544 4100 942 4425 
Q 1341 4750 2034 4750 
Q 2731 4750 3128 4425 
Q 3525 4100 3525 3541 
Q 3525 3141 3298 2862 
Q 3072 2584 2669 2484 
Q 3125 2378 3379 2068 
Q 3634 1759 3634 1313 
Q 3634 634 3220 271 
Q 2806 -91 2034 -91 
Q 1263 -91 848 271 
Q 434 634 434 1313 
Q 434 1759 690 2068 
Q 947 2378 1403 2484 
z
M 1172 3481 
Q 1172 3119 1398 2916 
Q 1625 2713 2034 2713 
Q 2441 2713 2670 2916 
Q 2900 3119 2900 3481 
Q 2900 3844 2670 4047 
Q 2441 4250 2034 4250 
Q 1625 4250 1398 4047 
Q 1172 3844 1172 3481 
z
" transform="scale(0.015625)"/>
       </defs>
       <use xlink:href="#DejaVuSans-2212"/>
       <use xlink:href="#DejaVuSans-30" transform="translate(83.789062 0)"/>
       <use xlink:href="#DejaVuSans-2e" transform="translate(147.412109 0)"/>
       <use xlink:href="#DejaVuSans-38" transform="translate(179.199219 0)"/>
      </g>
     </g>
    </g>
    <g id="xtick_3">
     <g id="line2d_5">
      <path d="M 115.2 576 
L 115.2 0 
" clip-path="url(#p0877ad3378)" style="fill: none; stroke-dasharray: 1.85,0.8; stroke-dashoffset: 0; stroke: #808080; stroke-width: 0.5"/>
     </g>
     <g id="line2d_6">
      <g>
       <use xlink:href="#md6e3e1dcb8" x="115.2" y="576" style="stroke: #000000; stroke-width: 0.8"/>
      </g>
     </g>
     <g id="text_3">
      <!-- −0.6 -->
      <g transform="translate(103.058594 590.598438) scale(0.1 -0.1)">
       <defs>
        <path id="DejaVuSans-36" d="M 2113 2584 
Q 1688 2584 1439 2293 
Q 1191 2003 1191 1497 
Q 1191 994 1439 701 
Q 1688 409 2113 409 
Q 2538 409 2786 701 
Q 3034 994 3034 1497 
Q 3034 2003 2786 2293 
Q 2538 2584 2113 2584 
z
M 3366 4563 
L 3366 3988 
Q 3128 4100 2886 4159 
Q 2644 4219 2406 4219 
Q 1781 4219 1451 3797 
Q 1122 3375 1075 2522 
Q 1259 2794 1537 2939 
Q 1816 3084 2150 3084 
Q 2853 3084 3261 2657 
Q 3669 2231 3669 1497 
Q 3669 778 3244 343 
Q 2819 -91 2113 -91 
Q 1303 -91 875 529 
Q 447 1150 447 2328 
Q 447 3434 972 4092 
Q 1497 4750 2381 4750 
Q 2619 4750 2861 4703 
Q 3103 4656 3366 4563 
z
" transform="scale(0.015625)"/>
       </defs>
       <use xlink:href="#DejaVuSans-2212"/>
       <use xlink:href="#DejaVuSans-30" transform="translate(83.789062 0)"/>
       <use xlink:href="#DejaVuSans-2e" transform="translate(147.412109 0)"/>
       <use xlink:href="#DejaVuSans-36" transform="translate(179.199219 0)"/>
      </g>
     </g>
    </g>
    <g id="xtick_4">
     <g id="line2d_7">
      <path d="M 172.8 576 
L 172.8 0 
" clip-path="url(#p0877ad3378)" style="fill: none; stroke-dasharray: 1.85,0.8; stroke-dashoffset: 0; stroke: #808080; stroke-width: 0.5"/>
     </g>
     <g id="line2d_8">
      <g>
       <use xlink:href="#md6e3e1dcb8" x="172.8" y="576" style="stroke: #000000; stroke-width: 0.8"/>
      </g>
     </g>
     <g id="text_4">
      <!-- −0.4 -->
      <g transform="translate(160.658594 590.598438) scale(0.1 -0.1)">
       <defs>
        <path id="DejaVuSans-34" d="M 2419 4116 
L 825 1625 
L 2419 1625 
L 2419 4116 
z
M 2253 4666 
L 3047 4666 
L 3047 1625 
L 3713 1625 
L 3713 1100 
L 3047 1100 
L 3047 0 
L 2419 0 
L 2419 1100 
L 313 1100 
L 313 1709 
L 2253 4666 
z
" transform="scale(0.015625)"/>
       </defs>
       <use xlink:href="#DejaVuSans-2212"/>
       <use xlink:href="#DejaVuSans-30" transform="translate(83.789062 0)"/>
       <use xlink:href="#DejaVuSans-2e" transform="translate(147.412109 0)"/>
       <use xlink:href="#DejaVuSans-34" transform="translate(179.199219 0)"/>
      </g>
     </g>
    </g>
    <g id="xtick_5">
     <g id="line2d_9">
      <path d="M 230.4 576 
L 230.4 0 
" clip-path="url(#p0877ad3378)" style="fill: none; stroke-dasharray: 1.85,0.8; stroke-dashoffset: 0; stroke: #808080; stroke-width: 0.5"/>
     </g>
     <g id="line2d_10">
      <g>
       <use xlink:href="#md6e3e1dcb8" x="230.4" y="576" style="stroke: #000000; stroke-width: 0.8"/>
      </g>
     </g>
     <g id="text_5">
      <!-- −0.2 -->
      <g transform="translate(218.258594 590.598438) scale(0.1 -0.1)">
       <defs>
        <path id="DejaVuSans-32" d="M 1228 531 
L 3431 531 
L 3431 0 
L 469 0 
L 469 531 
Q 828 903 1448 1529 
Q 2069 2156 2228 2338 
Q 2531 2678 2651 2914 
Q 2772 3150 2772 3378 
Q 2772 3750 2511 3984 
Q 2250 4219 1831 4219 
Q 1534 4219 1204 4116 
Q 875 4013 500 3803 
L 500 4441 
Q 881 4594 1212 4672 
Q 1544 4750 1819 4750 
Q 2544 4750 2975 4387 
Q 3406 4025 3406 3419 
Q 3406 3131 3298 2873 
Q 3191 2616 2906 2266 
Q 2828 2175 2409 1742 
Q 1991 1309 1228 531 
z
" transform="scale(0.015625)"/>
       </defs>
       <use xlink:href="#DejaVuSans-2212"/>
       <use xlink:href="#DejaVuSans-30" transform="translate(83.789062 0)"/>
       <use xlink:href="#DejaVuSans-2e" transform="translate(147.412109 0)"/>
       <use xlink:href="#DejaVuSans-32" transform="translate(179.199219 0)"/>
      </g>
     </g>
    </g>
    <g id="xtick_6">
     <g id="line2d_11">
      <path d="M 288 576 
L 288 0 
" clip-path="url(#p0877ad3378)" style="fill: none; stroke-dasharray: 1.85,0.8; stroke-dashoffset: 0; stroke: #808080; stroke-width: 0.5"/>
     </g>
     <g id="line2d_12">
      <g>
       <use xlink:href="#md6e3e1dcb8" x="288" y="576" style="stroke: #000000; stroke-width: 0.8"/>
      </g>
     </g>
     <g id="text_6">
      <!-- 0.0 -->
      <g transform="translate(280.048437 590.598438) scale(0.1 -0.1)">
       <use xlink:href="#DejaVuSans-30"/>
       <use xlink:href="#DejaVuSans-2e" transform="translate(63.623047 0)"/>
       <use xlink:href="#DejaVuSans-30" transform="translate(95.410156 0)"/>
      </g>
     </g>
    </g>
    <g id="xtick_7">
     <g id="line2d_13">
      <path d="M 345.6 576 
L 345.6 0 
" clip-path="url(#p0877ad3378)" style="fill: none; stroke-dasharray: 1.85,0.8; stroke-dashoffset: 0; stroke: #808080; stroke-width: 0.5"/>
     </g>
     <g id="line2d_14">
      <g>
       <use xlink:href="#md6e3e1dcb8" x="345.6" y="576" style="stroke: #000000; stroke-width: 0.8"/>
      </g>
     </g>
     <g id="text_7">
      <!-- 0.2 -->
      <g transform="translate(337.648437 590.598438) scale(0.1 -0.1)">
       <use xlink:href="#DejaVuSans-30"/>
       <use xlink:href="#DejaVuSans-2e" transform="translate(63.623047 0)"/>
       <use xlink:href="#DejaVuSans-32" transform="translate(95.410156 0)"/>
      </g>
     </g>
    </g>
    <g id="xtick_8">
     <g id="line2d_15">
      <path d="M 403.2 576 
L 403.2 0 
" clip-path="url(#p0877ad3378)" style="fill: none; stroke-dasharray: 1.85,0.8; stroke-dashoffset: 0; stroke: #808080; stroke-width: 0.5"/>
     </g>
     <g id="line2d_16">
      <g>
       <use xlink:href="#md6e3e1dcb8" x="403.2" y="576" style="stroke: #000000; stroke-width: 0.8"/>
      </g>
     </g>
     <g id="text_8">
      <!-- 0.4 -->
      <g transform="translate(395.248437 590.598438) scale(0.1 -0.1)">
       <use xlink:href="#DejaVuSans-30"/>
       <use xlink:href="#DejaVuSans-2e" transform="translate(63.623047 0)"/>
       <use xlink:href="#DejaVuSans-34" transform="translate(95.410156 0)"/>
      </g>
     </g>
    </g>
    <g id="xtick_9">
     <g id="line2d_17">
      <path d="M 460.8 576 
L 460.8 0 
" clip-path="url(#p0877ad3378)" style="fill: none; stroke-dasharray: 1.85,0.8; stroke-dashoffset: 0; stroke: #808080; stroke-width: 0.5"/>
     </g>
     <g id="line2d_18">
      <g>
       <use xlink:href="#md6e3e1dcb8" x="460.8" y="576" style="stroke: #000000; stroke-width: 0.8"/>
      </g>
     </g>
     <g id="text_9">
      <!-- 0.6 -->
      <g transform="translate(452.848437 590.598438) scale(0.1 -0.1)">
       <use xlink:href="#DejaVuSans-30"/>
       <use xlink:href="#DejaVuSans-2e" transform="translate(63.623047 0)"/>
       <use xlink:href="#DejaVuSans-36" transform="translate(95.410156 0)"/>
      </g>
     </g>
    </g>
    <g id="xtick_10">
     <g id="line2d_19">
      <path d="M 518.4 576 
L 518.4 0 
" clip-path="url(#p0877ad3378)" style="fill: none; stroke-dasharray: 1.85,0.8; stroke-dashoffset: 0; stroke: #808080; stroke-width: 0.5"/>
     </g>
     <g id="line2d_20">
      <g>
       <use xlink:href="#md6e3e1dcb8" x="518.4" y="576" style="stroke: #000000; stroke-width: 0.8"/>
      </g>
     </g>
     <g id="text_10">
      <!-- 0.8 -->
      <g transform="translate(510.448437 590.598438) scale(0.1 -0.1)">
       <use xlink:href="#DejaVuSans-30"/>
       <use xlink:href="#DejaVuSans-2e" transform="translate(63.623047 0)"/>
       <use xlink:href="#DejaVuSans-38" transform="translate(95.410156 0)"/>
      </g>
     </g>
    </g>
    <g id="xtick_11">
     <g id="line2d_21">
      <path d="M 576 576 
L 576 0 
" clip-path="url(#p0877ad3378)" style="fill: none; stroke-dasharray: 1.85,0.8; stroke-dashoffset: 0; stroke: #808080; stroke-width: 0.5"/>
     </g>
     <g id="line2d_22">
      <g>
       <use xlink:href="#md6e3e1dcb8" x="576" y="576" style="stroke: #000000; stroke-width: 0.8"/>
      </g>
     </g>
     <g id="text_11">
      <!-- 1.0 -->
      <g transform="translate(568.048437 590.598438) scale(0.1 -0.1)">
       <use xlink:href="#DejaVuSans-31"/>
       <use xlink:href="#DejaVuSans-2e" transform="translate(63.623047 0)"/>
       <use xlink:href="#DejaVuSans-30" transform="translate(95.410156 0)"/>
      </g>
     </g>
    </g>
   </g>
   <g id="matplotlib.axis_2">
    <g id="ytick_1">
     <g id="line2d_23">
      <path d="M 0 576 
L 576 576 
" clip-path="url(#p0877ad3378)" style="fill: none; stroke-dasharray: 1.85,0.8; stroke-dashoffset: 0; stroke: #808080; stroke-width: 0.5"/>
     </g>
     <g id="line2d_24">
      <defs>
       <path id="me3db0e7d90" d="M 0 0 
L -3.5 0 
" style="stroke: #000000; stroke-width: 0.8"/>
      </defs>
      <g>
       <use xlink:href="#me3db0e7d90" x="0" y="576" style="stroke: #000000; stroke-width: 0.8"/>
      </g>
     </g>
     <g id="text_12">
      <!-- −1.0 -->
      <g transform="translate(-31.282813 579.799219) scale(0.1 -0.1)">
       <use xlink:href="#DejaVuSans-2212"/>
       <use xlink:href="#DejaVuSans-31" transform="translate(83.789062 0)"/>
       <use xlink:href="#DejaVuSans-2e" transform="translate(147.412109 0)"/>
       <use xlink:href="#DejaVuSans-30" transform="translate(179.199219 0)"/>
      </g>
     </g>
    </g>
    <g id="ytick_2">
     <g id="line2d_25">
      <path d="M 0 518.4 
L 576 518.4 
" clip-path="url(#p0877ad3378)" style="fill: none; stroke-dasharray: 1.85,0.8; stroke-dashoffset: 0; stroke: #808080; stroke-width: 0.5"/>
     </g>
     <g id="line2d_26">
      <g>
       <use xlink:href="#me3db0e7d90" x="0" y="518.4" style="stroke: #000000; stroke-width: 0.8"/>
      </g>
     </g>
     <g id="text_13">
      <!-- −0.8 -->
      <g transform="translate(-31.282813 522.199219) scale(0.1 -0.1)">
       <use xlink:href="#DejaVuSans-2212"/>
       <use xlink:href="#DejaVuSans-30" transform="translate(83.789062 0)"/>
       <use xlink:href="#DejaVuSans-2e" transform="translate(147.412109 0)"/>
       <use xlink:href="#DejaVuSans-38" transform="translate(179.199219 0)"/>
      </g>
     </g>
    </g>
    <g id="ytick_3">
     <g id="line2d_27">
      <path d="M 0 460.8 
L 576 460.8 
" clip-path="url(#p0877ad3378)" style="fill: none; stroke-dasharray: 1.85,0.8; stroke-dashoffset: 0; stroke: #808080; stroke-width: 0.5"/>
     </g>
     <g id="line2d_28">
      <g>
       <use xlink:href="#me3db0e7d90" x="0" y="460.8" style="stroke: #000000; stroke-width: 0.8"/>
      </g>
     </g>
     <g id="text_14">
      <!-- −0.6 -->
      <g transform="translate(-31.282813 464.599219) scale(0.1 -0.1)">
       <use xlink:href="#DejaVuSans-2212"/>
       <use xlink:href="#DejaVuSans-30" transform="translate(83.789062 0)"/>
       <use xlink:href="#DejaVuSans-2e" transform="translate(147.412109 0)"/>
       <use xlink:href="#DejaVuSans-36" transform="translate(179.199219 0)"/>
      </g>
     </g>
    </g>
    <g id="ytick_4">
     <g id="line2d_29">
      <path d="M 0 403.2 
L 576 403.2 
" clip-path="url(#p0877ad3378)" style="fill: none; stroke-dasharray: 1.85,0.8; stroke-dashoffset: 0; stroke: #808080; stroke-width: 0.5"/>
     </g>
     <g id="line2d_30">
      <g>
       <use xlink:href="#me3db0e7d90" x="0" y="403.2" style="stroke: #000000; stroke-width: 0.8"/>
      </g>
     </g>
     <g id="text_15">
      <!-- −0.4 -->
      <g transform="translate(-31.282813 406.999219) scale(0.1 -0.1)">
       <use xlink:href="#DejaVuSans-2212"/>
       <use xlink:href="#DejaVuSans-30" transform="translate(83.789062 0)"/>
       <use xlink:href="#DejaVuSans-2e" transform="translate(147.412109 0)"/>
       <use xlink:href="#DejaVuSans-34" transform="translate(179.199219 0)"/>
      </g>
     </g>
    </g>
    <g id="ytick_5">
     <g id="line2d_31">
      <path d="M 0 345.6 
L 576 345.6 
" clip-path="url(#p0877ad3378)" style="fill: none; stroke-dasharray: 1.85,0.8; stroke-dashoffset: 0; stroke: #808080; stroke-width: 0.5"/>
     </g>
     <g id="line2d_32">
      <g>
       <use xlink:href="#me3db0e7d90" x="0" y="345.6" style="stroke: #000000; stroke-width: 0.8"/>
      </g>
     </g>
     <g id="text_16">
      <!-- −0.2 -->
      <g transform="translate(-31.282813 349.399219) scale(0.1 -0.1)">
       <use xlink:href="#DejaVuSans-2212"/>
       <use xlink:href="#DejaVuSans-30" transform="translate(83.789062 0)"/>
       <use xlink:href="#DejaVuSans-2e" transform="translate(147.412109 0)"/>
       <use xlink:href="#DejaVuSans-32" transform="translate(179.199219 0)"/>
      </g>
     </g>
    </g>
    <g id="ytick_6">
     <g id="line2d_33">
      <path d="M 0 288 
L 576 288 
" clip-path="url(#p0877ad3378)" style="fill: none; stroke-dasharray: 1.85,0.8; stroke-dashoffset: 0; stroke: #808080; stroke-width: 0.5"/>
     </g>
     <g id="line2d_34">
      <g>
       <use xlink:href="#me3db0e7d90" x="0" y="288" style="stroke: #000000; stroke-width: 0.8"/>
      </g>
     </g>
     <g id="text_17">
      <!-- 0.0 -->
      <g transform="translate(-22.903125 291.799219) scale(0.1 -0.1)">
       <use xlink:href="#DejaVuSans-30"/>
       <use xlink:href="#DejaVuSans-2e" transform="translate(63.623047 0)"/>
       <use xlink:href="#DejaVuSans-30" transform="translate(95.410156 0)"/>
      </g>
     </g>
    </g>
    <g id="ytick_7">
     <g id="line2d_35">
      <path d="M 0 230.4 
L 576 230.4 
" clip-path="url(#p0877ad3378)" style="fill: none; stroke-dasharray: 1.85,0.8; stroke-dashoffset: 0; stroke: #808080; stroke-width: 0.5"/>
     </g>
     <g id="line2d_36">
      <g>
       <use xlink:href="#me3db0e7d90" x="0" y="230.4" style="stroke: #000000; stroke-width: 0.8"/>
      </g>
     </g>
     <g id="text_18">
      <!-- 0.2 -->
      <g transform="translate(-22.903125 234.199219) scale(0.1 -0.1)">
       <use xlink:href="#DejaVuSans-30"/>
       <use xlink:href="#DejaVuSans-2e" transform="translate(63.623047 0)"/>
       <use xlink:href="#DejaVuSans-32" transform="translate(95.410156 0)"/>
      </g>
     </g>
    </g>
    <g id="ytick_8">
     <g id="line2d_37">
      <path d="M 0 172.8 
L 576 172.8 
" clip-path="url(#p0877ad3378)" style="fill: none; stroke-dasharray: 1.85,0.8; stroke-dashoffset: 0; stroke: #808080; stroke-width: 0.5"/>
     </g>
     <g id="line2d_38">
      <g>
       <use xlink:href="#me3db0e7d90" x="0" y="172.8" style="stroke: #000000; stroke-width: 0.8"/>
      </g>
     </g>
     <g id="text_19">
      <!-- 0.4 -->
      <g transform="translate(-22.903125 176.599219) scale(0.1 -0.1)">
       <use xlink:href="#DejaVuSans-30"/>
       <use xlink:href="#DejaVuSans-2e" transform="translate(63.623047 0)"/>
       <use xlink:href="#DejaVuSans-34" transform="translate(95.410156 0)"/>
      </g>
     </g>
    </g>
    <g id="ytick_9">
     <g id="line2d_39">
      <path d="M 0 115.2 
L 576 115.2 
" clip-path="url(#p0877ad3378)" style="fill: none; stroke-dasharray: 1.85,0.8; stroke-dashoffset: 0; stroke: #808080; stroke-width: 0.5"/>
     </g>
     <g id="line2d_40">
      <g>
       <use xlink:href="#me3db0e7d90" x="0" y="115.2" style="stroke: #000000; stroke-width: 0.8"/>
      </g>
     </g>
     <g id="text_20">
      <!-- 0.6 -->
      <g transform="translate(-22.903125 118.999219) scale(0.1 -0.1)">
       <use xlink:href="#DejaVuSans-30"/>
       <use xlink:href="#DejaVuSans-2e" transform="translate(63.623047 0)"/>
       <use xlink:href="#DejaVuSans-36" transform="translate(95.410156 0)"/>
      </g>
     </g>
    </g>
    <g id="ytick_10">
     <g id="line2d_41">
      <path d="M 0 57.6 
L 576 57.6 
" clip-path="url(#p0877ad3378)" style="fill: none; stroke-dasharray: 1.85,0.8; stroke-dashoffset: 0; stroke: #808080; stroke-width: 0.5"/>
     </g>
     <g id="line2d_42">
      <g>
       <use xlink:href="#me3db0e7d90" x="0" y="57.6" style="stroke: #000000; stroke-width: 0.8"/>
      </g>
     </g>
     <g id="text_21">
      <!-- 0.8 -->
      <g transform="translate(-22.903125 61.399219) scale(0.1 -0.1)">
       <use xlink:href="#DejaVuSans-30"/>
       <use xlink:href="#DejaVuSans-2e" transform="translate(63.623047 0)"/>
       <use xlink:href="#DejaVuSans-38" transform="translate(95.410156 0)"/>
      </g>
     </g>
    </g>
    <g id="ytick_11">
     <g id="line2d_43">
      <path d="M 0 0 
L 576 0 
" clip-path="url(#p0877ad3378)" style="fill: none; stroke-dasharray: 1.85,0.8; stroke-dashoffset: 0; stroke: #808080; stroke-width: 0.5"/>
     </g>
     <g id="line2d_44">
      <g>
       <use xlink:href="#me3db0e7d90" x="0" y="0" style="stroke: #000000; stroke-width: 0.8"/>
      </g>
     </g>
     <g id="text_22">
      <!-- 1.0 -->
      <g transform="translate(-22.903125 3.799219) scale(0.1 -0.1)">
       <use xlink:href="#DejaVuSans-31"/>
       <use xlink:href="#DejaVuSans-2e" transform="translate(63.623047 0)"/>
       <use xlink:href="#DejaVuSans-30" transform="translate(95.410156 0)"/>
      </g>
     </g>
    </g>
   </g>
   <g id="patch_3">
    <path d="M 0 576 
L 0 0 
" style="fill: none; stroke: #000000; stroke-width: 0.8; stroke-linejoin: miter; stroke-linecap: square"/>
   </g>
   <g id="patch_4">
    <path d="M 576 576 
L 576 0 
" style="fill: none; stroke: #000000; stroke-width: 0.8; stroke-linejoin: miter; stroke-linecap: square"/>
   </g>
   <g id="patch_5">
    <path d="M 0 576 
L 576 576 
" style="fill: none; stroke: #000000; stroke-width: 0.8; stroke-linejoin: miter; stroke-linecap: square"/>
   </g>
   <g id="patch_6">
    <path d="M 0 0 
L 576 0 
" style="fill: none; stroke: #000000; stroke-width: 0.8; stroke-linejoin: miter; stroke-linecap: square"/>
   </g>
  </g>
 </g>
 <defs>
  <clipPath id="p0877ad3378">
   <rect x="0" y="0" width="576" height="576"/>
  </clipPath>
 </defs>
</svg>
