<?xml version="1.0" encoding="utf-8" standalone="no"?>
<!DOCTYPE svg PUBLIC "-//W3C//DTD SVG 1.1//EN"
  "http://www.w3.org/Graphics/SVG/1.1/DTD/svg11.dtd">
<svg xmlns:xlink="http://www.w3.org/1999/xlink" width="576pt" height="576pt" viewBox="0 0 576 576" xmlns="http://www.w3.org/2000/svg" version="1.1">
 <metadata>
  <rdf:RDF xmlns:dc="http://purl.org/dc/elements/1.1/" xmlns:cc="http://creativecommons.org/ns#" xmlns:rdf="http://www.w3.org/1999/02/22-rdf-syntax-ns#">
   <cc:Work>
    <dc:type rdf:resource="http://purl.org/dc/dcmitype/StillImage"/>
    <dc:date>2025-06-18T12:22:39.402584</dc:date>
    <dc:format>image/svg+xml</dc:format>
    <dc:creator>
     <cc:Agent>
      <dc:title>Matplotlib v3.10.1, https://matplotlib.org/</dc:title>
     </cc:Agent>
    </dc:creator>
   </cc:Work>
  </rdf:RDF>
 </metadata>
 <defs>
  <style type="text/css">*{stroke-linejoin: round; stroke-linecap: butt}</style>
 </defs>
 <g id="figure_1">
  <g id="patch_1">
   <path d="M 0 576 
L 576 576 
L 576 0 
L 0 0 
z
" style="fill: #ffffff"/>
  </g>
  <g id="axes_1">
   <g id="patch_2">
    <path d="M 0 576 
L 576 576 
L 576 0 
L 0 0 
z
" style="fill: #ffffff"/>
   </g>
   <g id="PathCollection_1">
    <defs>
     <path id="C0_0_f6c53550f7" d="M 0 4.330127 
C 1.148363 4.330127 2.249847 3.873878 3.061862 3.061862 
C 3.873878 2.249847 4.330127 1.148363 4.330127 -0 
C 4.330127 -1.148363 3.873878 -2.249847 3.061862 -3.061862 
C 2.249847 -3.873878 1.148363 -4.330127 0 -4.330127 
C -1.148363 -4.330127 -2.249847 -3.873878 -3.061862 -3.061862 
C -3.873878 -2.249847 -4.330127 -1.148363 -4.330127 0 
C -4.330127 1.148363 -3.873878 2.249847 -3.061862 3.061862 
C -2.249847 3.873878 -1.148363 4.330127 0 4.330127 
z
"/>
    </defs>
    <g clip-path="url(#p1249659f67)">
     <use xlink:href="#C0_0_f6c53550f7" x="199.454667" y="278.03452" style="fill: #0074ff; stroke: #000000"/>
    </g>
    <g clip-path="url(#p1249659f67)">
     <use xlink:href="#C0_0_f6c53550f7" x="465.203413" y="138.581182" style="fill: #00ff62; stroke: #000000"/>
    </g>
    <g clip-path="url(#p1249659f67)">
     <use xlink:href="#C0_0_f6c53550f7" x="324.397933" y="209.876101" style="fill: #00ff39; stroke: #000000"/>
    </g>
    <g clip-path="url(#p1249659f67)">
     <use xlink:href="#C0_0_f6c53550f7" x="106.730255" y="368.030139" style="fill: #ffc300; stroke: #000000"/>
    </g>
    <g clip-path="url(#p1249659f67)">
     <use xlink:href="#C0_0_f6c53550f7" x="185.956839" y="503.301664" style="fill: #ffb700; stroke: #000000"/>
    </g>
    <g clip-path="url(#p1249659f67)">
     <use xlink:href="#C0_0_f6c53550f7" x="177.946501" y="151.619173" style="fill: #ff6a00; stroke: #000000"/>
    </g>
    <g clip-path="url(#p1249659f67)">
     <use xlink:href="#C0_0_f6c53550f7" x="52.951424" y="228.75529" style="fill: #00ff74; stroke: #000000"/>
    </g>
    <g clip-path="url(#p1249659f67)">
     <use xlink:href="#C0_0_f6c53550f7" x="400.431396" y="120.701225" style="fill: #00c7ff; stroke: #000000"/>
    </g>
    <g clip-path="url(#p1249659f67)">
     <use xlink:href="#C0_0_f6c53550f7" x="301.467073" y="444.773048" style="fill: #4f00ff; stroke: #000000"/>
    </g>
    <g clip-path="url(#p1249659f67)">
     <use xlink:href="#C0_0_f6c53550f7" x="341.545166" y="445.602293" style="fill: #0016ff; stroke: #000000"/>
    </g>
    <g clip-path="url(#p1249659f67)">
     <use xlink:href="#C0_0_f6c53550f7" x="355.807694" y="142.279713" style="fill: #00fffc; stroke: #000000"/>
    </g>
    <g clip-path="url(#p1249659f67)">
     <use xlink:href="#C0_0_f6c53550f7" x="161.35869" y="81.888931" style="fill: #ff7c00; stroke: #000000"/>
    </g>
    <g clip-path="url(#p1249659f67)">
     <use xlink:href="#C0_0_f6c53550f7" x="272.9887" y="104.889805" style="fill: #00ffc7; stroke: #000000"/>
    </g>
    <g clip-path="url(#p1249659f67)">
     <use xlink:href="#C0_0_f6c53550f7" x="152.684255" y="468.171661" style="fill: #f8fd00; stroke: #000000"/>
    </g>
    <g clip-path="url(#p1249659f67)">
     <use xlink:href="#C0_0_f6c53550f7" x="304.231281" y="127.190918" style="fill: #00f0ff; stroke: #000000"/>
    </g>
    <g clip-path="url(#p1249659f67)">
     <use xlink:href="#C0_0_f6c53550f7" x="399.10611" y="169.498332" style="fill: #00ffa9; stroke: #000000"/>
    </g>
    <g clip-path="url(#p1249659f67)">
     <use xlink:href="#C0_0_f6c53550f7" x="309.812485" y="303.917835" style="fill: #ff00c9; stroke: #000000"/>
    </g>
    <g clip-path="url(#p1249659f67)">
     <use xlink:href="#C0_0_f6c53550f7" x="54.261354" y="344.798634" style="fill: #ffa500; stroke: #000000"/>
    </g>
    <g clip-path="url(#p1249659f67)">
     <use xlink:href="#C0_0_f6c53550f7" x="247.319507" y="270.495353" style="fill: #0069ff; stroke: #000000"/>
    </g>
    <g clip-path="url(#p1249659f67)">
     <use xlink:href="#C0_0_f6c53550f7" x="233.858057" y="379.206462" style="fill: #cbff00; stroke: #000000"/>
    </g>
    <g clip-path="url(#p1249659f67)">
     <use xlink:href="#C0_0_f6c53550f7" x="126.336662" y="433.453268" style="fill: #ff9a00; stroke: #000000"/>
    </g>
    <g clip-path="url(#p1249659f67)">
     <use xlink:href="#C0_0_f6c53550f7" x="225.771064" y="237.06204" style="fill: #0057ff; stroke: #000000"/>
    </g>
    <g clip-path="url(#p1249659f67)">
     <use xlink:href="#C0_0_f6c53550f7" x="367.189633" y="467.902754" style="fill: #0408ff; stroke: #000000"/>
    </g>
    <g clip-path="url(#p1249659f67)">
     <use xlink:href="#C0_0_f6c53550f7" x="438.058428" y="85.030231" style="fill: #00ffde; stroke: #000000"/>
    </g>
    <g clip-path="url(#p1249659f67)">
     <use xlink:href="#C0_0_f6c53550f7" x="448.453966" y="381.052534" style="fill: #7800ff; stroke: #000000"/>
    </g>
    <g clip-path="url(#p1249659f67)">
     <use xlink:href="#C0_0_f6c53550f7" x="259.576479" y="40.670683" style="fill: #ff5f00; stroke: #000000"/>
    </g>
    <g clip-path="url(#p1249659f67)">
     <use xlink:href="#C0_0_f6c53550f7" x="346.674695" y="177.970568" style="fill: #00ff57; stroke: #000000"/>
    </g>
    <g clip-path="url(#p1249659f67)">
     <use xlink:href="#C0_0_f6c53550f7" x="354.166998" y="259.353104" style="fill: #f400ff; stroke: #000000"/>
    </g>
    <g clip-path="url(#p1249659f67)">
     <use xlink:href="#C0_0_f6c53550f7" x="32.429134" y="290.15237" style="fill: #ffe600; stroke: #000000"/>
    </g>
    <g clip-path="url(#p1249659f67)">
     <use xlink:href="#C0_0_f6c53550f7" x="512.133041" y="246.675493" style="fill: #1aff00; stroke: #000000"/>
    </g>
    <g clip-path="url(#p1249659f67)">
     <use xlink:href="#C0_0_f6c53550f7" x="185.947646" y="241.241758" style="fill: #004bff; stroke: #000000"/>
    </g>
    <g clip-path="url(#p1249659f67)">
     <use xlink:href="#C0_0_f6c53550f7" x="407.057568" y="312.266705" style="fill: #0eff00; stroke: #000000"/>
    </g>
    <g clip-path="url(#p1249659f67)">
     <use xlink:href="#C0_0_f6c53550f7" x="71.824837" y="408.402835" style="fill: #fef100; stroke: #000000"/>
    </g>
    <g clip-path="url(#p1249659f67)">
     <use xlink:href="#C0_0_f6c53550f7" x="275.735563" y="300.821129" style="fill: #fc00f5; stroke: #000000"/>
    </g>
    <g clip-path="url(#p1249659f67)">
     <use xlink:href="#C0_0_f6c53550f7" x="523.473335" y="299.099883" style="fill: #4fff00; stroke: #000000"/>
    </g>
    <g clip-path="url(#p1249659f67)">
     <use xlink:href="#C0_0_f6c53550f7" x="463.32312" y="209.491098" style="fill: #00ff9d; stroke: #000000"/>
    </g>
    <g clip-path="url(#p1249659f67)">
     <use xlink:href="#C0_0_f6c53550f7" x="187.535428" y="411.778685" style="fill: #002dff; stroke: #000000"/>
    </g>
    <g clip-path="url(#p1249659f67)">
     <use xlink:href="#C0_0_f6c53550f7" x="304.173534" y="538.47187" style="fill: #1300ff; stroke: #000000"/>
    </g>
    <g clip-path="url(#p1249659f67)">
     <use xlink:href="#C0_0_f6c53550f7" x="309.368689" y="375.944346" style="fill: #84ff00; stroke: #000000"/>
    </g>
    <g clip-path="url(#p1249659f67)">
     <use xlink:href="#C0_0_f6c53550f7" x="292.851676" y="490.089008" style="fill: #0022ff; stroke: #000000"/>
    </g>
    <g clip-path="url(#p1249659f67)">
     <use xlink:href="#C0_0_f6c53550f7" x="518.893496" y="415.945207" style="fill: #37ff00; stroke: #000000"/>
    </g>
    <g clip-path="url(#p1249659f67)">
     <use xlink:href="#C0_0_f6c53550f7" x="216.336079" y="192.078318" style="fill: #00bbff; stroke: #000000"/>
    </g>
    <g clip-path="url(#p1249659f67)">
     <use xlink:href="#C0_0_f6c53550f7" x="324.278495" y="403.449177" style="fill: #e8ff00; stroke: #000000"/>
    </g>
    <g clip-path="url(#p1249659f67)">
     <use xlink:href="#C0_0_f6c53550f7" x="362.857492" y="395.980379" style="fill: #a100ff; stroke: #000000"/>
    </g>
    <g clip-path="url(#p1249659f67)">
     <use xlink:href="#C0_0_f6c53550f7" x="113.611181" y="325.038002" style="fill: #ff0035; stroke: #000000"/>
    </g>
    <g clip-path="url(#p1249659f67)">
     <use xlink:href="#C0_0_f6c53550f7" x="142.722239" y="389.474954" style="fill: #ff8800; stroke: #000000"/>
    </g>
    <g clip-path="url(#p1249659f67)">
     <use xlink:href="#C0_0_f6c53550f7" x="302.390729" y="167.870647" style="fill: #00ffd3; stroke: #000000"/>
    </g>
    <g clip-path="url(#p1249659f67)">
     <use xlink:href="#C0_0_f6c53550f7" x="344.748342" y="100.704048" style="fill: #00e5ff; stroke: #000000"/>
    </g>
    <g clip-path="url(#p1249659f67)">
     <use xlink:href="#C0_0_f6c53550f7" x="421.509293" y="359.461876" style="fill: #5a00ff; stroke: #000000"/>
    </g>
    <g clip-path="url(#p1249659f67)">
     <use xlink:href="#C0_0_f6c53550f7" x="254.601959" y="213.044583" style="fill: #0092ff; stroke: #000000"/>
    </g>
    <g clip-path="url(#p1249659f67)">
     <use xlink:href="#C0_0_f6c53550f7" x="235.630993" y="465.260525" style="fill: #3d00ff; stroke: #000000"/>
    </g>
    <g clip-path="url(#p1249659f67)">
     <use xlink:href="#C0_0_f6c53550f7" x="211.377279" y="125.70948" style="fill: #ff5300; stroke: #000000"/>
    </g>
    <g clip-path="url(#p1249659f67)">
     <use xlink:href="#C0_0_f6c53550f7" x="267.217069" y="175.53029" style="fill: #00d9ff; stroke: #000000"/>
    </g>
    <g clip-path="url(#p1249659f67)">
     <use xlink:href="#C0_0_f6c53550f7" x="398.542794" y="215.198573" style="fill: #00ff2d; stroke: #000000"/>
    </g>
    <g clip-path="url(#p1249659f67)">
     <use xlink:href="#C0_0_f6c53550f7" x="168.90804" y="303.695377" style="fill: #ff0047; stroke: #000000"/>
    </g>
    <g clip-path="url(#p1249659f67)">
     <use xlink:href="#C0_0_f6c53550f7" x="509.76063" y="356.846559" style="fill: #25ff00; stroke: #000000"/>
    </g>
    <g clip-path="url(#p1249659f67)">
     <use xlink:href="#C0_0_f6c53550f7" x="512.707729" y="182.165646" style="fill: #00ff80; stroke: #000000"/>
    </g>
    <g clip-path="url(#p1249659f67)">
     <use xlink:href="#C0_0_f6c53550f7" x="313.525577" y="334.971055" style="fill: #ff00e7; stroke: #000000"/>
    </g>
    <g clip-path="url(#p1249659f67)">
     <use xlink:href="#C0_0_f6c53550f7" x="319.842143" y="260.764094" style="fill: #ff00a0; stroke: #000000"/>
    </g>
    <g clip-path="url(#p1249659f67)">
     <use xlink:href="#C0_0_f6c53550f7" x="250.811365" y="399.496699" style="fill: #72ff00; stroke: #000000"/>
    </g>
    <g clip-path="url(#p1249659f67)">
     <use xlink:href="#C0_0_f6c53550f7" x="389.6627" y="351.396628" style="fill: #ad00ff; stroke: #000000"/>
    </g>
    <g clip-path="url(#p1249659f67)">
     <use xlink:href="#C0_0_f6c53550f7" x="241.124668" y="524.03944" style="fill: #ffd500; stroke: #000000"/>
    </g>
    <g clip-path="url(#p1249659f67)">
     <use xlink:href="#C0_0_f6c53550f7" x="147.398775" y="235.434969" style="fill: #00afff; stroke: #000000"/>
    </g>
    <g clip-path="url(#p1249659f67)">
     <use xlink:href="#C0_0_f6c53550f7" x="178.110188" y="194.735353" style="fill: #0086ff; stroke: #000000"/>
    </g>
    <g clip-path="url(#p1249659f67)">
     <use xlink:href="#C0_0_f6c53550f7" x="424.984689" y="497.367485" style="fill: #6c00ff; stroke: #000000"/>
    </g>
    <g clip-path="url(#p1249659f67)">
     <use xlink:href="#C0_0_f6c53550f7" x="468.023655" y="328.832989" style="fill: #04ff08; stroke: #000000"/>
    </g>
    <g clip-path="url(#p1249659f67)">
     <use xlink:href="#C0_0_f6c53550f7" x="412.424543" y="440.104614" style="fill: #cb00ff; stroke: #000000"/>
    </g>
    <g clip-path="url(#p1249659f67)">
     <use xlink:href="#C0_0_f6c53550f7" x="350.792161" y="325.913848" style="fill: #ff00bd; stroke: #000000"/>
    </g>
    <g clip-path="url(#p1249659f67)">
     <use xlink:href="#C0_0_f6c53550f7" x="195.162437" y="370.015128" style="fill: #ff008e; stroke: #000000"/>
    </g>
    <g clip-path="url(#p1249659f67)">
     <use xlink:href="#C0_0_f6c53550f7" x="173.537378" y="344.004619" style="fill: #ff007c; stroke: #000000"/>
    </g>
    <g clip-path="url(#p1249659f67)">
     <use xlink:href="#C0_0_f6c53550f7" x="456.606182" y="295.14174" style="fill: #00ff10; stroke: #000000"/>
    </g>
    <g clip-path="url(#p1249659f67)">
     <use xlink:href="#C0_0_f6c53550f7" x="401.784842" y="282.421953" style="fill: #00ff1b; stroke: #000000"/>
    </g>
    <g clip-path="url(#p1249659f67)">
     <use xlink:href="#C0_0_f6c53550f7" x="446.094189" y="446.927158" style="fill: #d600ff; stroke: #000000"/>
    </g>
    <g clip-path="url(#p1249659f67)">
     <use xlink:href="#C0_0_f6c53550f7" x="380.67118" y="55.005077" style="fill: #00ffb5; stroke: #000000"/>
    </g>
    <g clip-path="url(#p1249659f67)">
     <use xlink:href="#C0_0_f6c53550f7" x="255.225704" y="329.81681" style="fill: #96ff00; stroke: #000000"/>
    </g>
    <g clip-path="url(#p1249659f67)">
     <use xlink:href="#C0_0_f6c53550f7" x="290.621308" y="224.553264" style="fill: #ff00ac; stroke: #000000"/>
    </g>
    <g clip-path="url(#p1249659f67)">
     <use xlink:href="#C0_0_f6c53550f7" x="84.949533" y="280.897611" style="fill: #ff0059; stroke: #000000"/>
    </g>
    <g clip-path="url(#p1249659f67)">
     <use xlink:href="#C0_0_f6c53550f7" x="314.860102" y="59.697081" style="fill: #00fff0; stroke: #000000"/>
    </g>
    <g clip-path="url(#p1249659f67)">
     <use xlink:href="#C0_0_f6c53550f7" x="279.323074" y="364.670134" style="fill: #a7ff00; stroke: #000000"/>
    </g>
    <g clip-path="url(#p1249659f67)">
     <use xlink:href="#C0_0_f6c53550f7" x="128.383158" y="172.919827" style="fill: #ff0000; stroke: #000000"/>
    </g>
    <g clip-path="url(#p1249659f67)">
     <use xlink:href="#C0_0_f6c53550f7" x="361.265865" y="220.713487" style="fill: #00ff4b; stroke: #000000"/>
    </g>
    <g clip-path="url(#p1249659f67)">
     <use xlink:href="#C0_0_f6c53550f7" x="355.585788" y="363.306893" style="fill: #9500ff; stroke: #000000"/>
    </g>
    <g clip-path="url(#p1249659f67)">
     <use xlink:href="#C0_0_f6c53550f7" x="284.91878" y="261.877969" style="fill: #e800ff; stroke: #000000"/>
    </g>
    <g clip-path="url(#p1249659f67)">
     <use xlink:href="#C0_0_f6c53550f7" x="115.379311" y="272.135521" style="fill: #ff0024; stroke: #000000"/>
    </g>
    <g clip-path="url(#p1249659f67)">
     <use xlink:href="#C0_0_f6c53550f7" x="219.720932" y="80.196058" style="fill: #ff4100; stroke: #000000"/>
    </g>
    <g clip-path="url(#p1249659f67)">
     <use xlink:href="#C0_0_f6c53550f7" x="396.578053" y="414.509002" style="fill: #bf00ff; stroke: #000000"/>
    </g>
    <g clip-path="url(#p1249659f67)">
     <use xlink:href="#C0_0_f6c53550f7" x="217.212921" y="303.55101" style="fill: #009eff; stroke: #000000"/>
    </g>
    <g clip-path="url(#p1249659f67)">
     <use xlink:href="#C0_0_f6c53550f7" x="73.993864" y="167.537762" style="fill: #ff1800; stroke: #000000"/>
    </g>
    <g clip-path="url(#p1249659f67)">
     <use xlink:href="#C0_0_f6c53550f7" x="457.146229" y="255.724166" style="fill: #61ff00; stroke: #000000"/>
    </g>
    <g clip-path="url(#p1249659f67)">
     <use xlink:href="#C0_0_f6c53550f7" x="145.770876" y="280.938274" style="fill: #ff0018; stroke: #000000"/>
    </g>
    <g clip-path="url(#p1249659f67)">
     <use xlink:href="#C0_0_f6c53550f7" x="357.755013" y="510.84704" style="fill: #3100ff; stroke: #000000"/>
    </g>
    <g clip-path="url(#p1249659f67)">
     <use xlink:href="#C0_0_f6c53550f7" x="205.067857" y="440.499985" style="fill: #2500ff; stroke: #000000"/>
    </g>
    <g clip-path="url(#p1249659f67)">
     <use xlink:href="#C0_0_f6c53550f7" x="359.295871" y="292.675301" style="fill: #ff00db; stroke: #000000"/>
    </g>
    <g clip-path="url(#p1249659f67)">
     <use xlink:href="#C0_0_f6c53550f7" x="436.349281" y="180.092834" style="fill: #00ff8c; stroke: #000000"/>
    </g>
    <g clip-path="url(#p1249659f67)">
     <use xlink:href="#C0_0_f6c53550f7" x="225.658128" y="340.180578" style="fill: #d7ff00; stroke: #000000"/>
    </g>
    <g clip-path="url(#p1249659f67)">
     <use xlink:href="#C0_0_f6c53550f7" x="241.358046" y="147.423657" style="fill: #ff0c00; stroke: #000000"/>
    </g>
    <g clip-path="url(#p1249659f67)">
     <use xlink:href="#C0_0_f6c53550f7" x="111.219252" y="220.930613" style="fill: #003fff; stroke: #000000"/>
    </g>
    <g clip-path="url(#p1249659f67)">
     <use xlink:href="#C0_0_f6c53550f7" x="411.662684" y="246.840125" style="fill: #43ff00; stroke: #000000"/>
    </g>
    <g clip-path="url(#p1249659f67)">
     <use xlink:href="#C0_0_f6c53550f7" x="267.503245" y="434.204561" style="fill: #0800ff; stroke: #000000"/>
    </g>
   </g>
   <g id="matplotlib.axis_1">
    <g id="xtick_1">
     <g id="line2d_1">
      <path d="M 0 576 
L 0 0 
" clip-path="url(#p1249659f67)" style="fill: none; stroke-dasharray: 1.85,0.8; stroke-dashoffset: 0; stroke: #808080; stroke-width: 0.5"/>
     </g>
     <g id="line2d_2">
      <defs>
       <path id="mb70a948df5" d="M 0 0 
L 0 3.5 
" style="stroke: #000000; stroke-width: 0.8"/>
      </defs>
      <g>
       <use xlink:href="#mb70a948df5" x="0" y="576" style="stroke: #000000; stroke-width: 0.8"/>
      </g>
     </g>
     <g id="text_1">
      <!-- −1.0 -->
      <g transform="translate(-12.141406 590.598438) scale(0.1 -0.1)">
       <defs>
        <path id="DejaVuSans-2212" d="M 678 2272 
L 4684 2272 
L 4684 1741 
L 678 1741 
L 678 2272 
z
" transform="scale(0.015625)"/>
        <path id="DejaVuSans-31" d="M 794 531 
L 1825 531 
L 1825 4091 
L 703 3866 
L 703 4441 
L 1819 4666 
L 2450 4666 
L 2450 531 
L 3481 531 
L 3481 0 
L 794 0 
L 794 531 
z
" transform="scale(0.015625)"/>
        <path id="DejaVuSans-2e" d="M 684 794 
L 1344 794 
L 1344 0 
L 684 0 
L 684 794 
z
" transform="scale(0.015625)"/>
        <path id="DejaVuSans-30" d="M 2034 4250 
Q 1547 4250 1301 3770 
Q 1056 3291 1056 2328 
Q 1056 1369 1301 889 
Q 1547 409 2034 409 
Q 2525 409 2770 889 
Q 3016 1369 3016 2328 
Q 3016 3291 2770 3770 
Q 2525 4250 2034 4250 
z
M 2034 4750 
Q 2819 4750 3233 4129 
Q 3647 3509 3647 2328 
Q 3647 1150 3233 529 
Q 2819 -91 2034 -91 
Q 1250 -91 836 529 
Q 422 1150 422 2328 
Q 422 3509 836 4129 
Q 1250 4750 2034 4750 
z
" transform="scale(0.015625)"/>
       </defs>
       <use xlink:href="#DejaVuSans-2212"/>
       <use xlink:href="#DejaVuSans-31" transform="translate(83.789062 0)"/>
       <use xlink:href="#DejaVuSans-2e" transform="translate(147.412109 0)"/>
       <use xlink:href="#DejaVuSans-30" transform="translate(179.199219 0)"/>
      </g>
     </g>
    </g>
    <g id="xtick_2">
     <g id="line2d_3">
      <path d="M 57.6 576 
L 57.6 0 
" clip-path="url(#p1249659f67)" style="fill: none; stroke-dasharray: 1.85,0.8; stroke-dashoffset: 0; stroke: #808080; stroke-width: 0.5"/>
     </g>
     <g id="line2d_4">
      <g>
       <use xlink:href="#mb70a948df5" x="57.6" y="576" style="stroke: #000000; stroke-width: 0.8"/>
      </g>
     </g>
     <g id="text_2">
      <!-- −0.8 -->
      <g transform="translate(45.458594 590.598438) scale(0.1 -0.1)">
       <defs>
        <path id="DejaVuSans-38" d="M 2034 2216 
Q 1584 2216 1326 1975 
Q 1069 1734 1069 1313 
Q 1069 891 1326 650 
Q 1584 409 2034 409 
Q 2484 409 2743 651 
Q 3003 894 3003 1313 
Q 3003 1734 2745 1975 
Q 2488 2216 2034 2216 
z
M 1403 2484 
Q 997 2584 770 2862 
Q 544 3141 544 3541 
Q 544 4100 942 4425 
Q 1341 4750 2034 4750 
Q 2731 4750 3128 4425 
Q 3525 4100 3525 3541 
Q 3525 3141 3298 2862 
Q 3072 2584 2669 2484 
Q 3125 2378 3379 2068 
Q 3634 1759 3634 1313 
Q 3634 634 3220 271 
Q 2806 -91 2034 -91 
Q 1263 -91 848 271 
Q 434 634 434 1313 
Q 434 1759 690 2068 
Q 947 2378 1403 2484 
z
M 1172 3481 
Q 1172 3119 1398 2916 
Q 1625 2713 2034 2713 
Q 2441 2713 2670 2916 
Q 2900 3119 2900 3481 
Q 2900 3844 2670 4047 
Q 2441 4250 2034 4250 
Q 1625 4250 1398 4047 
Q 1172 3844 1172 3481 
z
" transform="scale(0.015625)"/>
       </defs>
       <use xlink:href="#DejaVuSans-2212"/>
       <use xlink:href="#DejaVuSans-30" transform="translate(83.789062 0)"/>
       <use xlink:href="#DejaVuSans-2e" transform="translate(147.412109 0)"/>
       <use xlink:href="#DejaVuSans-38" transform="translate(179.199219 0)"/>
      </g>
     </g>
    </g>
    <g id="xtick_3">
     <g id="line2d_5">
      <path d="M 115.2 576 
L 115.2 0 
" clip-path="url(#p1249659f67)" style="fill: none; stroke-dasharray: 1.85,0.8; stroke-dashoffset: 0; stroke: #808080; stroke-width: 0.5"/>
     </g>
     <g id="line2d_6">
      <g>
       <use xlink:href="#mb70a948df5" x="115.2" y="576" style="stroke: #000000; stroke-width: 0.8"/>
      </g>
     </g>
     <g id="text_3">
      <!-- −0.6 -->
      <g transform="translate(103.058594 590.598438) scale(0.1 -0.1)">
       <defs>
        <path id="DejaVuSans-36" d="M 2113 2584 
Q 1688 2584 1439 2293 
Q 1191 2003 1191 1497 
Q 1191 994 1439 701 
Q 1688 409 2113 409 
Q 2538 409 2786 701 
Q 3034 994 3034 1497 
Q 3034 2003 2786 2293 
Q 2538 2584 2113 2584 
z
M 3366 4563 
L 3366 3988 
Q 3128 4100 2886 4159 
Q 2644 4219 2406 4219 
Q 1781 4219 1451 3797 
Q 1122 3375 1075 2522 
Q 1259 2794 1537 2939 
Q 1816 3084 2150 3084 
Q 2853 3084 3261 2657 
Q 3669 2231 3669 1497 
Q 3669 778 3244 343 
Q 2819 -91 2113 -91 
Q 1303 -91 875 529 
Q 447 1150 447 2328 
Q 447 3434 972 4092 
Q 1497 4750 2381 4750 
Q 2619 4750 2861 4703 
Q 3103 4656 3366 4563 
z
" transform="scale(0.015625)"/>
       </defs>
       <use xlink:href="#DejaVuSans-2212"/>
       <use xlink:href="#DejaVuSans-30" transform="translate(83.789062 0)"/>
       <use xlink:href="#DejaVuSans-2e" transform="translate(147.412109 0)"/>
       <use xlink:href="#DejaVuSans-36" transform="translate(179.199219 0)"/>
      </g>
     </g>
    </g>
    <g id="xtick_4">
     <g id="line2d_7">
      <path d="M 172.8 576 
L 172.8 0 
" clip-path="url(#p1249659f67)" style="fill: none; stroke-dasharray: 1.85,0.8; stroke-dashoffset: 0; stroke: #808080; stroke-width: 0.5"/>
     </g>
     <g id="line2d_8">
      <g>
       <use xlink:href="#mb70a948df5" x="172.8" y="576" style="stroke: #000000; stroke-width: 0.8"/>
      </g>
     </g>
     <g id="text_4">
      <!-- −0.4 -->
      <g transform="translate(160.658594 590.598438) scale(0.1 -0.1)">
       <defs>
        <path id="DejaVuSans-34" d="M 2419 4116 
L 825 1625 
L 2419 1625 
L 2419 4116 
z
M 2253 4666 
L 3047 4666 
L 3047 1625 
L 3713 1625 
L 3713 1100 
L 3047 1100 
L 3047 0 
L 2419 0 
L 2419 1100 
L 313 1100 
L 313 1709 
L 2253 4666 
z
" transform="scale(0.015625)"/>
       </defs>
       <use xlink:href="#DejaVuSans-2212"/>
       <use xlink:href="#DejaVuSans-30" transform="translate(83.789062 0)"/>
       <use xlink:href="#DejaVuSans-2e" transform="translate(147.412109 0)"/>
       <use xlink:href="#DejaVuSans-34" transform="translate(179.199219 0)"/>
      </g>
     </g>
    </g>
    <g id="xtick_5">
     <g id="line2d_9">
      <path d="M 230.4 576 
L 230.4 0 
" clip-path="url(#p1249659f67)" style="fill: none; stroke-dasharray: 1.85,0.8; stroke-dashoffset: 0; stroke: #808080; stroke-width: 0.5"/>
     </g>
     <g id="line2d_10">
      <g>
       <use xlink:href="#mb70a948df5" x="230.4" y="576" style="stroke: #000000; stroke-width: 0.8"/>
      </g>
     </g>
     <g id="text_5">
      <!-- −0.2 -->
      <g transform="translate(218.258594 590.598438) scale(0.1 -0.1)">
       <defs>
        <path id="DejaVuSans-32" d="M 1228 531 
L 3431 531 
L 3431 0 
L 469 0 
L 469 531 
Q 828 903 1448 1529 
Q 2069 2156 2228 2338 
Q 2531 2678 2651 2914 
Q 2772 3150 2772 3378 
Q 2772 3750 2511 3984 
Q 2250 4219 1831 4219 
Q 1534 4219 1204 4116 
Q 875 4013 500 3803 
L 500 4441 
Q 881 4594 1212 4672 
Q 1544 4750 1819 4750 
Q 2544 4750 2975 4387 
Q 3406 4025 3406 3419 
Q 3406 3131 3298 2873 
Q 3191 2616 2906 2266 
Q 2828 2175 2409 1742 
Q 1991 1309 1228 531 
z
" transform="scale(0.015625)"/>
       </defs>
       <use xlink:href="#DejaVuSans-2212"/>
       <use xlink:href="#DejaVuSans-30" transform="translate(83.789062 0)"/>
       <use xlink:href="#DejaVuSans-2e" transform="translate(147.412109 0)"/>
       <use xlink:href="#DejaVuSans-32" transform="translate(179.199219 0)"/>
      </g>
     </g>
    </g>
    <g id="xtick_6">
     <g id="line2d_11">
      <path d="M 288 576 
L 288 0 
" clip-path="url(#p1249659f67)" style="fill: none; stroke-dasharray: 1.85,0.8; stroke-dashoffset: 0; stroke: #808080; stroke-width: 0.5"/>
     </g>
     <g id="line2d_12">
      <g>
       <use xlink:href="#mb70a948df5" x="288" y="576" style="stroke: #000000; stroke-width: 0.8"/>
      </g>
     </g>
     <g id="text_6">
      <!-- 0.0 -->
      <g transform="translate(280.048437 590.598438) scale(0.1 -0.1)">
       <use xlink:href="#DejaVuSans-30"/>
       <use xlink:href="#DejaVuSans-2e" transform="translate(63.623047 0)"/>
       <use xlink:href="#DejaVuSans-30" transform="translate(95.410156 0)"/>
      </g>
     </g>
    </g>
    <g id="xtick_7">
     <g id="line2d_13">
      <path d="M 345.6 576 
L 345.6 0 
" clip-path="url(#p1249659f67)" style="fill: none; stroke-dasharray: 1.85,0.8; stroke-dashoffset: 0; stroke: #808080; stroke-width: 0.5"/>
     </g>
     <g id="line2d_14">
      <g>
       <use xlink:href="#mb70a948df5" x="345.6" y="576" style="stroke: #000000; stroke-width: 0.8"/>
      </g>
     </g>
     <g id="text_7">
      <!-- 0.2 -->
      <g transform="translate(337.648437 590.598438) scale(0.1 -0.1)">
       <use xlink:href="#DejaVuSans-30"/>
       <use xlink:href="#DejaVuSans-2e" transform="translate(63.623047 0)"/>
       <use xlink:href="#DejaVuSans-32" transform="translate(95.410156 0)"/>
      </g>
     </g>
    </g>
    <g id="xtick_8">
     <g id="line2d_15">
      <path d="M 403.2 576 
L 403.2 0 
" clip-path="url(#p1249659f67)" style="fill: none; stroke-dasharray: 1.85,0.8; stroke-dashoffset: 0; stroke: #808080; stroke-width: 0.5"/>
     </g>
     <g id="line2d_16">
      <g>
       <use xlink:href="#mb70a948df5" x="403.2" y="576" style="stroke: #000000; stroke-width: 0.8"/>
      </g>
     </g>
     <g id="text_8">
      <!-- 0.4 -->
      <g transform="translate(395.248437 590.598438) scale(0.1 -0.1)">
       <use xlink:href="#DejaVuSans-30"/>
       <use xlink:href="#DejaVuSans-2e" transform="translate(63.623047 0)"/>
       <use xlink:href="#DejaVuSans-34" transform="translate(95.410156 0)"/>
      </g>
     </g>
    </g>
    <g id="xtick_9">
     <g id="line2d_17">
      <path d="M 460.8 576 
L 460.8 0 
" clip-path="url(#p1249659f67)" style="fill: none; stroke-dasharray: 1.85,0.8; stroke-dashoffset: 0; stroke: #808080; stroke-width: 0.5"/>
     </g>
     <g id="line2d_18">
      <g>
       <use xlink:href="#mb70a948df5" x="460.8" y="576" style="stroke: #000000; stroke-width: 0.8"/>
      </g>
     </g>
     <g id="text_9">
      <!-- 0.6 -->
      <g transform="translate(452.848437 590.598438) scale(0.1 -0.1)">
       <use xlink:href="#DejaVuSans-30"/>
       <use xlink:href="#DejaVuSans-2e" transform="translate(63.623047 0)"/>
       <use xlink:href="#DejaVuSans-36" transform="translate(95.410156 0)"/>
      </g>
     </g>
    </g>
    <g id="xtick_10">
     <g id="line2d_19">
      <path d="M 518.4 576 
L 518.4 0 
" clip-path="url(#p1249659f67)" style="fill: none; stroke-dasharray: 1.85,0.8; stroke-dashoffset: 0; stroke: #808080; stroke-width: 0.5"/>
     </g>
     <g id="line2d_20">
      <g>
       <use xlink:href="#mb70a948df5" x="518.4" y="576" style="stroke: #000000; stroke-width: 0.8"/>
      </g>
     </g>
     <g id="text_10">
      <!-- 0.8 -->
      <g transform="translate(510.448437 590.598438) scale(0.1 -0.1)">
       <use xlink:href="#DejaVuSans-30"/>
       <use xlink:href="#DejaVuSans-2e" transform="translate(63.623047 0)"/>
       <use xlink:href="#DejaVuSans-38" transform="translate(95.410156 0)"/>
      </g>
     </g>
    </g>
    <g id="xtick_11">
     <g id="line2d_21">
      <path d="M 576 576 
L 576 0 
" clip-path="url(#p1249659f67)" style="fill: none; stroke-dasharray: 1.85,0.8; stroke-dashoffset: 0; stroke: #808080; stroke-width: 0.5"/>
     </g>
     <g id="line2d_22">
      <g>
       <use xlink:href="#mb70a948df5" x="576" y="576" style="stroke: #000000; stroke-width: 0.8"/>
      </g>
     </g>
     <g id="text_11">
      <!-- 1.0 -->
      <g transform="translate(568.048437 590.598438) scale(0.1 -0.1)">
       <use xlink:href="#DejaVuSans-31"/>
       <use xlink:href="#DejaVuSans-2e" transform="translate(63.623047 0)"/>
       <use xlink:href="#DejaVuSans-30" transform="translate(95.410156 0)"/>
      </g>
     </g>
    </g>
   </g>
   <g id="matplotlib.axis_2">
    <g id="ytick_1">
     <g id="line2d_23">
      <path d="M 0 576 
L 576 576 
" clip-path="url(#p1249659f67)" style="fill: none; stroke-dasharray: 1.85,0.8; stroke-dashoffset: 0; stroke: #808080; stroke-width: 0.5"/>
     </g>
     <g id="line2d_24">
      <defs>
       <path id="mc7cc760caf" d="M 0 0 
L -3.5 0 
" style="stroke: #000000; stroke-width: 0.8"/>
      </defs>
      <g>
       <use xlink:href="#mc7cc760caf" x="0" y="576" style="stroke: #000000; stroke-width: 0.8"/>
      </g>
     </g>
     <g id="text_12">
      <!-- −1.0 -->
      <g transform="translate(-31.282813 579.799219) scale(0.1 -0.1)">
       <use xlink:href="#DejaVuSans-2212"/>
       <use xlink:href="#DejaVuSans-31" transform="translate(83.789062 0)"/>
       <use xlink:href="#DejaVuSans-2e" transform="translate(147.412109 0)"/>
       <use xlink:href="#DejaVuSans-30" transform="translate(179.199219 0)"/>
      </g>
     </g>
    </g>
    <g id="ytick_2">
     <g id="line2d_25">
      <path d="M 0 518.4 
L 576 518.4 
" clip-path="url(#p1249659f67)" style="fill: none; stroke-dasharray: 1.85,0.8; stroke-dashoffset: 0; stroke: #808080; stroke-width: 0.5"/>
     </g>
     <g id="line2d_26">
      <g>
       <use xlink:href="#mc7cc760caf" x="0" y="518.4" style="stroke: #000000; stroke-width: 0.8"/>
      </g>
     </g>
     <g id="text_13">
      <!-- −0.8 -->
      <g transform="translate(-31.282813 522.199219) scale(0.1 -0.1)">
       <use xlink:href="#DejaVuSans-2212"/>
       <use xlink:href="#DejaVuSans-30" transform="translate(83.789062 0)"/>
       <use xlink:href="#DejaVuSans-2e" transform="translate(147.412109 0)"/>
       <use xlink:href="#DejaVuSans-38" transform="translate(179.199219 0)"/>
      </g>
     </g>
    </g>
    <g id="ytick_3">
     <g id="line2d_27">
      <path d="M 0 460.8 
L 576 460.8 
" clip-path="url(#p1249659f67)" style="fill: none; stroke-dasharray: 1.85,0.8; stroke-dashoffset: 0; stroke: #808080; stroke-width: 0.5"/>
     </g>
     <g id="line2d_28">
      <g>
       <use xlink:href="#mc7cc760caf" x="0" y="460.8" style="stroke: #000000; stroke-width: 0.8"/>
      </g>
     </g>
     <g id="text_14">
      <!-- −0.6 -->
      <g transform="translate(-31.282813 464.599219) scale(0.1 -0.1)">
       <use xlink:href="#DejaVuSans-2212"/>
       <use xlink:href="#DejaVuSans-30" transform="translate(83.789062 0)"/>
       <use xlink:href="#DejaVuSans-2e" transform="translate(147.412109 0)"/>
       <use xlink:href="#DejaVuSans-36" transform="translate(179.199219 0)"/>
      </g>
     </g>
    </g>
    <g id="ytick_4">
     <g id="line2d_29">
      <path d="M 0 403.2 
L 576 403.2 
" clip-path="url(#p1249659f67)" style="fill: none; stroke-dasharray: 1.85,0.8; stroke-dashoffset: 0; stroke: #808080; stroke-width: 0.5"/>
     </g>
     <g id="line2d_30">
      <g>
       <use xlink:href="#mc7cc760caf" x="0" y="403.2" style="stroke: #000000; stroke-width: 0.8"/>
      </g>
     </g>
     <g id="text_15">
      <!-- −0.4 -->
      <g transform="translate(-31.282813 406.999219) scale(0.1 -0.1)">
       <use xlink:href="#DejaVuSans-2212"/>
       <use xlink:href="#DejaVuSans-30" transform="translate(83.789062 0)"/>
       <use xlink:href="#DejaVuSans-2e" transform="translate(147.412109 0)"/>
       <use xlink:href="#DejaVuSans-34" transform="translate(179.199219 0)"/>
      </g>
     </g>
    </g>
    <g id="ytick_5">
     <g id="line2d_31">
      <path d="M 0 345.6 
L 576 345.6 
" clip-path="url(#p1249659f67)" style="fill: none; stroke-dasharray: 1.85,0.8; stroke-dashoffset: 0; stroke: #808080; stroke-width: 0.5"/>
     </g>
     <g id="line2d_32">
      <g>
       <use xlink:href="#mc7cc760caf" x="0" y="345.6" style="stroke: #000000; stroke-width: 0.8"/>
      </g>
     </g>
     <g id="text_16">
      <!-- −0.2 -->
      <g transform="translate(-31.282813 349.399219) scale(0.1 -0.1)">
       <use xlink:href="#DejaVuSans-2212"/>
       <use xlink:href="#DejaVuSans-30" transform="translate(83.789062 0)"/>
       <use xlink:href="#DejaVuSans-2e" transform="translate(147.412109 0)"/>
       <use xlink:href="#DejaVuSans-32" transform="translate(179.199219 0)"/>
      </g>
     </g>
    </g>
    <g id="ytick_6">
     <g id="line2d_33">
      <path d="M 0 288 
L 576 288 
" clip-path="url(#p1249659f67)" style="fill: none; stroke-dasharray: 1.85,0.8; stroke-dashoffset: 0; stroke: #808080; stroke-width: 0.5"/>
     </g>
     <g id="line2d_34">
      <g>
       <use xlink:href="#mc7cc760caf" x="0" y="288" style="stroke: #000000; stroke-width: 0.8"/>
      </g>
     </g>
     <g id="text_17">
      <!-- 0.0 -->
      <g transform="translate(-22.903125 291.799219) scale(0.1 -0.1)">
       <use xlink:href="#DejaVuSans-30"/>
       <use xlink:href="#DejaVuSans-2e" transform="translate(63.623047 0)"/>
       <use xlink:href="#DejaVuSans-30" transform="translate(95.410156 0)"/>
      </g>
     </g>
    </g>
    <g id="ytick_7">
     <g id="line2d_35">
      <path d="M 0 230.4 
L 576 230.4 
" clip-path="url(#p1249659f67)" style="fill: none; stroke-dasharray: 1.85,0.8; stroke-dashoffset: 0; stroke: #808080; stroke-width: 0.5"/>
     </g>
     <g id="line2d_36">
      <g>
       <use xlink:href="#mc7cc760caf" x="0" y="230.4" style="stroke: #000000; stroke-width: 0.8"/>
      </g>
     </g>
     <g id="text_18">
      <!-- 0.2 -->
      <g transform="translate(-22.903125 234.199219) scale(0.1 -0.1)">
       <use xlink:href="#DejaVuSans-30"/>
       <use xlink:href="#DejaVuSans-2e" transform="translate(63.623047 0)"/>
       <use xlink:href="#DejaVuSans-32" transform="translate(95.410156 0)"/>
      </g>
     </g>
    </g>
    <g id="ytick_8">
     <g id="line2d_37">
      <path d="M 0 172.8 
L 576 172.8 
" clip-path="url(#p1249659f67)" style="fill: none; stroke-dasharray: 1.85,0.8; stroke-dashoffset: 0; stroke: #808080; stroke-width: 0.5"/>
     </g>
     <g id="line2d_38">
      <g>
       <use xlink:href="#mc7cc760caf" x="0" y="172.8" style="stroke: #000000; stroke-width: 0.8"/>
      </g>
     </g>
     <g id="text_19">
      <!-- 0.4 -->
      <g transform="translate(-22.903125 176.599219) scale(0.1 -0.1)">
       <use xlink:href="#DejaVuSans-30"/>
       <use xlink:href="#DejaVuSans-2e" transform="translate(63.623047 0)"/>
       <use xlink:href="#DejaVuSans-34" transform="translate(95.410156 0)"/>
      </g>
     </g>
    </g>
    <g id="ytick_9">
     <g id="line2d_39">
      <path d="M 0 115.2 
L 576 115.2 
" clip-path="url(#p1249659f67)" style="fill: none; stroke-dasharray: 1.85,0.8; stroke-dashoffset: 0; stroke: #808080; stroke-width: 0.5"/>
     </g>
     <g id="line2d_40">
      <g>
       <use xlink:href="#mc7cc760caf" x="0" y="115.2" style="stroke: #000000; stroke-width: 0.8"/>
      </g>
     </g>
     <g id="text_20">
      <!-- 0.6 -->
      <g transform="translate(-22.903125 118.999219) scale(0.1 -0.1)">
       <use xlink:href="#DejaVuSans-30"/>
       <use xlink:href="#DejaVuSans-2e" transform="translate(63.623047 0)"/>
       <use xlink:href="#DejaVuSans-36" transform="translate(95.410156 0)"/>
      </g>
     </g>
    </g>
    <g id="ytick_10">
     <g id="line2d_41">
      <path d="M 0 57.6 
L 576 57.6 
" clip-path="url(#p1249659f67)" style="fill: none; stroke-dasharray: 1.85,0.8; stroke-dashoffset: 0; stroke: #808080; stroke-width: 0.5"/>
     </g>
     <g id="line2d_42">
      <g>
       <use xlink:href="#mc7cc760caf" x="0" y="57.6" style="stroke: #000000; stroke-width: 0.8"/>
      </g>
     </g>
     <g id="text_21">
      <!-- 0.8 -->
      <g transform="translate(-22.903125 61.399219) scale(0.1 -0.1)">
       <use xlink:href="#DejaVuSans-30"/>
       <use xlink:href="#DejaVuSans-2e" transform="translate(63.623047 0)"/>
       <use xlink:href="#DejaVuSans-38" transform="translate(95.410156 0)"/>
      </g>
     </g>
    </g>
    <g id="ytick_11">
     <g id="line2d_43">
      <path d="M 0 0 
L 576 0 
" clip-path="url(#p1249659f67)" style="fill: none; stroke-dasharray: 1.85,0.8; stroke-dashoffset: 0; stroke: #808080; stroke-width: 0.5"/>
     </g>
     <g id="line2d_44">
      <g>
       <use xlink:href="#mc7cc760caf" x="0" y="0" style="stroke: #000000; stroke-width: 0.8"/>
      </g>
     </g>
     <g id="text_22">
      <!-- 1.0 -->
      <g transform="translate(-22.903125 3.799219) scale(0.1 -0.1)">
       <use xlink:href="#DejaVuSans-31"/>
       <use xlink:href="#DejaVuSans-2e" transform="translate(63.623047 0)"/>
       <use xlink:href="#DejaVuSans-30" transform="translate(95.410156 0)"/>
      </g>
     </g>
    </g>
   </g>
   <g id="patch_3">
    <path d="M 0 576 
L 0 0 
" style="fill: none; stroke: #000000; stroke-width: 0.8; stroke-linejoin: miter; stroke-linecap: square"/>
   </g>
   <g id="patch_4">
    <path d="M 576 576 
L 576 0 
" style="fill: none; stroke: #000000; stroke-width: 0.8; stroke-linejoin: miter; stroke-linecap: square"/>
   </g>
   <g id="patch_5">
    <path d="M 0 576 
L 576 576 
" style="fill: none; stroke: #000000; stroke-width: 0.8; stroke-linejoin: miter; stroke-linecap: square"/>
   </g>
   <g id="patch_6">
    <path d="M 0 0 
L 576 0 
" style="fill: none; stroke: #000000; stroke-width: 0.8; stroke-linejoin: miter; stroke-linecap: square"/>
   </g>
  </g>
 </g>
 <defs>
  <clipPath id="p1249659f67">
   <rect x="0" y="0" width="576" height="576"/>
  </clipPath>
 </defs>
</svg>
