<?xml version="1.0" encoding="utf-8" standalone="no"?>
<!DOCTYPE svg PUBLIC "-//W3C//DTD SVG 1.1//EN"
  "http://www.w3.org/Graphics/SVG/1.1/DTD/svg11.dtd">
<svg xmlns:xlink="http://www.w3.org/1999/xlink" width="576pt" height="576pt" viewBox="0 0 576 576" xmlns="http://www.w3.org/2000/svg" version="1.1">
 <metadata>
  <rdf:RDF xmlns:dc="http://purl.org/dc/elements/1.1/" xmlns:cc="http://creativecommons.org/ns#" xmlns:rdf="http://www.w3.org/1999/02/22-rdf-syntax-ns#">
   <cc:Work>
    <dc:type rdf:resource="http://purl.org/dc/dcmitype/StillImage"/>
    <dc:date>2025-06-18T12:22:39.749041</dc:date>
    <dc:format>image/svg+xml</dc:format>
    <dc:creator>
     <cc:Agent>
      <dc:title>Matplotlib v3.10.1, https://matplotlib.org/</dc:title>
     </cc:Agent>
    </dc:creator>
   </cc:Work>
  </rdf:RDF>
 </metadata>
 <defs>
  <style type="text/css">*{stroke-linejoin: round; stroke-linecap: butt}</style>
 </defs>
 <g id="figure_1">
  <g id="patch_1">
   <path d="M 0 576 
L 576 576 
L 576 0 
L 0 0 
z
" style="fill: #ffffff"/>
  </g>
  <g id="axes_1">
   <g id="patch_2">
    <path d="M 0 576 
L 576 576 
L 576 0 
L 0 0 
z
" style="fill: #ffffff"/>
   </g>
   <g id="PathCollection_1">
    <defs>
     <path id="C0_0_d897ba43d4" d="M 0 4.330127 
C 1.148363 4.330127 2.249847 3.873878 3.061862 3.061862 
C 3.873878 2.249847 4.330127 1.148363 4.330127 -0 
C 4.330127 -1.148363 3.873878 -2.249847 3.061862 -3.061862 
C 2.249847 -3.873878 1.148363 -4.330127 0 -4.330127 
C -1.148363 -4.330127 -2.249847 -3.873878 -3.061862 -3.061862 
C -3.873878 -2.249847 -4.330127 -1.148363 -4.330127 0 
C -4.330127 1.148363 -3.873878 2.249847 -3.061862 3.061862 
C -2.249847 3.873878 -1.148363 4.330127 0 4.330127 
z
"/>
    </defs>
    <g clip-path="url(#p02bbcb8f32)">
     <use xlink:href="#C0_0_d897ba43d4" x="398.836172" y="169.622761" style="fill: #00ffaf; stroke: #000000"/>
    </g>
    <g clip-path="url(#p02bbcb8f32)">
     <use xlink:href="#C0_0_d897ba43d4" x="199.43048" y="277.950436" style="fill: #0069ff; stroke: #000000"/>
    </g>
    <g clip-path="url(#p02bbcb8f32)">
     <use xlink:href="#C0_0_d897ba43d4" x="302.443067" y="167.851533" style="fill: #00ffde; stroke: #000000"/>
    </g>
    <g clip-path="url(#p02bbcb8f32)">
     <use xlink:href="#C0_0_d897ba43d4" x="52.989601" y="228.760041" style="fill: #00ff7a; stroke: #000000"/>
    </g>
    <g clip-path="url(#p02bbcb8f32)">
     <use xlink:href="#C0_0_d897ba43d4" x="216.506169" y="192.134356" style="fill: #00afff; stroke: #000000"/>
    </g>
    <g clip-path="url(#p02bbcb8f32)">
     <use xlink:href="#C0_0_d897ba43d4" x="147.500759" y="235.516959" style="fill: #00a4ff; stroke: #000000"/>
    </g>
    <g clip-path="url(#p02bbcb8f32)">
     <use xlink:href="#C0_0_d897ba43d4" x="177.905937" y="151.775333" style="fill: #ff7000; stroke: #000000"/>
    </g>
    <g clip-path="url(#p02bbcb8f32)">
     <use xlink:href="#C0_0_d897ba43d4" x="211.487718" y="125.678564" style="fill: #ff5300; stroke: #000000"/>
    </g>
    <g clip-path="url(#p02bbcb8f32)">
     <use xlink:href="#C0_0_d897ba43d4" x="412.510391" y="439.878571" style="fill: #d600ff; stroke: #000000"/>
    </g>
    <g clip-path="url(#p02bbcb8f32)">
     <use xlink:href="#C0_0_d897ba43d4" x="247.413242" y="270.62297" style="fill: #005dff; stroke: #000000"/>
    </g>
    <g clip-path="url(#p02bbcb8f32)">
     <use xlink:href="#C0_0_d897ba43d4" x="259.618184" y="40.562588" style="fill: #ff5f00; stroke: #000000"/>
    </g>
    <g clip-path="url(#p02bbcb8f32)">
     <use xlink:href="#C0_0_d897ba43d4" x="518.905443" y="415.958536" style="fill: #31ff00; stroke: #000000"/>
    </g>
    <g clip-path="url(#p02bbcb8f32)">
     <use xlink:href="#C0_0_d897ba43d4" x="177.721118" y="194.979549" style="fill: #007aff; stroke: #000000"/>
    </g>
    <g clip-path="url(#p02bbcb8f32)">
     <use xlink:href="#C0_0_d897ba43d4" x="446.242435" y="446.70841" style="fill: #e800ff; stroke: #000000"/>
    </g>
    <g clip-path="url(#p02bbcb8f32)">
     <use xlink:href="#C0_0_d897ba43d4" x="457.397524" y="255.544095" style="fill: #5bff00; stroke: #000000"/>
    </g>
    <g clip-path="url(#p02bbcb8f32)">
     <use xlink:href="#C0_0_d897ba43d4" x="463.461445" y="209.442595" style="fill: #00ffa3; stroke: #000000"/>
    </g>
    <g clip-path="url(#p02bbcb8f32)">
     <use xlink:href="#C0_0_d897ba43d4" x="186.01123" y="241.136564" style="fill: #003fff; stroke: #000000"/>
    </g>
    <g clip-path="url(#p02bbcb8f32)">
     <use xlink:href="#C0_0_d897ba43d4" x="275.885877" y="300.866975" style="fill: #ff00ed; stroke: #000000"/>
    </g>
    <g clip-path="url(#p02bbcb8f32)">
     <use xlink:href="#C0_0_d897ba43d4" x="424.901433" y="497.574612" style="fill: #7800ff; stroke: #000000"/>
    </g>
    <g clip-path="url(#p02bbcb8f32)">
     <use xlink:href="#C0_0_d897ba43d4" x="111.136253" y="220.89846" style="fill: #0033ff; stroke: #000000"/>
    </g>
    <g clip-path="url(#p02bbcb8f32)">
     <use xlink:href="#C0_0_d897ba43d4" x="292.813599" y="489.965137" style="fill: #0016ff; stroke: #000000"/>
    </g>
    <g clip-path="url(#p02bbcb8f32)">
     <use xlink:href="#C0_0_d897ba43d4" x="128.385733" y="172.957051" style="fill: #ff0000; stroke: #000000"/>
    </g>
    <g clip-path="url(#p02bbcb8f32)">
     <use xlink:href="#C0_0_d897ba43d4" x="355.920785" y="142.238789" style="fill: #00f6ff; stroke: #000000"/>
    </g>
    <g clip-path="url(#p02bbcb8f32)">
     <use xlink:href="#C0_0_d897ba43d4" x="411.70257" y="246.875247" style="fill: #3dff00; stroke: #000000"/>
    </g>
    <g clip-path="url(#p02bbcb8f32)">
     <use xlink:href="#C0_0_d897ba43d4" x="250.996729" y="399.452239" style="fill: #6cff00; stroke: #000000"/>
    </g>
    <g clip-path="url(#p02bbcb8f32)">
     <use xlink:href="#C0_0_d897ba43d4" x="225.902226" y="236.947027" style="fill: #0051ff; stroke: #000000"/>
    </g>
    <g clip-path="url(#p02bbcb8f32)">
     <use xlink:href="#C0_0_d897ba43d4" x="71.790642" y="408.399839" style="fill: #fcf500; stroke: #000000"/>
    </g>
    <g clip-path="url(#p02bbcb8f32)">
     <use xlink:href="#C0_0_d897ba43d4" x="285.178822" y="261.715721" style="fill: #f400ff; stroke: #000000"/>
    </g>
    <g clip-path="url(#p02bbcb8f32)">
     <use xlink:href="#C0_0_d897ba43d4" x="169.084096" y="304.162601" style="fill: #ff0035; stroke: #000000"/>
    </g>
    <g clip-path="url(#p02bbcb8f32)">
     <use xlink:href="#C0_0_d897ba43d4" x="195.194392" y="370.04801" style="fill: #ff007c; stroke: #000000"/>
    </g>
    <g clip-path="url(#p02bbcb8f32)">
     <use xlink:href="#C0_0_d897ba43d4" x="313.576378" y="335.131991" style="fill: #ff00db; stroke: #000000"/>
    </g>
    <g clip-path="url(#p02bbcb8f32)">
     <use xlink:href="#C0_0_d897ba43d4" x="523.491291" y="298.511077" style="fill: #4fff00; stroke: #000000"/>
    </g>
    <g clip-path="url(#p02bbcb8f32)">
     <use xlink:href="#C0_0_d897ba43d4" x="304.208456" y="127.270346" style="fill: #00eaff; stroke: #000000"/>
    </g>
    <g clip-path="url(#p02bbcb8f32)">
     <use xlink:href="#C0_0_d897ba43d4" x="241.560096" y="147.341964" style="fill: #ff0c00; stroke: #000000"/>
    </g>
    <g clip-path="url(#p02bbcb8f32)">
     <use xlink:href="#C0_0_d897ba43d4" x="512.610826" y="182.143046" style="fill: #00ff86; stroke: #000000"/>
    </g>
    <g clip-path="url(#p02bbcb8f32)">
     <use xlink:href="#C0_0_d897ba43d4" x="73.942211" y="167.35108" style="fill: #ff1800; stroke: #000000"/>
    </g>
    <g clip-path="url(#p02bbcb8f32)">
     <use xlink:href="#C0_0_d897ba43d4" x="290.673812" y="224.524073" style="fill: #ff009a; stroke: #000000"/>
    </g>
    <g clip-path="url(#p02bbcb8f32)">
     <use xlink:href="#C0_0_d897ba43d4" x="448.503336" y="381.053693" style="fill: #8400ff; stroke: #000000"/>
    </g>
    <g clip-path="url(#p02bbcb8f32)">
     <use xlink:href="#C0_0_d897ba43d4" x="400.385373" y="120.783039" style="fill: #00c1ff; stroke: #000000"/>
    </g>
    <g clip-path="url(#p02bbcb8f32)">
     <use xlink:href="#C0_0_d897ba43d4" x="161.501186" y="81.850599" style="fill: #ff7c00; stroke: #000000"/>
    </g>
    <g clip-path="url(#p02bbcb8f32)">
     <use xlink:href="#C0_0_d897ba43d4" x="254.743044" y="213.278584" style="fill: #0086ff; stroke: #000000"/>
    </g>
    <g clip-path="url(#p02bbcb8f32)">
     <use xlink:href="#C0_0_d897ba43d4" x="396.543531" y="414.450869" style="fill: #cb00ff; stroke: #000000"/>
    </g>
    <g clip-path="url(#p02bbcb8f32)">
     <use xlink:href="#C0_0_d897ba43d4" x="468.110945" y="328.716542" style="fill: #02ff0c; stroke: #000000"/>
    </g>
    <g clip-path="url(#p02bbcb8f32)">
     <use xlink:href="#C0_0_d897ba43d4" x="315.035811" y="59.668413" style="fill: #00fff6; stroke: #000000"/>
    </g>
    <g clip-path="url(#p02bbcb8f32)">
     <use xlink:href="#C0_0_d897ba43d4" x="142.748108" y="389.514195" style="fill: #ff8800; stroke: #000000"/>
    </g>
    <g clip-path="url(#p02bbcb8f32)">
     <use xlink:href="#C0_0_d897ba43d4" x="350.823" y="325.936701" style="fill: #ff00ac; stroke: #000000"/>
    </g>
    <g clip-path="url(#p02bbcb8f32)">
     <use xlink:href="#C0_0_d897ba43d4" x="153.199162" y="468.56214" style="fill: #f8fd00; stroke: #000000"/>
    </g>
    <g clip-path="url(#p02bbcb8f32)">
     <use xlink:href="#C0_0_d897ba43d4" x="324.123347" y="403.382469" style="fill: #e8ff00; stroke: #000000"/>
    </g>
    <g clip-path="url(#p02bbcb8f32)">
     <use xlink:href="#C0_0_d897ba43d4" x="217.315115" y="303.314014" style="fill: #0098ff; stroke: #000000"/>
    </g>
    <g clip-path="url(#p02bbcb8f32)">
     <use xlink:href="#C0_0_d897ba43d4" x="113.823578" y="325.29334" style="fill: #ff0024; stroke: #000000"/>
    </g>
    <g clip-path="url(#p02bbcb8f32)">
     <use xlink:href="#C0_0_d897ba43d4" x="309.08871" y="375.954483" style="fill: #7eff00; stroke: #000000"/>
    </g>
    <g clip-path="url(#p02bbcb8f32)">
     <use xlink:href="#C0_0_d897ba43d4" x="354.252678" y="259.333833" style="fill: #fc00f5; stroke: #000000"/>
    </g>
    <g clip-path="url(#p02bbcb8f32)">
     <use xlink:href="#C0_0_d897ba43d4" x="324.412515" y="209.93147" style="fill: #00ff3f; stroke: #000000"/>
    </g>
    <g clip-path="url(#p02bbcb8f32)">
     <use xlink:href="#C0_0_d897ba43d4" x="320.155041" y="260.821004" style="fill: #ff008e; stroke: #000000"/>
    </g>
    <g clip-path="url(#p02bbcb8f32)">
     <use xlink:href="#C0_0_d897ba43d4" x="436.275999" y="180.05125" style="fill: #00ff97; stroke: #000000"/>
    </g>
    <g clip-path="url(#p02bbcb8f32)">
     <use xlink:href="#C0_0_d897ba43d4" x="367.217271" y="468.216516" style="fill: #0800ff; stroke: #000000"/>
    </g>
    <g clip-path="url(#p02bbcb8f32)">
     <use xlink:href="#C0_0_d897ba43d4" x="187.53154" y="411.747974" style="fill: #0028ff; stroke: #000000"/>
    </g>
    <g clip-path="url(#p02bbcb8f32)">
     <use xlink:href="#C0_0_d897ba43d4" x="233.898368" y="379.294687" style="fill: #c5ff00; stroke: #000000"/>
    </g>
    <g clip-path="url(#p02bbcb8f32)">
     <use xlink:href="#C0_0_d897ba43d4" x="186.28006" y="503.296566" style="fill: #ffb700; stroke: #000000"/>
    </g>
    <g clip-path="url(#p02bbcb8f32)">
     <use xlink:href="#C0_0_d897ba43d4" x="438.096949" y="85.045389" style="fill: #00ffea; stroke: #000000"/>
    </g>
    <g clip-path="url(#p02bbcb8f32)">
     <use xlink:href="#C0_0_d897ba43d4" x="272.8765" y="104.828144" style="fill: #00ffcd; stroke: #000000"/>
    </g>
    <g clip-path="url(#p02bbcb8f32)">
     <use xlink:href="#C0_0_d897ba43d4" x="267.282437" y="175.515415" style="fill: #00cdff; stroke: #000000"/>
    </g>
    <g clip-path="url(#p02bbcb8f32)">
     <use xlink:href="#C0_0_d897ba43d4" x="32.292732" y="290.053712" style="fill: #ffe600; stroke: #000000"/>
    </g>
    <g clip-path="url(#p02bbcb8f32)">
     <use xlink:href="#C0_0_d897ba43d4" x="421.705639" y="359.366149" style="fill: #6600ff; stroke: #000000"/>
    </g>
    <g clip-path="url(#p02bbcb8f32)">
     <use xlink:href="#C0_0_d897ba43d4" x="401.674602" y="282.246382" style="fill: #00ff27; stroke: #000000"/>
    </g>
    <g clip-path="url(#p02bbcb8f32)">
     <use xlink:href="#C0_0_d897ba43d4" x="301.582837" y="444.767693" style="fill: #5a00ff; stroke: #000000"/>
    </g>
    <g clip-path="url(#p02bbcb8f32)">
     <use xlink:href="#C0_0_d897ba43d4" x="359.402438" y="292.535452" style="fill: #ff00c9; stroke: #000000"/>
    </g>
    <g clip-path="url(#p02bbcb8f32)">
     <use xlink:href="#C0_0_d897ba43d4" x="309.980036" y="303.914722" style="fill: #ff00bd; stroke: #000000"/>
    </g>
    <g clip-path="url(#p02bbcb8f32)">
     <use xlink:href="#C0_0_d897ba43d4" x="304.151628" y="538.553375" style="fill: #1f00ff; stroke: #000000"/>
    </g>
    <g clip-path="url(#p02bbcb8f32)">
     <use xlink:href="#C0_0_d897ba43d4" x="241.211821" y="523.970776" style="fill: #ffd500; stroke: #000000"/>
    </g>
    <g clip-path="url(#p02bbcb8f32)">
     <use xlink:href="#C0_0_d897ba43d4" x="219.688703" y="80.123995" style="fill: #ff4100; stroke: #000000"/>
    </g>
    <g clip-path="url(#p02bbcb8f32)">
     <use xlink:href="#C0_0_d897ba43d4" x="115.020864" y="271.903049" style="fill: #ff0018; stroke: #000000"/>
    </g>
    <g clip-path="url(#p02bbcb8f32)">
     <use xlink:href="#C0_0_d897ba43d4" x="225.710545" y="340.119995" style="fill: #d7ff00; stroke: #000000"/>
    </g>
    <g clip-path="url(#p02bbcb8f32)">
     <use xlink:href="#C0_0_d897ba43d4" x="512.271383" y="247.002354" style="fill: #14ff00; stroke: #000000"/>
    </g>
    <g clip-path="url(#p02bbcb8f32)">
     <use xlink:href="#C0_0_d897ba43d4" x="290.201418" y="403.135972" style="fill: #b3ff00; stroke: #000000"/>
    </g>
    <g clip-path="url(#p02bbcb8f32)">
     <use xlink:href="#C0_0_d897ba43d4" x="361.211414" y="220.685437" style="fill: #00ff51; stroke: #000000"/>
    </g>
    <g clip-path="url(#p02bbcb8f32)">
     <use xlink:href="#C0_0_d897ba43d4" x="398.457307" y="215.115927" style="fill: #00ff33; stroke: #000000"/>
    </g>
    <g clip-path="url(#p02bbcb8f32)">
     <use xlink:href="#C0_0_d897ba43d4" x="389.781592" y="351.134964" style="fill: #bf00ff; stroke: #000000"/>
    </g>
    <g clip-path="url(#p02bbcb8f32)">
     <use xlink:href="#C0_0_d897ba43d4" x="407.156522" y="312.334438" style="fill: #08ff00; stroke: #000000"/>
    </g>
    <g clip-path="url(#p02bbcb8f32)">
     <use xlink:href="#C0_0_d897ba43d4" x="235.995293" y="465.009333" style="fill: #4f00ff; stroke: #000000"/>
    </g>
    <g clip-path="url(#p02bbcb8f32)">
     <use xlink:href="#C0_0_d897ba43d4" x="204.988755" y="440.264791" style="fill: #3100ff; stroke: #000000"/>
    </g>
    <g clip-path="url(#p02bbcb8f32)">
     <use xlink:href="#C0_0_d897ba43d4" x="255.310073" y="329.908718" style="fill: #90ff00; stroke: #000000"/>
    </g>
    <g clip-path="url(#p02bbcb8f32)">
     <use xlink:href="#C0_0_d897ba43d4" x="173.55778" y="344.090604" style="fill: #ff006b; stroke: #000000"/>
    </g>
    <g clip-path="url(#p02bbcb8f32)">
     <use xlink:href="#C0_0_d897ba43d4" x="344.729274" y="100.693268" style="fill: #00dfff; stroke: #000000"/>
    </g>
    <g clip-path="url(#p02bbcb8f32)">
     <use xlink:href="#C0_0_d897ba43d4" x="106.637575" y="368.05939" style="fill: #ffc900; stroke: #000000"/>
    </g>
    <g clip-path="url(#p02bbcb8f32)">
     <use xlink:href="#C0_0_d897ba43d4" x="456.538771" y="295.258219" style="fill: #00ff16; stroke: #000000"/>
    </g>
    <g clip-path="url(#p02bbcb8f32)">
     <use xlink:href="#C0_0_d897ba43d4" x="126.252754" y="433.629358" style="fill: #ff9a00; stroke: #000000"/>
    </g>
    <g clip-path="url(#p02bbcb8f32)">
     <use xlink:href="#C0_0_d897ba43d4" x="509.841516" y="356.81336" style="fill: #20ff00; stroke: #000000"/>
    </g>
    <g clip-path="url(#p02bbcb8f32)">
     <use xlink:href="#C0_0_d897ba43d4" x="54.229391" y="344.601734" style="fill: #ffab00; stroke: #000000"/>
    </g>
    <g clip-path="url(#p02bbcb8f32)">
     <use xlink:href="#C0_0_d897ba43d4" x="380.796141" y="54.793436" style="fill: #00ffc1; stroke: #000000"/>
    </g>
    <g clip-path="url(#p02bbcb8f32)">
     <use xlink:href="#C0_0_d897ba43d4" x="355.449888" y="363.278844" style="fill: #a100ff; stroke: #000000"/>
    </g>
    <g clip-path="url(#p02bbcb8f32)">
     <use xlink:href="#C0_0_d897ba43d4" x="279.428647" y="364.752377" style="fill: #a2ff00; stroke: #000000"/>
    </g>
    <g clip-path="url(#p02bbcb8f32)">
     <use xlink:href="#C0_0_d897ba43d4" x="84.960056" y="280.954924" style="fill: #ff0047; stroke: #000000"/>
    </g>
    <g clip-path="url(#p02bbcb8f32)">
     <use xlink:href="#C0_0_d897ba43d4" x="465.254499" y="138.618862" style="fill: #00ff68; stroke: #000000"/>
    </g>
    <g clip-path="url(#p02bbcb8f32)">
     <use xlink:href="#C0_0_d897ba43d4" x="346.699376" y="177.97564" style="fill: #00ff5c; stroke: #000000"/>
    </g>
    <g clip-path="url(#p02bbcb8f32)">
     <use xlink:href="#C0_0_d897ba43d4" x="267.514169" y="434.166229" style="fill: #1300ff; stroke: #000000"/>
    </g>
    <g clip-path="url(#p02bbcb8f32)">
     <use xlink:href="#C0_0_d897ba43d4" x="357.897002" y="510.682022" style="fill: #3d00ff; stroke: #000000"/>
    </g>
    <g clip-path="url(#p02bbcb8f32)">
     <use xlink:href="#C0_0_d897ba43d4" x="341.487063" y="445.700552" style="fill: #020cff; stroke: #000000"/>
    </g>
    <g clip-path="url(#p02bbcb8f32)">
     <use xlink:href="#C0_0_d897ba43d4" x="363.044732" y="395.912727" style="fill: #ad00ff; stroke: #000000"/>
    </g>
   </g>
   <g id="matplotlib.axis_1">
    <g id="xtick_1">
     <g id="line2d_1">
      <path d="M 0 576 
L 0 0 
" clip-path="url(#p02bbcb8f32)" style="fill: none; stroke-dasharray: 1.85,0.8; stroke-dashoffset: 0; stroke: #808080; stroke-width: 0.5"/>
     </g>
     <g id="line2d_2">
      <defs>
       <path id="m15f6457e5a" d="M 0 0 
L 0 3.5 
" style="stroke: #000000; stroke-width: 0.8"/>
      </defs>
      <g>
       <use xlink:href="#m15f6457e5a" x="0" y="576" style="stroke: #000000; stroke-width: 0.8"/>
      </g>
     </g>
     <g id="text_1">
      <!-- −1.0 -->
      <g transform="translate(-12.141406 590.598438) scale(0.1 -0.1)">
       <defs>
        <path id="DejaVuSans-2212" d="M 678 2272 
L 4684 2272 
L 4684 1741 
L 678 1741 
L 678 2272 
z
" transform="scale(0.015625)"/>
        <path id="DejaVuSans-31" d="M 794 531 
L 1825 531 
L 1825 4091 
L 703 3866 
L 703 4441 
L 1819 4666 
L 2450 4666 
L 2450 531 
L 3481 531 
L 3481 0 
L 794 0 
L 794 531 
z
" transform="scale(0.015625)"/>
        <path id="DejaVuSans-2e" d="M 684 794 
L 1344 794 
L 1344 0 
L 684 0 
L 684 794 
z
" transform="scale(0.015625)"/>
        <path id="DejaVuSans-30" d="M 2034 4250 
Q 1547 4250 1301 3770 
Q 1056 3291 1056 2328 
Q 1056 1369 1301 889 
Q 1547 409 2034 409 
Q 2525 409 2770 889 
Q 3016 1369 3016 2328 
Q 3016 3291 2770 3770 
Q 2525 4250 2034 4250 
z
M 2034 4750 
Q 2819 4750 3233 4129 
Q 3647 3509 3647 2328 
Q 3647 1150 3233 529 
Q 2819 -91 2034 -91 
Q 1250 -91 836 529 
Q 422 1150 422 2328 
Q 422 3509 836 4129 
Q 1250 4750 2034 4750 
z
" transform="scale(0.015625)"/>
       </defs>
       <use xlink:href="#DejaVuSans-2212"/>
       <use xlink:href="#DejaVuSans-31" transform="translate(83.789062 0)"/>
       <use xlink:href="#DejaVuSans-2e" transform="translate(147.412109 0)"/>
       <use xlink:href="#DejaVuSans-30" transform="translate(179.199219 0)"/>
      </g>
     </g>
    </g>
    <g id="xtick_2">
     <g id="line2d_3">
      <path d="M 57.6 576 
L 57.6 0 
" clip-path="url(#p02bbcb8f32)" style="fill: none; stroke-dasharray: 1.85,0.8; stroke-dashoffset: 0; stroke: #808080; stroke-width: 0.5"/>
     </g>
     <g id="line2d_4">
      <g>
       <use xlink:href="#m15f6457e5a" x="57.6" y="576" style="stroke: #000000; stroke-width: 0.8"/>
      </g>
     </g>
     <g id="text_2">
      <!-- −0.8 -->
      <g transform="translate(45.458594 590.598438) scale(0.1 -0.1)">
       <defs>
        <path id="DejaVuSans-38" d="M 2034 2216 
Q 1584 2216 1326 1975 
Q 1069 1734 1069 1313 
Q 1069 891 1326 650 
Q 1584 409 2034 409 
Q 2484 409 2743 651 
Q 3003 894 3003 1313 
Q 3003 1734 2745 1975 
Q 2488 2216 2034 2216 
z
M 1403 2484 
Q 997 2584 770 2862 
Q 544 3141 544 3541 
Q 544 4100 942 4425 
Q 1341 4750 2034 4750 
Q 2731 4750 3128 4425 
Q 3525 4100 3525 3541 
Q 3525 3141 3298 2862 
Q 3072 2584 2669 2484 
Q 3125 2378 3379 2068 
Q 3634 1759 3634 1313 
Q 3634 634 3220 271 
Q 2806 -91 2034 -91 
Q 1263 -91 848 271 
Q 434 634 434 1313 
Q 434 1759 690 2068 
Q 947 2378 1403 2484 
z
M 1172 3481 
Q 1172 3119 1398 2916 
Q 1625 2713 2034 2713 
Q 2441 2713 2670 2916 
Q 2900 3119 2900 3481 
Q 2900 3844 2670 4047 
Q 2441 4250 2034 4250 
Q 1625 4250 1398 4047 
Q 1172 3844 1172 3481 
z
" transform="scale(0.015625)"/>
       </defs>
       <use xlink:href="#DejaVuSans-2212"/>
       <use xlink:href="#DejaVuSans-30" transform="translate(83.789062 0)"/>
       <use xlink:href="#DejaVuSans-2e" transform="translate(147.412109 0)"/>
       <use xlink:href="#DejaVuSans-38" transform="translate(179.199219 0)"/>
      </g>
     </g>
    </g>
    <g id="xtick_3">
     <g id="line2d_5">
      <path d="M 115.2 576 
L 115.2 0 
" clip-path="url(#p02bbcb8f32)" style="fill: none; stroke-dasharray: 1.85,0.8; stroke-dashoffset: 0; stroke: #808080; stroke-width: 0.5"/>
     </g>
     <g id="line2d_6">
      <g>
       <use xlink:href="#m15f6457e5a" x="115.2" y="576" style="stroke: #000000; stroke-width: 0.8"/>
      </g>
     </g>
     <g id="text_3">
      <!-- −0.6 -->
      <g transform="translate(103.058594 590.598438) scale(0.1 -0.1)">
       <defs>
        <path id="DejaVuSans-36" d="M 2113 2584 
Q 1688 2584 1439 2293 
Q 1191 2003 1191 1497 
Q 1191 994 1439 701 
Q 1688 409 2113 409 
Q 2538 409 2786 701 
Q 3034 994 3034 1497 
Q 3034 2003 2786 2293 
Q 2538 2584 2113 2584 
z
M 3366 4563 
L 3366 3988 
Q 3128 4100 2886 4159 
Q 2644 4219 2406 4219 
Q 1781 4219 1451 3797 
Q 1122 3375 1075 2522 
Q 1259 2794 1537 2939 
Q 1816 3084 2150 3084 
Q 2853 3084 3261 2657 
Q 3669 2231 3669 1497 
Q 3669 778 3244 343 
Q 2819 -91 2113 -91 
Q 1303 -91 875 529 
Q 447 1150 447 2328 
Q 447 3434 972 4092 
Q 1497 4750 2381 4750 
Q 2619 4750 2861 4703 
Q 3103 4656 3366 4563 
z
" transform="scale(0.015625)"/>
       </defs>
       <use xlink:href="#DejaVuSans-2212"/>
       <use xlink:href="#DejaVuSans-30" transform="translate(83.789062 0)"/>
       <use xlink:href="#DejaVuSans-2e" transform="translate(147.412109 0)"/>
       <use xlink:href="#DejaVuSans-36" transform="translate(179.199219 0)"/>
      </g>
     </g>
    </g>
    <g id="xtick_4">
     <g id="line2d_7">
      <path d="M 172.8 576 
L 172.8 0 
" clip-path="url(#p02bbcb8f32)" style="fill: none; stroke-dasharray: 1.85,0.8; stroke-dashoffset: 0; stroke: #808080; stroke-width: 0.5"/>
     </g>
     <g id="line2d_8">
      <g>
       <use xlink:href="#m15f6457e5a" x="172.8" y="576" style="stroke: #000000; stroke-width: 0.8"/>
      </g>
     </g>
     <g id="text_4">
      <!-- −0.4 -->
      <g transform="translate(160.658594 590.598438) scale(0.1 -0.1)">
       <defs>
        <path id="DejaVuSans-34" d="M 2419 4116 
L 825 1625 
L 2419 1625 
L 2419 4116 
z
M 2253 4666 
L 3047 4666 
L 3047 1625 
L 3713 1625 
L 3713 1100 
L 3047 1100 
L 3047 0 
L 2419 0 
L 2419 1100 
L 313 1100 
L 313 1709 
L 2253 4666 
z
" transform="scale(0.015625)"/>
       </defs>
       <use xlink:href="#DejaVuSans-2212"/>
       <use xlink:href="#DejaVuSans-30" transform="translate(83.789062 0)"/>
       <use xlink:href="#DejaVuSans-2e" transform="translate(147.412109 0)"/>
       <use xlink:href="#DejaVuSans-34" transform="translate(179.199219 0)"/>
      </g>
     </g>
    </g>
    <g id="xtick_5">
     <g id="line2d_9">
      <path d="M 230.4 576 
L 230.4 0 
" clip-path="url(#p02bbcb8f32)" style="fill: none; stroke-dasharray: 1.85,0.8; stroke-dashoffset: 0; stroke: #808080; stroke-width: 0.5"/>
     </g>
     <g id="line2d_10">
      <g>
       <use xlink:href="#m15f6457e5a" x="230.4" y="576" style="stroke: #000000; stroke-width: 0.8"/>
      </g>
     </g>
     <g id="text_5">
      <!-- −0.2 -->
      <g transform="translate(218.258594 590.598438) scale(0.1 -0.1)">
       <defs>
        <path id="DejaVuSans-32" d="M 1228 531 
L 3431 531 
L 3431 0 
L 469 0 
L 469 531 
Q 828 903 1448 1529 
Q 2069 2156 2228 2338 
Q 2531 2678 2651 2914 
Q 2772 3150 2772 3378 
Q 2772 3750 2511 3984 
Q 2250 4219 1831 4219 
Q 1534 4219 1204 4116 
Q 875 4013 500 3803 
L 500 4441 
Q 881 4594 1212 4672 
Q 1544 4750 1819 4750 
Q 2544 4750 2975 4387 
Q 3406 4025 3406 3419 
Q 3406 3131 3298 2873 
Q 3191 2616 2906 2266 
Q 2828 2175 2409 1742 
Q 1991 1309 1228 531 
z
" transform="scale(0.015625)"/>
       </defs>
       <use xlink:href="#DejaVuSans-2212"/>
       <use xlink:href="#DejaVuSans-30" transform="translate(83.789062 0)"/>
       <use xlink:href="#DejaVuSans-2e" transform="translate(147.412109 0)"/>
       <use xlink:href="#DejaVuSans-32" transform="translate(179.199219 0)"/>
      </g>
     </g>
    </g>
    <g id="xtick_6">
     <g id="line2d_11">
      <path d="M 288 576 
L 288 0 
" clip-path="url(#p02bbcb8f32)" style="fill: none; stroke-dasharray: 1.85,0.8; stroke-dashoffset: 0; stroke: #808080; stroke-width: 0.5"/>
     </g>
     <g id="line2d_12">
      <g>
       <use xlink:href="#m15f6457e5a" x="288" y="576" style="stroke: #000000; stroke-width: 0.8"/>
      </g>
     </g>
     <g id="text_6">
      <!-- 0.0 -->
      <g transform="translate(280.048437 590.598438) scale(0.1 -0.1)">
       <use xlink:href="#DejaVuSans-30"/>
       <use xlink:href="#DejaVuSans-2e" transform="translate(63.623047 0)"/>
       <use xlink:href="#DejaVuSans-30" transform="translate(95.410156 0)"/>
      </g>
     </g>
    </g>
    <g id="xtick_7">
     <g id="line2d_13">
      <path d="M 345.6 576 
L 345.6 0 
" clip-path="url(#p02bbcb8f32)" style="fill: none; stroke-dasharray: 1.85,0.8; stroke-dashoffset: 0; stroke: #808080; stroke-width: 0.5"/>
     </g>
     <g id="line2d_14">
      <g>
       <use xlink:href="#m15f6457e5a" x="345.6" y="576" style="stroke: #000000; stroke-width: 0.8"/>
      </g>
     </g>
     <g id="text_7">
      <!-- 0.2 -->
      <g transform="translate(337.648437 590.598438) scale(0.1 -0.1)">
       <use xlink:href="#DejaVuSans-30"/>
       <use xlink:href="#DejaVuSans-2e" transform="translate(63.623047 0)"/>
       <use xlink:href="#DejaVuSans-32" transform="translate(95.410156 0)"/>
      </g>
     </g>
    </g>
    <g id="xtick_8">
     <g id="line2d_15">
      <path d="M 403.2 576 
L 403.2 0 
" clip-path="url(#p02bbcb8f32)" style="fill: none; stroke-dasharray: 1.85,0.8; stroke-dashoffset: 0; stroke: #808080; stroke-width: 0.5"/>
     </g>
     <g id="line2d_16">
      <g>
       <use xlink:href="#m15f6457e5a" x="403.2" y="576" style="stroke: #000000; stroke-width: 0.8"/>
      </g>
     </g>
     <g id="text_8">
      <!-- 0.4 -->
      <g transform="translate(395.248437 590.598438) scale(0.1 -0.1)">
       <use xlink:href="#DejaVuSans-30"/>
       <use xlink:href="#DejaVuSans-2e" transform="translate(63.623047 0)"/>
       <use xlink:href="#DejaVuSans-34" transform="translate(95.410156 0)"/>
      </g>
     </g>
    </g>
    <g id="xtick_9">
     <g id="line2d_17">
      <path d="M 460.8 576 
L 460.8 0 
" clip-path="url(#p02bbcb8f32)" style="fill: none; stroke-dasharray: 1.85,0.8; stroke-dashoffset: 0; stroke: #808080; stroke-width: 0.5"/>
     </g>
     <g id="line2d_18">
      <g>
       <use xlink:href="#m15f6457e5a" x="460.8" y="576" style="stroke: #000000; stroke-width: 0.8"/>
      </g>
     </g>
     <g id="text_9">
      <!-- 0.6 -->
      <g transform="translate(452.848437 590.598438) scale(0.1 -0.1)">
       <use xlink:href="#DejaVuSans-30"/>
       <use xlink:href="#DejaVuSans-2e" transform="translate(63.623047 0)"/>
       <use xlink:href="#DejaVuSans-36" transform="translate(95.410156 0)"/>
      </g>
     </g>
    </g>
    <g id="xtick_10">
     <g id="line2d_19">
      <path d="M 518.4 576 
L 518.4 0 
" clip-path="url(#p02bbcb8f32)" style="fill: none; stroke-dasharray: 1.85,0.8; stroke-dashoffset: 0; stroke: #808080; stroke-width: 0.5"/>
     </g>
     <g id="line2d_20">
      <g>
       <use xlink:href="#m15f6457e5a" x="518.4" y="576" style="stroke: #000000; stroke-width: 0.8"/>
      </g>
     </g>
     <g id="text_10">
      <!-- 0.8 -->
      <g transform="translate(510.448437 590.598438) scale(0.1 -0.1)">
       <use xlink:href="#DejaVuSans-30"/>
       <use xlink:href="#DejaVuSans-2e" transform="translate(63.623047 0)"/>
       <use xlink:href="#DejaVuSans-38" transform="translate(95.410156 0)"/>
      </g>
     </g>
    </g>
    <g id="xtick_11">
     <g id="line2d_21">
      <path d="M 576 576 
L 576 0 
" clip-path="url(#p02bbcb8f32)" style="fill: none; stroke-dasharray: 1.85,0.8; stroke-dashoffset: 0; stroke: #808080; stroke-width: 0.5"/>
     </g>
     <g id="line2d_22">
      <g>
       <use xlink:href="#m15f6457e5a" x="576" y="576" style="stroke: #000000; stroke-width: 0.8"/>
      </g>
     </g>
     <g id="text_11">
      <!-- 1.0 -->
      <g transform="translate(568.048437 590.598438) scale(0.1 -0.1)">
       <use xlink:href="#DejaVuSans-31"/>
       <use xlink:href="#DejaVuSans-2e" transform="translate(63.623047 0)"/>
       <use xlink:href="#DejaVuSans-30" transform="translate(95.410156 0)"/>
      </g>
     </g>
    </g>
   </g>
   <g id="matplotlib.axis_2">
    <g id="ytick_1">
     <g id="line2d_23">
      <path d="M 0 576 
L 576 576 
" clip-path="url(#p02bbcb8f32)" style="fill: none; stroke-dasharray: 1.85,0.8; stroke-dashoffset: 0; stroke: #808080; stroke-width: 0.5"/>
     </g>
     <g id="line2d_24">
      <defs>
       <path id="mf35ee1e1de" d="M 0 0 
L -3.5 0 
" style="stroke: #000000; stroke-width: 0.8"/>
      </defs>
      <g>
       <use xlink:href="#mf35ee1e1de" x="0" y="576" style="stroke: #000000; stroke-width: 0.8"/>
      </g>
     </g>
     <g id="text_12">
      <!-- −1.0 -->
      <g transform="translate(-31.282813 579.799219) scale(0.1 -0.1)">
       <use xlink:href="#DejaVuSans-2212"/>
       <use xlink:href="#DejaVuSans-31" transform="translate(83.789062 0)"/>
       <use xlink:href="#DejaVuSans-2e" transform="translate(147.412109 0)"/>
       <use xlink:href="#DejaVuSans-30" transform="translate(179.199219 0)"/>
      </g>
     </g>
    </g>
    <g id="ytick_2">
     <g id="line2d_25">
      <path d="M 0 518.4 
L 576 518.4 
" clip-path="url(#p02bbcb8f32)" style="fill: none; stroke-dasharray: 1.85,0.8; stroke-dashoffset: 0; stroke: #808080; stroke-width: 0.5"/>
     </g>
     <g id="line2d_26">
      <g>
       <use xlink:href="#mf35ee1e1de" x="0" y="518.4" style="stroke: #000000; stroke-width: 0.8"/>
      </g>
     </g>
     <g id="text_13">
      <!-- −0.8 -->
      <g transform="translate(-31.282813 522.199219) scale(0.1 -0.1)">
       <use xlink:href="#DejaVuSans-2212"/>
       <use xlink:href="#DejaVuSans-30" transform="translate(83.789062 0)"/>
       <use xlink:href="#DejaVuSans-2e" transform="translate(147.412109 0)"/>
       <use xlink:href="#DejaVuSans-38" transform="translate(179.199219 0)"/>
      </g>
     </g>
    </g>
    <g id="ytick_3">
     <g id="line2d_27">
      <path d="M 0 460.8 
L 576 460.8 
" clip-path="url(#p02bbcb8f32)" style="fill: none; stroke-dasharray: 1.85,0.8; stroke-dashoffset: 0; stroke: #808080; stroke-width: 0.5"/>
     </g>
     <g id="line2d_28">
      <g>
       <use xlink:href="#mf35ee1e1de" x="0" y="460.8" style="stroke: #000000; stroke-width: 0.8"/>
      </g>
     </g>
     <g id="text_14">
      <!-- −0.6 -->
      <g transform="translate(-31.282813 464.599219) scale(0.1 -0.1)">
       <use xlink:href="#DejaVuSans-2212"/>
       <use xlink:href="#DejaVuSans-30" transform="translate(83.789062 0)"/>
       <use xlink:href="#DejaVuSans-2e" transform="translate(147.412109 0)"/>
       <use xlink:href="#DejaVuSans-36" transform="translate(179.199219 0)"/>
      </g>
     </g>
    </g>
    <g id="ytick_4">
     <g id="line2d_29">
      <path d="M 0 403.2 
L 576 403.2 
" clip-path="url(#p02bbcb8f32)" style="fill: none; stroke-dasharray: 1.85,0.8; stroke-dashoffset: 0; stroke: #808080; stroke-width: 0.5"/>
     </g>
     <g id="line2d_30">
      <g>
       <use xlink:href="#mf35ee1e1de" x="0" y="403.2" style="stroke: #000000; stroke-width: 0.8"/>
      </g>
     </g>
     <g id="text_15">
      <!-- −0.4 -->
      <g transform="translate(-31.282813 406.999219) scale(0.1 -0.1)">
       <use xlink:href="#DejaVuSans-2212"/>
       <use xlink:href="#DejaVuSans-30" transform="translate(83.789062 0)"/>
       <use xlink:href="#DejaVuSans-2e" transform="translate(147.412109 0)"/>
       <use xlink:href="#DejaVuSans-34" transform="translate(179.199219 0)"/>
      </g>
     </g>
    </g>
    <g id="ytick_5">
     <g id="line2d_31">
      <path d="M 0 345.6 
L 576 345.6 
" clip-path="url(#p02bbcb8f32)" style="fill: none; stroke-dasharray: 1.85,0.8; stroke-dashoffset: 0; stroke: #808080; stroke-width: 0.5"/>
     </g>
     <g id="line2d_32">
      <g>
       <use xlink:href="#mf35ee1e1de" x="0" y="345.6" style="stroke: #000000; stroke-width: 0.8"/>
      </g>
     </g>
     <g id="text_16">
      <!-- −0.2 -->
      <g transform="translate(-31.282813 349.399219) scale(0.1 -0.1)">
       <use xlink:href="#DejaVuSans-2212"/>
       <use xlink:href="#DejaVuSans-30" transform="translate(83.789062 0)"/>
       <use xlink:href="#DejaVuSans-2e" transform="translate(147.412109 0)"/>
       <use xlink:href="#DejaVuSans-32" transform="translate(179.199219 0)"/>
      </g>
     </g>
    </g>
    <g id="ytick_6">
     <g id="line2d_33">
      <path d="M 0 288 
L 576 288 
" clip-path="url(#p02bbcb8f32)" style="fill: none; stroke-dasharray: 1.85,0.8; stroke-dashoffset: 0; stroke: #808080; stroke-width: 0.5"/>
     </g>
     <g id="line2d_34">
      <g>
       <use xlink:href="#mf35ee1e1de" x="0" y="288" style="stroke: #000000; stroke-width: 0.8"/>
      </g>
     </g>
     <g id="text_17">
      <!-- 0.0 -->
      <g transform="translate(-22.903125 291.799219) scale(0.1 -0.1)">
       <use xlink:href="#DejaVuSans-30"/>
       <use xlink:href="#DejaVuSans-2e" transform="translate(63.623047 0)"/>
       <use xlink:href="#DejaVuSans-30" transform="translate(95.410156 0)"/>
      </g>
     </g>
    </g>
    <g id="ytick_7">
     <g id="line2d_35">
      <path d="M 0 230.4 
L 576 230.4 
" clip-path="url(#p02bbcb8f32)" style="fill: none; stroke-dasharray: 1.85,0.8; stroke-dashoffset: 0; stroke: #808080; stroke-width: 0.5"/>
     </g>
     <g id="line2d_36">
      <g>
       <use xlink:href="#mf35ee1e1de" x="0" y="230.4" style="stroke: #000000; stroke-width: 0.8"/>
      </g>
     </g>
     <g id="text_18">
      <!-- 0.2 -->
      <g transform="translate(-22.903125 234.199219) scale(0.1 -0.1)">
       <use xlink:href="#DejaVuSans-30"/>
       <use xlink:href="#DejaVuSans-2e" transform="translate(63.623047 0)"/>
       <use xlink:href="#DejaVuSans-32" transform="translate(95.410156 0)"/>
      </g>
     </g>
    </g>
    <g id="ytick_8">
     <g id="line2d_37">
      <path d="M 0 172.8 
L 576 172.8 
" clip-path="url(#p02bbcb8f32)" style="fill: none; stroke-dasharray: 1.85,0.8; stroke-dashoffset: 0; stroke: #808080; stroke-width: 0.5"/>
     </g>
     <g id="line2d_38">
      <g>
       <use xlink:href="#mf35ee1e1de" x="0" y="172.8" style="stroke: #000000; stroke-width: 0.8"/>
      </g>
     </g>
     <g id="text_19">
      <!-- 0.4 -->
      <g transform="translate(-22.903125 176.599219) scale(0.1 -0.1)">
       <use xlink:href="#DejaVuSans-30"/>
       <use xlink:href="#DejaVuSans-2e" transform="translate(63.623047 0)"/>
       <use xlink:href="#DejaVuSans-34" transform="translate(95.410156 0)"/>
      </g>
     </g>
    </g>
    <g id="ytick_9">
     <g id="line2d_39">
      <path d="M 0 115.2 
L 576 115.2 
" clip-path="url(#p02bbcb8f32)" style="fill: none; stroke-dasharray: 1.85,0.8; stroke-dashoffset: 0; stroke: #808080; stroke-width: 0.5"/>
     </g>
     <g id="line2d_40">
      <g>
       <use xlink:href="#mf35ee1e1de" x="0" y="115.2" style="stroke: #000000; stroke-width: 0.8"/>
      </g>
     </g>
     <g id="text_20">
      <!-- 0.6 -->
      <g transform="translate(-22.903125 118.999219) scale(0.1 -0.1)">
       <use xlink:href="#DejaVuSans-30"/>
       <use xlink:href="#DejaVuSans-2e" transform="translate(63.623047 0)"/>
       <use xlink:href="#DejaVuSans-36" transform="translate(95.410156 0)"/>
      </g>
     </g>
    </g>
    <g id="ytick_10">
     <g id="line2d_41">
      <path d="M 0 57.6 
L 576 57.6 
" clip-path="url(#p02bbcb8f32)" style="fill: none; stroke-dasharray: 1.85,0.8; stroke-dashoffset: 0; stroke: #808080; stroke-width: 0.5"/>
     </g>
     <g id="line2d_42">
      <g>
       <use xlink:href="#mf35ee1e1de" x="0" y="57.6" style="stroke: #000000; stroke-width: 0.8"/>
      </g>
     </g>
     <g id="text_21">
      <!-- 0.8 -->
      <g transform="translate(-22.903125 61.399219) scale(0.1 -0.1)">
       <use xlink:href="#DejaVuSans-30"/>
       <use xlink:href="#DejaVuSans-2e" transform="translate(63.623047 0)"/>
       <use xlink:href="#DejaVuSans-38" transform="translate(95.410156 0)"/>
      </g>
     </g>
    </g>
    <g id="ytick_11">
     <g id="line2d_43">
      <path d="M 0 0 
L 576 0 
" clip-path="url(#p02bbcb8f32)" style="fill: none; stroke-dasharray: 1.85,0.8; stroke-dashoffset: 0; stroke: #808080; stroke-width: 0.5"/>
     </g>
     <g id="line2d_44">
      <g>
       <use xlink:href="#mf35ee1e1de" x="0" y="0" style="stroke: #000000; stroke-width: 0.8"/>
      </g>
     </g>
     <g id="text_22">
      <!-- 1.0 -->
      <g transform="translate(-22.903125 3.799219) scale(0.1 -0.1)">
       <use xlink:href="#DejaVuSans-31"/>
       <use xlink:href="#DejaVuSans-2e" transform="translate(63.623047 0)"/>
       <use xlink:href="#DejaVuSans-30" transform="translate(95.410156 0)"/>
      </g>
     </g>
    </g>
   </g>
   <g id="patch_3">
    <path d="M 0 576 
L 0 0 
" style="fill: none; stroke: #000000; stroke-width: 0.8; stroke-linejoin: miter; stroke-linecap: square"/>
   </g>
   <g id="patch_4">
    <path d="M 576 576 
L 576 0 
" style="fill: none; stroke: #000000; stroke-width: 0.8; stroke-linejoin: miter; stroke-linecap: square"/>
   </g>
   <g id="patch_5">
    <path d="M 0 576 
L 576 576 
" style="fill: none; stroke: #000000; stroke-width: 0.8; stroke-linejoin: miter; stroke-linecap: square"/>
   </g>
   <g id="patch_6">
    <path d="M 0 0 
L 576 0 
" style="fill: none; stroke: #000000; stroke-width: 0.8; stroke-linejoin: miter; stroke-linecap: square"/>
   </g>
  </g>
 </g>
 <defs>
  <clipPath id="p02bbcb8f32">
   <rect x="0" y="0" width="576" height="576"/>
  </clipPath>
 </defs>
</svg>
